<svg width="16" height="16" viewBox="0 0 16 16" fill="none" xmlns="http://www.w3.org/2000/svg">
<g clip-path="url(#clip0_642_75)">
<rect width="16" height="16" rx="2" fill="#0B2440"/>
<path d="M7.8267 13.1136C7.37216 13.1136 6.97088 12.9988 6.62287 12.7692C6.27486 12.5372 6.0026 12.2105 5.80611 11.7891C5.60961 11.3653 5.51136 10.8646 5.51136 10.2869C5.51136 9.71402 5.60961 9.21686 5.80611 8.79545C6.0026 8.37405 6.27604 8.04853 6.62642 7.81889C6.9768 7.58925 7.38163 7.47443 7.84091 7.47443C8.19602 7.47443 8.47656 7.53362 8.68253 7.65199C8.89086 7.76799 9.04948 7.90057 9.15838 8.04972C9.26965 8.1965 9.35606 8.31723 9.41761 8.41193H9.48864V5.72727H10.3267V13H9.51705V12.1619H9.41761C9.35606 12.2614 9.26847 12.3868 9.15483 12.5384C9.04119 12.6875 8.87902 12.8213 8.66832 12.9396C8.45762 13.0556 8.17708 13.1136 7.8267 13.1136ZM7.94034 12.3608C8.27652 12.3608 8.56061 12.2732 8.79261 12.098C9.02462 11.9205 9.20099 11.6754 9.32173 11.3629C9.44247 11.0481 9.50284 10.6847 9.50284 10.2727C9.50284 9.86553 9.44366 9.50923 9.32528 9.20384C9.20691 8.89607 9.03172 8.65696 8.79972 8.48651C8.56771 8.31368 8.28125 8.22727 7.94034 8.22727C7.58523 8.22727 7.2893 8.31842 7.05256 8.50071C6.81818 8.68063 6.64181 8.92566 6.52344 9.2358C6.40743 9.54356 6.34943 9.8892 6.34943 10.2727C6.34943 10.661 6.40862 11.0137 6.52699 11.331C6.64773 11.6458 6.82528 11.8968 7.05966 12.0838C7.2964 12.2685 7.58996 12.3608 7.94034 12.3608Z" fill="white"/>
<path d="M6.60511 5.71875V9H5.76705V3.54545H6.5767V4.39773H6.64773C6.77557 4.12074 6.9697 3.8982 7.23011 3.73011C7.49053 3.55966 7.8267 3.47443 8.23864 3.47443C8.60795 3.47443 8.93111 3.55019 9.2081 3.7017C9.48509 3.85085 9.70052 4.07812 9.8544 4.38352C10.0083 4.68655 10.0852 5.07008 10.0852 5.53409V9H9.24716V5.59091C9.24716 5.16241 9.13589 4.8286 8.91335 4.58949C8.69081 4.34801 8.38542 4.22727 7.99716 4.22727C7.72964 4.22727 7.49053 4.28527 7.27983 4.40128C7.0715 4.51728 6.90696 4.68655 6.78622 4.90909C6.66548 5.13163 6.60511 5.40152 6.60511 5.71875Z" fill="white"/>
</g>
<defs>
<clipPath id="clip0_642_75">
<rect width="16" height="16" rx="2" fill="white"/>
</clipPath>
</defs>
</svg>
