<svg width="1440" height="504" viewBox="0 0 1440 504" fill="none" xmlns="http://www.w3.org/2000/svg">
<g clip-path="url(#clip0_355_1193)">
<mask id="path-1-inside-1_355_1193" fill="white">
<path d="M0 0H1440V504H0V0Z"/>
</mask>
<path d="M4.96655 -486V1087.5" stroke="#263849" stroke-width="0.8"/>
<path d="M54.9666 -486V1087.5" stroke="#263849" stroke-width="0.8"/>
<path d="M104.967 -486V1087.5" stroke="#263849" stroke-width="0.8"/>
<path d="M154.967 -486V1087.5" stroke="#263849" stroke-width="0.8"/>
<path d="M204.967 -486V1087.5" stroke="#263849" stroke-width="0.8"/>
<path d="M254.967 -486V1087.5" stroke="#263849" stroke-width="0.8"/>
<path d="M304.967 -486V1087.5" stroke="#263849" stroke-width="0.8"/>
<path d="M354.967 -486V1087.5" stroke="#263849" stroke-width="0.8"/>
<path d="M404.967 -486V1087.5" stroke="#263849" stroke-width="0.8"/>
<path d="M454.967 -486V1087.5" stroke="#263849" stroke-width="0.8"/>
<path d="M504.967 -486V1087.5" stroke="#263849" stroke-width="0.8"/>
<path d="M554.967 -486V1087.5" stroke="#263849" stroke-width="0.8"/>
<path d="M604.967 -486V1087.5" stroke="#263849" stroke-width="0.8"/>
<path d="M654.967 -486V1087.5" stroke="#263849" stroke-width="0.8"/>
<path d="M704.967 -486V1087.5" stroke="#263849" stroke-width="0.8"/>
<path d="M754.967 -486V1087.5" stroke="#263849" stroke-width="0.8"/>
<path d="M804.967 -486V1087.5" stroke="#263849" stroke-width="0.8"/>
<path d="M854.967 -486V1087.5" stroke="#263849" stroke-width="0.8"/>
<path d="M904.967 -486V1087.5" stroke="#263849" stroke-width="0.8"/>
<path d="M954.967 -486V1087.5" stroke="#263849" stroke-width="0.8"/>
<path d="M1004.97 -486V1087.5" stroke="#263849" stroke-width="0.8"/>
<path d="M1054.97 -486V1087.5" stroke="#263849" stroke-width="0.8"/>
<path d="M1104.97 -486V1087.5" stroke="#263849" stroke-width="0.8"/>
<path d="M1154.97 -486V1087.5" stroke="#263849" stroke-width="0.8"/>
<path d="M1204.97 -486V1087.5" stroke="#263849" stroke-width="0.8"/>
<path d="M1254.97 -486V1087.5" stroke="#263849" stroke-width="0.8"/>
<path d="M1304.97 -486V1087.5" stroke="#263849" stroke-width="0.8"/>
<path d="M1354.97 -486V1087.5" stroke="#263849" stroke-width="0.8"/>
<path d="M1404.97 -486V1087.5" stroke="#263849" stroke-width="0.8"/>
<path d="M1730.31 26H-475.687" stroke="#263849" stroke-width="0.8"/>
<path d="M1730.31 76H-475.687" stroke="#263849" stroke-width="0.8"/>
<path d="M1730.31 126H-475.687" stroke="#263849" stroke-width="0.8"/>
<path d="M1730.31 176H-475.687" stroke="#263849" stroke-width="0.8"/>
<path d="M1730.31 226H-475.687" stroke="#263849" stroke-width="0.8"/>
<path d="M1730.31 276H-475.687" stroke="#263849" stroke-width="0.8"/>
<path d="M1730.31 326H-475.687" stroke="#263849" stroke-width="0.8"/>
<path d="M1730.31 376H-475.687" stroke="#263849" stroke-width="0.8"/>
<path d="M1730.31 426H-475.687" stroke="#263849" stroke-width="0.8"/>
<path d="M1730.31 476H-475.687" stroke="#263849" stroke-width="0.8"/>
<rect width="1445" height="376" fill="url(#paint0_linear_355_1193)"/>
</g>
<path d="M1440 503H0V505H1440V503Z" fill="url(#paint1_linear_355_1193)" mask="url(#path-1-inside-1_355_1193)"/>
<defs>
<linearGradient id="paint0_linear_355_1193" x1="616.132" y1="20.8889" x2="603.731" y2="375.777" gradientUnits="userSpaceOnUse">
<stop stop-color="#061128"/>
<stop offset="1" stop-color="#061128" stop-opacity="0"/>
</linearGradient>
<linearGradient id="paint1_linear_355_1193" x1="294.046" y1="419.779" x2="736.771" y2="451.615" gradientUnits="userSpaceOnUse">
<stop stop-color="#293548"/>
<stop offset="1" stop-color="#293548" stop-opacity="0.6"/>
</linearGradient>
<clipPath id="clip0_355_1193">
<path d="M0 0H1440V504H0V0Z" fill="white"/>
</clipPath>
</defs>
</svg>
