<svg width="821" height="69" viewBox="0 0 821 69" fill="none" xmlns="http://www.w3.org/2000/svg">
<rect x="0.725503" y="30.6665" width="206.238" height="38.5" rx="4.25" transform="rotate(-5.93176 0.725503 30.6665)" fill="#D9D9D9" fill-opacity="0.15" stroke="url(#paint0_linear_528_554)" stroke-width="0.5"/>
<g clip-path="url(#clip0_528_554)">
<path d="M24.2795 52.5471L21.1202 53.6685C20.8952 53.7484 20.6427 53.6483 20.5591 53.4461C20.4756 53.2439 20.5914 53.0131 20.8164 52.9332L23.9757 51.8118C24.2008 51.7319 24.4532 51.8319 24.5368 52.0341C24.6204 52.2364 24.5045 52.4672 24.2795 52.5471ZM21.8439 43.7027C21.8519 44.0628 21.6494 44.2872 21.3019 44.3182C20.9559 44.349 20.6823 44.1612 20.6568 43.8346C20.6319 43.5167 20.8302 43.2857 21.2047 43.2505C21.5789 43.2153 21.785 43.3957 21.8439 43.7027ZM25.8736 42.0679C24.3844 40.2775 21.7338 39.6079 19.4266 40.4807C17.4076 41.2446 16.1827 42.624 15.8884 44.5803C15.5972 46.5166 16.3721 48.0755 18.0478 49.2743C18.4409 49.5555 18.8119 49.907 19.0575 50.2976C19.3038 50.6892 19.3824 50.8115 19.8666 50.6517C20.5391 50.4297 21.1988 50.1743 21.8711 49.9518C22.2157 49.8378 22.3312 49.6459 22.2955 49.3248C22.1513 48.029 22.0198 46.7318 21.8902 45.4345C21.8609 45.1408 21.7337 44.9097 21.3834 44.9387C21.0289 44.9681 20.9448 45.2129 20.9789 45.5119C21.0744 46.3518 21.1561 47.1932 21.2434 48.034C21.3839 49.3866 21.3839 49.3866 19.9325 49.7338C19.3128 49.2126 18.7492 48.7448 18.1932 48.2697C16.1974 46.5648 16.2358 43.7339 18.3309 42.0521C19.836 40.8438 21.563 40.6058 23.3821 41.305C25.0712 41.9542 26.1187 43.5445 26.0563 45.1946C26.0146 46.297 25.5307 47.2237 24.7568 48.0576C24.2898 48.5608 23.8719 49.0938 23.771 49.7618C23.7237 50.0742 23.5507 50.2447 23.2321 50.3512C23.2877 50.2937 19.8056 51.5708 19.8056 51.5708C19.5851 51.6491 19.4716 51.8753 19.5535 52.0734L19.5661 52.104C19.648 52.3022 19.8954 52.4002 20.1159 52.322C20.1159 52.322 24.1157 50.8992 24.1681 50.8798C24.5382 50.7455 24.7196 50.4796 24.692 50.1298C24.6509 49.6075 24.8592 49.176 25.2308 48.7876C25.4298 48.5796 25.6276 48.3701 25.8125 48.152C27.3385 46.3514 27.3621 43.8576 25.8736 42.0679Z" fill="#FBFBFB"/>
</g>
<path d="M54.2692 51.6353C52.9828 51.769 51.7648 51.5939 50.6153 51.1101C49.4777 50.6117 48.5349 49.8584 47.7867 48.8503C47.0504 47.8276 46.6119 46.6399 46.4714 45.2872C46.3308 43.9345 46.5164 42.6886 47.0281 41.5496C47.5531 40.4093 48.3217 39.4849 49.3339 38.7765C50.358 38.0535 51.5132 37.6251 52.7996 37.4915C54.0993 37.3564 55.3179 37.5381 56.4555 38.0366C57.605 38.5204 58.5472 39.267 59.2822 40.2764C60.0171 41.2859 60.4548 42.467 60.5954 43.8197C60.7359 45.1724 60.551 46.4249 60.0407 47.5771C59.529 48.7161 58.7611 49.6471 57.737 50.3702C56.7248 51.0786 55.5689 51.5003 54.2692 51.6353ZM54.0646 49.6659C54.9796 49.5708 55.7739 49.2805 56.4473 48.795C57.1194 48.2962 57.6144 47.6416 57.9323 46.831C58.2621 46.0059 58.374 45.0827 58.2679 44.0615C58.1618 43.0404 57.8632 42.1665 57.3722 41.4401C56.8944 40.7122 56.2761 40.1799 55.5172 39.8432C54.7584 39.5065 53.9214 39.3857 53.0063 39.4808C52.0913 39.5758 51.297 39.8661 50.6236 40.3517C49.9501 40.8372 49.4478 41.4859 49.1166 42.2978C48.7987 43.1083 48.6928 44.0242 48.7989 45.0454C48.905 46.0665 49.1976 46.9477 49.6768 47.6888C50.1678 48.4153 50.7934 48.9535 51.5537 49.3035C52.3125 49.6402 53.1495 49.761 54.0646 49.6659ZM67.5747 48.0611L69.7499 38.8068L72.157 38.5567L69.1183 49.9517L66.4129 50.2328L61.1164 39.7038L63.5433 39.4517L67.5747 48.0611ZM84.4586 42.5468C84.5013 42.9579 84.5134 43.332 84.4948 43.669L76.1199 44.5392C76.2771 45.4076 76.6751 46.0767 77.3137 46.5466C77.9524 47.0164 78.6961 47.2072 79.5448 47.1191C80.7649 46.9923 81.5739 46.3921 81.9718 45.3186L84.4186 45.0644C84.1918 46.1067 83.6745 46.9983 82.8667 47.7391C82.0708 48.4652 81.0297 48.8951 79.7432 49.0288C78.6956 49.1376 77.7298 49.0034 76.8461 48.626C75.9743 48.234 75.2555 47.6384 74.6899 46.8393C74.1362 46.0255 73.8008 45.055 73.6836 43.9277C73.5665 42.8004 73.6893 41.789 74.052 40.8934C74.4266 39.9831 75.0009 39.2532 75.775 38.7036C76.5622 38.1526 77.493 37.8213 78.5672 37.7097C79.6016 37.6022 80.5468 37.7319 81.4026 38.0988C82.2584 38.4656 82.9545 39.0367 83.4908 39.8121C84.0258 40.5743 84.3484 41.4858 84.4586 42.5468ZM82.017 42.0766C81.9169 41.2425 81.5489 40.6037 80.913 40.1604C80.2771 39.7171 79.5282 39.5402 78.6661 39.6298C77.8837 39.7111 77.2401 40.0326 76.7355 40.5944C76.2295 41.143 75.9675 41.8472 75.9496 42.707L82.017 42.0766ZM88.582 38.4588C88.8556 37.8673 89.2485 37.3908 89.7606 37.0293C90.2845 36.6531 90.9244 36.4258 91.6804 36.3472L91.9242 38.6946L91.3473 38.7545C90.4588 38.8469 89.8059 39.1426 89.3885 39.6417C88.9845 40.1395 88.8403 40.9454 88.9561 42.0594L89.5555 47.8283L87.2877 48.0639L86.1488 37.1029L88.4166 36.8673L88.582 38.4588ZM98.9487 44.8014L101.124 35.547L103.531 35.2969L100.492 46.692L97.7869 46.9731L92.4905 36.444L94.9174 36.1919L98.9487 44.8014ZM106.248 33.5468C105.837 33.5895 105.478 33.486 105.17 33.2365C104.863 32.9869 104.688 32.6566 104.645 32.2455C104.602 31.8343 104.706 31.4751 104.955 31.1676C105.205 30.8602 105.535 30.6851 105.946 30.6424C106.344 30.6011 106.697 30.7052 107.004 30.9547C107.312 31.2043 107.487 31.5346 107.53 31.9458C107.572 32.3569 107.469 32.7162 107.219 33.0236C106.97 33.331 106.646 33.5054 106.248 33.5468ZM107.513 34.8832L108.652 45.8442L106.384 46.0798L105.245 35.1188L107.513 34.8832ZM121.078 38.742C121.121 39.1531 121.133 39.5272 121.114 39.8643L112.739 40.7344C112.896 41.6028 113.294 42.272 113.933 42.7418C114.572 43.2117 115.315 43.4025 116.164 43.3143C117.384 43.1875 118.193 42.5874 118.591 41.5139L121.038 41.2596C120.811 42.302 120.294 43.1936 119.486 43.9343C118.69 44.6605 117.649 45.0904 116.363 45.224C115.315 45.3329 114.349 45.1986 113.465 44.8213C112.594 44.4293 111.875 43.8337 111.309 43.0345C110.755 42.2207 110.42 41.2502 110.303 40.1229C110.186 38.9957 110.309 37.9842 110.671 37.0886C111.046 36.1784 111.62 35.4484 112.394 34.8988C113.182 34.3479 114.112 34.0166 115.186 33.905C116.221 33.7975 117.166 33.9272 118.022 34.294C118.878 34.6609 119.574 35.232 120.11 36.0074C120.645 36.7695 120.968 37.6811 121.078 38.742ZM118.636 38.2718C118.536 37.4377 118.168 36.799 117.532 36.3556C116.896 35.9123 116.147 35.7354 115.285 35.825C114.503 35.9063 113.859 36.2279 113.355 36.7897C112.849 37.3383 112.587 38.0424 112.569 38.9022L118.636 38.2718ZM137.489 31.7687L135.226 43.0831L132.839 43.3312L129.79 35.4642L128.423 43.79L126.036 44.038L121.475 33.4325L123.783 33.1928L126.986 41.7676L128.398 32.7133L130.765 32.4673L133.905 41.0086L135.261 32.0002L137.489 31.7687Z" fill="#FBFBFB"/>
<rect x="7.22656" y="37.28" width="26.5574" height="24" rx="4" transform="rotate(-5.93176 7.22656 37.28)" fill="#D9D9D9" fill-opacity="0.05"/>
<rect x="248.185" y="2.40859" width="201.5" height="38.5" rx="4.25" transform="rotate(8.1155 248.185 2.40859)" fill="#D9D9D9" fill-opacity="0.15" stroke="url(#paint1_linear_528_554)" stroke-width="0.5"/>
<g clip-path="url(#clip1_528_554)">
<path d="M265.723 29.352L262.386 29.6731C262.149 29.6959 261.928 29.5376 261.896 29.3211C261.864 29.1047 262.032 28.9089 262.27 28.886L265.607 28.5649C265.845 28.542 266.066 28.7004 266.098 28.9168C266.13 29.1333 265.961 29.3291 265.723 29.352ZM265.507 20.1809C265.428 20.5322 265.177 20.7007 264.832 20.6464C264.489 20.5924 264.269 20.3438 264.324 20.0207C264.377 19.7063 264.625 19.5303 264.997 19.5871C265.369 19.6438 265.525 19.8688 265.507 20.1809ZM269.813 19.573C268.803 17.4748 266.394 16.1818 263.944 16.4686C261.8 16.7195 260.277 17.7604 259.517 19.5867C258.764 21.3944 259.138 23.0948 260.472 24.6645C260.785 25.0327 261.06 25.4637 261.204 25.9023C261.347 26.342 261.394 26.4797 261.903 26.4421C262.609 26.39 263.311 26.3024 264.017 26.2498C264.379 26.2227 264.538 26.0646 264.581 25.7445C264.756 24.4525 264.943 23.1622 265.132 21.8722C265.175 21.5802 265.107 21.3251 264.761 21.2682C264.41 21.2106 264.269 21.4277 264.229 21.726C264.118 22.564 263.993 23.4001 263.874 24.2369C263.682 25.5831 263.682 25.5831 262.189 25.5677C261.715 24.9117 261.281 24.3211 260.857 23.7252C259.335 21.5869 260.059 18.85 262.5 17.727C264.253 16.9201 265.987 17.1085 267.582 18.2283C269.063 19.2681 269.693 21.065 269.232 22.6506C268.924 23.7099 268.229 24.4915 267.276 25.1126C266.701 25.4874 266.166 25.903 265.906 26.5265C265.784 26.8181 265.575 26.9415 265.24 26.9675C265.308 26.9252 261.62 27.319 261.62 27.319C261.387 27.3414 261.222 27.5333 261.254 27.7453L261.259 27.7781C261.29 27.9902 261.506 28.1454 261.739 28.123C261.739 28.123 265.964 27.7136 266.02 27.7075C266.412 27.6671 266.652 27.4531 266.71 27.1071C266.797 26.5904 267.104 26.2224 267.559 25.9358C267.802 25.7823 268.045 25.6271 268.277 25.4604C270.195 24.0841 270.823 21.6705 269.813 19.573Z" fill="#FBFBFB"/>
</g>
<path d="M299.782 26.4229C299.682 27.1225 299.423 27.759 299.004 28.3323C298.586 28.9056 297.985 29.3385 297.203 29.631C296.422 29.9103 295.464 29.969 294.329 29.8071L291.834 29.4514L291.038 35.0349L288.781 34.713L290.743 20.9522L295.495 21.6298C296.551 21.7804 297.416 22.0922 298.089 22.5654C298.777 23.0272 299.256 23.5937 299.524 24.2649C299.805 24.938 299.891 25.6573 299.782 26.4229ZM294.592 27.9657C295.45 28.0881 296.117 27.988 296.594 27.6654C297.073 27.3296 297.363 26.8054 297.465 26.0926C297.68 24.5878 296.935 23.714 295.233 23.4712L292.738 23.1154L292.097 27.61L294.592 27.9657ZM304.143 27.3883C304.552 26.881 305.049 26.5141 305.634 26.2877C306.233 26.05 306.909 25.9847 307.662 26.092L307.329 28.4284L306.754 28.3465C305.87 28.2204 305.165 28.3488 304.639 28.7317C304.126 29.1165 303.791 29.8633 303.632 30.9721L302.814 36.714L300.556 36.3921L302.112 25.4825L304.369 25.8044L304.143 27.3883ZM312.862 38.3287C311.832 38.1819 310.935 37.8182 310.169 37.2376C309.405 36.6439 308.846 35.8907 308.491 34.9781C308.138 34.0524 308.042 33.0285 308.202 31.9065C308.36 30.7978 308.745 29.8492 309.355 29.0609C309.966 28.2725 310.727 27.7076 311.637 27.366C312.548 27.0245 313.525 26.9281 314.568 27.0768C315.61 27.2255 316.521 27.5911 317.3 28.1735C318.079 28.756 318.652 29.511 319.018 30.4387C319.384 31.3663 319.488 32.3845 319.329 33.4933C319.171 34.6021 318.78 35.5497 318.156 36.3362C317.532 37.1226 316.751 37.6913 315.812 38.0423C314.888 38.3819 313.905 38.4774 312.862 38.3287ZM313.142 36.3685C313.722 36.4514 314.283 36.3899 314.824 36.1843C315.379 35.9805 315.854 35.624 316.25 35.1148C316.646 34.6055 316.9 33.9549 317.013 33.1629C317.126 32.371 317.069 31.6827 316.843 31.0982C316.618 30.5006 316.275 30.0274 315.813 29.6786C315.351 29.3299 314.829 29.1141 314.248 29.0313C313.668 28.9485 313.107 29.0099 312.566 29.2156C312.038 29.4231 311.589 29.7834 311.22 30.2964C310.852 30.7962 310.612 31.4421 310.499 32.2341C310.331 33.4088 310.498 34.362 311 35.0935C311.517 35.8136 312.231 36.2387 313.142 36.3685ZM324.363 30.312C324.821 29.8386 325.404 29.4839 326.111 29.2481C326.833 29.0009 327.603 28.9356 328.421 29.0523C329.385 29.1897 330.223 29.5449 330.936 30.118C331.649 30.691 332.169 31.4385 332.495 32.3605C332.823 33.2693 332.91 34.2715 332.753 35.3671C332.597 36.4627 332.232 37.414 331.659 38.2212C331.088 39.0152 330.372 39.6 329.51 39.9754C328.664 40.3396 327.765 40.4539 326.815 40.3183C325.97 40.1979 325.241 39.9256 324.628 39.5015C324.029 39.0793 323.574 38.5835 323.265 38.0141L323.039 39.5981L320.782 39.2762L322.871 24.6244L325.128 24.9463L324.363 30.312ZM330.457 35.0396C330.564 34.2872 330.498 33.6178 330.258 33.0314C330.033 32.4337 329.684 31.9596 329.208 31.609C328.748 31.2471 328.228 31.0247 327.647 30.9419C327.079 30.861 326.517 30.929 325.961 31.146C325.418 31.3648 324.949 31.7289 324.553 32.2381C324.17 32.7492 323.925 33.3809 323.818 34.1333C323.711 34.8857 323.768 35.5674 323.991 36.1782C324.229 36.7778 324.578 37.2585 325.038 37.6205C325.511 37.9843 326.032 38.2066 326.599 38.2876C327.18 38.3704 327.742 38.3024 328.285 38.0835C328.843 37.8533 329.314 37.4761 329.699 36.9518C330.097 36.4294 330.349 35.792 330.457 35.0396ZM338.547 26.8598L336.458 41.5116L334.2 41.1897L336.29 26.5379L338.547 26.8598ZM350.236 37.6378C350.178 38.047 350.098 38.4128 349.999 38.7353L341.663 37.5467C341.605 38.4273 341.828 39.173 342.334 39.7838C342.839 40.3946 343.514 40.7602 344.359 40.8807C345.574 41.0539 346.504 40.668 347.151 39.7232L349.586 40.0704C349.113 41.0266 348.395 41.7659 347.431 42.2885C346.483 42.7997 345.369 42.9641 344.088 42.7815C343.045 42.6328 342.141 42.2681 341.375 41.6876C340.625 41.0957 340.072 40.3434 339.717 39.4309C339.378 38.507 339.288 37.4841 339.448 36.3621C339.608 35.2401 339.973 34.2888 340.542 33.508C341.126 32.7159 341.86 32.1472 342.745 31.8019C343.642 31.4584 344.626 31.363 345.695 31.5154C346.724 31.6623 347.61 32.0175 348.351 32.5811C349.092 33.1447 349.629 33.8677 349.961 34.7501C350.295 35.6193 350.387 36.5818 350.236 37.6378ZM347.981 36.5891C348.087 35.7556 347.885 35.0466 347.376 34.4622C346.866 33.8778 346.183 33.5244 345.325 33.4021C344.546 33.291 343.844 33.4468 343.218 33.8693C342.594 34.2787 342.169 34.8982 341.942 35.7279L347.981 36.5891ZM366.429 34.472C367.287 34.5944 368.027 34.8818 368.649 35.3341C369.285 35.7884 369.744 36.3926 370.027 37.1468C370.323 37.9029 370.401 38.7759 370.26 39.7659L369.342 46.2008L367.105 45.8817L367.974 39.7834C368.114 38.8067 367.976 38.026 367.561 37.4416C367.148 36.844 366.519 36.4849 365.674 36.3645C364.829 36.244 364.118 36.412 363.542 36.8685C362.98 37.3136 362.629 38.0246 362.49 39.0014L361.62 45.0997L359.383 44.7806L360.253 38.6823C360.392 37.7055 360.254 36.9249 359.839 36.3405C359.426 35.7429 358.797 35.3838 357.952 35.2633C357.107 35.1429 356.397 35.3109 355.82 35.7673C355.258 36.2125 354.907 36.9235 354.768 37.9002L353.898 43.9986L351.641 43.6767L353.197 32.767L355.454 33.0889L355.276 34.3363C355.71 33.9402 356.228 33.6572 356.832 33.4874C357.435 33.3175 358.06 33.2787 358.707 33.3709C359.578 33.4952 360.33 33.791 360.964 34.2585C361.598 34.726 362.05 35.3358 362.319 36.0881C362.744 35.4752 363.333 35.0272 364.087 34.7442C364.843 34.4479 365.624 34.3572 366.429 34.472Z" fill="#FBFBFB"/>
<rect x="252.886" y="10.4023" width="26.5574" height="24" rx="4" transform="rotate(8.1155 252.886 10.4023)" fill="#D9D9D9" fill-opacity="0.05"/>
<rect x="478.088" y="31.2983" width="151.895" height="38.5" rx="4.25" transform="rotate(-11.8217 478.088 31.2983)" fill="#D9D9D9" fill-opacity="0.15" stroke="url(#paint2_linear_528_554)" stroke-width="0.5"/>
<g clip-path="url(#clip2_528_554)">
<path d="M503.763 50.6464L500.736 52.0861C500.52 52.1886 500.258 52.115 500.155 51.9224C500.051 51.7299 500.142 51.4884 500.358 51.3858L503.385 49.9461C503.601 49.8435 503.863 49.9171 503.966 50.1097C504.07 50.3023 503.979 50.5438 503.763 50.6464ZM500.433 42.0986C500.478 42.456 500.299 42.7 499.957 42.7664C499.616 42.8326 499.324 42.6739 499.265 42.3516C499.208 42.038 499.382 41.7878 499.75 41.7144C500.119 41.641 500.343 41.7993 500.433 42.0986ZM504.273 40.0589C502.608 38.4308 499.903 38.0367 497.698 39.1417C495.768 40.1087 494.691 41.6066 494.599 43.5827C494.508 45.5387 495.439 47.0098 497.229 48.0303C497.648 48.2697 498.053 48.5812 498.338 48.9446C498.623 49.3089 498.714 49.4224 499.179 49.2138C499.825 48.924 500.455 48.6023 501.101 48.3119C501.432 48.1631 501.527 47.9604 501.459 47.6447C501.183 46.3705 500.919 45.0937 500.657 43.8165C500.597 43.5274 500.447 43.3106 500.102 43.3753C499.752 43.4409 499.693 43.6931 499.758 43.987C499.939 44.8127 500.107 45.6412 500.28 46.4686C500.558 47.7997 500.558 47.7996 499.15 48.294C498.48 47.8391 497.872 47.4316 497.27 47.0161C495.11 45.525 494.858 42.7051 496.769 40.8172C498.142 39.4608 499.836 39.0469 501.717 39.5557C503.464 40.0282 504.669 41.5026 504.776 43.1504C504.848 44.2512 504.461 45.2227 503.777 46.1315C503.364 46.6801 503.003 47.2531 502.971 47.9279C502.957 48.2435 502.802 48.4309 502.496 48.5696C502.545 48.5066 499.213 50.1343 499.213 50.1343C499.001 50.2348 498.912 50.4714 499.013 50.6601L499.029 50.6893C499.131 50.878 499.387 50.9502 499.598 50.8497C499.598 50.8497 503.431 49.024 503.481 48.9993C503.836 48.8278 503.989 48.5446 503.925 48.1994C503.831 47.6842 503.994 47.2336 504.324 46.8091C504.5 46.5818 504.675 46.353 504.837 46.1172C506.17 44.1695 505.938 41.6864 504.273 40.0589Z" fill="#FBFBFB"/>
</g>
<path d="M531.778 47.0225C530.865 47.2137 530.01 47.2292 529.213 47.069C528.414 46.8957 527.744 46.5591 527.204 46.0592C526.663 45.5593 526.311 44.9179 526.147 44.1349L528.535 43.635C528.711 44.2113 529.04 44.6464 529.524 44.9402C530.021 45.2312 530.641 45.2989 531.385 45.1432C532.155 44.9821 532.717 44.6737 533.071 44.2182C533.423 43.7495 533.537 43.2216 533.414 42.6343C533.318 42.1776 533.103 41.8343 532.769 41.6046C532.448 41.3721 532.069 41.2199 531.632 41.1479C531.207 41.0733 530.624 41.0184 529.881 40.9831C528.944 40.934 528.171 40.8507 527.56 40.7332C526.96 40.6 526.411 40.3199 525.913 39.8928C525.415 39.4658 525.077 38.8282 524.9 37.9799C524.736 37.1968 524.788 36.4707 525.057 35.8015C525.325 35.1323 525.779 34.5673 526.418 34.1066C527.058 33.6459 527.841 33.3185 528.767 33.1246C530.085 32.8487 531.232 32.9561 532.206 33.4469C533.191 33.9219 533.849 34.724 534.181 35.8534L531.714 36.3696C531.571 35.8819 531.248 35.5069 530.743 35.2447C530.239 34.9825 529.634 34.9251 528.93 35.0726C528.29 35.2065 527.802 35.4789 527.466 35.8898C527.13 36.3007 527.026 36.8129 527.154 37.4263C527.242 37.8439 527.438 38.1638 527.743 38.3859C528.059 38.5923 528.429 38.7328 528.853 38.8075C529.277 38.8822 529.848 38.9398 530.565 38.9805C531.517 39.04 532.3 39.135 532.913 39.2655C533.539 39.3932 534.103 39.6772 534.603 40.1172C535.115 40.5415 535.46 41.1843 535.641 42.0457C535.785 42.7374 535.733 43.4295 535.483 44.1221C535.246 44.8119 534.808 45.4212 534.169 45.9499C533.541 46.4628 532.744 46.8204 531.778 47.0225ZM543.796 44.5479C542.779 44.7609 541.811 44.7251 540.893 44.4405C539.972 44.1427 539.19 43.6254 538.545 42.8885C537.898 42.1386 537.458 41.2089 537.226 40.0996C536.996 39.0034 537.034 37.9806 537.34 37.0312C537.645 36.0819 538.167 35.2914 538.907 34.6598C539.647 34.0282 540.532 33.6046 541.563 33.3888C542.594 33.173 543.575 33.206 544.506 33.488C545.437 33.7699 546.232 34.2845 546.893 35.0317C547.553 35.779 547.998 36.7007 548.227 37.7969C548.457 38.8932 548.412 39.9173 548.094 40.8694C547.776 41.8215 547.235 42.6226 546.472 43.2727C545.719 43.907 544.827 44.3321 543.796 44.5479ZM543.391 42.6099C543.965 42.4897 544.471 42.2407 544.91 41.8628C545.362 41.4822 545.687 40.9851 545.885 40.3714C546.084 39.7577 546.101 39.0594 545.937 38.2763C545.773 37.4933 545.485 36.8657 545.073 36.3934C544.658 35.9081 544.174 35.5803 543.621 35.4101C543.067 35.2398 542.504 35.2148 541.929 35.335C541.355 35.4552 540.849 35.7042 540.41 36.082C539.985 36.4572 539.686 36.9488 539.513 37.5571C539.338 38.1522 539.333 38.8413 539.497 39.6244C539.74 40.7858 540.222 41.6249 540.943 42.1414C541.674 42.6422 542.49 42.7984 543.391 42.6099ZM550.764 27.7849L553.796 42.271L551.564 42.7381L548.532 28.252L550.764 27.7849ZM564.237 28.8269L566.494 39.6132L564.263 40.0803L563.996 38.8079C563.737 39.3253 563.347 39.7747 562.828 40.1559C562.318 40.5213 561.744 40.7709 561.105 40.9048C560.256 41.0823 559.456 41.0659 558.704 40.8556C557.964 40.6425 557.326 40.2312 556.79 39.6214C556.267 39.009 555.903 38.2133 555.698 37.2345L554.37 30.892L556.582 30.429L557.84 36.4388C558.043 37.4045 558.44 38.0978 559.032 38.5188C559.621 38.9267 560.333 39.0432 561.169 38.8684C562.004 38.6936 562.61 38.3012 562.986 37.6911C563.373 37.0653 563.465 36.2695 563.263 35.3038L562.005 29.294L564.237 28.8269ZM570.166 29.4862L571.415 35.4569C571.5 35.8614 571.653 36.1359 571.874 36.2804C572.105 36.4091 572.449 36.4256 572.906 36.33L574.276 36.0432L574.665 37.9029L572.904 38.2717C571.899 38.482 571.08 38.4082 570.446 38.0504C569.813 37.6926 569.385 36.9851 569.164 35.928L567.915 29.9574L566.642 30.2238L566.261 28.4032L567.533 28.1369L566.972 25.455L569.223 24.9838L569.785 27.6657L572.408 27.1166L572.789 28.9372L570.166 29.4862ZM575.301 25.0195C574.896 25.1041 574.528 25.0381 574.197 24.8214C573.866 24.6047 573.658 24.2941 573.573 23.8895C573.488 23.485 573.554 23.117 573.771 22.7855C573.988 22.4541 574.298 22.2461 574.703 22.1614C575.094 22.0794 575.456 22.1468 575.787 22.3635C576.119 22.5802 576.327 22.8908 576.411 23.2954C576.496 23.7 576.43 24.068 576.213 24.3994C575.997 24.7308 575.692 24.9375 575.301 25.0195ZM576.696 26.219L578.954 37.0053L576.722 37.4724L574.465 26.6861L576.696 26.219ZM586.599 35.589C585.581 35.802 584.614 35.7662 583.696 35.4815C582.775 35.1838 581.993 34.6665 581.348 33.9296C580.701 33.1796 580.261 32.25 580.029 31.1407C579.799 30.0445 579.837 29.0217 580.143 28.0723C580.448 27.123 580.97 26.3325 581.71 25.7009C582.45 25.0693 583.335 24.6456 584.366 24.4298C585.397 24.2141 586.378 24.2471 587.309 24.5291C588.239 24.811 589.035 25.3256 589.696 26.0728C590.356 26.82 590.801 27.7418 591.03 28.838C591.26 29.9343 591.215 30.9584 590.897 31.9105C590.579 32.8626 590.038 33.6637 589.275 34.3138C588.522 34.9481 587.63 35.3732 586.599 35.589ZM586.194 33.651C586.768 33.5308 587.274 33.2817 587.713 32.9039C588.165 32.5233 588.49 32.0262 588.688 31.4125C588.887 30.7988 588.904 30.1004 588.74 29.3174C588.576 28.5344 588.288 27.9067 587.876 27.4345C587.461 26.9492 586.977 26.6214 586.424 26.4512C585.87 26.2809 585.307 26.2559 584.732 26.376C584.158 26.4962 583.652 26.7453 583.213 27.1231C582.788 27.4982 582.489 27.9899 582.316 28.5981C582.141 29.1933 582.136 29.8824 582.3 30.6654C582.543 31.8269 583.025 32.666 583.746 33.1825C584.477 33.6833 585.293 33.8394 586.194 33.651ZM597.515 21.6777C598.363 21.5001 599.157 21.5179 599.896 21.7309C600.649 21.9413 601.286 22.3527 601.81 22.9651C602.333 23.5776 602.697 24.3732 602.902 25.352L604.233 31.7141L602.021 32.1771L600.759 26.1478C600.557 25.1821 600.162 24.4952 599.572 24.0873C598.98 23.6664 598.266 23.5433 597.431 23.7181C596.596 23.8929 595.985 24.2933 595.598 24.9191C595.222 25.5291 595.135 26.317 595.337 27.2828L596.599 33.3121L594.367 33.7792L592.11 22.9929L594.341 22.5258L594.599 23.7591C594.872 23.2389 595.263 22.7961 595.772 22.4307C596.294 22.0625 596.875 21.8115 597.515 21.6777ZM611.032 30.475C610.184 30.6526 609.389 30.6623 608.648 30.5042C607.916 30.3303 607.3 30.0233 606.8 29.5832C606.296 29.1301 605.963 28.58 605.8 27.9329L608.11 27.4495C608.245 27.898 608.541 28.2379 608.998 28.4692C609.465 28.6847 609.999 28.7296 610.6 28.604C611.226 28.4728 611.684 28.2543 611.974 27.9484C612.275 27.6267 612.386 27.2766 612.306 26.8981C612.222 26.4936 611.963 26.2344 611.531 26.1206C611.111 26.004 610.459 25.9157 609.575 25.8556C608.719 25.8031 608.015 25.7257 607.462 25.6234C606.91 25.5212 606.399 25.2943 605.931 24.9428C605.475 24.5887 605.173 24.0592 605.026 23.3545C604.906 22.7803 604.966 22.2227 605.207 21.6819C605.445 21.128 605.849 20.6485 606.418 20.2433C607 19.8354 607.702 19.5454 608.525 19.3733C609.751 19.1165 610.802 19.2235 611.677 19.6942C612.562 20.1492 613.143 20.9063 613.419 21.9655L611.188 22.4326C611.048 21.9579 610.771 21.6139 610.359 21.4005C609.946 21.1872 609.44 21.1433 608.84 21.269C608.252 21.3919 607.825 21.597 607.559 21.8845C607.292 22.1719 607.197 22.4983 607.273 22.8637C607.333 23.1508 607.488 23.3704 607.738 23.5225C607.988 23.6745 608.275 23.7779 608.6 23.8325C608.922 23.8741 609.394 23.9182 610.017 23.965C610.844 24.0099 611.528 24.0914 612.071 24.2094C612.623 24.3117 613.126 24.5334 613.579 24.8745C614.032 25.2157 614.337 25.7307 614.495 26.4197C614.623 27.033 614.568 27.6167 614.33 28.1706C614.092 28.7244 613.688 29.204 613.119 29.6091C612.563 30.0116 611.867 30.3002 611.032 30.475Z" fill="#FBFBFB"/>
<rect x="485.234" y="37.2098" width="26.5574" height="24" rx="4" transform="rotate(-11.8217 485.234 37.2098)" fill="#D9D9D9" fill-opacity="0.05"/>
<rect x="667.965" y="19.0777" width="153.518" height="38.5" rx="4.25" transform="rotate(4.29005 667.965 19.0777)" fill="#D9D9D9" fill-opacity="0.15" stroke="url(#paint3_linear_528_554)" stroke-width="0.5"/>
<g clip-path="url(#clip3_528_554)">
<path d="M687.262 44.791L683.954 45.334C683.718 45.3727 683.488 45.2294 683.441 45.0155C683.395 44.8017 683.55 44.5951 683.786 44.5564L687.094 44.0134C687.329 43.9747 687.56 44.118 687.606 44.3318C687.653 44.5457 687.498 44.7523 687.262 44.791ZM686.435 35.6548C686.379 36.0105 686.14 36.1955 685.792 36.1643C685.446 36.1332 685.21 35.8998 685.243 35.5738C685.275 35.2567 685.511 35.0644 685.886 35.0963C686.26 35.1281 686.431 35.3421 686.435 35.6548ZM690.691 34.761C689.543 32.7348 687.053 31.6054 684.628 32.055C682.505 32.4484 681.055 33.5885 680.418 35.4616C679.788 37.3154 680.274 38.9871 681.71 40.4643C682.047 40.8107 682.35 41.2225 682.522 41.6505C682.695 42.0796 682.751 42.2139 683.256 42.1425C683.957 42.0434 684.651 41.9092 685.352 41.8095C685.712 41.7584 685.86 41.5901 685.881 41.2678C685.97 39.967 686.07 38.667 686.173 37.3673C686.196 37.0731 686.112 36.8231 685.762 36.7894C685.408 36.7554 685.282 36.9815 685.262 37.2817C685.207 38.1252 685.138 38.9678 685.075 39.8107C684.973 41.1668 684.973 41.1668 683.483 41.2509C682.966 40.628 682.494 40.0676 682.031 39.5014C680.37 37.4694 680.91 34.6902 683.27 33.4069C684.966 32.4849 686.708 32.5572 688.374 33.5681C689.921 34.5067 690.67 36.2576 690.315 37.8705C690.079 38.948 689.438 39.7741 688.529 40.4574C687.98 40.8698 687.474 41.3201 687.256 41.9596C687.154 42.2587 686.953 42.3958 686.621 42.4441C686.686 42.3973 683.033 43.0362 683.033 43.0362C682.802 43.0741 682.65 43.2766 682.695 43.4861L682.702 43.5185C682.748 43.728 682.974 43.8685 683.205 43.8306C683.205 43.8306 687.393 43.1402 687.448 43.1304C687.836 43.0639 688.062 42.8344 688.097 42.4852C688.149 41.9639 688.431 41.5763 688.866 41.2599C689.098 41.0906 689.33 40.9195 689.551 40.7377C691.372 39.2365 691.838 36.7864 690.691 34.761Z" fill="#FBFBFB"/>
</g>
<path d="M721.049 39.5962C720.996 40.3009 720.78 40.9532 720.401 41.5532C720.021 42.1532 719.451 42.6252 718.69 42.9692C717.93 43.2999 716.978 43.4224 715.834 43.3366L713.322 43.1481L712.9 48.7723L710.626 48.6017L711.666 34.7407L716.452 35.0997C717.516 35.1795 718.4 35.433 719.103 35.8601C719.821 36.275 720.335 36.8083 720.648 37.4602C720.973 38.113 721.107 38.825 721.049 39.5962ZM715.974 41.4818C716.838 41.5466 717.497 41.4022 717.952 41.0486C718.407 40.6816 718.662 40.1391 718.715 39.4211C718.829 37.9054 718.028 37.0832 716.313 36.9545L713.8 36.766L713.461 41.2933L715.974 41.4818ZM733.264 39.2489L732.439 50.2381L730.166 50.0675L730.263 48.7711C729.87 49.1963 729.371 49.5199 728.766 49.7419C728.175 49.9516 727.554 50.0321 726.903 49.9832C726.039 49.9184 725.274 49.6805 724.61 49.2697C723.959 48.8598 723.46 48.2876 723.114 47.553C722.781 46.8193 722.652 45.9539 722.727 44.9567L723.212 38.4949L725.466 38.664L725.006 44.7868C724.932 45.7707 725.122 46.547 725.574 47.1157C726.027 47.6712 726.679 47.9808 727.53 48.0446C728.381 48.1085 729.071 47.8996 729.602 47.4179C730.147 46.924 730.457 46.1851 730.531 45.2012L730.99 39.0784L733.264 39.2489ZM738.417 41.24C738.792 40.7066 739.263 40.3073 739.831 40.0424C740.413 39.7652 741.083 39.655 741.841 39.7119L741.665 42.0653L741.086 42.0219C740.196 41.9551 739.5 42.1302 739.001 42.5474C738.515 42.9655 738.23 43.733 738.147 44.8499L737.713 50.6337L735.439 50.4631L736.263 39.474L738.537 39.6445L738.417 41.24ZM746.07 41.8342C746.494 41.3579 747.051 40.9718 747.741 40.676C748.432 40.3801 749.196 40.2636 750.034 40.3265C750.991 40.3983 751.844 40.703 752.593 41.2405C753.356 41.7657 753.931 42.4707 754.319 43.3555C754.708 44.2404 754.86 45.2346 754.778 46.3382C754.695 47.4417 754.395 48.4153 753.877 49.259C753.36 50.0893 752.684 50.7205 751.849 51.1526C751.029 51.5724 750.14 51.7464 749.183 51.6746C748.345 51.6118 747.613 51.3897 746.986 51.0084C746.361 50.6139 745.861 50.1485 745.487 49.6123L744.975 56.4332L742.701 56.2626L743.918 40.0482L746.191 40.2187L746.07 41.8342ZM752.464 46.1646C752.521 45.4068 752.41 44.7433 752.132 44.1742C751.868 43.5928 751.487 43.1431 750.99 42.825C750.507 42.4946 749.972 42.3074 749.387 42.2635C748.816 42.2206 748.26 42.326 747.719 42.5796C747.192 42.8342 746.748 43.2288 746.387 43.7633C746.039 44.2988 745.837 44.9454 745.78 45.7033C745.723 46.4612 745.826 47.1375 746.089 47.7321C746.366 48.3145 746.746 48.7709 747.23 49.1013C747.726 49.4327 748.261 49.6199 748.832 49.6627C749.417 49.7066 749.973 49.6013 750.501 49.3467C751.042 49.0797 751.487 48.6719 751.836 48.1231C752.198 47.5753 752.407 46.9225 752.464 46.1646ZM761.363 52.5883C760.326 52.5105 759.406 52.2075 758.603 51.6793C757.802 51.1378 757.193 50.4237 756.779 49.5368C756.365 48.6367 756.2 47.6215 756.285 46.4914C756.369 45.3745 756.689 44.4024 757.246 43.5751C757.803 42.7477 758.524 42.1333 759.41 41.7318C760.296 41.3303 761.264 41.1689 762.314 41.2477C763.365 41.3265 764.298 41.6305 765.114 42.1597C765.93 42.6889 766.551 43.404 766.979 44.3052C767.406 45.2063 767.577 46.2153 767.494 47.3322C767.41 48.449 767.083 49.4206 766.513 50.247C765.943 51.0733 765.201 51.6929 764.288 52.1057C763.388 52.5063 762.414 52.6671 761.363 52.5883ZM761.511 50.6139C762.096 50.6578 762.652 50.559 763.178 50.3177C763.718 50.0774 764.168 49.69 764.529 49.1555C764.89 48.621 765.1 47.9549 765.16 47.1571C765.22 46.3594 765.117 45.6765 764.853 45.1084C764.589 44.527 764.215 44.0778 763.73 43.7607C763.246 43.4435 762.711 43.263 762.126 43.2191C761.541 43.1753 760.986 43.274 760.459 43.5153C759.947 43.7576 759.523 44.147 759.188 44.6835C758.855 45.2067 758.658 45.8672 758.599 46.6649C758.51 47.8483 758.74 48.7881 759.29 49.4845C759.853 50.1686 760.594 50.545 761.511 50.6139ZM773.304 53.484C772.439 53.4192 771.673 53.208 771.005 52.8503C770.35 52.4803 769.844 52.0144 769.485 51.4527C769.127 50.8776 768.959 50.2567 768.983 49.5899L771.336 49.7664C771.341 50.2348 771.531 50.6435 771.906 50.9925C772.295 51.3292 772.796 51.5205 773.407 51.5664C774.046 51.6143 774.546 51.5315 774.91 51.3181C775.288 51.0925 775.491 50.7868 775.52 50.4012C775.551 49.9891 775.375 49.6683 774.991 49.4389C774.62 49.2106 774.018 48.9448 773.185 48.6416C772.378 48.3538 771.723 48.084 771.221 47.8324C770.718 47.5807 770.29 47.2211 769.938 46.7534C769.598 46.2867 769.456 45.6944 769.509 44.9764C769.553 44.3913 769.766 43.8725 770.148 43.4198C770.53 42.9537 771.051 42.6051 771.71 42.3737C772.383 42.1434 773.138 42.0596 773.975 42.1225C775.225 42.2162 776.205 42.6106 776.915 43.3057C777.639 43.9884 777.987 44.877 777.959 45.9712L775.685 45.8007C775.682 45.3057 775.512 44.8985 775.175 44.5791C774.838 44.2596 774.364 44.077 773.752 44.0311C773.154 43.9862 772.686 44.0648 772.35 44.2669C772.014 44.469 771.832 44.7562 771.804 45.1285C771.782 45.421 771.87 45.6749 772.068 45.8903C772.266 46.1057 772.513 46.2847 772.81 46.4273C773.108 46.5567 773.549 46.7302 774.135 46.9479C774.917 47.2205 775.552 47.4887 776.04 47.7527C776.543 48.0043 776.964 48.3568 777.304 48.8102C777.645 49.2636 777.795 49.8432 777.756 50.5489C777.709 51.1738 777.494 51.7192 777.111 52.1852C776.729 52.6513 776.208 52.9999 775.549 53.2313C774.903 53.4636 774.155 53.5479 773.304 53.484ZM790.486 48.7962C790.455 49.2084 790.401 49.5787 790.322 49.9071L781.926 49.2773C781.927 50.1598 782.2 50.8889 782.745 51.4646C783.29 52.0404 783.988 52.3601 784.839 52.424C786.062 52.5157 786.965 52.0687 787.547 51.0828L790 51.2668C789.592 52.2524 788.924 53.038 787.998 53.6236C787.086 54.197 785.985 54.4353 784.695 54.3386C783.645 54.2598 782.718 53.9563 781.915 53.4281C781.127 52.8876 780.525 52.1739 780.111 51.2871C779.71 50.3879 779.552 49.3733 779.637 48.2431C779.722 47.113 780.022 46.1394 780.538 45.3223C781.068 44.493 781.763 43.8766 782.622 43.4731C783.495 43.0705 784.469 42.9097 785.546 42.9905C786.584 43.0683 787.491 43.3636 788.268 43.8765C789.045 44.3894 789.629 45.075 790.019 45.9333C790.41 46.7782 790.566 47.7326 790.486 48.7962ZM788.167 47.9002C788.216 47.0616 787.967 46.3677 787.42 45.8186C786.873 45.2694 786.167 44.9624 785.303 44.8976C784.519 44.8388 783.828 45.041 783.232 45.5044C782.637 45.9544 782.254 46.6009 782.084 47.4439L788.167 47.9002Z" fill="#FBFBFB"/>
<rect x="673.189" y="26.74" width="26.5574" height="24" rx="4" transform="rotate(4.29005 673.189 26.74)" fill="#D9D9D9" fill-opacity="0.05"/>
<defs>
<linearGradient id="paint0_linear_528_554" x1="197.007" y1="32.8893" x2="31.6128" y2="82.952" gradientUnits="userSpaceOnUse">
<stop stop-color="#8F8F8F" stop-opacity="0.5"/>
<stop offset="0.367444" stop-color="#5B5E64" stop-opacity="0.768963"/>
<stop offset="1" stop-color="#2F343E"/>
</linearGradient>
<linearGradient id="paint1_linear_528_554" x1="439.89" y1="4.69137" x2="277.685" y2="52.6582" gradientUnits="userSpaceOnUse">
<stop stop-color="#8F8F8F" stop-opacity="0.5"/>
<stop offset="0.367444" stop-color="#5B5E64" stop-opacity="0.768963"/>
<stop offset="1" stop-color="#2F343E"/>
</linearGradient>
<linearGradient id="paint2_linear_528_554" x1="622.619" y1="33.4918" x2="496.04" y2="61.6855" gradientUnits="userSpaceOnUse">
<stop stop-color="#8F8F8F" stop-opacity="0.5"/>
<stop offset="0.367444" stop-color="#5B5E64" stop-opacity="0.768963"/>
<stop offset="1" stop-color="#2F343E"/>
</linearGradient>
<linearGradient id="paint3_linear_528_554" x1="813.976" y1="21.3457" x2="686.171" y2="50.1177" gradientUnits="userSpaceOnUse">
<stop stop-color="#8F8F8F" stop-opacity="0.5"/>
<stop offset="0.367444" stop-color="#5B5E64" stop-opacity="0.768963"/>
<stop offset="1" stop-color="#2F343E"/>
</linearGradient>
<clipPath id="clip0_528_554">
<rect width="13.2787" height="16" fill="white" transform="translate(14.1404 39.5778) rotate(-5.93176)"/>
</clipPath>
<clipPath id="clip1_528_554">
<rect width="13.2787" height="16" fill="white" transform="translate(259.035 14.3096) rotate(8.1155)"/>
</clipPath>
<clipPath id="clip2_528_554">
<rect width="13.2787" height="16" fill="white" transform="translate(492.347 38.786) rotate(-11.8217)"/>
</clipPath>
<clipPath id="clip3_528_554">
<rect width="13.2787" height="16" fill="white" transform="translate(679.585 30.2283) rotate(4.29005)"/>
</clipPath>
</defs>
</svg>
