<svg width="402" height="874" viewBox="0 0 402 874" fill="none" xmlns="http://www.w3.org/2000/svg">
<g clip-path="url(#clip0_92_584)">
<rect width="402" height="874" rx="16" fill="#0F0F0F"/>
<g opacity="0.8">
<g filter="url(#filter0_f_92_584)">
<path d="M157.108 721.008C77.0676 677.298 43.9791 766.775 37.4399 816.976C27.7401 787.44 6.57484 725.82 -0.487511 715.629C-9.31545 702.89 97.9277 663.823 165.282 700.625C219.165 730.067 249.419 699.493 257.811 680.525C257.593 712.232 237.147 764.717 157.108 721.008Z" fill="url(#paint0_linear_92_584)" fill-opacity="0.6"/>
</g>
<g filter="url(#filter1_f_92_584)">
<path d="M167.847 676.834C154.581 644.357 81.4678 658.415 46.5695 669.504V656.818C51.4466 644.037 64.9074 617.066 79.7337 611.428C98.2667 604.38 156.792 584.363 194.508 575.342C232.224 566.32 255.309 573.932 338.22 575.342C421.131 576.751 385.04 621.859 400.647 630.599C413.132 637.59 372.902 691.964 351.226 718.277L265.389 689.521C295.518 689.239 348.364 680.386 318.712 647.232C281.646 605.789 184.429 717.431 167.847 676.834Z" fill="url(#paint1_linear_92_584)" fill-opacity="0.7"/>
</g>
<g filter="url(#filter2_f_92_584)">
<path d="M268.586 821.844C295.117 805.38 343.585 849.755 364.502 874C370.138 850.976 381.539 803.519 382.06 797.881C382.71 790.833 370.68 764.896 359.3 758.693C347.92 752.491 314.431 744.597 281.591 720.352C248.752 696.106 205.834 745.161 187.301 764.896C168.768 784.63 235.422 842.425 268.586 821.844Z" fill="url(#paint2_linear_92_584)"/>
</g>
</g>
<g filter="url(#filter3_f_92_584)">
<path d="M257.447 86.6233C249.304 60.041 204.423 71.5477 183 80.6238V70.2401C185.994 59.7795 194.257 37.7044 203.358 33.0894C214.735 27.3207 250.661 10.9375 273.814 3.55353C296.966 -3.83045 311.137 2.39978 362.033 3.55353C412.929 4.70727 390.774 41.6272 400.354 48.7804C408.019 54.503 383.323 99.0069 370.017 120.543L317.325 97.007C335.82 96.7763 368.26 89.5308 350.058 62.3946C327.304 28.4745 267.627 119.851 257.447 86.6233Z" fill="url(#paint3_linear_92_584)" fill-opacity="0.7"/>
</g>
<path d="M21.016 287.898H26.536V290.562H17.656V273.81H21.016V287.898ZM34.5756 290.779C33.2956 290.779 32.1436 290.499 31.1196 289.938C30.0956 289.362 29.2876 288.554 28.6956 287.514C28.1196 286.474 27.8316 285.274 27.8316 283.914C27.8316 282.554 28.1276 281.354 28.7196 280.314C29.3276 279.274 30.1516 278.474 31.1916 277.914C32.2316 277.338 33.3916 277.05 34.6716 277.05C35.9516 277.05 37.1116 277.338 38.1516 277.914C39.1916 278.474 40.0076 279.274 40.5996 280.314C41.2076 281.354 41.5116 282.554 41.5116 283.914C41.5116 285.274 41.1996 286.474 40.5756 287.514C39.9676 288.554 39.1356 289.362 38.0796 289.938C37.0396 290.499 35.8716 290.779 34.5756 290.779ZM34.5756 287.85C35.1836 287.85 35.7516 287.706 36.2796 287.418C36.8236 287.114 37.2556 286.666 37.5756 286.074C37.8956 285.482 38.0556 284.762 38.0556 283.914C38.0556 282.65 37.7196 281.682 37.0476 281.01C36.3916 280.322 35.5836 279.978 34.6236 279.978C33.6636 279.978 32.8556 280.322 32.1996 281.01C31.5596 281.682 31.2396 282.65 31.2396 283.914C31.2396 285.178 31.5516 286.154 32.1756 286.842C32.8156 287.514 33.6156 287.85 34.5756 287.85ZM49.1843 277.05C50.1763 277.05 51.0483 277.25 51.8003 277.65C52.5523 278.034 53.1443 278.538 53.5763 279.162V277.266H56.9603V290.659C56.9603 291.891 56.7123 292.987 56.2163 293.947C55.7203 294.923 54.9763 295.691 53.9843 296.251C52.9923 296.827 51.7923 297.115 50.3843 297.115C48.4963 297.115 46.9443 296.675 45.7283 295.795C44.5283 294.915 43.8483 293.715 43.6883 292.195H47.0243C47.2003 292.803 47.5763 293.283 48.1523 293.635C48.7443 294.003 49.4563 294.187 50.2883 294.187C51.2643 294.187 52.0563 293.891 52.6643 293.299C53.2723 292.723 53.5763 291.843 53.5763 290.659V288.594C53.1443 289.218 52.5443 289.738 51.7763 290.154C51.0243 290.571 50.1603 290.779 49.1843 290.779C48.0643 290.779 47.0403 290.491 46.1123 289.914C45.1843 289.338 44.4483 288.53 43.9043 287.49C43.3763 286.434 43.1123 285.226 43.1123 283.866C43.1123 282.522 43.3763 281.33 43.9043 280.29C44.4483 279.25 45.1763 278.45 46.0883 277.891C47.0163 277.33 48.0483 277.05 49.1843 277.05ZM53.5763 283.914C53.5763 283.098 53.4163 282.402 53.0963 281.826C52.7763 281.234 52.3443 280.786 51.8003 280.482C51.2563 280.162 50.6723 280.002 50.0483 280.002C49.4243 280.002 48.8483 280.154 48.3203 280.458C47.7923 280.762 47.3603 281.21 47.0243 281.802C46.7043 282.378 46.5443 283.066 46.5443 283.866C46.5443 284.666 46.7043 285.37 47.0243 285.978C47.3603 286.57 47.7923 287.026 48.3203 287.346C48.8643 287.666 49.4403 287.826 50.0483 287.826C50.6723 287.826 51.2563 287.674 51.8003 287.37C52.3443 287.05 52.7763 286.602 53.0963 286.026C53.4163 285.434 53.5763 284.73 53.5763 283.914ZM67.6647 275.682C67.0727 275.682 66.5767 275.498 66.1767 275.13C65.7927 274.746 65.6007 274.274 65.6007 273.714C65.6007 273.154 65.7927 272.69 66.1767 272.322C66.5767 271.938 67.0727 271.746 67.6647 271.746C68.2567 271.746 68.7447 271.938 69.1287 272.322C69.5287 272.69 69.7287 273.154 69.7287 273.714C69.7287 274.274 69.5287 274.746 69.1287 275.13C68.7447 275.498 68.2567 275.682 67.6647 275.682ZM69.3207 277.266V290.562H65.9607V277.266H69.3207ZM80.0084 277.074C81.5924 277.074 82.8724 277.578 83.8484 278.586C84.8244 279.578 85.3124 280.97 85.3124 282.762V290.562H81.9524V283.218C81.9524 282.162 81.6884 281.354 81.1604 280.794C80.6324 280.218 79.9124 279.93 79.0004 279.93C78.0724 279.93 77.3364 280.218 76.7924 280.794C76.2644 281.354 76.0004 282.162 76.0004 283.218V290.562H72.6404V277.266H76.0004V278.922C76.4484 278.346 77.0164 277.898 77.7044 277.578C78.4084 277.242 79.1764 277.074 80.0084 277.074Z" fill="#F0F0F0"/>
<path d="M25.408 305.258V313.562H24.316V307.37L21.556 313.562H20.788L18.016 307.358V313.562H16.924V305.258H18.1L21.172 312.122L24.244 305.258H25.408ZM26.8519 310.25C26.8519 309.578 26.9879 308.99 27.2599 308.486C27.5319 307.974 27.9039 307.578 28.3759 307.298C28.8559 307.018 29.3879 306.878 29.9719 306.878C30.5479 306.878 31.0479 307.002 31.4719 307.25C31.8959 307.498 32.2119 307.81 32.4199 308.186V306.986H33.5239V313.562H32.4199V312.338C32.2039 312.722 31.8799 313.042 31.4479 313.298C31.0239 313.546 30.5279 313.671 29.9599 313.671C29.3759 313.671 28.8479 313.527 28.3759 313.238C27.9039 312.95 27.5319 312.546 27.2599 312.026C26.9879 311.506 26.8519 310.914 26.8519 310.25ZM32.4199 310.262C32.4199 309.766 32.3199 309.334 32.1199 308.966C31.9199 308.598 31.6479 308.318 31.3039 308.126C30.9679 307.926 30.5959 307.826 30.1879 307.826C29.7799 307.826 29.4079 307.922 29.0719 308.114C28.7359 308.306 28.4679 308.586 28.2679 308.954C28.0679 309.322 27.9679 309.754 27.9679 310.25C27.9679 310.754 28.0679 311.194 28.2679 311.57C28.4679 311.938 28.7359 312.222 29.0719 312.422C29.4079 312.614 29.7799 312.71 30.1879 312.71C30.5959 312.71 30.9679 312.614 31.3039 312.422C31.6479 312.222 31.9199 311.938 32.1199 311.57C32.3199 311.194 32.4199 310.758 32.4199 310.262ZM37.6973 313.671C37.1933 313.671 36.7413 313.587 36.3413 313.418C35.9413 313.242 35.6253 313.002 35.3933 312.698C35.1613 312.386 35.0333 312.03 35.0093 311.63H36.1373C36.1693 311.958 36.3213 312.226 36.5933 312.434C36.8733 312.642 37.2373 312.746 37.6853 312.746C38.1013 312.746 38.4293 312.654 38.6693 312.47C38.9093 312.286 39.0293 312.054 39.0293 311.774C39.0293 311.486 38.9013 311.274 38.6453 311.138C38.3893 310.994 37.9933 310.854 37.4573 310.718C36.9693 310.59 36.5693 310.462 36.2573 310.334C35.9533 310.198 35.6893 310.002 35.4653 309.746C35.2493 309.482 35.1413 309.138 35.1413 308.714C35.1413 308.378 35.2413 308.07 35.4413 307.79C35.6413 307.51 35.9253 307.29 36.2933 307.13C36.6613 306.962 37.0813 306.878 37.5533 306.878C38.2813 306.878 38.8693 307.062 39.3173 307.43C39.7653 307.798 40.0053 308.302 40.0373 308.942H38.9453C38.9213 308.598 38.7813 308.322 38.5253 308.114C38.2773 307.906 37.9413 307.802 37.5173 307.802C37.1253 307.802 36.8133 307.886 36.5813 308.054C36.3493 308.222 36.2333 308.442 36.2333 308.714C36.2333 308.93 36.3013 309.11 36.4373 309.254C36.5813 309.39 36.7573 309.502 36.9653 309.59C37.1813 309.67 37.4773 309.762 37.8533 309.866C38.3253 309.994 38.7093 310.122 39.0053 310.25C39.3013 310.37 39.5533 310.554 39.7613 310.802C39.9773 311.05 40.0893 311.374 40.0973 311.774C40.0973 312.134 39.9973 312.458 39.7973 312.746C39.5973 313.034 39.3133 313.262 38.9453 313.43C38.5853 313.591 38.1693 313.671 37.6973 313.671ZM47.4708 306.986V313.562H46.3788V312.59C46.1708 312.926 45.8788 313.19 45.5028 313.382C45.1348 313.567 44.7268 313.659 44.2788 313.659C43.7668 313.659 43.3068 313.554 42.8988 313.346C42.4908 313.13 42.1668 312.81 41.9268 312.386C41.6948 311.962 41.5788 311.446 41.5788 310.838V306.986H42.6588V310.694C42.6588 311.342 42.8228 311.842 43.1508 312.194C43.4788 312.538 43.9268 312.71 44.4948 312.71C45.0788 312.71 45.5388 312.53 45.8748 312.17C46.2108 311.81 46.3788 311.286 46.3788 310.598V306.986H47.4708ZM52.9866 313.562L50.4066 310.658V313.562H49.3146V304.682H50.4066V309.902L52.9386 306.986H54.4626L51.3666 310.262L54.4746 313.562H52.9866ZM59.1624 313.562L56.5824 310.658V313.562H55.4904V304.682H56.5824V309.902L59.1144 306.986H60.6384L57.5424 310.262L60.6504 313.562H59.1624ZM61.2582 310.25C61.2582 309.578 61.3942 308.99 61.6662 308.486C61.9382 307.974 62.3102 307.578 62.7822 307.298C63.2622 307.018 63.7942 306.878 64.3782 306.878C64.9542 306.878 65.4542 307.002 65.8782 307.25C66.3022 307.498 66.6182 307.81 66.8262 308.186V306.986H67.9302V313.562H66.8262V312.338C66.6102 312.722 66.2862 313.042 65.8542 313.298C65.4302 313.546 64.9342 313.671 64.3662 313.671C63.7822 313.671 63.2542 313.527 62.7822 313.238C62.3102 312.95 61.9382 312.546 61.6662 312.026C61.3942 311.506 61.2582 310.914 61.2582 310.25ZM66.8262 310.262C66.8262 309.766 66.7262 309.334 66.5262 308.966C66.3262 308.598 66.0542 308.318 65.7102 308.126C65.3742 307.926 65.0022 307.826 64.5942 307.826C64.1862 307.826 63.8142 307.922 63.4782 308.114C63.1422 308.306 62.8742 308.586 62.6742 308.954C62.4742 309.322 62.3742 309.754 62.3742 310.25C62.3742 310.754 62.4742 311.194 62.6742 311.57C62.8742 311.938 63.1422 312.222 63.4782 312.422C63.8142 312.614 64.1862 312.71 64.5942 312.71C65.0022 312.71 65.3742 312.614 65.7102 312.422C66.0542 312.222 66.3262 311.938 66.5262 311.57C66.7262 311.194 66.8262 310.758 66.8262 310.262ZM72.9796 306.866C73.7796 306.866 74.4276 307.11 74.9236 307.598C75.4196 308.078 75.6676 308.774 75.6676 309.686V313.562H74.5876V309.842C74.5876 309.186 74.4236 308.686 74.0956 308.342C73.7676 307.99 73.3196 307.814 72.7516 307.814C72.1756 307.814 71.7156 307.994 71.3716 308.354C71.0356 308.714 70.8676 309.238 70.8676 309.926V313.562H69.7756V306.986H70.8676V307.922C71.0836 307.586 71.3756 307.326 71.7436 307.142C72.1196 306.958 72.5316 306.866 72.9796 306.866ZM86.6506 310.022C86.6506 310.23 86.6386 310.45 86.6146 310.682H81.3586C81.3986 311.33 81.6186 311.838 82.0186 312.206C82.4266 312.566 82.9186 312.746 83.4946 312.746C83.9666 312.746 84.3586 312.638 84.6706 312.422C84.9906 312.198 85.2146 311.902 85.3426 311.534H86.5186C86.3426 312.166 85.9906 312.682 85.4626 313.082C84.9346 313.474 84.2786 313.671 83.4946 313.671C82.8706 313.671 82.3106 313.531 81.8146 313.25C81.3266 312.97 80.9426 312.574 80.6626 312.062C80.3826 311.542 80.2426 310.942 80.2426 310.262C80.2426 309.582 80.3786 308.986 80.6506 308.474C80.9226 307.962 81.3026 307.57 81.7906 307.298C82.2866 307.018 82.8546 306.878 83.4946 306.878C84.1186 306.878 84.6706 307.014 85.1506 307.286C85.6306 307.558 85.9986 307.934 86.2546 308.414C86.5186 308.886 86.6506 309.422 86.6506 310.022ZM85.5226 309.794C85.5226 309.378 85.4306 309.022 85.2466 308.726C85.0626 308.422 84.8106 308.194 84.4906 308.042C84.1786 307.882 83.8306 307.802 83.4466 307.802C82.8946 307.802 82.4226 307.978 82.0306 308.33C81.6466 308.682 81.4266 309.17 81.3706 309.794H85.5226ZM96 306.866C96.512 306.866 96.968 306.974 97.368 307.19C97.768 307.398 98.084 307.714 98.316 308.138C98.548 308.562 98.664 309.078 98.664 309.686V313.562H97.584V309.842C97.584 309.186 97.42 308.686 97.092 308.342C96.772 307.99 96.336 307.814 95.784 307.814C95.216 307.814 94.764 307.998 94.428 308.366C94.092 308.726 93.924 309.25 93.924 309.938V313.562H92.844V309.842C92.844 309.186 92.68 308.686 92.352 308.342C92.032 307.99 91.596 307.814 91.044 307.814C90.476 307.814 90.024 307.998 89.688 308.366C89.352 308.726 89.184 309.25 89.184 309.938V313.562H88.092V306.986H89.184V307.934C89.4 307.59 89.688 307.326 90.048 307.142C90.416 306.958 90.82 306.866 91.26 306.866C91.812 306.866 92.3 306.99 92.724 307.238C93.148 307.486 93.464 307.85 93.672 308.33C93.856 307.866 94.16 307.506 94.584 307.25C95.008 306.994 95.48 306.866 96 306.866ZM100.047 310.25C100.047 309.578 100.183 308.99 100.455 308.486C100.727 307.974 101.099 307.578 101.571 307.298C102.051 307.018 102.583 306.878 103.167 306.878C103.743 306.878 104.243 307.002 104.667 307.25C105.091 307.498 105.407 307.81 105.615 308.186V306.986H106.719V313.562H105.615V312.338C105.399 312.722 105.075 313.042 104.643 313.298C104.219 313.546 103.723 313.671 103.155 313.671C102.571 313.671 102.043 313.527 101.571 313.238C101.099 312.95 100.727 312.546 100.455 312.026C100.183 311.506 100.047 310.914 100.047 310.25ZM105.615 310.262C105.615 309.766 105.515 309.334 105.315 308.966C105.115 308.598 104.843 308.318 104.499 308.126C104.163 307.926 103.791 307.826 103.383 307.826C102.975 307.826 102.603 307.922 102.267 308.114C101.931 308.306 101.663 308.586 101.463 308.954C101.263 309.322 101.163 309.754 101.163 310.25C101.163 310.754 101.263 311.194 101.463 311.57C101.663 311.938 101.931 312.222 102.267 312.422C102.603 312.614 102.975 312.71 103.383 312.71C103.791 312.71 104.163 312.614 104.499 312.422C104.843 312.222 105.115 311.938 105.315 311.57C105.515 311.194 105.615 310.758 105.615 310.262ZM109.129 305.918C108.921 305.918 108.745 305.846 108.601 305.702C108.457 305.558 108.385 305.382 108.385 305.174C108.385 304.966 108.457 304.79 108.601 304.646C108.745 304.502 108.921 304.43 109.129 304.43C109.329 304.43 109.497 304.502 109.633 304.646C109.777 304.79 109.849 304.966 109.849 305.174C109.849 305.382 109.777 305.558 109.633 305.702C109.497 305.846 109.329 305.918 109.129 305.918ZM109.657 306.986V313.562H108.565V306.986H109.657ZM112.61 304.682V313.562H111.518V304.682H112.61ZM117.262 310.25C117.262 309.578 117.398 308.99 117.67 308.486C117.942 307.974 118.314 307.578 118.786 307.298C119.266 307.018 119.802 306.878 120.394 306.878C120.906 306.878 121.382 306.998 121.822 307.238C122.262 307.47 122.598 307.778 122.83 308.162V304.682H123.934V313.562H122.83V312.326C122.614 312.718 122.294 313.042 121.87 313.298C121.446 313.546 120.95 313.671 120.382 313.671C119.798 313.671 119.266 313.527 118.786 313.238C118.314 312.95 117.942 312.546 117.67 312.026C117.398 311.506 117.262 310.914 117.262 310.25ZM122.83 310.262C122.83 309.766 122.73 309.334 122.53 308.966C122.33 308.598 122.058 308.318 121.714 308.126C121.378 307.926 121.006 307.826 120.598 307.826C120.19 307.826 119.818 307.922 119.482 308.114C119.146 308.306 118.878 308.586 118.678 308.954C118.478 309.322 118.378 309.754 118.378 310.25C118.378 310.754 118.478 311.194 118.678 311.57C118.878 311.938 119.146 312.222 119.482 312.422C119.818 312.614 120.19 312.71 120.598 312.71C121.006 312.71 121.378 312.614 121.714 312.422C122.058 312.222 122.33 311.938 122.53 311.57C122.73 311.194 122.83 310.758 122.83 310.262ZM125.371 310.25C125.371 309.578 125.507 308.99 125.779 308.486C126.051 307.974 126.423 307.578 126.895 307.298C127.375 307.018 127.907 306.878 128.491 306.878C129.067 306.878 129.567 307.002 129.991 307.25C130.415 307.498 130.731 307.81 130.939 308.186V306.986H132.043V313.562H130.939V312.338C130.723 312.722 130.399 313.042 129.967 313.298C129.543 313.546 129.047 313.671 128.479 313.671C127.895 313.671 127.367 313.527 126.895 313.238C126.423 312.95 126.051 312.546 125.779 312.026C125.507 311.506 125.371 310.914 125.371 310.25ZM130.939 310.262C130.939 309.766 130.839 309.334 130.639 308.966C130.439 308.598 130.167 308.318 129.823 308.126C129.487 307.926 129.115 307.826 128.707 307.826C128.299 307.826 127.927 307.922 127.591 308.114C127.255 308.306 126.987 308.586 126.787 308.954C126.587 309.322 126.487 309.754 126.487 310.25C126.487 310.754 126.587 311.194 126.787 311.57C126.987 311.938 127.255 312.222 127.591 312.422C127.927 312.614 128.299 312.71 128.707 312.71C129.115 312.71 129.487 312.614 129.823 312.422C130.167 312.222 130.439 311.938 130.639 311.57C130.839 311.194 130.939 310.758 130.939 310.262ZM137.093 306.866C137.893 306.866 138.541 307.11 139.037 307.598C139.533 308.078 139.781 308.774 139.781 309.686V313.562H138.701V309.842C138.701 309.186 138.537 308.686 138.209 308.342C137.881 307.99 137.433 307.814 136.865 307.814C136.289 307.814 135.829 307.994 135.485 308.354C135.149 308.714 134.981 309.238 134.981 309.926V313.562H133.889V306.986H134.981V307.922C135.197 307.586 135.489 307.326 135.857 307.142C136.233 306.958 136.645 306.866 137.093 306.866ZM148.436 313.562L145.856 310.658V313.562H144.764V304.682H145.856V309.902L148.388 306.986H149.912L146.816 310.262L149.924 313.562H148.436ZM150.532 310.25C150.532 309.578 150.668 308.99 150.94 308.486C151.212 307.974 151.584 307.578 152.056 307.298C152.536 307.018 153.068 306.878 153.652 306.878C154.228 306.878 154.728 307.002 155.152 307.25C155.576 307.498 155.892 307.81 156.1 308.186V306.986H157.204V313.562H156.1V312.338C155.884 312.722 155.56 313.042 155.128 313.298C154.704 313.546 154.208 313.671 153.64 313.671C153.056 313.671 152.528 313.527 152.056 313.238C151.584 312.95 151.212 312.546 150.94 312.026C150.668 311.506 150.532 310.914 150.532 310.25ZM156.1 310.262C156.1 309.766 156 309.334 155.8 308.966C155.6 308.598 155.328 308.318 154.984 308.126C154.648 307.926 154.276 307.826 153.868 307.826C153.46 307.826 153.088 307.922 152.752 308.114C152.416 308.306 152.148 308.586 151.948 308.954C151.748 309.322 151.648 309.754 151.648 310.25C151.648 310.754 151.748 311.194 151.948 311.57C152.148 311.938 152.416 312.222 152.752 312.422C153.088 312.614 153.46 312.71 153.868 312.71C154.276 312.71 154.648 312.614 154.984 312.422C155.328 312.222 155.6 311.938 155.8 311.57C156 311.194 156.1 310.758 156.1 310.262ZM160.381 307.886V311.762C160.381 312.082 160.449 312.31 160.585 312.446C160.721 312.574 160.957 312.638 161.293 312.638H162.097V313.562H161.113C160.505 313.562 160.049 313.422 159.745 313.142C159.441 312.862 159.289 312.402 159.289 311.762V307.886H158.437V306.986H159.289V305.33H160.381V306.986H162.097V307.886H160.381ZM163.012 310.25C163.012 309.578 163.148 308.99 163.42 308.486C163.692 307.974 164.064 307.578 164.536 307.298C165.016 307.018 165.548 306.878 166.132 306.878C166.708 306.878 167.208 307.002 167.632 307.25C168.056 307.498 168.372 307.81 168.58 308.186V306.986H169.684V313.562H168.58V312.338C168.364 312.722 168.04 313.042 167.608 313.298C167.184 313.546 166.688 313.671 166.12 313.671C165.536 313.671 165.008 313.527 164.536 313.238C164.064 312.95 163.692 312.546 163.42 312.026C163.148 311.506 163.012 310.914 163.012 310.25ZM168.58 310.262C168.58 309.766 168.48 309.334 168.28 308.966C168.08 308.598 167.808 308.318 167.464 308.126C167.128 307.926 166.756 307.826 166.348 307.826C165.94 307.826 165.568 307.922 165.232 308.114C164.896 308.306 164.628 308.586 164.428 308.954C164.228 309.322 164.128 309.754 164.128 310.25C164.128 310.754 164.228 311.194 164.428 311.57C164.628 311.938 164.896 312.222 165.232 312.422C165.568 312.614 165.94 312.71 166.348 312.71C166.756 312.71 167.128 312.614 167.464 312.422C167.808 312.222 168.08 311.938 168.28 311.57C168.48 311.194 168.58 310.758 168.58 310.262ZM177.057 313.671C176.553 313.671 176.101 313.587 175.701 313.418C175.301 313.242 174.985 313.002 174.753 312.698C174.521 312.386 174.393 312.03 174.369 311.63H175.497C175.529 311.958 175.681 312.226 175.953 312.434C176.233 312.642 176.597 312.746 177.045 312.746C177.461 312.746 177.789 312.654 178.029 312.47C178.269 312.286 178.389 312.054 178.389 311.774C178.389 311.486 178.261 311.274 178.005 311.138C177.749 310.994 177.353 310.854 176.817 310.718C176.329 310.59 175.929 310.462 175.617 310.334C175.313 310.198 175.049 310.002 174.825 309.746C174.609 309.482 174.501 309.138 174.501 308.714C174.501 308.378 174.601 308.07 174.801 307.79C175.001 307.51 175.285 307.29 175.653 307.13C176.021 306.962 176.441 306.878 176.913 306.878C177.641 306.878 178.229 307.062 178.677 307.43C179.125 307.798 179.365 308.302 179.397 308.942H178.305C178.281 308.598 178.141 308.322 177.885 308.114C177.637 307.906 177.301 307.802 176.877 307.802C176.485 307.802 176.173 307.886 175.941 308.054C175.709 308.222 175.593 308.442 175.593 308.714C175.593 308.93 175.661 309.11 175.797 309.254C175.941 309.39 176.117 309.502 176.325 309.59C176.541 309.67 176.837 309.762 177.213 309.866C177.685 309.994 178.069 310.122 178.365 310.25C178.661 310.37 178.913 310.554 179.121 310.802C179.337 311.05 179.449 311.374 179.457 311.774C179.457 312.134 179.357 312.458 179.157 312.746C178.957 313.034 178.673 313.262 178.305 313.43C177.945 313.591 177.529 313.671 177.057 313.671ZM180.59 310.25C180.59 309.578 180.726 308.99 180.998 308.486C181.27 307.974 181.642 307.578 182.114 307.298C182.594 307.018 183.126 306.878 183.71 306.878C184.286 306.878 184.786 307.002 185.21 307.25C185.634 307.498 185.95 307.81 186.158 308.186V306.986H187.262V313.562H186.158V312.338C185.942 312.722 185.618 313.042 185.186 313.298C184.762 313.546 184.266 313.671 183.698 313.671C183.114 313.671 182.586 313.527 182.114 313.238C181.642 312.95 181.27 312.546 180.998 312.026C180.726 311.506 180.59 310.914 180.59 310.25ZM186.158 310.262C186.158 309.766 186.058 309.334 185.858 308.966C185.658 308.598 185.386 308.318 185.042 308.126C184.706 307.926 184.334 307.826 183.926 307.826C183.518 307.826 183.146 307.922 182.81 308.114C182.474 308.306 182.206 308.586 182.006 308.954C181.806 309.322 181.706 309.754 181.706 310.25C181.706 310.754 181.806 311.194 182.006 311.57C182.206 311.938 182.474 312.222 182.81 312.422C183.146 312.614 183.518 312.71 183.926 312.71C184.334 312.71 184.706 312.614 185.042 312.422C185.386 312.222 185.658 311.938 185.858 311.57C186.058 311.194 186.158 310.758 186.158 310.262ZM192.312 306.866C193.112 306.866 193.76 307.11 194.256 307.598C194.752 308.078 195 308.774 195 309.686V313.562H193.92V309.842C193.92 309.186 193.756 308.686 193.428 308.342C193.1 307.99 192.652 307.814 192.084 307.814C191.508 307.814 191.048 307.994 190.704 308.354C190.368 308.714 190.2 309.238 190.2 309.926V313.562H189.108V306.986H190.2V307.922C190.416 307.586 190.708 307.326 191.076 307.142C191.452 306.958 191.864 306.866 192.312 306.866ZM196.375 310.25C196.375 309.578 196.511 308.99 196.783 308.486C197.055 307.974 197.427 307.578 197.899 307.298C198.379 307.018 198.915 306.878 199.507 306.878C200.019 306.878 200.495 306.998 200.935 307.238C201.375 307.47 201.711 307.778 201.943 308.162V304.682H203.047V313.562H201.943V312.326C201.727 312.718 201.407 313.042 200.983 313.298C200.559 313.546 200.063 313.671 199.495 313.671C198.911 313.671 198.379 313.527 197.899 313.238C197.427 312.95 197.055 312.546 196.783 312.026C196.511 311.506 196.375 310.914 196.375 310.25ZM201.943 310.262C201.943 309.766 201.843 309.334 201.643 308.966C201.443 308.598 201.171 308.318 200.827 308.126C200.491 307.926 200.119 307.826 199.711 307.826C199.303 307.826 198.931 307.922 198.595 308.114C198.259 308.306 197.991 308.586 197.791 308.954C197.591 309.322 197.491 309.754 197.491 310.25C197.491 310.754 197.591 311.194 197.791 311.57C197.991 311.938 198.259 312.222 198.595 312.422C198.931 312.614 199.303 312.71 199.711 312.71C200.119 312.71 200.491 312.614 200.827 312.422C201.171 312.222 201.443 311.938 201.643 311.57C201.843 311.194 201.943 310.758 201.943 310.262ZM205.457 305.918C205.249 305.918 205.073 305.846 204.929 305.702C204.785 305.558 204.713 305.382 204.713 305.174C204.713 304.966 204.785 304.79 204.929 304.646C205.073 304.502 205.249 304.43 205.457 304.43C205.657 304.43 205.825 304.502 205.961 304.646C206.105 304.79 206.177 304.966 206.177 305.174C206.177 305.382 206.105 305.558 205.961 305.702C205.825 305.846 205.657 305.918 205.457 305.918ZM205.985 306.986V313.562H204.893V306.986H205.985ZM216.877 306.986V313.562H215.785V312.59C215.577 312.926 215.285 313.19 214.909 313.382C214.541 313.567 214.133 313.659 213.685 313.659C213.173 313.659 212.713 313.554 212.305 313.346C211.897 313.13 211.573 312.81 211.333 312.386C211.101 311.962 210.985 311.446 210.985 310.838V306.986H212.065V310.694C212.065 311.342 212.229 311.842 212.557 312.194C212.885 312.538 213.333 312.71 213.901 312.71C214.485 312.71 214.945 312.53 215.281 312.17C215.617 311.81 215.785 311.286 215.785 310.598V306.986H216.877ZM221.925 306.866C222.725 306.866 223.373 307.11 223.869 307.598C224.365 308.078 224.613 308.774 224.613 309.686V313.562H223.533V309.842C223.533 309.186 223.369 308.686 223.041 308.342C222.713 307.99 222.265 307.814 221.697 307.814C221.121 307.814 220.661 307.994 220.317 308.354C219.981 308.714 219.813 309.238 219.813 309.926V313.562H218.721V306.986H219.813V307.922C220.029 307.586 220.321 307.326 220.689 307.142C221.065 306.958 221.477 306.866 221.925 306.866ZM227.729 307.886V311.762C227.729 312.082 227.797 312.31 227.933 312.446C228.069 312.574 228.305 312.638 228.641 312.638H229.445V313.562H228.461C227.853 313.562 227.397 313.422 227.093 313.142C226.789 312.862 226.637 312.402 226.637 311.762V307.886H225.785V306.986H226.637V305.33H227.729V306.986H229.445V307.886H227.729ZM236.6 306.986V313.562H235.508V312.59C235.3 312.926 235.008 313.19 234.632 313.382C234.264 313.567 233.856 313.659 233.408 313.659C232.896 313.659 232.436 313.554 232.028 313.346C231.62 313.13 231.296 312.81 231.056 312.386C230.824 311.962 230.708 311.446 230.708 310.838V306.986H231.788V310.694C231.788 311.342 231.952 311.842 232.28 312.194C232.608 312.538 233.056 312.71 233.624 312.71C234.208 312.71 234.668 312.53 235.004 312.17C235.34 311.81 235.508 311.286 235.508 310.598V306.986H236.6ZM242.116 313.562L239.536 310.658V313.562H238.444V304.682H239.536V309.902L242.068 306.986H243.592L240.496 310.262L243.604 313.562H242.116ZM255.727 306.866C256.239 306.866 256.695 306.974 257.095 307.19C257.495 307.398 257.811 307.714 258.043 308.138C258.275 308.562 258.391 309.078 258.391 309.686V313.562H257.311V309.842C257.311 309.186 257.147 308.686 256.819 308.342C256.499 307.99 256.063 307.814 255.511 307.814C254.943 307.814 254.491 307.998 254.155 308.366C253.819 308.726 253.651 309.25 253.651 309.938V313.562H252.571V309.842C252.571 309.186 252.407 308.686 252.079 308.342C251.759 307.99 251.323 307.814 250.771 307.814C250.203 307.814 249.751 307.998 249.415 308.366C249.079 308.726 248.911 309.25 248.911 309.938V313.562H247.819V306.986H248.911V307.934C249.127 307.59 249.415 307.326 249.775 307.142C250.143 306.958 250.547 306.866 250.987 306.866C251.539 306.866 252.027 306.99 252.451 307.238C252.875 307.486 253.191 307.85 253.399 308.33C253.583 307.866 253.887 307.506 254.311 307.25C254.735 306.994 255.207 306.866 255.727 306.866ZM259.774 310.25C259.774 309.578 259.91 308.99 260.182 308.486C260.454 307.974 260.826 307.578 261.298 307.298C261.778 307.018 262.31 306.878 262.894 306.878C263.47 306.878 263.97 307.002 264.394 307.25C264.818 307.498 265.134 307.81 265.342 308.186V306.986H266.446V313.562H265.342V312.338C265.126 312.722 264.802 313.042 264.37 313.298C263.946 313.546 263.45 313.671 262.882 313.671C262.298 313.671 261.77 313.527 261.298 313.238C260.826 312.95 260.454 312.546 260.182 312.026C259.91 311.506 259.774 310.914 259.774 310.25ZM265.342 310.262C265.342 309.766 265.242 309.334 265.042 308.966C264.842 308.598 264.57 308.318 264.226 308.126C263.89 307.926 263.518 307.826 263.11 307.826C262.702 307.826 262.33 307.922 261.994 308.114C261.658 308.306 261.39 308.586 261.19 308.954C260.99 309.322 260.89 309.754 260.89 310.25C260.89 310.754 260.99 311.194 261.19 311.57C261.39 311.938 261.658 312.222 261.994 312.422C262.33 312.614 262.702 312.71 263.11 312.71C263.518 312.71 263.89 312.614 264.226 312.422C264.57 312.222 264.842 311.938 265.042 311.57C265.242 311.194 265.342 310.758 265.342 310.262ZM270.619 313.671C270.115 313.671 269.663 313.587 269.263 313.418C268.863 313.242 268.547 313.002 268.315 312.698C268.083 312.386 267.955 312.03 267.931 311.63H269.059C269.091 311.958 269.243 312.226 269.515 312.434C269.795 312.642 270.159 312.746 270.607 312.746C271.023 312.746 271.351 312.654 271.591 312.47C271.831 312.286 271.951 312.054 271.951 311.774C271.951 311.486 271.823 311.274 271.567 311.138C271.311 310.994 270.915 310.854 270.379 310.718C269.891 310.59 269.491 310.462 269.179 310.334C268.875 310.198 268.611 310.002 268.387 309.746C268.171 309.482 268.063 309.138 268.063 308.714C268.063 308.378 268.163 308.07 268.363 307.79C268.563 307.51 268.847 307.29 269.215 307.13C269.583 306.962 270.003 306.878 270.475 306.878C271.203 306.878 271.791 307.062 272.239 307.43C272.687 307.798 272.927 308.302 272.959 308.942H271.867C271.843 308.598 271.703 308.322 271.447 308.114C271.199 307.906 270.863 307.802 270.439 307.802C270.047 307.802 269.735 307.886 269.503 308.054C269.271 308.222 269.155 308.442 269.155 308.714C269.155 308.93 269.223 309.11 269.359 309.254C269.503 309.39 269.679 309.502 269.887 309.59C270.103 309.67 270.399 309.762 270.775 309.866C271.247 309.994 271.631 310.122 271.927 310.25C272.223 310.37 272.475 310.554 272.683 310.802C272.899 311.05 273.011 311.374 273.019 311.774C273.019 312.134 272.919 312.458 272.719 312.746C272.519 313.034 272.235 313.262 271.867 313.43C271.507 313.591 271.091 313.671 270.619 313.671ZM280.393 306.986V313.562H279.301V312.59C279.093 312.926 278.801 313.19 278.425 313.382C278.057 313.567 277.649 313.659 277.201 313.659C276.689 313.659 276.229 313.554 275.821 313.346C275.413 313.13 275.089 312.81 274.849 312.386C274.617 311.962 274.501 311.446 274.501 310.838V306.986H275.581V310.694C275.581 311.342 275.745 311.842 276.073 312.194C276.401 312.538 276.849 312.71 277.417 312.71C278.001 312.71 278.461 312.53 278.797 312.17C279.133 311.81 279.301 311.286 279.301 310.598V306.986H280.393ZM285.909 313.562L283.329 310.658V313.562H282.237V304.682H283.329V309.902L285.861 306.986H287.385L284.289 310.262L287.397 313.562H285.909Z" fill="#C0BABA"/>
<rect x="16" y="342.562" width="371" height="50" rx="4" fill="#1D1D1D"/>
<path d="M30.268 364.326V366.774H33.148V367.89H30.268V370.446H33.508V371.562H28.9V363.21H33.508V364.326H30.268ZM43.197 364.842C43.717 364.842 44.181 364.95 44.589 365.166C45.005 365.382 45.329 365.702 45.561 366.126C45.801 366.55 45.921 367.062 45.921 367.662V371.562H44.565V367.866C44.565 367.274 44.417 366.822 44.121 366.51C43.825 366.19 43.421 366.03 42.909 366.03C42.397 366.03 41.989 366.19 41.685 366.51C41.389 366.822 41.241 367.274 41.241 367.866V371.562H39.885V367.866C39.885 367.274 39.737 366.822 39.441 366.51C39.145 366.19 38.741 366.03 38.229 366.03C37.717 366.03 37.309 366.19 37.005 366.51C36.709 366.822 36.561 367.274 36.561 367.866V371.562H35.193V364.951H36.561V365.706C36.785 365.434 37.069 365.222 37.413 365.07C37.757 364.918 38.125 364.842 38.517 364.842C39.045 364.842 39.517 364.954 39.933 365.178C40.349 365.402 40.669 365.726 40.893 366.15C41.093 365.75 41.405 365.434 41.829 365.202C42.253 364.962 42.709 364.842 43.197 364.842ZM47.2057 368.226C47.2057 367.562 47.3417 366.974 47.6137 366.462C47.8937 365.95 48.2697 365.554 48.7417 365.274C49.2217 364.986 49.7497 364.842 50.3257 364.842C50.8457 364.842 51.2977 364.946 51.6817 365.154C52.0737 365.354 52.3857 365.606 52.6177 365.91V364.951H53.9977V371.562H52.6177V370.578C52.3857 370.89 52.0697 371.15 51.6697 371.358C51.2697 371.567 50.8137 371.671 50.3017 371.671C49.7337 371.671 49.2137 371.527 48.7417 371.238C48.2697 370.942 47.8937 370.534 47.6137 370.014C47.3417 369.486 47.2057 368.89 47.2057 368.226ZM52.6177 368.25C52.6177 367.794 52.5217 367.398 52.3297 367.062C52.1457 366.726 51.9017 366.47 51.5977 366.294C51.2937 366.118 50.9657 366.03 50.6137 366.03C50.2617 366.03 49.9337 366.118 49.6297 366.294C49.3257 366.462 49.0777 366.714 48.8857 367.05C48.7017 367.378 48.6097 367.77 48.6097 368.226C48.6097 368.682 48.7017 369.082 48.8857 369.426C49.0777 369.77 49.3257 370.034 49.6297 370.218C49.9417 370.394 50.2697 370.482 50.6137 370.482C50.9657 370.482 51.2937 370.394 51.5977 370.218C51.9017 370.042 52.1457 369.786 52.3297 369.45C52.5217 369.106 52.6177 368.706 52.6177 368.25ZM56.4905 364.074C56.2425 364.074 56.0345 363.99 55.8665 363.822C55.6985 363.654 55.6145 363.446 55.6145 363.198C55.6145 362.95 55.6985 362.742 55.8665 362.574C56.0345 362.406 56.2425 362.322 56.4905 362.322C56.7305 362.322 56.9345 362.406 57.1025 362.574C57.2705 362.742 57.3545 362.95 57.3545 363.198C57.3545 363.446 57.2705 363.654 57.1025 363.822C56.9345 363.99 56.7305 364.074 56.4905 364.074ZM57.1625 364.951V371.562H55.7945V364.951H57.1625ZM60.3266 362.682V371.562H58.9586V362.682H60.3266Z" fill="#636363"/>
<rect x="16" y="408.562" width="371" height="50" rx="4" fill="#1D1D1D"/>
<path d="M34.732 431.706C34.732 432.13 34.632 432.53 34.432 432.906C34.232 433.282 33.912 433.59 33.472 433.83C33.032 434.062 32.468 434.178 31.78 434.178H30.268V437.562H28.9V429.222H31.78C32.42 429.222 32.96 429.334 33.4 429.558C33.848 429.774 34.18 430.07 34.396 430.446C34.62 430.822 34.732 431.242 34.732 431.706ZM31.78 433.062C32.3 433.062 32.688 432.946 32.944 432.714C33.2 432.474 33.328 432.138 33.328 431.706C33.328 430.794 32.812 430.338 31.78 430.338H30.268V433.062H31.78ZM35.5807 434.226C35.5807 433.562 35.7167 432.974 35.9887 432.462C36.2687 431.95 36.6447 431.554 37.1167 431.274C37.5967 430.986 38.1247 430.842 38.7007 430.842C39.2207 430.842 39.6727 430.946 40.0567 431.154C40.4487 431.354 40.7607 431.606 40.9927 431.91V430.951H42.3727V437.562H40.9927V436.578C40.7607 436.89 40.4447 437.15 40.0447 437.358C39.6447 437.567 39.1887 437.671 38.6767 437.671C38.1087 437.671 37.5887 437.527 37.1167 437.238C36.6447 436.942 36.2687 436.534 35.9887 436.014C35.7167 435.486 35.5807 434.89 35.5807 434.226ZM40.9927 434.25C40.9927 433.794 40.8967 433.398 40.7047 433.062C40.5207 432.726 40.2767 432.47 39.9727 432.294C39.6687 432.118 39.3407 432.03 38.9887 432.03C38.6367 432.03 38.3087 432.118 38.0047 432.294C37.7007 432.462 37.4527 432.714 37.2607 433.05C37.0767 433.378 36.9847 433.77 36.9847 434.226C36.9847 434.682 37.0767 435.082 37.2607 435.426C37.4527 435.77 37.7007 436.034 38.0047 436.218C38.3167 436.394 38.6447 436.482 38.9887 436.482C39.3407 436.482 39.6687 436.394 39.9727 436.218C40.2767 436.042 40.5207 435.786 40.7047 435.45C40.8967 435.106 40.9927 434.706 40.9927 434.25ZM46.5695 437.671C46.0495 437.671 45.5815 437.579 45.1655 437.394C44.7575 437.202 44.4335 436.946 44.1935 436.626C43.9535 436.298 43.8255 435.934 43.8095 435.534H45.2255C45.2495 435.814 45.3815 436.05 45.6215 436.242C45.8695 436.426 46.1775 436.518 46.5455 436.518C46.9295 436.518 47.2255 436.446 47.4335 436.302C47.6495 436.15 47.7575 435.958 47.7575 435.726C47.7575 435.478 47.6375 435.294 47.3975 435.174C47.1655 435.054 46.7935 434.922 46.2815 434.778C45.7855 434.642 45.3815 434.51 45.0695 434.382C44.7575 434.254 44.4855 434.058 44.2535 433.794C44.0295 433.53 43.9175 433.182 43.9175 432.75C43.9175 432.398 44.0215 432.078 44.2295 431.79C44.4375 431.494 44.7335 431.262 45.1175 431.094C45.5095 430.926 45.9575 430.842 46.4615 430.842C47.2135 430.842 47.8175 431.034 48.2735 431.418C48.7375 431.794 48.9855 432.31 49.0175 432.966H47.6495C47.6255 432.67 47.5055 432.434 47.2895 432.258C47.0735 432.082 46.7815 431.994 46.4135 431.994C46.0535 431.994 45.7775 432.062 45.5855 432.198C45.3935 432.334 45.2975 432.514 45.2975 432.738C45.2975 432.914 45.3615 433.062 45.4895 433.182C45.6175 433.302 45.7735 433.398 45.9575 433.47C46.1415 433.534 46.4135 433.618 46.7735 433.722C47.2535 433.85 47.6455 433.982 47.9495 434.118C48.2615 434.246 48.5295 434.438 48.7535 434.694C48.9775 434.95 49.0935 435.29 49.1015 435.714C49.1015 436.09 48.9975 436.426 48.7895 436.722C48.5815 437.019 48.2855 437.251 47.9015 437.418C47.5255 437.587 47.0815 437.671 46.5695 437.671ZM52.9797 437.671C52.4597 437.671 51.9917 437.579 51.5757 437.394C51.1677 437.202 50.8437 436.946 50.6037 436.626C50.3637 436.298 50.2357 435.934 50.2197 435.534H51.6357C51.6597 435.814 51.7917 436.05 52.0317 436.242C52.2797 436.426 52.5877 436.518 52.9557 436.518C53.3397 436.518 53.6357 436.446 53.8437 436.302C54.0597 436.15 54.1677 435.958 54.1677 435.726C54.1677 435.478 54.0477 435.294 53.8077 435.174C53.5757 435.054 53.2037 434.922 52.6917 434.778C52.1957 434.642 51.7917 434.51 51.4797 434.382C51.1677 434.254 50.8957 434.058 50.6637 433.794C50.4397 433.53 50.3277 433.182 50.3277 432.75C50.3277 432.398 50.4317 432.078 50.6397 431.79C50.8477 431.494 51.1437 431.262 51.5277 431.094C51.9197 430.926 52.3677 430.842 52.8717 430.842C53.6237 430.842 54.2277 431.034 54.6837 431.418C55.1477 431.794 55.3957 432.31 55.4277 432.966H54.0597C54.0357 432.67 53.9157 432.434 53.6997 432.258C53.4837 432.082 53.1917 431.994 52.8237 431.994C52.4637 431.994 52.1877 432.062 51.9957 432.198C51.8037 432.334 51.7077 432.514 51.7077 432.738C51.7077 432.914 51.7717 433.062 51.8997 433.182C52.0277 433.302 52.1837 433.398 52.3677 433.47C52.5517 433.534 52.8237 433.618 53.1837 433.722C53.6637 433.85 54.0557 433.982 54.3597 434.118C54.6717 434.246 54.9397 434.438 55.1637 434.694C55.3877 434.95 55.5037 435.29 55.5117 435.714C55.5117 436.09 55.4077 436.426 55.1997 436.722C54.9917 437.019 54.6957 437.251 54.3117 437.418C53.9357 437.587 53.4917 437.671 52.9797 437.671ZM65.8698 430.951L63.8178 437.562H62.3778L61.0458 432.678L59.7138 437.562H58.2738L56.2098 430.951H57.6018L58.9818 436.266L60.3858 430.951H61.8138L63.1578 436.242L64.5258 430.951H65.8698ZM69.7602 437.671C69.1362 437.671 68.5722 437.531 68.0682 437.25C67.5642 436.962 67.1682 436.562 66.8802 436.05C66.5922 435.53 66.4482 434.93 66.4482 434.25C66.4482 433.578 66.5962 432.982 66.8922 432.462C67.1882 431.942 67.5922 431.542 68.1042 431.262C68.6162 430.982 69.1882 430.842 69.8202 430.842C70.4522 430.842 71.0242 430.982 71.5362 431.262C72.0482 431.542 72.4522 431.942 72.7482 432.462C73.0442 432.982 73.1922 433.578 73.1922 434.25C73.1922 434.922 73.0402 435.518 72.7362 436.038C72.4322 436.558 72.0162 436.962 71.4882 437.25C70.9682 437.531 70.3922 437.671 69.7602 437.671ZM69.7602 436.482C70.1122 436.482 70.4402 436.398 70.7442 436.23C71.0562 436.062 71.3082 435.81 71.5002 435.474C71.6922 435.138 71.7882 434.73 71.7882 434.25C71.7882 433.77 71.6962 433.366 71.5122 433.038C71.3282 432.702 71.0842 432.45 70.7802 432.282C70.4762 432.114 70.1482 432.03 69.7962 432.03C69.4442 432.03 69.1162 432.114 68.8122 432.282C68.5162 432.45 68.2802 432.702 68.1042 433.038C67.9282 433.366 67.8402 433.77 67.8402 434.25C67.8402 434.962 68.0202 435.514 68.3802 435.906C68.7482 436.29 69.2082 436.482 69.7602 436.482ZM75.9125 431.91C76.1125 431.574 76.3765 431.314 76.7045 431.13C77.0405 430.938 77.4365 430.842 77.8925 430.842V432.258H77.5445C77.0085 432.258 76.6005 432.394 76.3205 432.666C76.0485 432.938 75.9125 433.41 75.9125 434.082V437.562H74.5445V430.951H75.9125V431.91ZM78.694 434.226C78.694 433.562 78.83 432.974 79.102 432.462C79.382 431.95 79.758 431.554 80.23 431.274C80.71 430.986 81.242 430.842 81.826 430.842C82.258 430.842 82.682 430.938 83.098 431.13C83.522 431.314 83.858 431.562 84.106 431.874V428.682H85.486V437.562H84.106V436.566C83.882 436.886 83.57 437.15 83.17 437.358C82.778 437.567 82.326 437.671 81.814 437.671C81.238 437.671 80.71 437.527 80.23 437.238C79.758 436.942 79.382 436.534 79.102 436.014C78.83 435.486 78.694 434.89 78.694 434.226ZM84.106 434.25C84.106 433.794 84.01 433.398 83.818 433.062C83.634 432.726 83.39 432.47 83.086 432.294C82.782 432.118 82.454 432.03 82.102 432.03C81.75 432.03 81.422 432.118 81.118 432.294C80.814 432.462 80.566 432.714 80.374 433.05C80.19 433.378 80.098 433.77 80.098 434.226C80.098 434.682 80.19 435.082 80.374 435.426C80.566 435.77 80.814 436.034 81.118 436.218C81.43 436.394 81.758 436.482 82.102 436.482C82.454 436.482 82.782 436.394 83.086 436.218C83.39 436.042 83.634 435.786 83.818 435.45C84.01 435.106 84.106 434.706 84.106 434.25Z" fill="#636363"/>
<path d="M291.586 486.674H294.514V487.562H290.494V479.198H291.586V486.674ZM301.506 480.986V487.562H300.414V486.59C300.206 486.926 299.914 487.19 299.538 487.382C299.17 487.567 298.762 487.659 298.314 487.659C297.802 487.659 297.342 487.554 296.934 487.346C296.526 487.13 296.202 486.81 295.962 486.386C295.73 485.962 295.614 485.446 295.614 484.838V480.986H296.694V484.694C296.694 485.342 296.858 485.842 297.186 486.194C297.514 486.538 297.962 486.71 298.53 486.71C299.114 486.71 299.574 486.53 299.91 486.17C300.246 485.81 300.414 485.286 300.414 484.598V480.986H301.506ZM304.442 482.198C304.658 481.822 304.978 481.51 305.402 481.262C305.834 481.006 306.334 480.878 306.902 480.878C307.486 480.878 308.014 481.018 308.486 481.298C308.966 481.578 309.342 481.974 309.614 482.486C309.886 482.99 310.022 483.578 310.022 484.25C310.022 484.914 309.886 485.506 309.614 486.026C309.342 486.546 308.966 486.95 308.486 487.238C308.014 487.527 307.486 487.671 306.902 487.671C306.342 487.671 305.846 487.546 305.414 487.298C304.99 487.042 304.666 486.726 304.442 486.35V490.683H303.35V480.986H304.442V482.198ZM308.906 484.25C308.906 483.754 308.806 483.322 308.606 482.954C308.406 482.586 308.134 482.306 307.79 482.114C307.454 481.922 307.082 481.826 306.674 481.826C306.274 481.826 305.902 481.926 305.558 482.126C305.222 482.318 304.95 482.602 304.742 482.978C304.542 483.346 304.442 483.774 304.442 484.262C304.442 484.758 304.542 485.194 304.742 485.57C304.95 485.938 305.222 486.222 305.558 486.422C305.902 486.614 306.274 486.71 306.674 486.71C307.082 486.71 307.454 486.614 307.79 486.422C308.134 486.222 308.406 485.938 308.606 485.57C308.806 485.194 308.906 484.754 308.906 484.25ZM311.051 484.25C311.051 483.578 311.187 482.99 311.459 482.486C311.731 481.974 312.103 481.578 312.575 481.298C313.055 481.018 313.587 480.878 314.171 480.878C314.747 480.878 315.247 481.002 315.671 481.25C316.095 481.498 316.411 481.81 316.619 482.186V480.986H317.723V487.562H316.619V486.338C316.403 486.722 316.079 487.042 315.647 487.298C315.223 487.546 314.727 487.671 314.159 487.671C313.575 487.671 313.047 487.527 312.575 487.238C312.103 486.95 311.731 486.546 311.459 486.026C311.187 485.506 311.051 484.914 311.051 484.25ZM316.619 484.262C316.619 483.766 316.519 483.334 316.319 482.966C316.119 482.598 315.847 482.318 315.503 482.126C315.167 481.926 314.795 481.826 314.387 481.826C313.979 481.826 313.607 481.922 313.271 482.114C312.935 482.306 312.667 482.586 312.467 482.954C312.267 483.322 312.167 483.754 312.167 484.25C312.167 484.754 312.267 485.194 312.467 485.57C312.667 485.938 312.935 486.222 313.271 486.422C313.607 486.614 313.979 486.71 314.387 486.71C314.795 486.71 315.167 486.614 315.503 486.422C315.847 486.222 316.119 485.938 316.319 485.57C316.519 485.194 316.619 484.758 316.619 484.262ZM323.86 482.198C324.076 481.822 324.396 481.51 324.82 481.262C325.252 481.006 325.752 480.878 326.32 480.878C326.904 480.878 327.432 481.018 327.904 481.298C328.384 481.578 328.76 481.974 329.032 482.486C329.304 482.99 329.44 483.578 329.44 484.25C329.44 484.914 329.304 485.506 329.032 486.026C328.76 486.546 328.384 486.95 327.904 487.238C327.432 487.527 326.904 487.671 326.32 487.671C325.76 487.671 325.264 487.546 324.832 487.298C324.408 487.042 324.084 486.726 323.86 486.35V490.683H322.768V480.986H323.86V482.198ZM328.324 484.25C328.324 483.754 328.224 483.322 328.024 482.954C327.824 482.586 327.552 482.306 327.208 482.114C326.872 481.922 326.5 481.826 326.092 481.826C325.692 481.826 325.32 481.926 324.976 482.126C324.64 482.318 324.368 482.602 324.16 482.978C323.96 483.346 323.86 483.774 323.86 484.262C323.86 484.758 323.96 485.194 324.16 485.57C324.368 485.938 324.64 486.222 324.976 486.422C325.32 486.614 325.692 486.71 326.092 486.71C326.5 486.71 326.872 486.614 327.208 486.422C327.552 486.222 327.824 485.938 328.024 485.57C328.224 485.194 328.324 484.754 328.324 484.25ZM330.469 484.25C330.469 483.578 330.605 482.99 330.877 482.486C331.149 481.974 331.521 481.578 331.993 481.298C332.473 481.018 333.005 480.878 333.589 480.878C334.165 480.878 334.665 481.002 335.089 481.25C335.513 481.498 335.829 481.81 336.037 482.186V480.986H337.141V487.562H336.037V486.338C335.821 486.722 335.497 487.042 335.065 487.298C334.641 487.546 334.145 487.671 333.577 487.671C332.993 487.671 332.465 487.527 331.993 487.238C331.521 486.95 331.149 486.546 330.877 486.026C330.605 485.506 330.469 484.914 330.469 484.25ZM336.037 484.262C336.037 483.766 335.937 483.334 335.737 482.966C335.537 482.598 335.265 482.318 334.921 482.126C334.585 481.926 334.213 481.826 333.805 481.826C333.397 481.826 333.025 481.922 332.689 482.114C332.353 482.306 332.085 482.586 331.885 482.954C331.685 483.322 331.585 483.754 331.585 484.25C331.585 484.754 331.685 485.194 331.885 485.57C332.085 485.938 332.353 486.222 332.689 486.422C333.025 486.614 333.397 486.71 333.805 486.71C334.213 486.71 334.585 486.614 334.921 486.422C335.265 486.222 335.537 485.938 335.737 485.57C335.937 485.194 336.037 484.758 336.037 484.262ZM341.315 487.671C340.811 487.671 340.359 487.587 339.959 487.418C339.559 487.242 339.243 487.002 339.011 486.698C338.779 486.386 338.651 486.03 338.627 485.63H339.755C339.787 485.958 339.939 486.226 340.211 486.434C340.491 486.642 340.855 486.746 341.303 486.746C341.719 486.746 342.047 486.654 342.287 486.47C342.527 486.286 342.647 486.054 342.647 485.774C342.647 485.486 342.519 485.274 342.263 485.138C342.007 484.994 341.611 484.854 341.075 484.718C340.587 484.59 340.187 484.462 339.875 484.334C339.571 484.198 339.307 484.002 339.083 483.746C338.867 483.482 338.759 483.138 338.759 482.714C338.759 482.378 338.859 482.07 339.059 481.79C339.259 481.51 339.543 481.29 339.911 481.13C340.279 480.962 340.699 480.878 341.171 480.878C341.899 480.878 342.487 481.062 342.935 481.43C343.383 481.798 343.623 482.302 343.655 482.942H342.563C342.539 482.598 342.399 482.322 342.143 482.114C341.895 481.906 341.559 481.802 341.135 481.802C340.743 481.802 340.431 481.886 340.199 482.054C339.967 482.222 339.851 482.442 339.851 482.714C339.851 482.93 339.919 483.11 340.055 483.254C340.199 483.39 340.375 483.502 340.583 483.59C340.799 483.67 341.095 483.762 341.471 483.866C341.943 483.994 342.327 484.122 342.623 484.25C342.919 484.37 343.171 484.554 343.379 484.802C343.595 485.05 343.707 485.374 343.715 485.774C343.715 486.134 343.615 486.458 343.415 486.746C343.215 487.034 342.931 487.262 342.563 487.43C342.203 487.591 341.787 487.671 341.315 487.671ZM347.584 487.671C347.08 487.671 346.628 487.587 346.228 487.418C345.828 487.242 345.512 487.002 345.28 486.698C345.048 486.386 344.92 486.03 344.896 485.63H346.024C346.056 485.958 346.208 486.226 346.48 486.434C346.76 486.642 347.124 486.746 347.572 486.746C347.988 486.746 348.316 486.654 348.556 486.47C348.796 486.286 348.916 486.054 348.916 485.774C348.916 485.486 348.788 485.274 348.532 485.138C348.276 484.994 347.88 484.854 347.344 484.718C346.856 484.59 346.456 484.462 346.144 484.334C345.84 484.198 345.576 484.002 345.352 483.746C345.136 483.482 345.028 483.138 345.028 482.714C345.028 482.378 345.128 482.07 345.328 481.79C345.528 481.51 345.812 481.29 346.18 481.13C346.548 480.962 346.968 480.878 347.44 480.878C348.168 480.878 348.756 481.062 349.204 481.43C349.652 481.798 349.892 482.302 349.924 482.942H348.832C348.808 482.598 348.668 482.322 348.412 482.114C348.164 481.906 347.828 481.802 347.404 481.802C347.012 481.802 346.7 481.886 346.468 482.054C346.236 482.222 346.12 482.442 346.12 482.714C346.12 482.93 346.188 483.11 346.324 483.254C346.468 483.39 346.644 483.502 346.852 483.59C347.068 483.67 347.364 483.762 347.74 483.866C348.212 483.994 348.596 484.122 348.892 484.25C349.188 484.37 349.44 484.554 349.648 484.802C349.864 485.05 349.976 485.374 349.984 485.774C349.984 486.134 349.884 486.458 349.684 486.746C349.484 487.034 349.2 487.262 348.832 487.43C348.472 487.591 348.056 487.671 347.584 487.671ZM360.286 480.986L358.234 487.562H357.106L355.522 482.342L353.938 487.562H352.81L350.746 480.986H351.862L353.374 486.506L355.006 480.986H356.122L357.718 486.518L359.206 480.986H360.286ZM364.237 487.671C363.621 487.671 363.061 487.531 362.557 487.25C362.061 486.97 361.669 486.574 361.381 486.062C361.101 485.542 360.961 484.942 360.961 484.262C360.961 483.59 361.105 482.998 361.393 482.486C361.689 481.966 362.089 481.57 362.593 481.298C363.097 481.018 363.661 480.878 364.285 480.878C364.909 480.878 365.473 481.018 365.977 481.298C366.481 481.57 366.877 481.962 367.165 482.474C367.461 482.986 367.609 483.582 367.609 484.262C367.609 484.942 367.457 485.542 367.153 486.062C366.857 486.574 366.453 486.97 365.941 487.25C365.429 487.531 364.861 487.671 364.237 487.671ZM364.237 486.71C364.629 486.71 364.997 486.618 365.341 486.434C365.685 486.25 365.961 485.974 366.169 485.606C366.385 485.238 366.493 484.79 366.493 484.262C366.493 483.734 366.389 483.286 366.181 482.918C365.973 482.55 365.701 482.278 365.365 482.102C365.029 481.918 364.665 481.826 364.273 481.826C363.873 481.826 363.505 481.918 363.169 482.102C362.841 482.278 362.577 482.55 362.377 482.918C362.177 483.286 362.077 483.734 362.077 484.262C362.077 484.798 362.173 485.25 362.365 485.618C362.565 485.986 362.829 486.262 363.157 486.446C363.485 486.622 363.845 486.71 364.237 486.71ZM370.137 482.054C370.329 481.678 370.601 481.386 370.953 481.178C371.313 480.97 371.749 480.866 372.261 480.866V481.994H371.973C370.749 481.994 370.137 482.658 370.137 483.986V487.562H369.045V480.986H370.137V482.054ZM373.114 484.25C373.114 483.578 373.25 482.99 373.522 482.486C373.794 481.974 374.166 481.578 374.638 481.298C375.118 481.018 375.654 480.878 376.246 480.878C376.758 480.878 377.234 480.998 377.674 481.238C378.114 481.47 378.45 481.778 378.682 482.162V478.682H379.786V487.562H378.682V486.326C378.466 486.718 378.146 487.042 377.722 487.298C377.298 487.546 376.802 487.671 376.234 487.671C375.65 487.671 375.118 487.527 374.638 487.238C374.166 486.95 373.794 486.546 373.522 486.026C373.25 485.506 373.114 484.914 373.114 484.25ZM378.682 484.262C378.682 483.766 378.582 483.334 378.382 482.966C378.182 482.598 377.91 482.318 377.566 482.126C377.23 481.926 376.858 481.826 376.45 481.826C376.042 481.826 375.67 481.922 375.334 482.114C374.998 482.306 374.73 482.586 374.53 482.954C374.33 483.322 374.23 483.754 374.23 484.25C374.23 484.754 374.33 485.194 374.53 485.57C374.73 485.938 374.998 486.222 375.334 486.422C375.67 486.614 376.042 486.71 376.45 486.71C376.858 486.71 377.23 486.614 377.566 486.422C377.91 486.222 378.182 485.938 378.382 485.57C378.582 485.194 378.682 484.758 378.682 484.262ZM383.767 479.09C384.559 479.09 385.199 479.314 385.687 479.762C386.175 480.21 386.419 480.81 386.419 481.562C386.419 482.402 386.159 483.026 385.639 483.434C385.119 483.834 384.415 484.035 383.527 484.035L383.491 485.174H382.543L382.495 483.278H382.843C383.635 483.278 384.255 483.158 384.703 482.918C385.151 482.678 385.375 482.226 385.375 481.562C385.375 481.082 385.231 480.702 384.943 480.422C384.655 480.142 384.267 480.002 383.779 480.002C383.283 480.002 382.891 480.138 382.603 480.41C382.323 480.674 382.183 481.038 382.183 481.503H381.151C381.151 481.023 381.259 480.602 381.475 480.242C381.691 479.874 381.995 479.59 382.387 479.39C382.787 479.19 383.247 479.09 383.767 479.09ZM383.011 487.635C382.803 487.635 382.627 487.562 382.483 487.418C382.339 487.274 382.267 487.098 382.267 486.89C382.267 486.682 382.339 486.506 382.483 486.362C382.627 486.218 382.803 486.146 383.011 486.146C383.211 486.146 383.379 486.218 383.515 486.362C383.659 486.506 383.731 486.682 383.731 486.89C383.731 487.098 383.659 487.274 383.515 487.418C383.379 487.562 383.211 487.635 383.011 487.635Z" fill="#9A9A9A"/>
<rect x="16" y="516.562" width="371" height="50" rx="4" fill="#ED6238"/>
<path d="M185.768 544.458H188.588V545.562H184.4V537.222H185.768V544.458ZM192.6 545.671C191.976 545.671 191.412 545.531 190.908 545.25C190.404 544.962 190.008 544.562 189.72 544.05C189.432 543.53 189.288 542.93 189.288 542.25C189.288 541.578 189.436 540.982 189.732 540.462C190.028 539.942 190.432 539.542 190.944 539.262C191.456 538.982 192.028 538.842 192.66 538.842C193.292 538.842 193.864 538.982 194.376 539.262C194.888 539.542 195.292 539.942 195.588 540.462C195.884 540.982 196.032 541.578 196.032 542.25C196.032 542.922 195.88 543.518 195.576 544.038C195.272 544.558 194.856 544.962 194.328 545.25C193.808 545.531 193.232 545.671 192.6 545.671ZM192.6 544.482C192.952 544.482 193.28 544.398 193.584 544.23C193.896 544.062 194.148 543.81 194.34 543.474C194.532 543.138 194.628 542.73 194.628 542.25C194.628 541.77 194.536 541.366 194.352 541.038C194.168 540.702 193.924 540.45 193.62 540.282C193.316 540.114 192.988 540.03 192.636 540.03C192.284 540.03 191.956 540.114 191.652 540.282C191.356 540.45 191.12 540.702 190.944 541.038C190.768 541.366 190.68 541.77 190.68 542.25C190.68 542.962 190.86 543.514 191.22 543.906C191.588 544.29 192.048 544.482 192.6 544.482ZM200.048 538.842C200.56 538.842 201.012 538.946 201.404 539.154C201.804 539.354 202.116 539.606 202.34 539.91V538.951H203.72V545.671C203.72 546.279 203.592 546.819 203.336 547.291C203.08 547.771 202.708 548.147 202.22 548.419C201.74 548.691 201.164 548.827 200.492 548.827C199.596 548.827 198.852 548.615 198.26 548.191C197.668 547.775 197.332 547.207 197.252 546.487H198.608C198.712 546.831 198.932 547.107 199.268 547.315C199.612 547.531 200.02 547.639 200.492 547.639C201.044 547.639 201.488 547.471 201.824 547.135C202.168 546.799 202.34 546.311 202.34 545.671V544.566C202.108 544.878 201.792 545.142 201.392 545.358C201 545.567 200.552 545.671 200.048 545.671C199.472 545.671 198.944 545.527 198.464 545.238C197.992 544.942 197.616 544.534 197.336 544.014C197.064 543.486 196.928 542.89 196.928 542.226C196.928 541.562 197.064 540.974 197.336 540.462C197.616 539.95 197.992 539.554 198.464 539.274C198.944 538.986 199.472 538.842 200.048 538.842ZM202.34 542.25C202.34 541.794 202.244 541.398 202.052 541.062C201.868 540.726 201.624 540.47 201.32 540.294C201.016 540.118 200.688 540.03 200.336 540.03C199.984 540.03 199.656 540.118 199.352 540.294C199.048 540.462 198.8 540.714 198.608 541.05C198.424 541.378 198.332 541.77 198.332 542.226C198.332 542.682 198.424 543.082 198.608 543.426C198.8 543.77 199.048 544.034 199.352 544.218C199.664 544.394 199.992 544.482 200.336 544.482C200.688 544.482 201.016 544.394 201.32 544.218C201.624 544.042 201.868 543.786 202.052 543.45C202.244 543.106 202.34 542.706 202.34 542.25ZM209.33 538.074C209.082 538.074 208.874 537.99 208.706 537.822C208.538 537.654 208.454 537.446 208.454 537.198C208.454 536.95 208.538 536.742 208.706 536.574C208.874 536.406 209.082 536.322 209.33 536.322C209.57 536.322 209.774 536.406 209.942 536.574C210.11 536.742 210.194 536.95 210.194 537.198C210.194 537.446 210.11 537.654 209.942 537.822C209.774 537.99 209.57 538.074 209.33 538.074ZM210.002 538.951V545.562H208.634V538.951H210.002ZM215.134 538.842C215.654 538.842 216.118 538.95 216.526 539.166C216.942 539.382 217.266 539.702 217.498 540.126C217.73 540.55 217.846 541.062 217.846 541.662V545.562H216.49V541.866C216.49 541.274 216.342 540.822 216.046 540.51C215.75 540.19 215.346 540.03 214.834 540.03C214.322 540.03 213.914 540.19 213.61 540.51C213.314 540.822 213.166 541.274 213.166 541.866V545.562H211.798V538.951H213.166V539.706C213.39 539.434 213.674 539.222 214.018 539.07C214.37 538.918 214.742 538.842 215.134 538.842Z" fill="#F8E7E8"/>
<path d="M21.868 601.702H18.22L17.548 603.562H16.396L19.42 595.246H20.68L23.692 603.562H22.54L21.868 601.702ZM21.556 600.814L20.044 596.59L18.532 600.814H21.556ZM26.1019 598.198C26.3179 597.822 26.6379 597.51 27.0619 597.262C27.4939 597.006 27.9939 596.878 28.5619 596.878C29.1459 596.878 29.6739 597.018 30.1459 597.298C30.6259 597.578 31.0019 597.974 31.2739 598.486C31.5459 598.99 31.6819 599.578 31.6819 600.25C31.6819 600.914 31.5459 601.506 31.2739 602.026C31.0019 602.546 30.6259 602.95 30.1459 603.238C29.6739 603.527 29.1459 603.671 28.5619 603.671C28.0019 603.671 27.5059 603.546 27.0739 603.298C26.6499 603.042 26.3259 602.726 26.1019 602.35V606.683H25.0099V596.986H26.1019V598.198ZM30.5659 600.25C30.5659 599.754 30.4659 599.322 30.2659 598.954C30.0659 598.586 29.7939 598.306 29.4499 598.114C29.1139 597.922 28.7419 597.826 28.3339 597.826C27.9339 597.826 27.5619 597.926 27.2179 598.126C26.8819 598.318 26.6099 598.602 26.4019 598.978C26.2019 599.346 26.1019 599.774 26.1019 600.262C26.1019 600.758 26.2019 601.194 26.4019 601.57C26.6099 601.938 26.8819 602.222 27.2179 602.422C27.5619 602.614 27.9339 602.71 28.3339 602.71C28.7419 602.71 29.1139 602.614 29.4499 602.422C29.7939 602.222 30.0659 601.938 30.2659 601.57C30.4659 601.194 30.5659 600.754 30.5659 600.25ZM32.7113 600.25C32.7113 599.578 32.8473 598.99 33.1193 598.486C33.3913 597.974 33.7633 597.578 34.2353 597.298C34.7153 597.018 35.2473 596.878 35.8313 596.878C36.4073 596.878 36.9073 597.002 37.3313 597.25C37.7553 597.498 38.0713 597.81 38.2793 598.186V596.986H39.3833V603.562H38.2793V602.338C38.0633 602.722 37.7393 603.042 37.3073 603.298C36.8833 603.546 36.3873 603.671 35.8193 603.671C35.2353 603.671 34.7073 603.527 34.2353 603.238C33.7633 602.95 33.3913 602.546 33.1193 602.026C32.8473 601.506 32.7113 600.914 32.7113 600.25ZM38.2793 600.262C38.2793 599.766 38.1793 599.334 37.9793 598.966C37.7793 598.598 37.5073 598.318 37.1633 598.126C36.8273 597.926 36.4553 597.826 36.0473 597.826C35.6393 597.826 35.2673 597.922 34.9313 598.114C34.5953 598.306 34.3273 598.586 34.1273 598.954C33.9273 599.322 33.8273 599.754 33.8273 600.25C33.8273 600.754 33.9273 601.194 34.1273 601.57C34.3273 601.938 34.5953 602.222 34.9313 602.422C35.2673 602.614 35.6393 602.71 36.0473 602.71C36.4553 602.71 36.8273 602.614 37.1633 602.422C37.5073 602.222 37.7793 601.938 37.9793 601.57C38.1793 601.194 38.2793 600.758 38.2793 600.262ZM44.9007 603.562L42.3207 600.658V603.562H41.2287V594.682H42.3207V599.902L44.8527 596.986H46.3767L43.2807 600.262L46.3887 603.562H44.9007ZM46.9965 600.25C46.9965 599.578 47.1325 598.99 47.4045 598.486C47.6765 597.974 48.0485 597.578 48.5205 597.298C49.0005 597.018 49.5325 596.878 50.1165 596.878C50.6925 596.878 51.1925 597.002 51.6165 597.25C52.0405 597.498 52.3565 597.81 52.5645 598.186V596.986H53.6685V603.562H52.5645V602.338C52.3485 602.722 52.0245 603.042 51.5925 603.298C51.1685 603.546 50.6725 603.671 50.1045 603.671C49.5205 603.671 48.9925 603.527 48.5205 603.238C48.0485 602.95 47.6765 602.546 47.4045 602.026C47.1325 601.506 46.9965 600.914 46.9965 600.25ZM52.5645 600.262C52.5645 599.766 52.4645 599.334 52.2645 598.966C52.0645 598.598 51.7925 598.318 51.4485 598.126C51.1125 597.926 50.7405 597.826 50.3325 597.826C49.9245 597.826 49.5525 597.922 49.2165 598.114C48.8805 598.306 48.6125 598.586 48.4125 598.954C48.2125 599.322 48.1125 599.754 48.1125 600.25C48.1125 600.754 48.2125 601.194 48.4125 601.57C48.6125 601.938 48.8805 602.222 49.2165 602.422C49.5525 602.614 49.9245 602.71 50.3325 602.71C50.7405 602.71 51.1125 602.614 51.4485 602.422C51.7925 602.222 52.0645 601.938 52.2645 601.57C52.4645 601.194 52.5645 600.758 52.5645 600.262ZM58.7778 596.866C59.2738 596.866 59.7218 596.974 60.1218 597.19C60.5218 597.398 60.8338 597.714 61.0578 598.138C61.2898 598.562 61.4058 599.078 61.4058 599.686V603.562H60.3258V599.842C60.3258 599.186 60.1618 598.686 59.8338 598.342C59.5058 597.99 59.0578 597.814 58.4898 597.814C57.9138 597.814 57.4538 597.994 57.1098 598.354C56.7738 598.714 56.6058 599.238 56.6058 599.926V603.562H55.5138V594.682H56.6058V597.922C56.8218 597.586 57.1178 597.326 57.4938 597.142C57.8778 596.958 58.3058 596.866 58.7778 596.866ZM70.0608 603.562L67.4808 600.658V603.562H66.3888V594.682H67.4808V599.902L70.0128 596.986H71.5368L68.4408 600.262L71.5488 603.562H70.0608ZM72.1566 600.25C72.1566 599.578 72.2926 598.99 72.5646 598.486C72.8366 597.974 73.2086 597.578 73.6806 597.298C74.1606 597.018 74.6926 596.878 75.2766 596.878C75.8526 596.878 76.3526 597.002 76.7766 597.25C77.2006 597.498 77.5166 597.81 77.7246 598.186V596.986H78.8286V603.562H77.7246V602.338C77.5086 602.722 77.1846 603.042 76.7526 603.298C76.3286 603.546 75.8326 603.671 75.2646 603.671C74.6806 603.671 74.1526 603.527 73.6806 603.238C73.2086 602.95 72.8366 602.546 72.5646 602.026C72.2926 601.506 72.1566 600.914 72.1566 600.25ZM77.7246 600.262C77.7246 599.766 77.6246 599.334 77.4246 598.966C77.2246 598.598 76.9526 598.318 76.6086 598.126C76.2726 597.926 75.9006 597.826 75.4926 597.826C75.0846 597.826 74.7126 597.922 74.3766 598.114C74.0406 598.306 73.7726 598.586 73.5726 598.954C73.3726 599.322 73.2726 599.754 73.2726 600.25C73.2726 600.754 73.3726 601.194 73.5726 601.57C73.7726 601.938 74.0406 602.222 74.3766 602.422C74.7126 602.614 75.0846 602.71 75.4926 602.71C75.9006 602.71 76.2726 602.614 76.6086 602.422C76.9526 602.222 77.2246 601.938 77.4246 601.57C77.6246 601.194 77.7246 600.758 77.7246 600.262ZM88.582 596.866C89.094 596.866 89.55 596.974 89.95 597.19C90.35 597.398 90.666 597.714 90.898 598.138C91.13 598.562 91.246 599.078 91.246 599.686V603.562H90.166V599.842C90.166 599.186 90.002 598.686 89.674 598.342C89.354 597.99 88.918 597.814 88.366 597.814C87.798 597.814 87.346 597.998 87.01 598.366C86.674 598.726 86.506 599.25 86.506 599.938V603.562H85.426V599.842C85.426 599.186 85.262 598.686 84.934 598.342C84.614 597.99 84.178 597.814 83.626 597.814C83.058 597.814 82.606 597.998 82.27 598.366C81.934 598.726 81.766 599.25 81.766 599.938V603.562H80.674V596.986H81.766V597.934C81.982 597.59 82.27 597.326 82.63 597.142C82.998 596.958 83.402 596.866 83.842 596.866C84.394 596.866 84.882 596.99 85.306 597.238C85.73 597.486 86.046 597.85 86.254 598.33C86.438 597.866 86.742 597.506 87.166 597.25C87.59 596.994 88.062 596.866 88.582 596.866ZM98.8693 596.986V603.562H97.7773V602.59C97.5693 602.926 97.2773 603.19 96.9013 603.382C96.5333 603.567 96.1253 603.659 95.6773 603.659C95.1653 603.659 94.7053 603.554 94.2973 603.346C93.8893 603.13 93.5653 602.81 93.3253 602.386C93.0933 601.962 92.9773 601.446 92.9773 600.838V596.986H94.0573V600.694C94.0573 601.342 94.2213 601.842 94.5493 602.194C94.8773 602.538 95.3253 602.71 95.8933 602.71C96.4773 602.71 96.9373 602.53 97.2733 602.17C97.6093 601.81 97.7773 601.286 97.7773 600.598V596.986H98.8693ZM106.24 603.671C105.736 603.671 105.284 603.587 104.884 603.418C104.484 603.242 104.168 603.002 103.936 602.698C103.704 602.386 103.576 602.03 103.552 601.63H104.68C104.712 601.958 104.864 602.226 105.136 602.434C105.416 602.642 105.78 602.746 106.228 602.746C106.644 602.746 106.972 602.654 107.212 602.47C107.452 602.286 107.572 602.054 107.572 601.774C107.572 601.486 107.444 601.274 107.188 601.138C106.932 600.994 106.536 600.854 106 600.718C105.512 600.59 105.112 600.462 104.8 600.334C104.496 600.198 104.232 600.002 104.008 599.746C103.792 599.482 103.684 599.138 103.684 598.714C103.684 598.378 103.784 598.07 103.984 597.79C104.184 597.51 104.468 597.29 104.836 597.13C105.204 596.962 105.624 596.878 106.096 596.878C106.824 596.878 107.412 597.062 107.86 597.43C108.308 597.798 108.548 598.302 108.58 598.942H107.488C107.464 598.598 107.324 598.322 107.068 598.114C106.82 597.906 106.484 597.802 106.06 597.802C105.668 597.802 105.356 597.886 105.124 598.054C104.892 598.222 104.776 598.442 104.776 598.714C104.776 598.93 104.844 599.11 104.98 599.254C105.124 599.39 105.3 599.502 105.508 599.59C105.724 599.67 106.02 599.762 106.396 599.866C106.868 599.994 107.252 600.122 107.548 600.25C107.844 600.37 108.096 600.554 108.304 600.802C108.52 601.05 108.632 601.374 108.64 601.774C108.64 602.134 108.54 602.458 108.34 602.746C108.14 603.034 107.856 603.262 107.488 603.43C107.128 603.591 106.712 603.671 106.24 603.671ZM116.014 596.986V603.562H114.922V602.59C114.714 602.926 114.422 603.19 114.046 603.382C113.678 603.567 113.27 603.659 112.822 603.659C112.31 603.659 111.85 603.554 111.442 603.346C111.034 603.13 110.71 602.81 110.47 602.386C110.238 601.962 110.122 601.446 110.122 600.838V596.986H111.202V600.694C111.202 601.342 111.366 601.842 111.694 602.194C112.022 602.538 112.47 602.71 113.038 602.71C113.622 602.71 114.082 602.53 114.418 602.17C114.754 601.81 114.922 601.286 114.922 600.598V596.986H116.014ZM117.45 600.25C117.45 599.578 117.586 598.99 117.858 598.486C118.13 597.974 118.502 597.578 118.974 597.298C119.454 597.018 119.99 596.878 120.582 596.878C121.094 596.878 121.57 596.998 122.01 597.238C122.45 597.47 122.786 597.778 123.018 598.162V594.682H124.122V603.562H123.018V602.326C122.802 602.718 122.482 603.042 122.058 603.298C121.634 603.546 121.138 603.671 120.57 603.671C119.986 603.671 119.454 603.527 118.974 603.238C118.502 602.95 118.13 602.546 117.858 602.026C117.586 601.506 117.45 600.914 117.45 600.25ZM123.018 600.262C123.018 599.766 122.918 599.334 122.718 598.966C122.518 598.598 122.246 598.318 121.902 598.126C121.566 597.926 121.194 597.826 120.786 597.826C120.378 597.826 120.006 597.922 119.67 598.114C119.334 598.306 119.066 598.586 118.866 598.954C118.666 599.322 118.566 599.754 118.566 600.25C118.566 600.754 118.666 601.194 118.866 601.57C119.066 601.938 119.334 602.222 119.67 602.422C120.006 602.614 120.378 602.71 120.786 602.71C121.194 602.71 121.566 602.614 121.902 602.422C122.246 602.222 122.518 601.938 122.718 601.57C122.918 601.194 123.018 600.758 123.018 600.262ZM125.559 600.25C125.559 599.578 125.695 598.99 125.967 598.486C126.239 597.974 126.611 597.578 127.083 597.298C127.563 597.018 128.095 596.878 128.679 596.878C129.255 596.878 129.755 597.002 130.179 597.25C130.603 597.498 130.919 597.81 131.127 598.186V596.986H132.231V603.562H131.127V602.338C130.911 602.722 130.587 603.042 130.155 603.298C129.731 603.546 129.235 603.671 128.667 603.671C128.083 603.671 127.555 603.527 127.083 603.238C126.611 602.95 126.239 602.546 125.967 602.026C125.695 601.506 125.559 600.914 125.559 600.25ZM131.127 600.262C131.127 599.766 131.027 599.334 130.827 598.966C130.627 598.598 130.355 598.318 130.011 598.126C129.675 597.926 129.303 597.826 128.895 597.826C128.487 597.826 128.115 597.922 127.779 598.114C127.443 598.306 127.175 598.586 126.975 598.954C126.775 599.322 126.675 599.754 126.675 600.25C126.675 600.754 126.775 601.194 126.975 601.57C127.175 601.938 127.443 602.222 127.779 602.422C128.115 602.614 128.487 602.71 128.895 602.71C129.303 602.71 129.675 602.614 130.011 602.422C130.355 602.222 130.627 601.938 130.827 601.57C131.027 601.194 131.127 600.758 131.127 600.262ZM137.34 596.866C137.836 596.866 138.284 596.974 138.684 597.19C139.084 597.398 139.396 597.714 139.62 598.138C139.852 598.562 139.968 599.078 139.968 599.686V603.562H138.888V599.842C138.888 599.186 138.724 598.686 138.396 598.342C138.068 597.99 137.62 597.814 137.052 597.814C136.476 597.814 136.016 597.994 135.672 598.354C135.336 598.714 135.168 599.238 135.168 599.926V603.562H134.076V594.682H135.168V597.922C135.384 597.586 135.68 597.326 136.056 597.142C136.44 596.958 136.868 596.866 137.34 596.866ZM152.859 596.866C153.371 596.866 153.827 596.974 154.227 597.19C154.627 597.398 154.943 597.714 155.175 598.138C155.407 598.562 155.523 599.078 155.523 599.686V603.562H154.443V599.842C154.443 599.186 154.279 598.686 153.951 598.342C153.631 597.99 153.195 597.814 152.643 597.814C152.075 597.814 151.623 597.998 151.287 598.366C150.951 598.726 150.783 599.25 150.783 599.938V603.562H149.703V599.842C149.703 599.186 149.539 598.686 149.211 598.342C148.891 597.99 148.455 597.814 147.903 597.814C147.335 597.814 146.883 597.998 146.547 598.366C146.211 598.726 146.043 599.25 146.043 599.938V603.562H144.951V596.986H146.043V597.934C146.259 597.59 146.547 597.326 146.907 597.142C147.275 596.958 147.679 596.866 148.119 596.866C148.671 596.866 149.159 596.99 149.583 597.238C150.007 597.486 150.323 597.85 150.531 598.33C150.715 597.866 151.019 597.506 151.443 597.25C151.867 596.994 152.339 596.866 152.859 596.866ZM163.315 600.022C163.315 600.23 163.303 600.45 163.279 600.682H158.023C158.063 601.33 158.283 601.838 158.683 602.206C159.091 602.566 159.583 602.746 160.159 602.746C160.631 602.746 161.023 602.638 161.335 602.422C161.655 602.198 161.879 601.902 162.007 601.534H163.183C163.007 602.166 162.655 602.682 162.127 603.082C161.599 603.474 160.943 603.671 160.159 603.671C159.535 603.671 158.975 603.531 158.479 603.25C157.991 602.97 157.607 602.574 157.327 602.062C157.047 601.542 156.907 600.942 156.907 600.262C156.907 599.582 157.043 598.986 157.315 598.474C157.587 597.962 157.967 597.57 158.455 597.298C158.951 597.018 159.519 596.878 160.159 596.878C160.783 596.878 161.335 597.014 161.815 597.286C162.295 597.558 162.663 597.934 162.919 598.414C163.183 598.886 163.315 599.422 163.315 600.022ZM162.187 599.794C162.187 599.378 162.095 599.022 161.911 598.726C161.727 598.422 161.475 598.194 161.155 598.042C160.843 597.882 160.495 597.802 160.111 597.802C159.559 597.802 159.087 597.978 158.695 598.33C158.311 598.682 158.091 599.17 158.035 599.794H162.187ZM172.664 596.866C173.176 596.866 173.632 596.974 174.032 597.19C174.432 597.398 174.748 597.714 174.98 598.138C175.212 598.562 175.328 599.078 175.328 599.686V603.562H174.248V599.842C174.248 599.186 174.084 598.686 173.756 598.342C173.436 597.99 173 597.814 172.448 597.814C171.88 597.814 171.428 597.998 171.092 598.366C170.756 598.726 170.588 599.25 170.588 599.938V603.562H169.508V599.842C169.508 599.186 169.344 598.686 169.016 598.342C168.696 597.99 168.26 597.814 167.708 597.814C167.14 597.814 166.688 597.998 166.352 598.366C166.016 598.726 165.848 599.25 165.848 599.938V603.562H164.756V596.986H165.848V597.934C166.064 597.59 166.352 597.326 166.712 597.142C167.08 596.958 167.484 596.866 167.924 596.866C168.476 596.866 168.964 596.99 169.388 597.238C169.812 597.486 170.128 597.85 170.336 598.33C170.52 597.866 170.824 597.506 171.248 597.25C171.672 596.994 172.144 596.866 172.664 596.866ZM178.211 598.198C178.427 597.822 178.747 597.51 179.171 597.262C179.603 597.006 180.103 596.878 180.671 596.878C181.255 596.878 181.783 597.018 182.255 597.298C182.735 597.578 183.111 597.974 183.383 598.486C183.655 598.99 183.791 599.578 183.791 600.25C183.791 600.914 183.655 601.506 183.383 602.026C183.111 602.546 182.735 602.95 182.255 603.238C181.783 603.527 181.255 603.671 180.671 603.671C180.111 603.671 179.615 603.546 179.183 603.298C178.759 603.042 178.435 602.726 178.211 602.35V606.683H177.119V596.986H178.211V598.198ZM182.675 600.25C182.675 599.754 182.575 599.322 182.375 598.954C182.175 598.586 181.903 598.306 181.559 598.114C181.223 597.922 180.851 597.826 180.443 597.826C180.043 597.826 179.671 597.926 179.327 598.126C178.991 598.318 178.719 598.602 178.511 598.978C178.311 599.346 178.211 599.774 178.211 600.262C178.211 600.758 178.311 601.194 178.511 601.57C178.719 601.938 178.991 602.222 179.327 602.422C179.671 602.614 180.043 602.71 180.443 602.71C180.851 602.71 181.223 602.614 181.559 602.422C181.903 602.222 182.175 601.938 182.375 601.57C182.575 601.194 182.675 600.754 182.675 600.25ZM191.061 596.986V603.562H189.969V602.59C189.761 602.926 189.469 603.19 189.093 603.382C188.725 603.567 188.317 603.659 187.869 603.659C187.357 603.659 186.897 603.554 186.489 603.346C186.081 603.13 185.757 602.81 185.517 602.386C185.285 601.962 185.169 601.446 185.169 600.838V596.986H186.249V600.694C186.249 601.342 186.413 601.842 186.741 602.194C187.069 602.538 187.517 602.71 188.085 602.71C188.669 602.71 189.129 602.53 189.465 602.17C189.801 601.81 189.969 601.286 189.969 600.598V596.986H191.061ZM196.108 596.866C196.908 596.866 197.556 597.11 198.052 597.598C198.548 598.078 198.796 598.774 198.796 599.686V603.562H197.716V599.842C197.716 599.186 197.552 598.686 197.224 598.342C196.896 597.99 196.448 597.814 195.88 597.814C195.304 597.814 194.844 597.994 194.5 598.354C194.164 598.714 193.996 599.238 193.996 599.926V603.562H192.904V596.986H193.996V597.922C194.212 597.586 194.504 597.326 194.872 597.142C195.248 596.958 195.66 596.866 196.108 596.866ZM206.244 596.986L202.284 606.659H201.156L202.452 603.49L199.8 596.986H201.012L203.076 602.314L205.116 596.986H206.244ZM206.934 600.25C206.934 599.578 207.07 598.99 207.342 598.486C207.614 597.974 207.986 597.578 208.458 597.298C208.938 597.018 209.47 596.878 210.054 596.878C210.63 596.878 211.13 597.002 211.554 597.25C211.978 597.498 212.294 597.81 212.502 598.186V596.986H213.606V603.562H212.502V602.338C212.286 602.722 211.962 603.042 211.53 603.298C211.106 603.546 210.61 603.671 210.042 603.671C209.458 603.671 208.93 603.527 208.458 603.238C207.986 602.95 207.614 602.546 207.342 602.026C207.07 601.506 206.934 600.914 206.934 600.25ZM212.502 600.262C212.502 599.766 212.402 599.334 212.202 598.966C212.002 598.598 211.73 598.318 211.386 598.126C211.05 597.926 210.678 597.826 210.27 597.826C209.862 597.826 209.49 597.922 209.154 598.114C208.818 598.306 208.55 598.586 208.35 598.954C208.15 599.322 208.05 599.754 208.05 600.25C208.05 600.754 208.15 601.194 208.35 601.57C208.55 601.938 208.818 602.222 209.154 602.422C209.49 602.614 209.862 602.71 210.27 602.71C210.678 602.71 211.05 602.614 211.386 602.422C211.73 602.222 212.002 601.938 212.202 601.57C212.402 601.194 212.502 600.758 212.502 600.262ZM216.015 595.918C215.807 595.918 215.631 595.846 215.487 595.702C215.343 595.558 215.271 595.382 215.271 595.174C215.271 594.966 215.343 594.79 215.487 594.646C215.631 594.502 215.807 594.43 216.015 594.43C216.215 594.43 216.383 594.502 216.519 594.646C216.663 594.79 216.735 594.966 216.735 595.174C216.735 595.382 216.663 595.558 216.519 595.702C216.383 595.846 216.215 595.918 216.015 595.918ZM216.543 596.986V603.562H215.451V596.986H216.543ZM221.196 600.25C221.196 599.578 221.332 598.99 221.604 598.486C221.876 597.974 222.248 597.578 222.72 597.298C223.2 597.018 223.732 596.878 224.316 596.878C224.892 596.878 225.392 597.002 225.816 597.25C226.24 597.498 226.556 597.81 226.764 598.186V596.986H227.868V603.562H226.764V602.338C226.548 602.722 226.224 603.042 225.792 603.298C225.368 603.546 224.872 603.671 224.304 603.671C223.72 603.671 223.192 603.527 222.72 603.238C222.248 602.95 221.876 602.546 221.604 602.026C221.332 601.506 221.196 600.914 221.196 600.25ZM226.764 600.262C226.764 599.766 226.664 599.334 226.464 598.966C226.264 598.598 225.992 598.318 225.648 598.126C225.312 597.926 224.94 597.826 224.532 597.826C224.124 597.826 223.752 597.922 223.416 598.114C223.08 598.306 222.812 598.586 222.612 598.954C222.412 599.322 222.312 599.754 222.312 600.25C222.312 600.754 222.412 601.194 222.612 601.57C222.812 601.938 223.08 602.222 223.416 602.422C223.752 602.614 224.124 602.71 224.532 602.71C224.94 602.71 225.312 602.614 225.648 602.422C225.992 602.222 226.264 601.938 226.464 601.57C226.664 601.194 226.764 600.758 226.764 600.262ZM233.385 603.562L230.805 600.658V603.562H229.713V594.682H230.805V599.902L233.337 596.986H234.861L231.765 600.262L234.873 603.562H233.385ZM241.721 596.986V603.562H240.629V602.59C240.421 602.926 240.129 603.19 239.753 603.382C239.385 603.567 238.977 603.659 238.529 603.659C238.017 603.659 237.557 603.554 237.149 603.346C236.741 603.13 236.417 602.81 236.177 602.386C235.945 601.962 235.829 601.446 235.829 600.838V596.986H236.909V600.694C236.909 601.342 237.073 601.842 237.401 602.194C237.729 602.538 238.177 602.71 238.745 602.71C239.329 602.71 239.789 602.53 240.125 602.17C240.461 601.81 240.629 601.286 240.629 600.598V596.986H241.721ZM246.769 596.866C247.569 596.866 248.217 597.11 248.713 597.598C249.209 598.078 249.457 598.774 249.457 599.686V603.562H248.377V599.842C248.377 599.186 248.213 598.686 247.885 598.342C247.557 597.99 247.109 597.814 246.541 597.814C245.965 597.814 245.505 597.994 245.161 598.354C244.825 598.714 244.657 599.238 244.657 599.926V603.562H243.565V596.986H244.657V597.922C244.873 597.586 245.165 597.326 245.533 597.142C245.909 596.958 246.321 596.866 246.769 596.866ZM253.376 595.09C254.168 595.09 254.808 595.314 255.296 595.762C255.784 596.21 256.028 596.81 256.028 597.562C256.028 598.402 255.768 599.026 255.248 599.434C254.728 599.834 254.024 600.035 253.136 600.035L253.1 601.174H252.152L252.104 599.278H252.452C253.244 599.278 253.864 599.158 254.312 598.918C254.76 598.678 254.984 598.226 254.984 597.562C254.984 597.082 254.84 596.702 254.552 596.422C254.264 596.142 253.876 596.002 253.388 596.002C252.892 596.002 252.5 596.138 252.212 596.41C251.932 596.674 251.792 597.038 251.792 597.503H250.76C250.76 597.023 250.868 596.602 251.084 596.242C251.3 595.874 251.604 595.59 251.996 595.39C252.396 595.19 252.856 595.09 253.376 595.09ZM252.62 603.635C252.412 603.635 252.236 603.562 252.092 603.418C251.948 603.274 251.876 603.098 251.876 602.89C251.876 602.682 251.948 602.506 252.092 602.362C252.236 602.218 252.412 602.146 252.62 602.146C252.82 602.146 252.988 602.218 253.124 602.362C253.268 602.506 253.34 602.682 253.34 602.89C253.34 603.098 253.268 603.274 253.124 603.418C252.988 603.562 252.82 603.635 252.62 603.635Z" fill="#9A9A9A"/>
<path d="M268.576 603.647C268.024 603.647 267.528 603.55 267.088 603.358C266.656 603.158 266.316 602.886 266.068 602.542C265.82 602.19 265.692 601.786 265.684 601.33H266.848C266.888 601.722 267.048 602.054 267.328 602.326C267.616 602.59 268.032 602.722 268.576 602.722C269.096 602.722 269.504 602.594 269.8 602.338C270.104 602.074 270.256 601.738 270.256 601.33C270.256 601.01 270.168 600.75 269.992 600.55C269.816 600.35 269.596 600.198 269.332 600.094C269.068 599.99 268.712 599.878 268.264 599.758C267.712 599.614 267.268 599.47 266.932 599.326C266.604 599.182 266.32 598.958 266.08 598.654C265.848 598.342 265.732 597.926 265.732 597.406C265.732 596.95 265.848 596.546 266.08 596.194C266.312 595.842 266.636 595.57 267.052 595.378C267.476 595.186 267.96 595.09 268.504 595.09C269.288 595.09 269.928 595.286 270.424 595.678C270.928 596.07 271.212 596.59 271.276 597.238H270.076C270.036 596.918 269.868 596.638 269.572 596.398C269.276 596.15 268.884 596.026 268.396 596.026C267.94 596.026 267.568 596.146 267.28 596.386C266.992 596.618 266.848 596.946 266.848 597.37C266.848 597.674 266.932 597.922 267.1 598.114C267.276 598.306 267.488 598.454 267.736 598.558C267.992 598.654 268.348 598.766 268.804 598.894C269.356 599.046 269.8 599.198 270.136 599.35C270.472 599.494 270.76 599.722 271 600.035C271.24 600.338 271.36 600.754 271.36 601.282C271.36 601.69 271.252 602.074 271.036 602.434C270.82 602.794 270.5 603.086 270.076 603.31C269.652 603.534 269.152 603.647 268.576 603.647ZM273.531 595.918C273.323 595.918 273.147 595.846 273.003 595.702C272.859 595.558 272.787 595.382 272.787 595.174C272.787 594.966 272.859 594.79 273.003 594.646C273.147 594.502 273.323 594.43 273.531 594.43C273.731 594.43 273.899 594.502 274.035 594.646C274.179 594.79 274.251 594.966 274.251 595.174C274.251 595.382 274.179 595.558 274.035 595.702C273.899 595.846 273.731 595.918 273.531 595.918ZM274.059 596.986V603.562H272.967V596.986H274.059ZM278.632 596.878C279.2 596.878 279.696 597.002 280.12 597.25C280.552 597.498 280.872 597.81 281.08 598.186V596.986H282.184V603.707C282.184 604.307 282.056 604.839 281.8 605.303C281.544 605.775 281.176 606.143 280.696 606.407C280.224 606.671 279.672 606.803 279.04 606.803C278.176 606.803 277.456 606.599 276.88 606.191C276.304 605.783 275.964 605.227 275.86 604.523H276.94C277.06 604.923 277.308 605.243 277.684 605.483C278.06 605.731 278.512 605.855 279.04 605.855C279.64 605.855 280.128 605.667 280.504 605.291C280.888 604.915 281.08 604.387 281.08 603.707V602.326C280.864 602.71 280.544 603.03 280.12 603.286C279.696 603.542 279.2 603.671 278.632 603.671C278.048 603.671 277.516 603.527 277.036 603.238C276.564 602.95 276.192 602.546 275.92 602.026C275.648 601.506 275.512 600.914 275.512 600.25C275.512 599.578 275.648 598.99 275.92 598.486C276.192 597.974 276.564 597.578 277.036 597.298C277.516 597.018 278.048 596.878 278.632 596.878ZM281.08 600.262C281.08 599.766 280.98 599.334 280.78 598.966C280.58 598.598 280.308 598.318 279.964 598.126C279.628 597.926 279.256 597.826 278.848 597.826C278.44 597.826 278.068 597.922 277.732 598.114C277.396 598.306 277.128 598.586 276.928 598.954C276.728 599.322 276.628 599.754 276.628 600.25C276.628 600.754 276.728 601.194 276.928 601.57C277.128 601.938 277.396 602.222 277.732 602.422C278.068 602.614 278.44 602.71 278.848 602.71C279.256 602.71 279.628 602.614 279.964 602.422C280.308 602.222 280.58 601.938 280.78 601.57C280.98 601.194 281.08 600.758 281.08 600.262ZM287.233 596.866C288.033 596.866 288.681 597.11 289.177 597.598C289.673 598.078 289.921 598.774 289.921 599.686V603.562H288.841V599.842C288.841 599.186 288.677 598.686 288.349 598.342C288.021 597.99 287.573 597.814 287.005 597.814C286.429 597.814 285.969 597.994 285.625 598.354C285.289 598.714 285.121 599.238 285.121 599.926V603.562H284.029V596.986H285.121V597.922C285.337 597.586 285.629 597.326 285.997 597.142C286.373 596.958 286.785 596.866 287.233 596.866ZM300.736 596.986V603.562H299.644V602.59C299.436 602.926 299.144 603.19 298.768 603.382C298.4 603.567 297.992 603.659 297.544 603.659C297.032 603.659 296.572 603.554 296.164 603.346C295.756 603.13 295.432 602.81 295.192 602.386C294.96 601.962 294.844 601.446 294.844 600.838V596.986H295.924V600.694C295.924 601.342 296.088 601.842 296.416 602.194C296.744 602.538 297.192 602.71 297.76 602.71C298.344 602.71 298.804 602.53 299.14 602.17C299.476 601.81 299.644 601.286 299.644 600.598V596.986H300.736ZM303.672 598.198C303.888 597.822 304.208 597.51 304.632 597.262C305.064 597.006 305.564 596.878 306.132 596.878C306.716 596.878 307.244 597.018 307.716 597.298C308.196 597.578 308.572 597.974 308.844 598.486C309.116 598.99 309.252 599.578 309.252 600.25C309.252 600.914 309.116 601.506 308.844 602.026C308.572 602.546 308.196 602.95 307.716 603.238C307.244 603.527 306.716 603.671 306.132 603.671C305.572 603.671 305.076 603.546 304.644 603.298C304.22 603.042 303.896 602.726 303.672 602.35V606.683H302.58V596.986H303.672V598.198ZM308.136 600.25C308.136 599.754 308.036 599.322 307.836 598.954C307.636 598.586 307.364 598.306 307.02 598.114C306.684 597.922 306.312 597.826 305.904 597.826C305.504 597.826 305.132 597.926 304.788 598.126C304.452 598.318 304.18 598.602 303.972 598.978C303.772 599.346 303.672 599.774 303.672 600.262C303.672 600.758 303.772 601.194 303.972 601.57C304.18 601.938 304.452 602.222 304.788 602.422C305.132 602.614 305.504 602.71 305.904 602.71C306.312 602.71 306.684 602.614 307.02 602.422C307.364 602.222 307.636 601.938 307.836 601.57C308.036 601.194 308.136 600.754 308.136 600.25Z" fill="#ED6238"/>
</g>
<defs>
<filter id="filter0_f_92_584" x="-201" y="480.525" width="658.811" height="536.451" filterUnits="userSpaceOnUse" color-interpolation-filters="sRGB">
<feFlood flood-opacity="0" result="BackgroundImageFix"/>
<feBlend mode="normal" in="SourceGraphic" in2="BackgroundImageFix" result="shape"/>
<feGaussianBlur stdDeviation="100" result="effect1_foregroundBlur_92_584"/>
</filter>
<filter id="filter1_f_92_584" x="-253.431" y="271" width="956.431" height="747.277" filterUnits="userSpaceOnUse" color-interpolation-filters="sRGB">
<feFlood flood-opacity="0" result="BackgroundImageFix"/>
<feBlend mode="normal" in="SourceGraphic" in2="BackgroundImageFix" result="shape"/>
<feGaussianBlur stdDeviation="150" result="effect1_foregroundBlur_92_584"/>
</filter>
<filter id="filter2_f_92_584" x="-115.896" y="413.766" width="797.981" height="760.234" filterUnits="userSpaceOnUse" color-interpolation-filters="sRGB">
<feFlood flood-opacity="0" result="BackgroundImageFix"/>
<feBlend mode="normal" in="SourceGraphic" in2="BackgroundImageFix" result="shape"/>
<feGaussianBlur stdDeviation="150" result="effect1_foregroundBlur_92_584"/>
</filter>
<filter id="filter3_f_92_584" x="33" y="-150" width="518.799" height="420.543" filterUnits="userSpaceOnUse" color-interpolation-filters="sRGB">
<feFlood flood-opacity="0" result="BackgroundImageFix"/>
<feBlend mode="normal" in="SourceGraphic" in2="BackgroundImageFix" result="shape"/>
<feGaussianBlur stdDeviation="75" result="effect1_foregroundBlur_92_584"/>
</filter>
<linearGradient id="paint0_linear_92_584" x1="236.232" y1="637.212" x2="65.371" y2="826.083" gradientUnits="userSpaceOnUse">
<stop stop-color="#EE7750" stop-opacity="0"/>
<stop offset="1" stop-color="#EE7750"/>
</linearGradient>
<linearGradient id="paint1_linear_92_584" x1="224.785" y1="571" x2="203.257" y2="687.674" gradientUnits="userSpaceOnUse">
<stop stop-color="#EE7750"/>
<stop offset="1" stop-color="#EE7750" stop-opacity="0"/>
</linearGradient>
<linearGradient id="paint2_linear_92_584" x1="283.094" y1="713.766" x2="283.094" y2="874" gradientUnits="userSpaceOnUse">
<stop stop-color="#ED6238" stop-opacity="0"/>
<stop offset="1" stop-color="#ED6238"/>
</linearGradient>
<linearGradient id="paint3_linear_92_584" x1="292.399" y1="0" x2="269.493" y2="93.1111" gradientUnits="userSpaceOnUse">
<stop stop-color="#EE7750"/>
<stop offset="1" stop-color="#EE7750" stop-opacity="0"/>
</linearGradient>
<clipPath id="clip0_92_584">
<rect width="402" height="874" rx="16" fill="white"/>
</clipPath>
</defs>
</svg>
