<svg width="402" height="874" viewBox="0 0 402 874" fill="none" xmlns="http://www.w3.org/2000/svg">
<g clip-path="url(#clip0_92_624)">
<rect width="402" height="874" rx="16" fill="#0F0F0F"/>
<g opacity="0.8">
<g filter="url(#filter0_f_92_624)">
<path d="M157.108 721.008C77.0676 677.298 43.9791 766.775 37.4399 816.976C27.7401 787.44 6.57484 725.82 -0.487511 715.629C-9.31545 702.89 97.9277 663.823 165.282 700.625C219.165 730.067 249.419 699.493 257.811 680.525C257.593 712.232 237.147 764.717 157.108 721.008Z" fill="url(#paint0_linear_92_624)" fill-opacity="0.6"/>
</g>
<g filter="url(#filter1_f_92_624)">
<path d="M167.847 676.834C154.581 644.357 81.4678 658.415 46.5695 669.504V656.818C51.4466 644.037 64.9074 617.066 79.7337 611.428C98.2667 604.38 156.792 584.363 194.508 575.342C232.224 566.32 255.309 573.932 338.22 575.342C421.131 576.751 385.04 621.859 400.647 630.599C413.132 637.59 372.902 691.964 351.226 718.277L265.389 689.521C295.518 689.239 348.364 680.386 318.712 647.232C281.646 605.789 184.429 717.431 167.847 676.834Z" fill="url(#paint1_linear_92_624)" fill-opacity="0.7"/>
</g>
<g filter="url(#filter2_f_92_624)">
<path d="M268.586 821.844C295.117 805.38 343.585 849.755 364.502 874C370.138 850.976 381.539 803.519 382.06 797.881C382.71 790.833 370.68 764.896 359.3 758.693C347.92 752.491 314.431 744.597 281.591 720.352C248.752 696.106 205.834 745.161 187.301 764.896C168.768 784.63 235.422 842.425 268.586 821.844Z" fill="url(#paint2_linear_92_624)"/>
</g>
</g>
<rect x="404" y="474" width="405" height="474" transform="rotate(180 404 474)" fill="url(#paint3_linear_92_624)"/>
<g filter="url(#filter3_f_92_624)">
<path d="M257.447 86.6233C249.304 60.041 204.423 71.5477 183 80.6238V70.2401C185.994 59.7795 194.257 37.7044 203.358 33.0894C214.735 27.3207 250.661 10.9375 273.814 3.55353C296.966 -3.83045 311.137 2.39978 362.033 3.55353C412.929 4.70727 390.774 41.6272 400.354 48.7804C408.019 54.503 383.323 99.0069 370.017 120.543L317.325 97.007C335.82 96.7763 368.26 89.5308 350.058 62.3946C327.304 28.4745 267.627 119.851 257.447 86.6233Z" fill="url(#paint4_linear_92_624)" fill-opacity="0.7"/>
</g>
<path d="M23.512 200.81C25.272 200.81 26.816 201.154 28.144 201.842C29.488 202.53 30.52 203.514 31.24 204.794C31.976 206.058 32.344 207.53 32.344 209.21C32.344 210.89 31.976 212.362 31.24 213.626C30.52 214.874 29.488 215.842 28.144 216.53C26.816 217.218 25.272 217.562 23.512 217.562H17.656V200.81H23.512ZM23.392 214.706C25.152 214.706 26.512 214.226 27.472 213.266C28.432 212.306 28.912 210.954 28.912 209.21C28.912 207.466 28.432 206.106 27.472 205.13C26.512 204.138 25.152 203.642 23.392 203.642H21.016V214.706H23.392ZM33.9951 210.866C33.9951 209.522 34.2591 208.33 34.7871 207.29C35.3311 206.25 36.0591 205.45 36.9711 204.891C37.8991 204.33 38.9311 204.05 40.0671 204.05C41.0591 204.05 41.9231 204.25 42.6591 204.65C43.4111 205.05 44.0111 205.554 44.4591 206.162V204.266H47.8431V217.562H44.4591V215.618C44.0271 216.242 43.4271 216.762 42.6591 217.178C41.9071 217.579 41.0351 217.779 40.0431 217.779C38.9231 217.779 37.8991 217.491 36.9711 216.914C36.0591 216.338 35.3311 215.53 34.7871 214.49C34.2591 213.434 33.9951 212.226 33.9951 210.866ZM44.4591 210.914C44.4591 210.098 44.2991 209.402 43.9791 208.826C43.6591 208.234 43.2271 207.786 42.6831 207.482C42.1391 207.162 41.5551 207.002 40.9311 207.002C40.3071 207.002 39.7311 207.154 39.2031 207.458C38.6751 207.762 38.2431 208.21 37.9071 208.802C37.5871 209.378 37.4271 210.066 37.4271 210.866C37.4271 211.666 37.5871 212.37 37.9071 212.978C38.2431 213.57 38.6751 214.026 39.2031 214.346C39.7471 214.666 40.3231 214.826 40.9311 214.826C41.5551 214.826 42.1391 214.674 42.6831 214.37C43.2271 214.05 43.6591 213.602 43.9791 213.026C44.2991 212.434 44.4591 211.73 44.4591 210.914ZM57.2208 207.026H54.8928V217.562H51.4848V207.026H49.9728V204.266H51.4848V203.594C51.4848 201.962 51.9488 200.762 52.8768 199.994C53.8048 199.226 55.2048 198.866 57.0768 198.914V201.746C56.2608 201.73 55.6928 201.866 55.3728 202.154C55.0528 202.442 54.8928 202.962 54.8928 203.714V204.266H57.2208V207.026ZM63.3102 207.026V213.458C63.3102 213.906 63.4142 214.234 63.6222 214.442C63.8462 214.634 64.2142 214.73 64.7262 214.73H66.2862V217.562H64.1742C61.3422 217.562 59.9262 216.186 59.9262 213.434V207.026H58.3422V204.266H59.9262V200.978H63.3102V204.266H66.2862V207.026H63.3102ZM67.8389 210.866C67.8389 209.522 68.1029 208.33 68.6309 207.29C69.1749 206.25 69.9029 205.45 70.8149 204.891C71.7429 204.33 72.7749 204.05 73.9109 204.05C74.9029 204.05 75.7669 204.25 76.5029 204.65C77.2549 205.05 77.8549 205.554 78.3029 206.162V204.266H81.6869V217.562H78.3029V215.618C77.8709 216.242 77.2709 216.762 76.5029 217.178C75.7509 217.579 74.8789 217.779 73.8869 217.779C72.7669 217.779 71.7429 217.491 70.8149 216.914C69.9029 216.338 69.1749 215.53 68.6309 214.49C68.1029 213.434 67.8389 212.226 67.8389 210.866ZM78.3029 210.914C78.3029 210.098 78.1429 209.402 77.8229 208.826C77.5029 208.234 77.0709 207.786 76.5269 207.482C75.9829 207.162 75.3989 207.002 74.7749 207.002C74.1509 207.002 73.5749 207.154 73.0469 207.458C72.5189 207.762 72.0869 208.21 71.7509 208.802C71.4309 209.378 71.2709 210.066 71.2709 210.866C71.2709 211.666 71.4309 212.37 71.7509 212.978C72.0869 213.57 72.5189 214.026 73.0469 214.346C73.5909 214.666 74.1669 214.826 74.7749 214.826C75.3989 214.826 75.9829 214.674 76.5269 214.37C77.0709 214.05 77.5029 213.602 77.8229 213.026C78.1429 212.434 78.3029 211.73 78.3029 210.914ZM88.3285 206.33C88.7605 205.626 89.3205 205.074 90.0085 204.674C90.7125 204.274 91.5125 204.074 92.4085 204.074V207.602H91.5205C90.4645 207.602 89.6645 207.85 89.1205 208.346C88.5925 208.842 88.3285 209.706 88.3285 210.938V217.562H84.9685V204.266H88.3285V206.33ZM110.662 214.37H103.99L102.886 217.562H99.3584L105.382 200.786H109.294L115.318 217.562H111.766L110.662 214.37ZM109.75 211.682L107.326 204.674L104.902 211.682H109.75ZM125.442 217.562L120.93 211.898V217.562H117.57V199.802H120.93V209.906L125.394 204.266H129.762L123.906 210.938L129.81 217.562H125.442ZM144.138 204.266V217.562H140.754V215.882C140.322 216.458 139.754 216.914 139.05 217.25C138.362 217.571 137.61 217.731 136.794 217.731C135.754 217.731 134.834 217.514 134.034 217.082C133.234 216.634 132.602 215.986 132.138 215.138C131.69 214.274 131.466 213.25 131.466 212.066V204.266H134.826V211.586C134.826 212.642 135.09 213.458 135.618 214.035C136.146 214.594 136.866 214.874 137.778 214.874C138.706 214.874 139.434 214.594 139.962 214.035C140.49 213.458 140.754 212.642 140.754 211.586V204.266H144.138ZM154.821 204.074C156.405 204.074 157.685 204.578 158.661 205.586C159.637 206.578 160.125 207.97 160.125 209.762V217.562H156.765V210.218C156.765 209.162 156.501 208.354 155.973 207.794C155.445 207.218 154.725 206.93 153.813 206.93C152.885 206.93 152.149 207.218 151.605 207.794C151.077 208.354 150.813 209.162 150.813 210.218V217.562H147.453V204.266H150.813V205.922C151.261 205.346 151.829 204.898 152.517 204.578C153.221 204.242 153.989 204.074 154.821 204.074Z" fill="#F0F0F0"/>
<rect x="16" y="251.562" width="371" height="50" rx="4" fill="#1D1D1D"/>
<path d="M35.752 280.562H34.384L30.268 274.334V280.562H28.9V272.21H30.268L34.384 278.426V272.21H35.752V280.562ZM37.0924 277.226C37.0924 276.562 37.2284 275.974 37.5004 275.462C37.7804 274.95 38.1564 274.554 38.6284 274.274C39.1084 273.986 39.6364 273.842 40.2124 273.842C40.7324 273.842 41.1844 273.946 41.5684 274.154C41.9604 274.354 42.2724 274.606 42.5044 274.91V273.951H43.8844V280.562H42.5044V279.578C42.2724 279.89 41.9564 280.15 41.5564 280.358C41.1564 280.567 40.7004 280.671 40.1884 280.671C39.6204 280.671 39.1004 280.527 38.6284 280.238C38.1564 279.942 37.7804 279.534 37.5004 279.014C37.2284 278.486 37.0924 277.89 37.0924 277.226ZM42.5044 277.25C42.5044 276.794 42.4084 276.398 42.2164 276.062C42.0324 275.726 41.7884 275.47 41.4844 275.294C41.1804 275.118 40.8524 275.03 40.5004 275.03C40.1484 275.03 39.8204 275.118 39.5164 275.294C39.2124 275.462 38.9644 275.714 38.7724 276.05C38.5884 276.378 38.4964 276.77 38.4964 277.226C38.4964 277.682 38.5884 278.082 38.7724 278.426C38.9644 278.77 39.2124 279.034 39.5164 279.218C39.8284 279.394 40.1564 279.482 40.5004 279.482C40.8524 279.482 41.1804 279.394 41.4844 279.218C41.7884 279.042 42.0324 278.786 42.2164 278.45C42.4084 278.106 42.5044 277.706 42.5044 277.25ZM53.6853 273.842C54.2053 273.842 54.6693 273.95 55.0773 274.166C55.4933 274.382 55.8173 274.702 56.0493 275.126C56.2893 275.55 56.4093 276.062 56.4093 276.662V280.562H55.0533V276.866C55.0533 276.274 54.9053 275.822 54.6093 275.51C54.3133 275.19 53.9093 275.03 53.3973 275.03C52.8853 275.03 52.4773 275.19 52.1733 275.51C51.8773 275.822 51.7293 276.274 51.7293 276.866V280.562H50.3733V276.866C50.3733 276.274 50.2253 275.822 49.9293 275.51C49.6333 275.19 49.2293 275.03 48.7173 275.03C48.2053 275.03 47.7973 275.19 47.4933 275.51C47.1973 275.822 47.0493 276.274 47.0493 276.866V280.562H45.6813V273.951H47.0493V274.706C47.2733 274.434 47.5573 274.222 47.9013 274.07C48.2453 273.918 48.6133 273.842 49.0053 273.842C49.5333 273.842 50.0053 273.954 50.4213 274.178C50.8373 274.402 51.1573 274.726 51.3813 275.15C51.5813 274.75 51.8933 274.434 52.3173 274.202C52.7413 273.962 53.1973 273.842 53.6853 273.842ZM57.694 277.226C57.694 276.562 57.83 275.974 58.102 275.462C58.382 274.95 58.758 274.554 59.23 274.274C59.71 273.986 60.238 273.842 60.814 273.842C61.334 273.842 61.786 273.946 62.17 274.154C62.562 274.354 62.874 274.606 63.106 274.91V273.951H64.486V280.562H63.106V279.578C62.874 279.89 62.558 280.15 62.158 280.358C61.758 280.567 61.302 280.671 60.79 280.671C60.222 280.671 59.702 280.527 59.23 280.238C58.758 279.942 58.382 279.534 58.102 279.014C57.83 278.486 57.694 277.89 57.694 277.226ZM63.106 277.25C63.106 276.794 63.01 276.398 62.818 276.062C62.634 275.726 62.39 275.47 62.086 275.294C61.782 275.118 61.454 275.03 61.102 275.03C60.75 275.03 60.422 275.118 60.118 275.294C59.814 275.462 59.566 275.714 59.374 276.05C59.19 276.378 59.098 276.77 59.098 277.226C59.098 277.682 59.19 278.082 59.374 278.426C59.566 278.77 59.814 279.034 60.118 279.218C60.43 279.394 60.758 279.482 61.102 279.482C61.454 279.482 61.782 279.394 62.086 279.218C62.39 279.042 62.634 278.786 62.818 278.45C63.01 278.106 63.106 277.706 63.106 277.25ZM72.124 272.222C73.012 272.222 73.788 272.394 74.452 272.738C75.124 273.074 75.64 273.562 76 274.202C76.368 274.834 76.552 275.574 76.552 276.422C76.552 277.27 76.368 278.006 76 278.63C75.64 279.254 75.124 279.734 74.452 280.07C73.788 280.398 73.012 280.562 72.124 280.562H69.4V272.222H72.124ZM72.124 279.446C73.1 279.446 73.848 279.182 74.368 278.654C74.888 278.126 75.148 277.382 75.148 276.422C75.148 275.454 74.888 274.698 74.368 274.154C73.848 273.61 73.1 273.338 72.124 273.338H70.768V279.446H72.124ZM83.9678 277.094C83.9678 277.342 83.9518 277.566 83.9198 277.766H78.8678C78.9078 278.294 79.1038 278.718 79.4558 279.038C79.8078 279.358 80.2398 279.518 80.7518 279.518C81.4878 279.518 82.0078 279.21 82.3118 278.594H83.7878C83.5878 279.202 83.2238 279.702 82.6958 280.094C82.1758 280.479 81.5278 280.671 80.7518 280.671C80.1198 280.671 79.5518 280.531 79.0478 280.25C78.5518 279.962 78.1598 279.562 77.8718 279.05C77.5918 278.53 77.4518 277.93 77.4518 277.25C77.4518 276.57 77.5878 275.974 77.8598 275.462C78.1398 274.942 78.5278 274.542 79.0238 274.262C79.5278 273.982 80.1038 273.842 80.7518 273.842C81.3758 273.842 81.9318 273.978 82.4198 274.25C82.9078 274.522 83.2878 274.906 83.5598 275.402C83.8318 275.89 83.9678 276.454 83.9678 277.094ZM82.5398 276.662C82.5318 276.158 82.3518 275.754 81.9998 275.45C81.6478 275.146 81.2118 274.994 80.6918 274.994C80.2198 274.994 79.8158 275.146 79.4798 275.45C79.1438 275.746 78.9438 276.15 78.8798 276.662H82.5398ZM86.6821 274.922C86.9141 274.618 87.2301 274.362 87.6301 274.154C88.0301 273.946 88.4821 273.842 88.9861 273.842C89.5621 273.842 90.0861 273.986 90.5581 274.274C91.0381 274.554 91.4141 274.95 91.6861 275.462C91.9581 275.974 92.0941 276.562 92.0941 277.226C92.0941 277.89 91.9581 278.486 91.6861 279.014C91.4141 279.534 91.0381 279.942 90.5581 280.238C90.0861 280.527 89.5621 280.671 88.9861 280.671C88.4821 280.671 88.0341 280.571 87.6421 280.37C87.2501 280.162 86.9301 279.906 86.6821 279.602V283.707H85.3141V273.951H86.6821V274.922ZM90.7021 277.226C90.7021 276.77 90.6061 276.378 90.4141 276.05C90.2301 275.714 89.9821 275.462 89.6701 275.294C89.3661 275.118 89.0381 275.03 88.6861 275.03C88.3421 275.03 88.0141 275.118 87.7021 275.294C87.3981 275.47 87.1501 275.726 86.9581 276.062C86.7741 276.398 86.6821 276.794 86.6821 277.25C86.6821 277.706 86.7741 278.106 86.9581 278.45C87.1501 278.786 87.3981 279.042 87.7021 279.218C88.0141 279.394 88.3421 279.482 88.6861 279.482C89.0381 279.482 89.3661 279.394 89.6701 279.218C89.9821 279.034 90.2301 278.77 90.4141 278.426C90.6061 278.082 90.7021 277.682 90.7021 277.226ZM92.9909 277.226C92.9909 276.562 93.1269 275.974 93.3989 275.462C93.6789 274.95 94.0549 274.554 94.5269 274.274C95.0069 273.986 95.5349 273.842 96.1109 273.842C96.6309 273.842 97.0829 273.946 97.4669 274.154C97.8589 274.354 98.1709 274.606 98.4029 274.91V273.951H99.7829V280.562H98.4029V279.578C98.1709 279.89 97.8549 280.15 97.4549 280.358C97.0549 280.567 96.5989 280.671 96.0869 280.671C95.5189 280.671 94.9989 280.527 94.5269 280.238C94.0549 279.942 93.6789 279.534 93.3989 279.014C93.1269 278.486 92.9909 277.89 92.9909 277.226ZM98.4029 277.25C98.4029 276.794 98.3069 276.398 98.1149 276.062C97.9309 275.726 97.6869 275.47 97.3829 275.294C97.0789 275.118 96.7509 275.03 96.3989 275.03C96.0469 275.03 95.7189 275.118 95.4149 275.294C95.1109 275.462 94.8629 275.714 94.6709 276.05C94.4869 276.378 94.3949 276.77 94.3949 277.226C94.3949 277.682 94.4869 278.082 94.6709 278.426C94.8629 278.77 95.1109 279.034 95.4149 279.218C95.7269 279.394 96.0549 279.482 96.3989 279.482C96.7509 279.482 97.0789 279.394 97.3829 279.218C97.6869 279.042 97.9309 278.786 98.1149 278.45C98.3069 278.106 98.4029 277.706 98.4029 277.25ZM104.916 273.842C105.436 273.842 105.9 273.95 106.308 274.166C106.724 274.382 107.048 274.702 107.28 275.126C107.512 275.55 107.628 276.062 107.628 276.662V280.562H106.272V276.866C106.272 276.274 106.124 275.822 105.828 275.51C105.532 275.19 105.128 275.03 104.616 275.03C104.104 275.03 103.696 275.19 103.392 275.51C103.096 275.822 102.948 276.274 102.948 276.866V280.562H101.58V273.951H102.948V274.706C103.172 274.434 103.456 274.222 103.8 274.07C104.152 273.918 104.524 273.842 104.916 273.842Z" fill="#636363"/>
<rect x="16" y="317.562" width="371" height="50" rx="4" fill="#1D1D1D"/>
<path d="M35.752 346.562H34.384L30.268 340.334V346.562H28.9V338.21H30.268L34.384 344.426V338.21H35.752V346.562ZM37.0924 343.226C37.0924 342.562 37.2284 341.974 37.5004 341.462C37.7804 340.95 38.1564 340.554 38.6284 340.274C39.1084 339.986 39.6364 339.842 40.2124 339.842C40.7324 339.842 41.1844 339.946 41.5684 340.154C41.9604 340.354 42.2724 340.606 42.5044 340.91V339.951H43.8844V346.562H42.5044V345.578C42.2724 345.89 41.9564 346.15 41.5564 346.358C41.1564 346.567 40.7004 346.671 40.1884 346.671C39.6204 346.671 39.1004 346.527 38.6284 346.238C38.1564 345.942 37.7804 345.534 37.5004 345.014C37.2284 344.486 37.0924 343.89 37.0924 343.226ZM42.5044 343.25C42.5044 342.794 42.4084 342.398 42.2164 342.062C42.0324 341.726 41.7884 341.47 41.4844 341.294C41.1804 341.118 40.8524 341.03 40.5004 341.03C40.1484 341.03 39.8204 341.118 39.5164 341.294C39.2124 341.462 38.9644 341.714 38.7724 342.05C38.5884 342.378 38.4964 342.77 38.4964 343.226C38.4964 343.682 38.5884 344.082 38.7724 344.426C38.9644 344.77 39.2124 345.034 39.5164 345.218C39.8284 345.394 40.1564 345.482 40.5004 345.482C40.8524 345.482 41.1804 345.394 41.4844 345.218C41.7884 345.042 42.0324 344.786 42.2164 344.45C42.4084 344.106 42.5044 343.706 42.5044 343.25ZM53.6853 339.842C54.2053 339.842 54.6693 339.95 55.0773 340.166C55.4933 340.382 55.8173 340.702 56.0493 341.126C56.2893 341.55 56.4093 342.062 56.4093 342.662V346.562H55.0533V342.866C55.0533 342.274 54.9053 341.822 54.6093 341.51C54.3133 341.19 53.9093 341.03 53.3973 341.03C52.8853 341.03 52.4773 341.19 52.1733 341.51C51.8773 341.822 51.7293 342.274 51.7293 342.866V346.562H50.3733V342.866C50.3733 342.274 50.2253 341.822 49.9293 341.51C49.6333 341.19 49.2293 341.03 48.7173 341.03C48.2053 341.03 47.7973 341.19 47.4933 341.51C47.1973 341.822 47.0493 342.274 47.0493 342.866V346.562H45.6813V339.951H47.0493V340.706C47.2733 340.434 47.5573 340.222 47.9013 340.07C48.2453 339.918 48.6133 339.842 49.0053 339.842C49.5333 339.842 50.0053 339.954 50.4213 340.178C50.8373 340.402 51.1573 340.726 51.3813 341.15C51.5813 340.75 51.8933 340.434 52.3173 340.202C52.7413 339.962 53.1973 339.842 53.6853 339.842ZM57.694 343.226C57.694 342.562 57.83 341.974 58.102 341.462C58.382 340.95 58.758 340.554 59.23 340.274C59.71 339.986 60.238 339.842 60.814 339.842C61.334 339.842 61.786 339.946 62.17 340.154C62.562 340.354 62.874 340.606 63.106 340.91V339.951H64.486V346.562H63.106V345.578C62.874 345.89 62.558 346.15 62.158 346.358C61.758 346.567 61.302 346.671 60.79 346.671C60.222 346.671 59.702 346.527 59.23 346.238C58.758 345.942 58.382 345.534 58.102 345.014C57.83 344.486 57.694 343.89 57.694 343.226ZM63.106 343.25C63.106 342.794 63.01 342.398 62.818 342.062C62.634 341.726 62.39 341.47 62.086 341.294C61.782 341.118 61.454 341.03 61.102 341.03C60.75 341.03 60.422 341.118 60.118 341.294C59.814 341.462 59.566 341.714 59.374 342.05C59.19 342.378 59.098 342.77 59.098 343.226C59.098 343.682 59.19 344.082 59.374 344.426C59.566 344.77 59.814 345.034 60.118 345.218C60.43 345.394 60.758 345.482 61.102 345.482C61.454 345.482 61.782 345.394 62.086 345.218C62.39 345.042 62.634 344.786 62.818 344.45C63.01 344.106 63.106 343.706 63.106 343.25ZM73.864 342.278C74.312 342.358 74.692 342.594 75.004 342.986C75.316 343.378 75.472 343.822 75.472 344.318C75.472 344.742 75.36 345.126 75.136 345.47C74.92 345.806 74.604 346.074 74.188 346.274C73.772 346.466 73.288 346.562 72.736 346.562H69.4V338.222H72.58C73.148 338.222 73.636 338.318 74.044 338.51C74.452 338.702 74.76 338.962 74.968 339.29C75.176 339.61 75.28 339.97 75.28 340.37C75.28 340.85 75.152 341.25 74.896 341.57C74.64 341.89 74.296 342.126 73.864 342.278ZM70.768 341.726H72.46C72.908 341.726 73.256 341.626 73.504 341.426C73.76 341.218 73.888 340.922 73.888 340.538C73.888 340.162 73.76 339.87 73.504 339.662C73.256 339.446 72.908 339.338 72.46 339.338H70.768V341.726ZM72.616 345.446C73.08 345.446 73.444 345.334 73.708 345.11C73.972 344.886 74.104 344.574 74.104 344.174C74.104 343.766 73.964 343.442 73.684 343.202C73.404 342.962 73.032 342.842 72.568 342.842H70.768V345.446H72.616ZM83.0186 343.094C83.0186 343.342 83.0026 343.566 82.9706 343.766H77.9186C77.9586 344.294 78.1546 344.718 78.5066 345.038C78.8586 345.358 79.2906 345.518 79.8026 345.518C80.5386 345.518 81.0586 345.21 81.3626 344.594H82.8386C82.6386 345.202 82.2746 345.702 81.7466 346.094C81.2266 346.479 80.5786 346.671 79.8026 346.671C79.1706 346.671 78.6026 346.531 78.0986 346.25C77.6026 345.962 77.2106 345.562 76.9226 345.05C76.6426 344.53 76.5026 343.93 76.5026 343.25C76.5026 342.57 76.6386 341.974 76.9106 341.462C77.1906 340.942 77.5786 340.542 78.0746 340.262C78.5786 339.982 79.1546 339.842 79.8026 339.842C80.4266 339.842 80.9826 339.978 81.4706 340.25C81.9586 340.522 82.3386 340.906 82.6106 341.402C82.8826 341.89 83.0186 342.454 83.0186 343.094ZM81.5906 342.662C81.5826 342.158 81.4026 341.754 81.0506 341.45C80.6986 341.146 80.2626 340.994 79.7426 340.994C79.2706 340.994 78.8666 341.146 78.5306 341.45C78.1946 341.746 77.9946 342.15 77.9306 342.662H81.5906ZM85.7328 337.682V346.562H84.3648V337.682H85.7328ZM87.0729 343.226C87.0729 342.562 87.2089 341.974 87.4809 341.462C87.7609 340.95 88.1369 340.554 88.6089 340.274C89.0889 339.986 89.6169 339.842 90.1929 339.842C90.7129 339.842 91.1649 339.946 91.5489 340.154C91.9409 340.354 92.2529 340.606 92.4849 340.91V339.951H93.8649V346.562H92.4849V345.578C92.2529 345.89 91.9369 346.15 91.5369 346.358C91.1369 346.567 90.6809 346.671 90.1689 346.671C89.6009 346.671 89.0809 346.527 88.6089 346.238C88.1369 345.942 87.7609 345.534 87.4809 345.014C87.2089 344.486 87.0729 343.89 87.0729 343.226ZM92.4849 343.25C92.4849 342.794 92.3889 342.398 92.1969 342.062C92.0129 341.726 91.7689 341.47 91.4649 341.294C91.1609 341.118 90.8329 341.03 90.4809 341.03C90.1289 341.03 89.8009 341.118 89.4969 341.294C89.1929 341.462 88.9449 341.714 88.7529 342.05C88.5689 342.378 88.4769 342.77 88.4769 343.226C88.4769 343.682 88.5689 344.082 88.7529 344.426C88.9449 344.77 89.1929 345.034 89.4969 345.218C89.8089 345.394 90.1369 345.482 90.4809 345.482C90.8329 345.482 91.1609 345.394 91.4649 345.218C91.7689 345.042 92.0129 344.786 92.1969 344.45C92.3889 344.106 92.4849 343.706 92.4849 343.25ZM98.2777 343.262L101.326 346.562H99.4777L97.0297 343.718V346.562H95.6617V337.682H97.0297V342.842L99.4297 339.951H101.326L98.2777 343.262ZM101.85 343.226C101.85 342.562 101.986 341.974 102.258 341.462C102.538 340.95 102.914 340.554 103.386 340.274C103.866 339.986 104.394 339.842 104.97 339.842C105.49 339.842 105.942 339.946 106.326 340.154C106.718 340.354 107.03 340.606 107.262 340.91V339.951H108.642V346.562H107.262V345.578C107.03 345.89 106.714 346.15 106.314 346.358C105.914 346.567 105.458 346.671 104.946 346.671C104.378 346.671 103.858 346.527 103.386 346.238C102.914 345.942 102.538 345.534 102.258 345.014C101.986 344.486 101.85 343.89 101.85 343.226ZM107.262 343.25C107.262 342.794 107.166 342.398 106.974 342.062C106.79 341.726 106.546 341.47 106.242 341.294C105.938 341.118 105.61 341.03 105.258 341.03C104.906 341.03 104.578 341.118 104.274 341.294C103.97 341.462 103.722 341.714 103.53 342.05C103.346 342.378 103.254 342.77 103.254 343.226C103.254 343.682 103.346 344.082 103.53 344.426C103.722 344.77 103.97 345.034 104.274 345.218C104.586 345.394 104.914 345.482 105.258 345.482C105.61 345.482 105.938 345.394 106.242 345.218C106.546 345.042 106.79 344.786 106.974 344.45C107.166 344.106 107.262 343.706 107.262 343.25ZM113.775 339.842C114.295 339.842 114.759 339.95 115.167 340.166C115.583 340.382 115.907 340.702 116.139 341.126C116.371 341.55 116.487 342.062 116.487 342.662V346.562H115.131V342.866C115.131 342.274 114.983 341.822 114.687 341.51C114.391 341.19 113.987 341.03 113.475 341.03C112.963 341.03 112.555 341.19 112.251 341.51C111.955 341.822 111.807 342.274 111.807 342.866V346.562H110.439V339.951H111.807V340.706C112.031 340.434 112.315 340.222 112.659 340.07C113.011 339.918 113.383 339.842 113.775 339.842ZM120.896 339.842C121.408 339.842 121.86 339.946 122.252 340.154C122.652 340.354 122.964 340.606 123.188 340.91V339.951H124.568V346.671C124.568 347.279 124.44 347.819 124.184 348.291C123.928 348.771 123.556 349.147 123.068 349.419C122.588 349.691 122.012 349.827 121.34 349.827C120.444 349.827 119.7 349.615 119.108 349.191C118.516 348.775 118.18 348.207 118.1 347.487H119.456C119.56 347.831 119.78 348.107 120.116 348.315C120.46 348.531 120.868 348.639 121.34 348.639C121.892 348.639 122.336 348.471 122.672 348.135C123.016 347.799 123.188 347.311 123.188 346.671V345.566C122.956 345.878 122.64 346.142 122.24 346.358C121.848 346.567 121.4 346.671 120.896 346.671C120.32 346.671 119.792 346.527 119.312 346.238C118.84 345.942 118.464 345.534 118.184 345.014C117.912 344.486 117.776 343.89 117.776 343.226C117.776 342.562 117.912 341.974 118.184 341.462C118.464 340.95 118.84 340.554 119.312 340.274C119.792 339.986 120.32 339.842 120.896 339.842ZM123.188 343.25C123.188 342.794 123.092 342.398 122.9 342.062C122.716 341.726 122.472 341.47 122.168 341.294C121.864 341.118 121.536 341.03 121.184 341.03C120.832 341.03 120.504 341.118 120.2 341.294C119.896 341.462 119.648 341.714 119.456 342.05C119.272 342.378 119.18 342.77 119.18 343.226C119.18 343.682 119.272 344.082 119.456 344.426C119.648 344.77 119.896 345.034 120.2 345.218C120.512 345.394 120.84 345.482 121.184 345.482C121.536 345.482 121.864 345.394 122.168 345.218C122.472 345.042 122.716 344.786 122.9 344.45C123.092 344.106 123.188 343.706 123.188 343.25Z" fill="#636363"/>
<rect x="16" y="383.562" width="371" height="50" rx="4" fill="#1D1D1D"/>
<path d="M30.256 404.222V409.538C30.256 410.17 30.42 410.646 30.748 410.966C31.084 411.286 31.548 411.446 32.14 411.446C32.74 411.446 33.204 411.286 33.532 410.966C33.868 410.646 34.036 410.17 34.036 409.538V404.222H35.404V409.514C35.404 410.194 35.256 410.77 34.96 411.242C34.664 411.714 34.268 412.066 33.772 412.298C33.276 412.53 32.728 412.647 32.128 412.647C31.528 412.647 30.98 412.53 30.484 412.298C29.996 412.066 29.608 411.714 29.32 411.242C29.032 410.77 28.888 410.194 28.888 409.514V404.222H30.256ZM39.5852 412.671C39.0652 412.671 38.5972 412.579 38.1812 412.394C37.7732 412.202 37.4492 411.946 37.2092 411.626C36.9692 411.298 36.8412 410.934 36.8252 410.534H38.2412C38.2652 410.814 38.3972 411.05 38.6372 411.242C38.8852 411.426 39.1932 411.518 39.5612 411.518C39.9452 411.518 40.2412 411.446 40.4492 411.302C40.6652 411.15 40.7732 410.958 40.7732 410.726C40.7732 410.478 40.6532 410.294 40.4132 410.174C40.1812 410.054 39.8092 409.922 39.2972 409.778C38.8012 409.642 38.3972 409.51 38.0852 409.382C37.7732 409.254 37.5012 409.058 37.2692 408.794C37.0452 408.53 36.9332 408.182 36.9332 407.75C36.9332 407.398 37.0372 407.078 37.2452 406.79C37.4532 406.494 37.7492 406.262 38.1332 406.094C38.5252 405.926 38.9732 405.842 39.4772 405.842C40.2292 405.842 40.8332 406.034 41.2892 406.418C41.7532 406.794 42.0012 407.31 42.0332 407.966H40.6652C40.6412 407.67 40.5212 407.434 40.3052 407.258C40.0892 407.082 39.7972 406.994 39.4292 406.994C39.0692 406.994 38.7932 407.062 38.6012 407.198C38.4092 407.334 38.3132 407.514 38.3132 407.738C38.3132 407.914 38.3772 408.062 38.5052 408.182C38.6332 408.302 38.7892 408.398 38.9732 408.47C39.1572 408.534 39.4292 408.618 39.7892 408.722C40.2692 408.85 40.6612 408.982 40.9652 409.118C41.2772 409.246 41.5452 409.438 41.7692 409.694C41.9932 409.95 42.1092 410.29 42.1172 410.714C42.1172 411.09 42.0132 411.426 41.8052 411.722C41.5972 412.019 41.3012 412.251 40.9172 412.418C40.5412 412.587 40.0972 412.671 39.5852 412.671ZM49.6553 409.094C49.6553 409.342 49.6393 409.566 49.6073 409.766H44.5553C44.5953 410.294 44.7913 410.718 45.1433 411.038C45.4953 411.358 45.9273 411.518 46.4393 411.518C47.1753 411.518 47.6953 411.21 47.9993 410.594H49.4753C49.2753 411.202 48.9113 411.702 48.3833 412.094C47.8633 412.479 47.2153 412.671 46.4393 412.671C45.8073 412.671 45.2393 412.531 44.7353 412.25C44.2393 411.962 43.8473 411.562 43.5593 411.05C43.2793 410.53 43.1393 409.93 43.1393 409.25C43.1393 408.57 43.2753 407.974 43.5473 407.462C43.8273 406.942 44.2153 406.542 44.7113 406.262C45.2153 405.982 45.7913 405.842 46.4393 405.842C47.0633 405.842 47.6193 405.978 48.1073 406.25C48.5953 406.522 48.9753 406.906 49.2473 407.402C49.5193 407.89 49.6553 408.454 49.6553 409.094ZM48.2273 408.662C48.2193 408.158 48.0393 407.754 47.6873 407.45C47.3353 407.146 46.8993 406.994 46.3793 406.994C45.9073 406.994 45.5033 407.146 45.1673 407.45C44.8313 407.746 44.6313 408.15 44.5673 408.662H48.2273ZM52.3696 406.91C52.5696 406.574 52.8336 406.314 53.1616 406.13C53.4976 405.938 53.8936 405.842 54.3496 405.842V407.258H54.0016C53.4656 407.258 53.0576 407.394 52.7776 407.666C52.5056 407.938 52.3696 408.41 52.3696 409.082V412.562H51.0016V405.951H52.3696V406.91ZM58.943 405.842C59.463 405.842 59.927 405.95 60.335 406.166C60.751 406.382 61.075 406.702 61.307 407.126C61.539 407.55 61.655 408.062 61.655 408.662V412.562H60.299V408.866C60.299 408.274 60.151 407.822 59.855 407.51C59.559 407.19 59.155 407.03 58.643 407.03C58.131 407.03 57.723 407.19 57.419 407.51C57.123 407.822 56.975 408.274 56.975 408.866V412.562H55.607V405.951H56.975V406.706C57.199 406.434 57.483 406.222 57.827 406.07C58.179 405.918 58.551 405.842 58.943 405.842ZM62.944 409.226C62.944 408.562 63.08 407.974 63.352 407.462C63.632 406.95 64.008 406.554 64.48 406.274C64.96 405.986 65.488 405.842 66.064 405.842C66.584 405.842 67.036 405.946 67.42 406.154C67.812 406.354 68.124 406.606 68.356 406.91V405.951H69.736V412.562H68.356V411.578C68.124 411.89 67.808 412.15 67.408 412.358C67.008 412.567 66.552 412.671 66.04 412.671C65.472 412.671 64.952 412.527 64.48 412.238C64.008 411.942 63.632 411.534 63.352 411.014C63.08 410.486 62.944 409.89 62.944 409.226ZM68.356 409.25C68.356 408.794 68.26 408.398 68.068 408.062C67.884 407.726 67.64 407.47 67.336 407.294C67.032 407.118 66.704 407.03 66.352 407.03C66 407.03 65.672 407.118 65.368 407.294C65.064 407.462 64.816 407.714 64.624 408.05C64.44 408.378 64.348 408.77 64.348 409.226C64.348 409.682 64.44 410.082 64.624 410.426C64.816 410.77 65.064 411.034 65.368 411.218C65.68 411.394 66.008 411.482 66.352 411.482C66.704 411.482 67.032 411.394 67.336 411.218C67.64 411.042 67.884 410.786 68.068 410.45C68.26 410.106 68.356 409.706 68.356 409.25ZM79.5368 405.842C80.0568 405.842 80.5208 405.95 80.9288 406.166C81.3448 406.382 81.6688 406.702 81.9008 407.126C82.1408 407.55 82.2608 408.062 82.2608 408.662V412.562H80.9048V408.866C80.9048 408.274 80.7568 407.822 80.4608 407.51C80.1648 407.19 79.7608 407.03 79.2488 407.03C78.7368 407.03 78.3288 407.19 78.0248 407.51C77.7288 407.822 77.5808 408.274 77.5808 408.866V412.562H76.2248V408.866C76.2248 408.274 76.0768 407.822 75.7808 407.51C75.4848 407.19 75.0808 407.03 74.5688 407.03C74.0568 407.03 73.6488 407.19 73.3448 407.51C73.0488 407.822 72.9008 408.274 72.9008 408.866V412.562H71.5328V405.951H72.9008V406.706C73.1248 406.434 73.4088 406.222 73.7528 406.07C74.0968 405.918 74.4648 405.842 74.8568 405.842C75.3848 405.842 75.8568 405.954 76.2728 406.178C76.6888 406.402 77.0088 406.726 77.2328 407.15C77.4328 406.75 77.7448 406.434 78.1688 406.202C78.5928 405.962 79.0488 405.842 79.5368 405.842ZM90.0616 409.094C90.0616 409.342 90.0456 409.566 90.0136 409.766H84.9616C85.0016 410.294 85.1976 410.718 85.5496 411.038C85.9016 411.358 86.3336 411.518 86.8456 411.518C87.5816 411.518 88.1016 411.21 88.4056 410.594H89.8816C89.6816 411.202 89.3176 411.702 88.7896 412.094C88.2696 412.479 87.6216 412.671 86.8456 412.671C86.2136 412.671 85.6456 412.531 85.1416 412.25C84.6456 411.962 84.2536 411.562 83.9656 411.05C83.6856 410.53 83.5456 409.93 83.5456 409.25C83.5456 408.57 83.6816 407.974 83.9536 407.462C84.2336 406.942 84.6216 406.542 85.1176 406.262C85.6216 405.982 86.1976 405.842 86.8456 405.842C87.4696 405.842 88.0256 405.978 88.5136 406.25C89.0016 406.522 89.3816 406.906 89.6536 407.402C89.9256 407.89 90.0616 408.454 90.0616 409.094ZM88.6336 408.662C88.6256 408.158 88.4456 407.754 88.0936 407.45C87.7416 407.146 87.3056 406.994 86.7856 406.994C86.3136 406.994 85.9096 407.146 85.5736 407.45C85.2376 407.746 85.0376 408.15 84.9736 408.662H88.6336Z" fill="#636363"/>
<rect x="16" y="449.562" width="371" height="50" rx="4" fill="#1D1D1D"/>
<path d="M30.268 471.326V473.774H33.148V474.89H30.268V477.446H33.508V478.562H28.9V470.21H33.508V471.326H30.268ZM43.197 471.842C43.717 471.842 44.181 471.95 44.589 472.166C45.005 472.382 45.329 472.702 45.561 473.126C45.801 473.55 45.921 474.062 45.921 474.662V478.562H44.565V474.866C44.565 474.274 44.417 473.822 44.121 473.51C43.825 473.19 43.421 473.03 42.909 473.03C42.397 473.03 41.989 473.19 41.685 473.51C41.389 473.822 41.241 474.274 41.241 474.866V478.562H39.885V474.866C39.885 474.274 39.737 473.822 39.441 473.51C39.145 473.19 38.741 473.03 38.229 473.03C37.717 473.03 37.309 473.19 37.005 473.51C36.709 473.822 36.561 474.274 36.561 474.866V478.562H35.193V471.951H36.561V472.706C36.785 472.434 37.069 472.222 37.413 472.07C37.757 471.918 38.125 471.842 38.517 471.842C39.045 471.842 39.517 471.954 39.933 472.178C40.349 472.402 40.669 472.726 40.893 473.15C41.093 472.75 41.405 472.434 41.829 472.202C42.253 471.962 42.709 471.842 43.197 471.842ZM47.2057 475.226C47.2057 474.562 47.3417 473.974 47.6137 473.462C47.8937 472.95 48.2697 472.554 48.7417 472.274C49.2217 471.986 49.7497 471.842 50.3257 471.842C50.8457 471.842 51.2977 471.946 51.6817 472.154C52.0737 472.354 52.3857 472.606 52.6177 472.91V471.951H53.9977V478.562H52.6177V477.578C52.3857 477.89 52.0697 478.15 51.6697 478.358C51.2697 478.567 50.8137 478.671 50.3017 478.671C49.7337 478.671 49.2137 478.527 48.7417 478.238C48.2697 477.942 47.8937 477.534 47.6137 477.014C47.3417 476.486 47.2057 475.89 47.2057 475.226ZM52.6177 475.25C52.6177 474.794 52.5217 474.398 52.3297 474.062C52.1457 473.726 51.9017 473.47 51.5977 473.294C51.2937 473.118 50.9657 473.03 50.6137 473.03C50.2617 473.03 49.9337 473.118 49.6297 473.294C49.3257 473.462 49.0777 473.714 48.8857 474.05C48.7017 474.378 48.6097 474.77 48.6097 475.226C48.6097 475.682 48.7017 476.082 48.8857 476.426C49.0777 476.77 49.3257 477.034 49.6297 477.218C49.9417 477.394 50.2697 477.482 50.6137 477.482C50.9657 477.482 51.2937 477.394 51.5977 477.218C51.9017 477.042 52.1457 476.786 52.3297 476.45C52.5217 476.106 52.6177 475.706 52.6177 475.25ZM56.4905 471.074C56.2425 471.074 56.0345 470.99 55.8665 470.822C55.6985 470.654 55.6145 470.446 55.6145 470.198C55.6145 469.95 55.6985 469.742 55.8665 469.574C56.0345 469.406 56.2425 469.322 56.4905 469.322C56.7305 469.322 56.9345 469.406 57.1025 469.574C57.2705 469.742 57.3545 469.95 57.3545 470.198C57.3545 470.446 57.2705 470.654 57.1025 470.822C56.9345 470.99 56.7305 471.074 56.4905 471.074ZM57.1625 471.951V478.562H55.7945V471.951H57.1625ZM60.3266 469.682V478.562H58.9586V469.682H60.3266Z" fill="#636363"/>
<rect x="16" y="515.562" width="371" height="50" rx="4" fill="#1D1D1D"/>
<path d="M34.732 538.706C34.732 539.13 34.632 539.53 34.432 539.906C34.232 540.282 33.912 540.59 33.472 540.83C33.032 541.062 32.468 541.178 31.78 541.178H30.268V544.562H28.9V536.222H31.78C32.42 536.222 32.96 536.334 33.4 536.558C33.848 536.774 34.18 537.07 34.396 537.446C34.62 537.822 34.732 538.242 34.732 538.706ZM31.78 540.062C32.3 540.062 32.688 539.946 32.944 539.714C33.2 539.474 33.328 539.138 33.328 538.706C33.328 537.794 32.812 537.338 31.78 537.338H30.268V540.062H31.78ZM35.5807 541.226C35.5807 540.562 35.7167 539.974 35.9887 539.462C36.2687 538.95 36.6447 538.554 37.1167 538.274C37.5967 537.986 38.1247 537.842 38.7007 537.842C39.2207 537.842 39.6727 537.946 40.0567 538.154C40.4487 538.354 40.7607 538.606 40.9927 538.91V537.951H42.3727V544.562H40.9927V543.578C40.7607 543.89 40.4447 544.15 40.0447 544.358C39.6447 544.567 39.1887 544.671 38.6767 544.671C38.1087 544.671 37.5887 544.527 37.1167 544.238C36.6447 543.942 36.2687 543.534 35.9887 543.014C35.7167 542.486 35.5807 541.89 35.5807 541.226ZM40.9927 541.25C40.9927 540.794 40.8967 540.398 40.7047 540.062C40.5207 539.726 40.2767 539.47 39.9727 539.294C39.6687 539.118 39.3407 539.03 38.9887 539.03C38.6367 539.03 38.3087 539.118 38.0047 539.294C37.7007 539.462 37.4527 539.714 37.2607 540.05C37.0767 540.378 36.9847 540.77 36.9847 541.226C36.9847 541.682 37.0767 542.082 37.2607 542.426C37.4527 542.77 37.7007 543.034 38.0047 543.218C38.3167 543.394 38.6447 543.482 38.9887 543.482C39.3407 543.482 39.6687 543.394 39.9727 543.218C40.2767 543.042 40.5207 542.786 40.7047 542.45C40.8967 542.106 40.9927 541.706 40.9927 541.25ZM46.5695 544.671C46.0495 544.671 45.5815 544.579 45.1655 544.394C44.7575 544.202 44.4335 543.946 44.1935 543.626C43.9535 543.298 43.8255 542.934 43.8095 542.534H45.2255C45.2495 542.814 45.3815 543.05 45.6215 543.242C45.8695 543.426 46.1775 543.518 46.5455 543.518C46.9295 543.518 47.2255 543.446 47.4335 543.302C47.6495 543.15 47.7575 542.958 47.7575 542.726C47.7575 542.478 47.6375 542.294 47.3975 542.174C47.1655 542.054 46.7935 541.922 46.2815 541.778C45.7855 541.642 45.3815 541.51 45.0695 541.382C44.7575 541.254 44.4855 541.058 44.2535 540.794C44.0295 540.53 43.9175 540.182 43.9175 539.75C43.9175 539.398 44.0215 539.078 44.2295 538.79C44.4375 538.494 44.7335 538.262 45.1175 538.094C45.5095 537.926 45.9575 537.842 46.4615 537.842C47.2135 537.842 47.8175 538.034 48.2735 538.418C48.7375 538.794 48.9855 539.31 49.0175 539.966H47.6495C47.6255 539.67 47.5055 539.434 47.2895 539.258C47.0735 539.082 46.7815 538.994 46.4135 538.994C46.0535 538.994 45.7775 539.062 45.5855 539.198C45.3935 539.334 45.2975 539.514 45.2975 539.738C45.2975 539.914 45.3615 540.062 45.4895 540.182C45.6175 540.302 45.7735 540.398 45.9575 540.47C46.1415 540.534 46.4135 540.618 46.7735 540.722C47.2535 540.85 47.6455 540.982 47.9495 541.118C48.2615 541.246 48.5295 541.438 48.7535 541.694C48.9775 541.95 49.0935 542.29 49.1015 542.714C49.1015 543.09 48.9975 543.426 48.7895 543.722C48.5815 544.019 48.2855 544.251 47.9015 544.418C47.5255 544.587 47.0815 544.671 46.5695 544.671ZM52.9797 544.671C52.4597 544.671 51.9917 544.579 51.5757 544.394C51.1677 544.202 50.8437 543.946 50.6037 543.626C50.3637 543.298 50.2357 542.934 50.2197 542.534H51.6357C51.6597 542.814 51.7917 543.05 52.0317 543.242C52.2797 543.426 52.5877 543.518 52.9557 543.518C53.3397 543.518 53.6357 543.446 53.8437 543.302C54.0597 543.15 54.1677 542.958 54.1677 542.726C54.1677 542.478 54.0477 542.294 53.8077 542.174C53.5757 542.054 53.2037 541.922 52.6917 541.778C52.1957 541.642 51.7917 541.51 51.4797 541.382C51.1677 541.254 50.8957 541.058 50.6637 540.794C50.4397 540.53 50.3277 540.182 50.3277 539.75C50.3277 539.398 50.4317 539.078 50.6397 538.79C50.8477 538.494 51.1437 538.262 51.5277 538.094C51.9197 537.926 52.3677 537.842 52.8717 537.842C53.6237 537.842 54.2277 538.034 54.6837 538.418C55.1477 538.794 55.3957 539.31 55.4277 539.966H54.0597C54.0357 539.67 53.9157 539.434 53.6997 539.258C53.4837 539.082 53.1917 538.994 52.8237 538.994C52.4637 538.994 52.1877 539.062 51.9957 539.198C51.8037 539.334 51.7077 539.514 51.7077 539.738C51.7077 539.914 51.7717 540.062 51.8997 540.182C52.0277 540.302 52.1837 540.398 52.3677 540.47C52.5517 540.534 52.8237 540.618 53.1837 540.722C53.6637 540.85 54.0557 540.982 54.3597 541.118C54.6717 541.246 54.9397 541.438 55.1637 541.694C55.3877 541.95 55.5037 542.29 55.5117 542.714C55.5117 543.09 55.4077 543.426 55.1997 543.722C54.9917 544.019 54.6957 544.251 54.3117 544.418C53.9357 544.587 53.4917 544.671 52.9797 544.671ZM65.8698 537.951L63.8178 544.562H62.3778L61.0458 539.678L59.7138 544.562H58.2738L56.2098 537.951H57.6018L58.9818 543.266L60.3858 537.951H61.8138L63.1578 543.242L64.5258 537.951H65.8698ZM69.7602 544.671C69.1362 544.671 68.5722 544.531 68.0682 544.25C67.5642 543.962 67.1682 543.562 66.8802 543.05C66.5922 542.53 66.4482 541.93 66.4482 541.25C66.4482 540.578 66.5962 539.982 66.8922 539.462C67.1882 538.942 67.5922 538.542 68.1042 538.262C68.6162 537.982 69.1882 537.842 69.8202 537.842C70.4522 537.842 71.0242 537.982 71.5362 538.262C72.0482 538.542 72.4522 538.942 72.7482 539.462C73.0442 539.982 73.1922 540.578 73.1922 541.25C73.1922 541.922 73.0402 542.518 72.7362 543.038C72.4322 543.558 72.0162 543.962 71.4882 544.25C70.9682 544.531 70.3922 544.671 69.7602 544.671ZM69.7602 543.482C70.1122 543.482 70.4402 543.398 70.7442 543.23C71.0562 543.062 71.3082 542.81 71.5002 542.474C71.6922 542.138 71.7882 541.73 71.7882 541.25C71.7882 540.77 71.6962 540.366 71.5122 540.038C71.3282 539.702 71.0842 539.45 70.7802 539.282C70.4762 539.114 70.1482 539.03 69.7962 539.03C69.4442 539.03 69.1162 539.114 68.8122 539.282C68.5162 539.45 68.2802 539.702 68.1042 540.038C67.9282 540.366 67.8402 540.77 67.8402 541.25C67.8402 541.962 68.0202 542.514 68.3802 542.906C68.7482 543.29 69.2082 543.482 69.7602 543.482ZM75.9125 538.91C76.1125 538.574 76.3765 538.314 76.7045 538.13C77.0405 537.938 77.4365 537.842 77.8925 537.842V539.258H77.5445C77.0085 539.258 76.6005 539.394 76.3205 539.666C76.0485 539.938 75.9125 540.41 75.9125 541.082V544.562H74.5445V537.951H75.9125V538.91ZM78.694 541.226C78.694 540.562 78.83 539.974 79.102 539.462C79.382 538.95 79.758 538.554 80.23 538.274C80.71 537.986 81.242 537.842 81.826 537.842C82.258 537.842 82.682 537.938 83.098 538.13C83.522 538.314 83.858 538.562 84.106 538.874V535.682H85.486V544.562H84.106V543.566C83.882 543.886 83.57 544.15 83.17 544.358C82.778 544.567 82.326 544.671 81.814 544.671C81.238 544.671 80.71 544.527 80.23 544.238C79.758 543.942 79.382 543.534 79.102 543.014C78.83 542.486 78.694 541.89 78.694 541.226ZM84.106 541.25C84.106 540.794 84.01 540.398 83.818 540.062C83.634 539.726 83.39 539.47 83.086 539.294C82.782 539.118 82.454 539.03 82.102 539.03C81.75 539.03 81.422 539.118 81.118 539.294C80.814 539.462 80.566 539.714 80.374 540.05C80.19 540.378 80.098 540.77 80.098 541.226C80.098 541.682 80.19 542.082 80.374 542.426C80.566 542.77 80.814 543.034 81.118 543.218C81.43 543.394 81.758 543.482 82.102 543.482C82.454 543.482 82.782 543.394 83.086 543.218C83.39 543.042 83.634 542.786 83.818 542.45C84.01 542.106 84.106 541.706 84.106 541.25Z" fill="#636363"/>
<rect x="16" y="589.562" width="371" height="50" rx="4" fill="#ED6238"/>
<path d="M182.148 618.647C181.588 618.647 181.084 618.55 180.636 618.358C180.188 618.158 179.836 617.878 179.58 617.518C179.324 617.158 179.196 616.738 179.196 616.258H180.66C180.692 616.618 180.832 616.914 181.08 617.146C181.336 617.378 181.692 617.494 182.148 617.494C182.62 617.494 182.988 617.382 183.252 617.158C183.516 616.926 183.648 616.63 183.648 616.27C183.648 615.99 183.564 615.762 183.396 615.586C183.236 615.41 183.032 615.274 182.784 615.178C182.544 615.082 182.208 614.978 181.776 614.866C181.232 614.722 180.788 614.578 180.444 614.434C180.108 614.282 179.82 614.05 179.58 613.738C179.34 613.426 179.22 613.01 179.22 612.49C179.22 612.01 179.34 611.59 179.58 611.23C179.82 610.87 180.156 610.594 180.588 610.402C181.02 610.21 181.52 610.114 182.088 610.114C182.896 610.114 183.556 610.318 184.068 610.726C184.588 611.126 184.876 611.678 184.932 612.382H183.42C183.396 612.078 183.252 611.818 182.988 611.602C182.724 611.386 182.376 611.278 181.944 611.278C181.552 611.278 181.232 611.378 180.984 611.578C180.736 611.778 180.612 612.066 180.612 612.442C180.612 612.698 180.688 612.91 180.84 613.078C181 613.238 181.2 613.366 181.44 613.462C181.68 613.558 182.008 613.662 182.424 613.774C182.976 613.926 183.424 614.078 183.768 614.23C184.12 614.382 184.416 614.618 184.656 614.938C184.904 615.25 185.028 615.67 185.028 616.198C185.028 616.622 184.912 617.022 184.68 617.398C184.456 617.774 184.124 618.078 183.684 618.31C183.252 618.534 182.74 618.647 182.148 618.647ZM187.338 611.074C187.09 611.074 186.882 610.99 186.714 610.822C186.546 610.654 186.462 610.446 186.462 610.198C186.462 609.95 186.546 609.742 186.714 609.574C186.882 609.406 187.09 609.322 187.338 609.322C187.578 609.322 187.782 609.406 187.95 609.574C188.118 609.742 188.202 609.95 188.202 610.198C188.202 610.446 188.118 610.654 187.95 610.822C187.782 610.99 187.578 611.074 187.338 611.074ZM188.01 611.951V618.562H186.642V611.951H188.01ZM192.47 611.842C192.982 611.842 193.434 611.946 193.826 612.154C194.226 612.354 194.538 612.606 194.762 612.91V611.951H196.142V618.671C196.142 619.279 196.014 619.819 195.758 620.291C195.502 620.771 195.13 621.147 194.642 621.419C194.162 621.691 193.586 621.827 192.914 621.827C192.018 621.827 191.274 621.615 190.682 621.191C190.09 620.775 189.754 620.207 189.674 619.487H191.03C191.134 619.831 191.354 620.107 191.69 620.315C192.034 620.531 192.442 620.639 192.914 620.639C193.466 620.639 193.91 620.471 194.246 620.135C194.59 619.799 194.762 619.311 194.762 618.671V617.566C194.53 617.878 194.214 618.142 193.814 618.358C193.422 618.567 192.974 618.671 192.47 618.671C191.894 618.671 191.366 618.527 190.886 618.238C190.414 617.942 190.038 617.534 189.758 617.014C189.486 616.486 189.35 615.89 189.35 615.226C189.35 614.562 189.486 613.974 189.758 613.462C190.038 612.95 190.414 612.554 190.886 612.274C191.366 611.986 191.894 611.842 192.47 611.842ZM194.762 615.25C194.762 614.794 194.666 614.398 194.474 614.062C194.29 613.726 194.046 613.47 193.742 613.294C193.438 613.118 193.11 613.03 192.758 613.03C192.406 613.03 192.078 613.118 191.774 613.294C191.47 613.462 191.222 613.714 191.03 614.05C190.846 614.378 190.754 614.77 190.754 615.226C190.754 615.682 190.846 616.082 191.03 616.426C191.222 616.77 191.47 617.034 191.774 617.218C192.086 617.394 192.414 617.482 192.758 617.482C193.11 617.482 193.438 617.394 193.742 617.218C194.046 617.042 194.29 616.786 194.474 616.45C194.666 616.106 194.762 615.706 194.762 615.25ZM201.275 611.842C201.795 611.842 202.259 611.95 202.667 612.166C203.083 612.382 203.407 612.702 203.639 613.126C203.871 613.55 203.987 614.062 203.987 614.662V618.562H202.631V614.866C202.631 614.274 202.483 613.822 202.187 613.51C201.891 613.19 201.487 613.03 200.975 613.03C200.463 613.03 200.055 613.19 199.751 613.51C199.455 613.822 199.307 614.274 199.307 614.866V618.562H197.939V611.951H199.307V612.706C199.531 612.434 199.815 612.222 200.159 612.07C200.511 611.918 200.883 611.842 201.275 611.842ZM214.837 611.951V618.562H213.469V617.782C213.253 618.054 212.969 618.27 212.617 618.43C212.273 618.582 211.905 618.659 211.513 618.659C210.993 618.659 210.525 618.55 210.109 618.334C209.701 618.118 209.377 617.798 209.137 617.374C208.905 616.95 208.789 616.438 208.789 615.838V611.951H210.145V615.634C210.145 616.226 210.293 616.682 210.589 617.002C210.885 617.314 211.289 617.47 211.801 617.47C212.313 617.47 212.717 617.314 213.013 617.002C213.317 616.682 213.469 616.226 213.469 615.634V611.951H214.837ZM218.01 612.922C218.242 612.618 218.558 612.362 218.958 612.154C219.358 611.946 219.81 611.842 220.314 611.842C220.89 611.842 221.414 611.986 221.886 612.274C222.366 612.554 222.742 612.95 223.014 613.462C223.286 613.974 223.422 614.562 223.422 615.226C223.422 615.89 223.286 616.486 223.014 617.014C222.742 617.534 222.366 617.942 221.886 618.238C221.414 618.527 220.89 618.671 220.314 618.671C219.81 618.671 219.362 618.571 218.97 618.37C218.578 618.162 218.258 617.906 218.01 617.602V621.707H216.642V611.951H218.01V612.922ZM222.03 615.226C222.03 614.77 221.934 614.378 221.742 614.05C221.558 613.714 221.31 613.462 220.998 613.294C220.694 613.118 220.366 613.03 220.014 613.03C219.67 613.03 219.342 613.118 219.03 613.294C218.726 613.47 218.478 613.726 218.286 614.062C218.102 614.398 218.01 614.794 218.01 615.25C218.01 615.706 218.102 616.106 218.286 616.45C218.478 616.786 218.726 617.042 219.03 617.218C219.342 617.394 219.67 617.482 220.014 617.482C220.366 617.482 220.694 617.394 220.998 617.218C221.31 617.034 221.558 616.77 221.742 616.426C221.934 616.082 222.03 615.682 222.03 615.226Z" fill="#F8E7E8"/>
<path d="M21.868 674.702H18.22L17.548 676.562H16.396L19.42 668.246H20.68L23.692 676.562H22.54L21.868 674.702ZM21.556 673.814L20.044 669.59L18.532 673.814H21.556ZM26.1019 671.198C26.3179 670.822 26.6379 670.51 27.0619 670.262C27.4939 670.006 27.9939 669.878 28.5619 669.878C29.1459 669.878 29.6739 670.018 30.1459 670.298C30.6259 670.578 31.0019 670.974 31.2739 671.486C31.5459 671.99 31.6819 672.578 31.6819 673.25C31.6819 673.914 31.5459 674.506 31.2739 675.026C31.0019 675.546 30.6259 675.95 30.1459 676.238C29.6739 676.527 29.1459 676.671 28.5619 676.671C28.0019 676.671 27.5059 676.546 27.0739 676.298C26.6499 676.042 26.3259 675.726 26.1019 675.35V679.683H25.0099V669.986H26.1019V671.198ZM30.5659 673.25C30.5659 672.754 30.4659 672.322 30.2659 671.954C30.0659 671.586 29.7939 671.306 29.4499 671.114C29.1139 670.922 28.7419 670.826 28.3339 670.826C27.9339 670.826 27.5619 670.926 27.2179 671.126C26.8819 671.318 26.6099 671.602 26.4019 671.978C26.2019 672.346 26.1019 672.774 26.1019 673.262C26.1019 673.758 26.2019 674.194 26.4019 674.57C26.6099 674.938 26.8819 675.222 27.2179 675.422C27.5619 675.614 27.9339 675.71 28.3339 675.71C28.7419 675.71 29.1139 675.614 29.4499 675.422C29.7939 675.222 30.0659 674.938 30.2659 674.57C30.4659 674.194 30.5659 673.754 30.5659 673.25ZM32.7113 673.25C32.7113 672.578 32.8473 671.99 33.1193 671.486C33.3913 670.974 33.7633 670.578 34.2353 670.298C34.7153 670.018 35.2473 669.878 35.8313 669.878C36.4073 669.878 36.9073 670.002 37.3313 670.25C37.7553 670.498 38.0713 670.81 38.2793 671.186V669.986H39.3833V676.562H38.2793V675.338C38.0633 675.722 37.7393 676.042 37.3073 676.298C36.8833 676.546 36.3873 676.671 35.8193 676.671C35.2353 676.671 34.7073 676.527 34.2353 676.238C33.7633 675.95 33.3913 675.546 33.1193 675.026C32.8473 674.506 32.7113 673.914 32.7113 673.25ZM38.2793 673.262C38.2793 672.766 38.1793 672.334 37.9793 671.966C37.7793 671.598 37.5073 671.318 37.1633 671.126C36.8273 670.926 36.4553 670.826 36.0473 670.826C35.6393 670.826 35.2673 670.922 34.9313 671.114C34.5953 671.306 34.3273 671.586 34.1273 671.954C33.9273 672.322 33.8273 672.754 33.8273 673.25C33.8273 673.754 33.9273 674.194 34.1273 674.57C34.3273 674.938 34.5953 675.222 34.9313 675.422C35.2673 675.614 35.6393 675.71 36.0473 675.71C36.4553 675.71 36.8273 675.614 37.1633 675.422C37.5073 675.222 37.7793 674.938 37.9793 674.57C38.1793 674.194 38.2793 673.758 38.2793 673.262ZM44.9007 676.562L42.3207 673.658V676.562H41.2287V667.682H42.3207V672.902L44.8527 669.986H46.3767L43.2807 673.262L46.3887 676.562H44.9007ZM46.9965 673.25C46.9965 672.578 47.1325 671.99 47.4045 671.486C47.6765 670.974 48.0485 670.578 48.5205 670.298C49.0005 670.018 49.5325 669.878 50.1165 669.878C50.6925 669.878 51.1925 670.002 51.6165 670.25C52.0405 670.498 52.3565 670.81 52.5645 671.186V669.986H53.6685V676.562H52.5645V675.338C52.3485 675.722 52.0245 676.042 51.5925 676.298C51.1685 676.546 50.6725 676.671 50.1045 676.671C49.5205 676.671 48.9925 676.527 48.5205 676.238C48.0485 675.95 47.6765 675.546 47.4045 675.026C47.1325 674.506 46.9965 673.914 46.9965 673.25ZM52.5645 673.262C52.5645 672.766 52.4645 672.334 52.2645 671.966C52.0645 671.598 51.7925 671.318 51.4485 671.126C51.1125 670.926 50.7405 670.826 50.3325 670.826C49.9245 670.826 49.5525 670.922 49.2165 671.114C48.8805 671.306 48.6125 671.586 48.4125 671.954C48.2125 672.322 48.1125 672.754 48.1125 673.25C48.1125 673.754 48.2125 674.194 48.4125 674.57C48.6125 674.938 48.8805 675.222 49.2165 675.422C49.5525 675.614 49.9245 675.71 50.3325 675.71C50.7405 675.71 51.1125 675.614 51.4485 675.422C51.7925 675.222 52.0645 674.938 52.2645 674.57C52.4645 674.194 52.5645 673.758 52.5645 673.262ZM58.7778 669.866C59.2738 669.866 59.7218 669.974 60.1218 670.19C60.5218 670.398 60.8338 670.714 61.0578 671.138C61.2898 671.562 61.4058 672.078 61.4058 672.686V676.562H60.3258V672.842C60.3258 672.186 60.1618 671.686 59.8338 671.342C59.5058 670.99 59.0578 670.814 58.4898 670.814C57.9138 670.814 57.4538 670.994 57.1098 671.354C56.7738 671.714 56.6058 672.238 56.6058 672.926V676.562H55.5138V667.682H56.6058V670.922C56.8218 670.586 57.1178 670.326 57.4938 670.142C57.8778 669.958 58.3058 669.866 58.7778 669.866ZM70.0608 676.562L67.4808 673.658V676.562H66.3888V667.682H67.4808V672.902L70.0128 669.986H71.5368L68.4408 673.262L71.5488 676.562H70.0608ZM72.1566 673.25C72.1566 672.578 72.2926 671.99 72.5646 671.486C72.8366 670.974 73.2086 670.578 73.6806 670.298C74.1606 670.018 74.6926 669.878 75.2766 669.878C75.8526 669.878 76.3526 670.002 76.7766 670.25C77.2006 670.498 77.5166 670.81 77.7246 671.186V669.986H78.8286V676.562H77.7246V675.338C77.5086 675.722 77.1846 676.042 76.7526 676.298C76.3286 676.546 75.8326 676.671 75.2646 676.671C74.6806 676.671 74.1526 676.527 73.6806 676.238C73.2086 675.95 72.8366 675.546 72.5646 675.026C72.2926 674.506 72.1566 673.914 72.1566 673.25ZM77.7246 673.262C77.7246 672.766 77.6246 672.334 77.4246 671.966C77.2246 671.598 76.9526 671.318 76.6086 671.126C76.2726 670.926 75.9006 670.826 75.4926 670.826C75.0846 670.826 74.7126 670.922 74.3766 671.114C74.0406 671.306 73.7726 671.586 73.5726 671.954C73.3726 672.322 73.2726 672.754 73.2726 673.25C73.2726 673.754 73.3726 674.194 73.5726 674.57C73.7726 674.938 74.0406 675.222 74.3766 675.422C74.7126 675.614 75.0846 675.71 75.4926 675.71C75.9006 675.71 76.2726 675.614 76.6086 675.422C76.9526 675.222 77.2246 674.938 77.4246 674.57C77.6246 674.194 77.7246 673.758 77.7246 673.262ZM88.582 669.866C89.094 669.866 89.55 669.974 89.95 670.19C90.35 670.398 90.666 670.714 90.898 671.138C91.13 671.562 91.246 672.078 91.246 672.686V676.562H90.166V672.842C90.166 672.186 90.002 671.686 89.674 671.342C89.354 670.99 88.918 670.814 88.366 670.814C87.798 670.814 87.346 670.998 87.01 671.366C86.674 671.726 86.506 672.25 86.506 672.938V676.562H85.426V672.842C85.426 672.186 85.262 671.686 84.934 671.342C84.614 670.99 84.178 670.814 83.626 670.814C83.058 670.814 82.606 670.998 82.27 671.366C81.934 671.726 81.766 672.25 81.766 672.938V676.562H80.674V669.986H81.766V670.934C81.982 670.59 82.27 670.326 82.63 670.142C82.998 669.958 83.402 669.866 83.842 669.866C84.394 669.866 84.882 669.99 85.306 670.238C85.73 670.486 86.046 670.85 86.254 671.33C86.438 670.866 86.742 670.506 87.166 670.25C87.59 669.994 88.062 669.866 88.582 669.866ZM98.8693 669.986V676.562H97.7773V675.59C97.5693 675.926 97.2773 676.19 96.9013 676.382C96.5333 676.567 96.1253 676.659 95.6773 676.659C95.1653 676.659 94.7053 676.554 94.2973 676.346C93.8893 676.13 93.5653 675.81 93.3253 675.386C93.0933 674.962 92.9773 674.446 92.9773 673.838V669.986H94.0573V673.694C94.0573 674.342 94.2213 674.842 94.5493 675.194C94.8773 675.538 95.3253 675.71 95.8933 675.71C96.4773 675.71 96.9373 675.53 97.2733 675.17C97.6093 674.81 97.7773 674.286 97.7773 673.598V669.986H98.8693ZM106.24 676.671C105.736 676.671 105.284 676.587 104.884 676.418C104.484 676.242 104.168 676.002 103.936 675.698C103.704 675.386 103.576 675.03 103.552 674.63H104.68C104.712 674.958 104.864 675.226 105.136 675.434C105.416 675.642 105.78 675.746 106.228 675.746C106.644 675.746 106.972 675.654 107.212 675.47C107.452 675.286 107.572 675.054 107.572 674.774C107.572 674.486 107.444 674.274 107.188 674.138C106.932 673.994 106.536 673.854 106 673.718C105.512 673.59 105.112 673.462 104.8 673.334C104.496 673.198 104.232 673.002 104.008 672.746C103.792 672.482 103.684 672.138 103.684 671.714C103.684 671.378 103.784 671.07 103.984 670.79C104.184 670.51 104.468 670.29 104.836 670.13C105.204 669.962 105.624 669.878 106.096 669.878C106.824 669.878 107.412 670.062 107.86 670.43C108.308 670.798 108.548 671.302 108.58 671.942H107.488C107.464 671.598 107.324 671.322 107.068 671.114C106.82 670.906 106.484 670.802 106.06 670.802C105.668 670.802 105.356 670.886 105.124 671.054C104.892 671.222 104.776 671.442 104.776 671.714C104.776 671.93 104.844 672.11 104.98 672.254C105.124 672.39 105.3 672.502 105.508 672.59C105.724 672.67 106.02 672.762 106.396 672.866C106.868 672.994 107.252 673.122 107.548 673.25C107.844 673.37 108.096 673.554 108.304 673.802C108.52 674.05 108.632 674.374 108.64 674.774C108.64 675.134 108.54 675.458 108.34 675.746C108.14 676.034 107.856 676.262 107.488 676.43C107.128 676.591 106.712 676.671 106.24 676.671ZM116.014 669.986V676.562H114.922V675.59C114.714 675.926 114.422 676.19 114.046 676.382C113.678 676.567 113.27 676.659 112.822 676.659C112.31 676.659 111.85 676.554 111.442 676.346C111.034 676.13 110.71 675.81 110.47 675.386C110.238 674.962 110.122 674.446 110.122 673.838V669.986H111.202V673.694C111.202 674.342 111.366 674.842 111.694 675.194C112.022 675.538 112.47 675.71 113.038 675.71C113.622 675.71 114.082 675.53 114.418 675.17C114.754 674.81 114.922 674.286 114.922 673.598V669.986H116.014ZM117.45 673.25C117.45 672.578 117.586 671.99 117.858 671.486C118.13 670.974 118.502 670.578 118.974 670.298C119.454 670.018 119.99 669.878 120.582 669.878C121.094 669.878 121.57 669.998 122.01 670.238C122.45 670.47 122.786 670.778 123.018 671.162V667.682H124.122V676.562H123.018V675.326C122.802 675.718 122.482 676.042 122.058 676.298C121.634 676.546 121.138 676.671 120.57 676.671C119.986 676.671 119.454 676.527 118.974 676.238C118.502 675.95 118.13 675.546 117.858 675.026C117.586 674.506 117.45 673.914 117.45 673.25ZM123.018 673.262C123.018 672.766 122.918 672.334 122.718 671.966C122.518 671.598 122.246 671.318 121.902 671.126C121.566 670.926 121.194 670.826 120.786 670.826C120.378 670.826 120.006 670.922 119.67 671.114C119.334 671.306 119.066 671.586 118.866 671.954C118.666 672.322 118.566 672.754 118.566 673.25C118.566 673.754 118.666 674.194 118.866 674.57C119.066 674.938 119.334 675.222 119.67 675.422C120.006 675.614 120.378 675.71 120.786 675.71C121.194 675.71 121.566 675.614 121.902 675.422C122.246 675.222 122.518 674.938 122.718 674.57C122.918 674.194 123.018 673.758 123.018 673.262ZM125.559 673.25C125.559 672.578 125.695 671.99 125.967 671.486C126.239 670.974 126.611 670.578 127.083 670.298C127.563 670.018 128.095 669.878 128.679 669.878C129.255 669.878 129.755 670.002 130.179 670.25C130.603 670.498 130.919 670.81 131.127 671.186V669.986H132.231V676.562H131.127V675.338C130.911 675.722 130.587 676.042 130.155 676.298C129.731 676.546 129.235 676.671 128.667 676.671C128.083 676.671 127.555 676.527 127.083 676.238C126.611 675.95 126.239 675.546 125.967 675.026C125.695 674.506 125.559 673.914 125.559 673.25ZM131.127 673.262C131.127 672.766 131.027 672.334 130.827 671.966C130.627 671.598 130.355 671.318 130.011 671.126C129.675 670.926 129.303 670.826 128.895 670.826C128.487 670.826 128.115 670.922 127.779 671.114C127.443 671.306 127.175 671.586 126.975 671.954C126.775 672.322 126.675 672.754 126.675 673.25C126.675 673.754 126.775 674.194 126.975 674.57C127.175 674.938 127.443 675.222 127.779 675.422C128.115 675.614 128.487 675.71 128.895 675.71C129.303 675.71 129.675 675.614 130.011 675.422C130.355 675.222 130.627 674.938 130.827 674.57C131.027 674.194 131.127 673.758 131.127 673.262ZM137.34 669.866C137.836 669.866 138.284 669.974 138.684 670.19C139.084 670.398 139.396 670.714 139.62 671.138C139.852 671.562 139.968 672.078 139.968 672.686V676.562H138.888V672.842C138.888 672.186 138.724 671.686 138.396 671.342C138.068 670.99 137.62 670.814 137.052 670.814C136.476 670.814 136.016 670.994 135.672 671.354C135.336 671.714 135.168 672.238 135.168 672.926V676.562H134.076V667.682H135.168V670.922C135.384 670.586 135.68 670.326 136.056 670.142C136.44 669.958 136.868 669.866 137.34 669.866ZM152.859 669.866C153.371 669.866 153.827 669.974 154.227 670.19C154.627 670.398 154.943 670.714 155.175 671.138C155.407 671.562 155.523 672.078 155.523 672.686V676.562H154.443V672.842C154.443 672.186 154.279 671.686 153.951 671.342C153.631 670.99 153.195 670.814 152.643 670.814C152.075 670.814 151.623 670.998 151.287 671.366C150.951 671.726 150.783 672.25 150.783 672.938V676.562H149.703V672.842C149.703 672.186 149.539 671.686 149.211 671.342C148.891 670.99 148.455 670.814 147.903 670.814C147.335 670.814 146.883 670.998 146.547 671.366C146.211 671.726 146.043 672.25 146.043 672.938V676.562H144.951V669.986H146.043V670.934C146.259 670.59 146.547 670.326 146.907 670.142C147.275 669.958 147.679 669.866 148.119 669.866C148.671 669.866 149.159 669.99 149.583 670.238C150.007 670.486 150.323 670.85 150.531 671.33C150.715 670.866 151.019 670.506 151.443 670.25C151.867 669.994 152.339 669.866 152.859 669.866ZM163.315 673.022C163.315 673.23 163.303 673.45 163.279 673.682H158.023C158.063 674.33 158.283 674.838 158.683 675.206C159.091 675.566 159.583 675.746 160.159 675.746C160.631 675.746 161.023 675.638 161.335 675.422C161.655 675.198 161.879 674.902 162.007 674.534H163.183C163.007 675.166 162.655 675.682 162.127 676.082C161.599 676.474 160.943 676.671 160.159 676.671C159.535 676.671 158.975 676.531 158.479 676.25C157.991 675.97 157.607 675.574 157.327 675.062C157.047 674.542 156.907 673.942 156.907 673.262C156.907 672.582 157.043 671.986 157.315 671.474C157.587 670.962 157.967 670.57 158.455 670.298C158.951 670.018 159.519 669.878 160.159 669.878C160.783 669.878 161.335 670.014 161.815 670.286C162.295 670.558 162.663 670.934 162.919 671.414C163.183 671.886 163.315 672.422 163.315 673.022ZM162.187 672.794C162.187 672.378 162.095 672.022 161.911 671.726C161.727 671.422 161.475 671.194 161.155 671.042C160.843 670.882 160.495 670.802 160.111 670.802C159.559 670.802 159.087 670.978 158.695 671.33C158.311 671.682 158.091 672.17 158.035 672.794H162.187ZM172.664 669.866C173.176 669.866 173.632 669.974 174.032 670.19C174.432 670.398 174.748 670.714 174.98 671.138C175.212 671.562 175.328 672.078 175.328 672.686V676.562H174.248V672.842C174.248 672.186 174.084 671.686 173.756 671.342C173.436 670.99 173 670.814 172.448 670.814C171.88 670.814 171.428 670.998 171.092 671.366C170.756 671.726 170.588 672.25 170.588 672.938V676.562H169.508V672.842C169.508 672.186 169.344 671.686 169.016 671.342C168.696 670.99 168.26 670.814 167.708 670.814C167.14 670.814 166.688 670.998 166.352 671.366C166.016 671.726 165.848 672.25 165.848 672.938V676.562H164.756V669.986H165.848V670.934C166.064 670.59 166.352 670.326 166.712 670.142C167.08 669.958 167.484 669.866 167.924 669.866C168.476 669.866 168.964 669.99 169.388 670.238C169.812 670.486 170.128 670.85 170.336 671.33C170.52 670.866 170.824 670.506 171.248 670.25C171.672 669.994 172.144 669.866 172.664 669.866ZM178.211 671.198C178.427 670.822 178.747 670.51 179.171 670.262C179.603 670.006 180.103 669.878 180.671 669.878C181.255 669.878 181.783 670.018 182.255 670.298C182.735 670.578 183.111 670.974 183.383 671.486C183.655 671.99 183.791 672.578 183.791 673.25C183.791 673.914 183.655 674.506 183.383 675.026C183.111 675.546 182.735 675.95 182.255 676.238C181.783 676.527 181.255 676.671 180.671 676.671C180.111 676.671 179.615 676.546 179.183 676.298C178.759 676.042 178.435 675.726 178.211 675.35V679.683H177.119V669.986H178.211V671.198ZM182.675 673.25C182.675 672.754 182.575 672.322 182.375 671.954C182.175 671.586 181.903 671.306 181.559 671.114C181.223 670.922 180.851 670.826 180.443 670.826C180.043 670.826 179.671 670.926 179.327 671.126C178.991 671.318 178.719 671.602 178.511 671.978C178.311 672.346 178.211 672.774 178.211 673.262C178.211 673.758 178.311 674.194 178.511 674.57C178.719 674.938 178.991 675.222 179.327 675.422C179.671 675.614 180.043 675.71 180.443 675.71C180.851 675.71 181.223 675.614 181.559 675.422C181.903 675.222 182.175 674.938 182.375 674.57C182.575 674.194 182.675 673.754 182.675 673.25ZM191.061 669.986V676.562H189.969V675.59C189.761 675.926 189.469 676.19 189.093 676.382C188.725 676.567 188.317 676.659 187.869 676.659C187.357 676.659 186.897 676.554 186.489 676.346C186.081 676.13 185.757 675.81 185.517 675.386C185.285 674.962 185.169 674.446 185.169 673.838V669.986H186.249V673.694C186.249 674.342 186.413 674.842 186.741 675.194C187.069 675.538 187.517 675.71 188.085 675.71C188.669 675.71 189.129 675.53 189.465 675.17C189.801 674.81 189.969 674.286 189.969 673.598V669.986H191.061ZM196.108 669.866C196.908 669.866 197.556 670.11 198.052 670.598C198.548 671.078 198.796 671.774 198.796 672.686V676.562H197.716V672.842C197.716 672.186 197.552 671.686 197.224 671.342C196.896 670.99 196.448 670.814 195.88 670.814C195.304 670.814 194.844 670.994 194.5 671.354C194.164 671.714 193.996 672.238 193.996 672.926V676.562H192.904V669.986H193.996V670.922C194.212 670.586 194.504 670.326 194.872 670.142C195.248 669.958 195.66 669.866 196.108 669.866ZM206.244 669.986L202.284 679.659H201.156L202.452 676.49L199.8 669.986H201.012L203.076 675.314L205.116 669.986H206.244ZM206.934 673.25C206.934 672.578 207.07 671.99 207.342 671.486C207.614 670.974 207.986 670.578 208.458 670.298C208.938 670.018 209.47 669.878 210.054 669.878C210.63 669.878 211.13 670.002 211.554 670.25C211.978 670.498 212.294 670.81 212.502 671.186V669.986H213.606V676.562H212.502V675.338C212.286 675.722 211.962 676.042 211.53 676.298C211.106 676.546 210.61 676.671 210.042 676.671C209.458 676.671 208.93 676.527 208.458 676.238C207.986 675.95 207.614 675.546 207.342 675.026C207.07 674.506 206.934 673.914 206.934 673.25ZM212.502 673.262C212.502 672.766 212.402 672.334 212.202 671.966C212.002 671.598 211.73 671.318 211.386 671.126C211.05 670.926 210.678 670.826 210.27 670.826C209.862 670.826 209.49 670.922 209.154 671.114C208.818 671.306 208.55 671.586 208.35 671.954C208.15 672.322 208.05 672.754 208.05 673.25C208.05 673.754 208.15 674.194 208.35 674.57C208.55 674.938 208.818 675.222 209.154 675.422C209.49 675.614 209.862 675.71 210.27 675.71C210.678 675.71 211.05 675.614 211.386 675.422C211.73 675.222 212.002 674.938 212.202 674.57C212.402 674.194 212.502 673.758 212.502 673.262ZM216.015 668.918C215.807 668.918 215.631 668.846 215.487 668.702C215.343 668.558 215.271 668.382 215.271 668.174C215.271 667.966 215.343 667.79 215.487 667.646C215.631 667.502 215.807 667.43 216.015 667.43C216.215 667.43 216.383 667.502 216.519 667.646C216.663 667.79 216.735 667.966 216.735 668.174C216.735 668.382 216.663 668.558 216.519 668.702C216.383 668.846 216.215 668.918 216.015 668.918ZM216.543 669.986V676.562H215.451V669.986H216.543ZM221.196 673.25C221.196 672.578 221.332 671.99 221.604 671.486C221.876 670.974 222.248 670.578 222.72 670.298C223.2 670.018 223.732 669.878 224.316 669.878C224.892 669.878 225.392 670.002 225.816 670.25C226.24 670.498 226.556 670.81 226.764 671.186V669.986H227.868V676.562H226.764V675.338C226.548 675.722 226.224 676.042 225.792 676.298C225.368 676.546 224.872 676.671 224.304 676.671C223.72 676.671 223.192 676.527 222.72 676.238C222.248 675.95 221.876 675.546 221.604 675.026C221.332 674.506 221.196 673.914 221.196 673.25ZM226.764 673.262C226.764 672.766 226.664 672.334 226.464 671.966C226.264 671.598 225.992 671.318 225.648 671.126C225.312 670.926 224.94 670.826 224.532 670.826C224.124 670.826 223.752 670.922 223.416 671.114C223.08 671.306 222.812 671.586 222.612 671.954C222.412 672.322 222.312 672.754 222.312 673.25C222.312 673.754 222.412 674.194 222.612 674.57C222.812 674.938 223.08 675.222 223.416 675.422C223.752 675.614 224.124 675.71 224.532 675.71C224.94 675.71 225.312 675.614 225.648 675.422C225.992 675.222 226.264 674.938 226.464 674.57C226.664 674.194 226.764 673.758 226.764 673.262ZM233.385 676.562L230.805 673.658V676.562H229.713V667.682H230.805V672.902L233.337 669.986H234.861L231.765 673.262L234.873 676.562H233.385ZM241.721 669.986V676.562H240.629V675.59C240.421 675.926 240.129 676.19 239.753 676.382C239.385 676.567 238.977 676.659 238.529 676.659C238.017 676.659 237.557 676.554 237.149 676.346C236.741 676.13 236.417 675.81 236.177 675.386C235.945 674.962 235.829 674.446 235.829 673.838V669.986H236.909V673.694C236.909 674.342 237.073 674.842 237.401 675.194C237.729 675.538 238.177 675.71 238.745 675.71C239.329 675.71 239.789 675.53 240.125 675.17C240.461 674.81 240.629 674.286 240.629 673.598V669.986H241.721ZM246.769 669.866C247.569 669.866 248.217 670.11 248.713 670.598C249.209 671.078 249.457 671.774 249.457 672.686V676.562H248.377V672.842C248.377 672.186 248.213 671.686 247.885 671.342C247.557 670.99 247.109 670.814 246.541 670.814C245.965 670.814 245.505 670.994 245.161 671.354C244.825 671.714 244.657 672.238 244.657 672.926V676.562H243.565V669.986H244.657V670.922C244.873 670.586 245.165 670.326 245.533 670.142C245.909 669.958 246.321 669.866 246.769 669.866ZM253.376 668.09C254.168 668.09 254.808 668.314 255.296 668.762C255.784 669.21 256.028 669.81 256.028 670.562C256.028 671.402 255.768 672.026 255.248 672.434C254.728 672.834 254.024 673.035 253.136 673.035L253.1 674.174H252.152L252.104 672.278H252.452C253.244 672.278 253.864 672.158 254.312 671.918C254.76 671.678 254.984 671.226 254.984 670.562C254.984 670.082 254.84 669.702 254.552 669.422C254.264 669.142 253.876 669.002 253.388 669.002C252.892 669.002 252.5 669.138 252.212 669.41C251.932 669.674 251.792 670.038 251.792 670.503H250.76C250.76 670.023 250.868 669.602 251.084 669.242C251.3 668.874 251.604 668.59 251.996 668.39C252.396 668.19 252.856 668.09 253.376 668.09ZM252.62 676.635C252.412 676.635 252.236 676.562 252.092 676.418C251.948 676.274 251.876 676.098 251.876 675.89C251.876 675.682 251.948 675.506 252.092 675.362C252.236 675.218 252.412 675.146 252.62 675.146C252.82 675.146 252.988 675.218 253.124 675.362C253.268 675.506 253.34 675.682 253.34 675.89C253.34 676.098 253.268 676.274 253.124 676.418C252.988 676.562 252.82 676.635 252.62 676.635Z" fill="#9A9A9A"/>
<path d="M267.016 675.674H269.944V676.562H265.924V668.198H267.016V675.674ZM273.972 676.671C273.356 676.671 272.796 676.531 272.292 676.25C271.796 675.97 271.404 675.574 271.116 675.062C270.836 674.542 270.696 673.942 270.696 673.262C270.696 672.59 270.84 671.998 271.128 671.486C271.424 670.966 271.824 670.57 272.328 670.298C272.832 670.018 273.396 669.878 274.02 669.878C274.644 669.878 275.208 670.018 275.712 670.298C276.216 670.57 276.612 670.962 276.9 671.474C277.196 671.986 277.344 672.582 277.344 673.262C277.344 673.942 277.192 674.542 276.888 675.062C276.592 675.574 276.188 675.97 275.676 676.25C275.164 676.531 274.596 676.671 273.972 676.671ZM273.972 675.71C274.364 675.71 274.732 675.618 275.076 675.434C275.42 675.25 275.696 674.974 275.904 674.606C276.12 674.238 276.228 673.79 276.228 673.262C276.228 672.734 276.124 672.286 275.916 671.918C275.708 671.55 275.436 671.278 275.1 671.102C274.764 670.918 274.4 670.826 274.008 670.826C273.608 670.826 273.24 670.918 272.904 671.102C272.576 671.278 272.312 671.55 272.112 671.918C271.912 672.286 271.812 672.734 271.812 673.262C271.812 673.798 271.908 674.25 272.1 674.618C272.3 674.986 272.564 675.262 272.892 675.446C273.22 675.622 273.58 675.71 273.972 675.71ZM281.491 669.878C282.059 669.878 282.555 670.002 282.979 670.25C283.411 670.498 283.731 670.81 283.939 671.186V669.986H285.043V676.707C285.043 677.307 284.915 677.839 284.659 678.303C284.403 678.775 284.035 679.143 283.555 679.407C283.083 679.671 282.531 679.803 281.899 679.803C281.035 679.803 280.315 679.599 279.739 679.191C279.163 678.783 278.823 678.227 278.719 677.523H279.799C279.919 677.923 280.167 678.243 280.543 678.483C280.919 678.731 281.371 678.855 281.899 678.855C282.499 678.855 282.987 678.667 283.363 678.291C283.747 677.915 283.939 677.387 283.939 676.707V675.326C283.723 675.71 283.403 676.03 282.979 676.286C282.555 676.542 282.059 676.671 281.491 676.671C280.907 676.671 280.375 676.527 279.895 676.238C279.423 675.95 279.051 675.546 278.779 675.026C278.507 674.506 278.371 673.914 278.371 673.25C278.371 672.578 278.507 671.99 278.779 671.486C279.051 670.974 279.423 670.578 279.895 670.298C280.375 670.018 280.907 669.878 281.491 669.878ZM283.939 673.262C283.939 672.766 283.839 672.334 283.639 671.966C283.439 671.598 283.167 671.318 282.823 671.126C282.487 670.926 282.115 670.826 281.707 670.826C281.299 670.826 280.927 670.922 280.591 671.114C280.255 671.306 279.987 671.586 279.787 671.954C279.587 672.322 279.487 672.754 279.487 673.25C279.487 673.754 279.587 674.194 279.787 674.57C279.987 674.938 280.255 675.222 280.591 675.422C280.927 675.614 281.299 675.71 281.707 675.71C282.115 675.71 282.487 675.614 282.823 675.422C283.167 675.222 283.439 674.938 283.639 674.57C283.839 674.194 283.939 673.758 283.939 673.262ZM290.652 668.918C290.444 668.918 290.268 668.846 290.124 668.702C289.98 668.558 289.908 668.382 289.908 668.174C289.908 667.966 289.98 667.79 290.124 667.646C290.268 667.502 290.444 667.43 290.652 667.43C290.852 667.43 291.02 667.502 291.156 667.646C291.3 667.79 291.372 667.966 291.372 668.174C291.372 668.382 291.3 668.558 291.156 668.702C291.02 668.846 290.852 668.918 290.652 668.918ZM291.18 669.986V676.562H290.088V669.986H291.18ZM296.245 669.866C297.045 669.866 297.693 670.11 298.189 670.598C298.685 671.078 298.933 671.774 298.933 672.686V676.562H297.853V672.842C297.853 672.186 297.689 671.686 297.361 671.342C297.033 670.99 296.585 670.814 296.017 670.814C295.441 670.814 294.981 670.994 294.637 671.354C294.301 671.714 294.133 672.238 294.133 672.926V676.562H293.041V669.986H294.133V670.922C294.349 670.586 294.641 670.326 295.009 670.142C295.385 669.958 295.797 669.866 296.245 669.866Z" fill="#ED6238"/>
</g>
<defs>
<filter id="filter0_f_92_624" x="-201" y="480.525" width="658.811" height="536.451" filterUnits="userSpaceOnUse" color-interpolation-filters="sRGB">
<feFlood flood-opacity="0" result="BackgroundImageFix"/>
<feBlend mode="normal" in="SourceGraphic" in2="BackgroundImageFix" result="shape"/>
<feGaussianBlur stdDeviation="100" result="effect1_foregroundBlur_92_624"/>
</filter>
<filter id="filter1_f_92_624" x="-253.431" y="271" width="956.431" height="747.277" filterUnits="userSpaceOnUse" color-interpolation-filters="sRGB">
<feFlood flood-opacity="0" result="BackgroundImageFix"/>
<feBlend mode="normal" in="SourceGraphic" in2="BackgroundImageFix" result="shape"/>
<feGaussianBlur stdDeviation="150" result="effect1_foregroundBlur_92_624"/>
</filter>
<filter id="filter2_f_92_624" x="-115.896" y="413.766" width="797.981" height="760.234" filterUnits="userSpaceOnUse" color-interpolation-filters="sRGB">
<feFlood flood-opacity="0" result="BackgroundImageFix"/>
<feBlend mode="normal" in="SourceGraphic" in2="BackgroundImageFix" result="shape"/>
<feGaussianBlur stdDeviation="150" result="effect1_foregroundBlur_92_624"/>
</filter>
<filter id="filter3_f_92_624" x="33" y="-150" width="518.799" height="420.543" filterUnits="userSpaceOnUse" color-interpolation-filters="sRGB">
<feFlood flood-opacity="0" result="BackgroundImageFix"/>
<feBlend mode="normal" in="SourceGraphic" in2="BackgroundImageFix" result="shape"/>
<feGaussianBlur stdDeviation="75" result="effect1_foregroundBlur_92_624"/>
</filter>
<linearGradient id="paint0_linear_92_624" x1="236.232" y1="637.212" x2="65.371" y2="826.083" gradientUnits="userSpaceOnUse">
<stop stop-color="#EE7750" stop-opacity="0"/>
<stop offset="1" stop-color="#EE7750"/>
</linearGradient>
<linearGradient id="paint1_linear_92_624" x1="224.785" y1="571" x2="203.257" y2="687.674" gradientUnits="userSpaceOnUse">
<stop stop-color="#EE7750"/>
<stop offset="1" stop-color="#EE7750" stop-opacity="0"/>
</linearGradient>
<linearGradient id="paint2_linear_92_624" x1="283.094" y1="713.766" x2="283.094" y2="874" gradientUnits="userSpaceOnUse">
<stop stop-color="#ED6238" stop-opacity="0"/>
<stop offset="1" stop-color="#ED6238"/>
</linearGradient>
<linearGradient id="paint3_linear_92_624" x1="502" y1="466" x2="611.742" y2="782.844" gradientUnits="userSpaceOnUse">
<stop offset="0.404" stop-color="#131010" stop-opacity="0"/>
<stop offset="1" stop-color="#131010"/>
</linearGradient>
<linearGradient id="paint4_linear_92_624" x1="292.399" y1="0" x2="269.493" y2="93.1111" gradientUnits="userSpaceOnUse">
<stop stop-color="#EE7750"/>
<stop offset="1" stop-color="#EE7750" stop-opacity="0"/>
</linearGradient>
<clipPath id="clip0_92_624">
<rect width="402" height="874" rx="16" fill="white"/>
</clipPath>
</defs>
</svg>
