<svg width="402" height="874" viewBox="0 0 402 874" fill="none" xmlns="http://www.w3.org/2000/svg">
<g clip-path="url(#clip0_1_2)">
<rect width="402" height="874" rx="16" fill="#0F0F0F"/>
<g filter="url(#filter0_f_1_2)">
<path d="M179.138 584.797C56.0522 507.276 5.16889 665.965 -4.88711 755C-19.8035 702.617 -52.3514 593.332 -63.2119 575.257C-76.7875 552.664 88.1309 483.378 191.708 548.647C274.569 600.863 321.095 546.639 334 513C333.665 569.232 302.223 662.317 179.138 584.797Z" fill="url(#paint0_linear_1_2)"/>
</g>
<g filter="url(#filter1_f_1_2)">
<path d="M143.299 728.811C9.73498 671.191 -16.078 835.827 -12.289 925.347C-35.102 875.89 -84.1074 772.928 -97.6243 756.744C-114.52 736.513 37.7461 642.633 150.146 691.156C240.066 729.974 277.677 669.226 285.243 634C293.58 689.612 276.863 786.431 143.299 728.811Z" fill="url(#paint1_linear_1_2)"/>
</g>
<g filter="url(#filter2_f_1_2)">
<path d="M301.619 109.7C322.019 52.1 434.452 77.0333 488.119 96.7V74.2C480.619 51.5333 459.919 3.69995 437.119 -6.30005C408.619 -18.8 318.619 -54.3 260.619 -70.3C202.619 -86.3 167.119 -72.8 39.6187 -70.3C-87.8813 -67.8 -32.3813 12.2 -56.3813 27.7C-75.5813 40.1 -13.7146 136.533 19.6187 183.2L151.619 132.2C105.285 131.7 24.0187 116 69.6187 57.2C126.619 -16.3 276.119 181.7 301.619 109.7Z" fill="url(#paint2_linear_1_2)"/>
</g>
<g filter="url(#filter3_f_1_2)">
<path d="M311.917 860.68C352.717 831.48 427.25 910.18 459.417 953.18C468.083 912.346 485.617 828.18 486.417 818.18C487.417 805.68 468.917 759.68 451.417 748.68C433.917 737.68 382.417 723.68 331.917 680.68C281.417 637.68 215.417 724.68 186.917 759.68C158.417 794.68 260.917 897.18 311.917 860.68Z" fill="url(#paint3_linear_1_2)"/>
</g>
<g style="mix-blend-mode:exclusion">
<rect x="239.697" y="397.78" width="56" height="15" rx="7.5" transform="rotate(-161.01 239.697 397.78)" fill="#EE9B82"/>
<rect x="246.491" y="385.063" width="56" height="15" rx="7.5" transform="rotate(109.99 246.491 385.063)" fill="#EE9B82"/>
<rect x="226.216" y="404.722" width="56" height="15" rx="7.5" transform="rotate(-161.01 226.216 404.722)" fill="#EE7E5D"/>
<rect x="233.009" y="392.006" width="56" height="15" rx="7.5" transform="rotate(109.99 233.009 392.006)" fill="#EE7E5D"/>
<rect x="212.216" y="412.722" width="56" height="15" rx="7.5" transform="rotate(-161.01 212.216 412.722)" fill="#ED6238"/>
<rect x="219.009" y="400.006" width="56" height="15" rx="7.5" transform="rotate(109.99 219.009 400.006)" fill="#ED6238"/>
<rect x="225" y="360" width="15" height="15" rx="7.5" fill="#F1906E"/>
</g>
<path d="M170.587 487.367V504.047H167.851V492.623L162.763 504.047H160.867L155.755 492.623V504.047H153.019V487.367H155.971L161.827 500.447L167.659 487.367H170.587ZM179.919 504.263C178.671 504.263 177.543 503.983 176.535 503.423C175.527 502.847 174.735 502.047 174.159 501.023C173.583 499.983 173.295 498.783 173.295 497.423C173.295 496.079 173.591 494.887 174.183 493.847C174.775 492.807 175.583 492.007 176.607 491.447C177.631 490.887 178.775 490.607 180.039 490.607C181.303 490.607 182.447 490.887 183.471 491.447C184.495 492.007 185.303 492.807 185.895 493.847C186.487 494.887 186.783 496.079 186.783 497.423C186.783 498.767 186.479 499.959 185.871 500.999C185.263 502.039 184.431 502.847 183.375 503.423C182.335 503.983 181.183 504.263 179.919 504.263ZM179.919 501.887C180.623 501.887 181.279 501.719 181.887 501.383C182.511 501.047 183.015 500.543 183.399 499.871C183.783 499.199 183.975 498.383 183.975 497.423C183.975 496.463 183.791 495.655 183.423 494.999C183.055 494.327 182.567 493.823 181.959 493.487C181.351 493.151 180.695 492.983 179.991 492.983C179.287 492.983 178.631 493.151 178.023 493.487C177.431 493.823 176.959 494.327 176.607 494.999C176.255 495.655 176.079 496.463 176.079 497.423C176.079 498.847 176.439 499.951 177.159 500.735C177.895 501.503 178.815 501.887 179.919 501.887ZM194.6 501.599L198.344 490.823H201.247L196.208 504.047H192.944L187.928 490.823H190.855L194.6 501.599ZM213.372 500.639H206.388L205.188 504.047H202.332L208.308 487.343H211.476L217.452 504.047H214.572L213.372 500.639ZM212.604 498.407L209.892 490.655L207.156 498.407H212.604ZM222.786 492.767C223.25 492.159 223.882 491.647 224.682 491.231C225.482 490.815 226.386 490.607 227.394 490.607C228.546 490.607 229.594 490.895 230.538 491.471C231.498 492.031 232.25 492.823 232.794 493.847C233.338 494.871 233.61 496.047 233.61 497.375C233.61 498.703 233.338 499.895 232.794 500.951C232.25 501.991 231.498 502.807 230.538 503.399C229.594 503.975 228.546 504.263 227.394 504.263C226.386 504.263 225.49 504.063 224.706 503.663C223.922 503.247 223.282 502.735 222.786 502.127V510.335H220.05V490.823H222.786V492.767ZM230.826 497.375C230.826 496.463 230.634 495.679 230.25 495.023C229.882 494.351 229.386 493.847 228.762 493.511C228.154 493.159 227.498 492.983 226.794 492.983C226.106 492.983 225.45 493.159 224.826 493.511C224.218 493.863 223.722 494.375 223.338 495.047C222.97 495.719 222.786 496.511 222.786 497.423C222.786 498.335 222.97 499.135 223.338 499.823C223.722 500.495 224.218 501.007 224.826 501.359C225.45 501.711 226.106 501.887 226.794 501.887C227.498 501.887 228.154 501.711 228.762 501.359C229.386 500.991 229.882 500.463 230.25 499.775C230.634 499.087 230.826 498.287 230.826 497.375ZM239.052 492.767C239.516 492.159 240.148 491.647 240.948 491.231C241.748 490.815 242.652 490.607 243.66 490.607C244.812 490.607 245.86 490.895 246.804 491.471C247.764 492.031 248.516 492.823 249.06 493.847C249.604 494.871 249.876 496.047 249.876 497.375C249.876 498.703 249.604 499.895 249.06 500.951C248.516 501.991 247.764 502.807 246.804 503.399C245.86 503.975 244.812 504.263 243.66 504.263C242.652 504.263 241.756 504.063 240.972 503.663C240.188 503.247 239.548 502.735 239.052 502.127V510.335H236.316V490.823H239.052V492.767ZM247.092 497.375C247.092 496.463 246.9 495.679 246.516 495.023C246.148 494.351 245.652 493.847 245.028 493.511C244.42 493.159 243.764 492.983 243.06 492.983C242.372 492.983 241.716 493.159 241.092 493.511C240.484 493.863 239.988 494.375 239.604 495.047C239.236 495.719 239.052 496.511 239.052 497.423C239.052 498.335 239.236 499.135 239.604 499.823C239.988 500.495 240.484 501.007 241.092 501.359C241.716 501.711 242.372 501.887 243.06 501.887C243.764 501.887 244.42 501.711 245.028 501.359C245.652 500.991 246.148 500.463 246.516 499.775C246.9 499.087 247.092 498.287 247.092 497.375Z" fill="white"/>
</g>
<defs>
<filter id="filter0_f_1_2" x="-195.7" y="381.3" width="661.4" height="505.4" filterUnits="userSpaceOnUse" color-interpolation-filters="sRGB">
<feFlood flood-opacity="0" result="BackgroundImageFix"/>
<feBlend mode="normal" in="SourceGraphic" in2="BackgroundImageFix" result="shape"/>
<feGaussianBlur stdDeviation="65.85" result="effect1_foregroundBlur_1_2"/>
</filter>
<filter id="filter1_f_1_2" x="-230.617" y="502.3" width="649.341" height="554.747" filterUnits="userSpaceOnUse" color-interpolation-filters="sRGB">
<feFlood flood-opacity="0" result="BackgroundImageFix"/>
<feBlend mode="normal" in="SourceGraphic" in2="BackgroundImageFix" result="shape"/>
<feGaussianBlur stdDeviation="65.85" result="effect1_foregroundBlur_1_2"/>
</filter>
<filter id="filter2_f_1_2" x="-312.4" y="-330.4" width="1052.92" height="766" filterUnits="userSpaceOnUse" color-interpolation-filters="sRGB">
<feFlood flood-opacity="0" result="BackgroundImageFix"/>
<feBlend mode="normal" in="SourceGraphic" in2="BackgroundImageFix" result="shape"/>
<feGaussianBlur stdDeviation="126.2" result="effect1_foregroundBlur_1_2"/>
</filter>
<filter id="filter3_f_1_2" x="-118" y="369" width="904.456" height="884.18" filterUnits="userSpaceOnUse" color-interpolation-filters="sRGB">
<feFlood flood-opacity="0" result="BackgroundImageFix"/>
<feBlend mode="normal" in="SourceGraphic" in2="BackgroundImageFix" result="shape"/>
<feGaussianBlur stdDeviation="150" result="effect1_foregroundBlur_1_2"/>
</filter>
<linearGradient id="paint0_linear_1_2" x1="300.815" y1="436.183" x2="-3.46094" y2="727.825" gradientUnits="userSpaceOnUse">
<stop stop-color="#EE7750" stop-opacity="0"/>
<stop offset="1" stop-color="#EE7750" stop-opacity="0.2"/>
</linearGradient>
<linearGradient id="paint1_linear_1_2" x1="240.613" y1="563.216" x2="-15.069" y2="898.277" gradientUnits="userSpaceOnUse">
<stop offset="0.0559998" stop-color="#EE7750" stop-opacity="0"/>
<stop offset="0.801" stop-color="#EE7750" stop-opacity="0.6"/>
</linearGradient>
<linearGradient id="paint2_linear_1_2" x1="214.059" y1="-78" x2="257.619" y2="126.7" gradientUnits="userSpaceOnUse">
<stop stop-color="#EE7750" stop-opacity="0.8"/>
<stop offset="1" stop-color="#EE7750" stop-opacity="0"/>
</linearGradient>
<linearGradient id="paint3_linear_1_2" x1="334.228" y1="669" x2="334.228" y2="953.18" gradientUnits="userSpaceOnUse">
<stop stop-color="#ED6238" stop-opacity="0"/>
<stop offset="1" stop-color="#ED6238"/>
</linearGradient>
<clipPath id="clip0_1_2">
<rect width="402" height="874" rx="16" fill="white"/>
</clipPath>
</defs>
</svg>
