<svg width="402" height="874" viewBox="0 0 402 874" fill="none" xmlns="http://www.w3.org/2000/svg">
<rect width="402" height="874" rx="16" fill="white"/>
<path d="M21.016 271.898H26.536V274.562H17.656V257.81H21.016V271.898ZM34.5756 274.779C33.2956 274.779 32.1436 274.499 31.1196 273.938C30.0956 273.362 29.2876 272.554 28.6956 271.514C28.1196 270.474 27.8316 269.274 27.8316 267.914C27.8316 266.554 28.1276 265.354 28.7196 264.314C29.3276 263.274 30.1516 262.474 31.1916 261.914C32.2316 261.338 33.3916 261.05 34.6716 261.05C35.9516 261.05 37.1116 261.338 38.1516 261.914C39.1916 262.474 40.0076 263.274 40.5996 264.314C41.2076 265.354 41.5116 266.554 41.5116 267.914C41.5116 269.274 41.1996 270.474 40.5756 271.514C39.9676 272.554 39.1356 273.362 38.0796 273.938C37.0396 274.499 35.8716 274.779 34.5756 274.779ZM34.5756 271.85C35.1836 271.85 35.7516 271.706 36.2796 271.418C36.8236 271.114 37.2556 270.666 37.5756 270.074C37.8956 269.482 38.0556 268.762 38.0556 267.914C38.0556 266.65 37.7196 265.682 37.0476 265.01C36.3916 264.322 35.5836 263.978 34.6236 263.978C33.6636 263.978 32.8556 264.322 32.1996 265.01C31.5596 265.682 31.2396 266.65 31.2396 267.914C31.2396 269.178 31.5516 270.154 32.1756 270.842C32.8156 271.514 33.6156 271.85 34.5756 271.85ZM49.1843 261.05C50.1763 261.05 51.0483 261.25 51.8003 261.65C52.5523 262.034 53.1443 262.538 53.5763 263.162V261.266H56.9603V274.659C56.9603 275.891 56.7123 276.987 56.2163 277.947C55.7203 278.923 54.9763 279.691 53.9843 280.251C52.9923 280.827 51.7923 281.115 50.3843 281.115C48.4963 281.115 46.9443 280.675 45.7283 279.795C44.5283 278.915 43.8483 277.715 43.6883 276.195H47.0243C47.2003 276.803 47.5763 277.283 48.1523 277.635C48.7443 278.003 49.4563 278.187 50.2883 278.187C51.2643 278.187 52.0563 277.891 52.6643 277.299C53.2723 276.723 53.5763 275.843 53.5763 274.659V272.594C53.1443 273.218 52.5443 273.738 51.7763 274.154C51.0243 274.571 50.1603 274.779 49.1843 274.779C48.0643 274.779 47.0403 274.491 46.1123 273.914C45.1843 273.338 44.4483 272.53 43.9043 271.49C43.3763 270.434 43.1123 269.226 43.1123 267.866C43.1123 266.522 43.3763 265.33 43.9043 264.29C44.4483 263.25 45.1763 262.45 46.0883 261.891C47.0163 261.33 48.0483 261.05 49.1843 261.05ZM53.5763 267.914C53.5763 267.098 53.4163 266.402 53.0963 265.826C52.7763 265.234 52.3443 264.786 51.8003 264.482C51.2563 264.162 50.6723 264.002 50.0483 264.002C49.4243 264.002 48.8483 264.154 48.3203 264.458C47.7923 264.762 47.3603 265.21 47.0243 265.802C46.7043 266.378 46.5443 267.066 46.5443 267.866C46.5443 268.666 46.7043 269.37 47.0243 269.978C47.3603 270.57 47.7923 271.026 48.3203 271.346C48.8643 271.666 49.4403 271.826 50.0483 271.826C50.6723 271.826 51.2563 271.674 51.8003 271.37C52.3443 271.05 52.7763 270.602 53.0963 270.026C53.4163 269.434 53.5763 268.73 53.5763 267.914ZM67.6647 259.682C67.0727 259.682 66.5767 259.498 66.1767 259.13C65.7927 258.746 65.6007 258.274 65.6007 257.714C65.6007 257.154 65.7927 256.69 66.1767 256.322C66.5767 255.938 67.0727 255.746 67.6647 255.746C68.2567 255.746 68.7447 255.938 69.1287 256.322C69.5287 256.69 69.7287 257.154 69.7287 257.714C69.7287 258.274 69.5287 258.746 69.1287 259.13C68.7447 259.498 68.2567 259.682 67.6647 259.682ZM69.3207 261.266V274.562H65.9607V261.266H69.3207ZM80.0084 261.074C81.5924 261.074 82.8724 261.578 83.8484 262.586C84.8244 263.578 85.3124 264.97 85.3124 266.762V274.562H81.9524V267.218C81.9524 266.162 81.6884 265.354 81.1604 264.794C80.6324 264.218 79.9124 263.93 79.0004 263.93C78.0724 263.93 77.3364 264.218 76.7924 264.794C76.2644 265.354 76.0004 266.162 76.0004 267.218V274.562H72.6404V261.266H76.0004V262.922C76.4484 262.346 77.0164 261.898 77.7044 261.578C78.4084 261.242 79.1764 261.074 80.0084 261.074Z" fill="#696B6E"/>
<path d="M25.408 289.258V297.562H24.316V291.37L21.556 297.562H20.788L18.016 291.358V297.562H16.924V289.258H18.1L21.172 296.122L24.244 289.258H25.408ZM26.8519 294.25C26.8519 293.578 26.9879 292.99 27.2599 292.486C27.5319 291.974 27.9039 291.578 28.3759 291.298C28.8559 291.018 29.3879 290.878 29.9719 290.878C30.5479 290.878 31.0479 291.002 31.4719 291.25C31.8959 291.498 32.2119 291.81 32.4199 292.186V290.986H33.5239V297.562H32.4199V296.338C32.2039 296.722 31.8799 297.042 31.4479 297.298C31.0239 297.546 30.5279 297.671 29.9599 297.671C29.3759 297.671 28.8479 297.527 28.3759 297.238C27.9039 296.95 27.5319 296.546 27.2599 296.026C26.9879 295.506 26.8519 294.914 26.8519 294.25ZM32.4199 294.262C32.4199 293.766 32.3199 293.334 32.1199 292.966C31.9199 292.598 31.6479 292.318 31.3039 292.126C30.9679 291.926 30.5959 291.826 30.1879 291.826C29.7799 291.826 29.4079 291.922 29.0719 292.114C28.7359 292.306 28.4679 292.586 28.2679 292.954C28.0679 293.322 27.9679 293.754 27.9679 294.25C27.9679 294.754 28.0679 295.194 28.2679 295.57C28.4679 295.938 28.7359 296.222 29.0719 296.422C29.4079 296.614 29.7799 296.71 30.1879 296.71C30.5959 296.71 30.9679 296.614 31.3039 296.422C31.6479 296.222 31.9199 295.938 32.1199 295.57C32.3199 295.194 32.4199 294.758 32.4199 294.262ZM37.6973 297.671C37.1933 297.671 36.7413 297.587 36.3413 297.418C35.9413 297.242 35.6253 297.002 35.3933 296.698C35.1613 296.386 35.0333 296.03 35.0093 295.63H36.1373C36.1693 295.958 36.3213 296.226 36.5933 296.434C36.8733 296.642 37.2373 296.746 37.6853 296.746C38.1013 296.746 38.4293 296.654 38.6693 296.47C38.9093 296.286 39.0293 296.054 39.0293 295.774C39.0293 295.486 38.9013 295.274 38.6453 295.138C38.3893 294.994 37.9933 294.854 37.4573 294.718C36.9693 294.59 36.5693 294.462 36.2573 294.334C35.9533 294.198 35.6893 294.002 35.4653 293.746C35.2493 293.482 35.1413 293.138 35.1413 292.714C35.1413 292.378 35.2413 292.07 35.4413 291.79C35.6413 291.51 35.9253 291.29 36.2933 291.13C36.6613 290.962 37.0813 290.878 37.5533 290.878C38.2813 290.878 38.8693 291.062 39.3173 291.43C39.7653 291.798 40.0053 292.302 40.0373 292.942H38.9453C38.9213 292.598 38.7813 292.322 38.5253 292.114C38.2773 291.906 37.9413 291.802 37.5173 291.802C37.1253 291.802 36.8133 291.886 36.5813 292.054C36.3493 292.222 36.2333 292.442 36.2333 292.714C36.2333 292.93 36.3013 293.11 36.4373 293.254C36.5813 293.39 36.7573 293.502 36.9653 293.59C37.1813 293.67 37.4773 293.762 37.8533 293.866C38.3253 293.994 38.7093 294.122 39.0053 294.25C39.3013 294.37 39.5533 294.554 39.7613 294.802C39.9773 295.05 40.0893 295.374 40.0973 295.774C40.0973 296.134 39.9973 296.458 39.7973 296.746C39.5973 297.034 39.3133 297.262 38.9453 297.43C38.5853 297.591 38.1693 297.671 37.6973 297.671ZM47.4708 290.986V297.562H46.3788V296.59C46.1708 296.926 45.8788 297.19 45.5028 297.382C45.1348 297.567 44.7268 297.659 44.2788 297.659C43.7668 297.659 43.3068 297.554 42.8988 297.346C42.4908 297.13 42.1668 296.81 41.9268 296.386C41.6948 295.962 41.5788 295.446 41.5788 294.838V290.986H42.6588V294.694C42.6588 295.342 42.8228 295.842 43.1508 296.194C43.4788 296.538 43.9268 296.71 44.4948 296.71C45.0788 296.71 45.5388 296.53 45.8748 296.17C46.2108 295.81 46.3788 295.286 46.3788 294.598V290.986H47.4708ZM52.9866 297.562L50.4066 294.658V297.562H49.3146V288.682H50.4066V293.902L52.9386 290.986H54.4626L51.3666 294.262L54.4746 297.562H52.9866ZM59.1624 297.562L56.5824 294.658V297.562H55.4904V288.682H56.5824V293.902L59.1144 290.986H60.6384L57.5424 294.262L60.6504 297.562H59.1624ZM61.2582 294.25C61.2582 293.578 61.3942 292.99 61.6662 292.486C61.9382 291.974 62.3102 291.578 62.7822 291.298C63.2622 291.018 63.7942 290.878 64.3782 290.878C64.9542 290.878 65.4542 291.002 65.8782 291.25C66.3022 291.498 66.6182 291.81 66.8262 292.186V290.986H67.9302V297.562H66.8262V296.338C66.6102 296.722 66.2862 297.042 65.8542 297.298C65.4302 297.546 64.9342 297.671 64.3662 297.671C63.7822 297.671 63.2542 297.527 62.7822 297.238C62.3102 296.95 61.9382 296.546 61.6662 296.026C61.3942 295.506 61.2582 294.914 61.2582 294.25ZM66.8262 294.262C66.8262 293.766 66.7262 293.334 66.5262 292.966C66.3262 292.598 66.0542 292.318 65.7102 292.126C65.3742 291.926 65.0022 291.826 64.5942 291.826C64.1862 291.826 63.8142 291.922 63.4782 292.114C63.1422 292.306 62.8742 292.586 62.6742 292.954C62.4742 293.322 62.3742 293.754 62.3742 294.25C62.3742 294.754 62.4742 295.194 62.6742 295.57C62.8742 295.938 63.1422 296.222 63.4782 296.422C63.8142 296.614 64.1862 296.71 64.5942 296.71C65.0022 296.71 65.3742 296.614 65.7102 296.422C66.0542 296.222 66.3262 295.938 66.5262 295.57C66.7262 295.194 66.8262 294.758 66.8262 294.262ZM72.9796 290.866C73.7796 290.866 74.4276 291.11 74.9236 291.598C75.4196 292.078 75.6676 292.774 75.6676 293.686V297.562H74.5876V293.842C74.5876 293.186 74.4236 292.686 74.0956 292.342C73.7676 291.99 73.3196 291.814 72.7516 291.814C72.1756 291.814 71.7156 291.994 71.3716 292.354C71.0356 292.714 70.8676 293.238 70.8676 293.926V297.562H69.7756V290.986H70.8676V291.922C71.0836 291.586 71.3756 291.326 71.7436 291.142C72.1196 290.958 72.5316 290.866 72.9796 290.866ZM86.6506 294.022C86.6506 294.23 86.6386 294.45 86.6146 294.682H81.3586C81.3986 295.33 81.6186 295.838 82.0186 296.206C82.4266 296.566 82.9186 296.746 83.4946 296.746C83.9666 296.746 84.3586 296.638 84.6706 296.422C84.9906 296.198 85.2146 295.902 85.3426 295.534H86.5186C86.3426 296.166 85.9906 296.682 85.4626 297.082C84.9346 297.474 84.2786 297.671 83.4946 297.671C82.8706 297.671 82.3106 297.531 81.8146 297.25C81.3266 296.97 80.9426 296.574 80.6626 296.062C80.3826 295.542 80.2426 294.942 80.2426 294.262C80.2426 293.582 80.3786 292.986 80.6506 292.474C80.9226 291.962 81.3026 291.57 81.7906 291.298C82.2866 291.018 82.8546 290.878 83.4946 290.878C84.1186 290.878 84.6706 291.014 85.1506 291.286C85.6306 291.558 85.9986 291.934 86.2546 292.414C86.5186 292.886 86.6506 293.422 86.6506 294.022ZM85.5226 293.794C85.5226 293.378 85.4306 293.022 85.2466 292.726C85.0626 292.422 84.8106 292.194 84.4906 292.042C84.1786 291.882 83.8306 291.802 83.4466 291.802C82.8946 291.802 82.4226 291.978 82.0306 292.33C81.6466 292.682 81.4266 293.17 81.3706 293.794H85.5226ZM96 290.866C96.512 290.866 96.968 290.974 97.368 291.19C97.768 291.398 98.084 291.714 98.316 292.138C98.548 292.562 98.664 293.078 98.664 293.686V297.562H97.584V293.842C97.584 293.186 97.42 292.686 97.092 292.342C96.772 291.99 96.336 291.814 95.784 291.814C95.216 291.814 94.764 291.998 94.428 292.366C94.092 292.726 93.924 293.25 93.924 293.938V297.562H92.844V293.842C92.844 293.186 92.68 292.686 92.352 292.342C92.032 291.99 91.596 291.814 91.044 291.814C90.476 291.814 90.024 291.998 89.688 292.366C89.352 292.726 89.184 293.25 89.184 293.938V297.562H88.092V290.986H89.184V291.934C89.4 291.59 89.688 291.326 90.048 291.142C90.416 290.958 90.82 290.866 91.26 290.866C91.812 290.866 92.3 290.99 92.724 291.238C93.148 291.486 93.464 291.85 93.672 292.33C93.856 291.866 94.16 291.506 94.584 291.25C95.008 290.994 95.48 290.866 96 290.866ZM100.047 294.25C100.047 293.578 100.183 292.99 100.455 292.486C100.727 291.974 101.099 291.578 101.571 291.298C102.051 291.018 102.583 290.878 103.167 290.878C103.743 290.878 104.243 291.002 104.667 291.25C105.091 291.498 105.407 291.81 105.615 292.186V290.986H106.719V297.562H105.615V296.338C105.399 296.722 105.075 297.042 104.643 297.298C104.219 297.546 103.723 297.671 103.155 297.671C102.571 297.671 102.043 297.527 101.571 297.238C101.099 296.95 100.727 296.546 100.455 296.026C100.183 295.506 100.047 294.914 100.047 294.25ZM105.615 294.262C105.615 293.766 105.515 293.334 105.315 292.966C105.115 292.598 104.843 292.318 104.499 292.126C104.163 291.926 103.791 291.826 103.383 291.826C102.975 291.826 102.603 291.922 102.267 292.114C101.931 292.306 101.663 292.586 101.463 292.954C101.263 293.322 101.163 293.754 101.163 294.25C101.163 294.754 101.263 295.194 101.463 295.57C101.663 295.938 101.931 296.222 102.267 296.422C102.603 296.614 102.975 296.71 103.383 296.71C103.791 296.71 104.163 296.614 104.499 296.422C104.843 296.222 105.115 295.938 105.315 295.57C105.515 295.194 105.615 294.758 105.615 294.262ZM109.129 289.918C108.921 289.918 108.745 289.846 108.601 289.702C108.457 289.558 108.385 289.382 108.385 289.174C108.385 288.966 108.457 288.79 108.601 288.646C108.745 288.502 108.921 288.43 109.129 288.43C109.329 288.43 109.497 288.502 109.633 288.646C109.777 288.79 109.849 288.966 109.849 289.174C109.849 289.382 109.777 289.558 109.633 289.702C109.497 289.846 109.329 289.918 109.129 289.918ZM109.657 290.986V297.562H108.565V290.986H109.657ZM112.61 288.682V297.562H111.518V288.682H112.61ZM117.262 294.25C117.262 293.578 117.398 292.99 117.67 292.486C117.942 291.974 118.314 291.578 118.786 291.298C119.266 291.018 119.802 290.878 120.394 290.878C120.906 290.878 121.382 290.998 121.822 291.238C122.262 291.47 122.598 291.778 122.83 292.162V288.682H123.934V297.562H122.83V296.326C122.614 296.718 122.294 297.042 121.87 297.298C121.446 297.546 120.95 297.671 120.382 297.671C119.798 297.671 119.266 297.527 118.786 297.238C118.314 296.95 117.942 296.546 117.67 296.026C117.398 295.506 117.262 294.914 117.262 294.25ZM122.83 294.262C122.83 293.766 122.73 293.334 122.53 292.966C122.33 292.598 122.058 292.318 121.714 292.126C121.378 291.926 121.006 291.826 120.598 291.826C120.19 291.826 119.818 291.922 119.482 292.114C119.146 292.306 118.878 292.586 118.678 292.954C118.478 293.322 118.378 293.754 118.378 294.25C118.378 294.754 118.478 295.194 118.678 295.57C118.878 295.938 119.146 296.222 119.482 296.422C119.818 296.614 120.19 296.71 120.598 296.71C121.006 296.71 121.378 296.614 121.714 296.422C122.058 296.222 122.33 295.938 122.53 295.57C122.73 295.194 122.83 294.758 122.83 294.262ZM125.371 294.25C125.371 293.578 125.507 292.99 125.779 292.486C126.051 291.974 126.423 291.578 126.895 291.298C127.375 291.018 127.907 290.878 128.491 290.878C129.067 290.878 129.567 291.002 129.991 291.25C130.415 291.498 130.731 291.81 130.939 292.186V290.986H132.043V297.562H130.939V296.338C130.723 296.722 130.399 297.042 129.967 297.298C129.543 297.546 129.047 297.671 128.479 297.671C127.895 297.671 127.367 297.527 126.895 297.238C126.423 296.95 126.051 296.546 125.779 296.026C125.507 295.506 125.371 294.914 125.371 294.25ZM130.939 294.262C130.939 293.766 130.839 293.334 130.639 292.966C130.439 292.598 130.167 292.318 129.823 292.126C129.487 291.926 129.115 291.826 128.707 291.826C128.299 291.826 127.927 291.922 127.591 292.114C127.255 292.306 126.987 292.586 126.787 292.954C126.587 293.322 126.487 293.754 126.487 294.25C126.487 294.754 126.587 295.194 126.787 295.57C126.987 295.938 127.255 296.222 127.591 296.422C127.927 296.614 128.299 296.71 128.707 296.71C129.115 296.71 129.487 296.614 129.823 296.422C130.167 296.222 130.439 295.938 130.639 295.57C130.839 295.194 130.939 294.758 130.939 294.262ZM137.093 290.866C137.893 290.866 138.541 291.11 139.037 291.598C139.533 292.078 139.781 292.774 139.781 293.686V297.562H138.701V293.842C138.701 293.186 138.537 292.686 138.209 292.342C137.881 291.99 137.433 291.814 136.865 291.814C136.289 291.814 135.829 291.994 135.485 292.354C135.149 292.714 134.981 293.238 134.981 293.926V297.562H133.889V290.986H134.981V291.922C135.197 291.586 135.489 291.326 135.857 291.142C136.233 290.958 136.645 290.866 137.093 290.866ZM148.436 297.562L145.856 294.658V297.562H144.764V288.682H145.856V293.902L148.388 290.986H149.912L146.816 294.262L149.924 297.562H148.436ZM150.532 294.25C150.532 293.578 150.668 292.99 150.94 292.486C151.212 291.974 151.584 291.578 152.056 291.298C152.536 291.018 153.068 290.878 153.652 290.878C154.228 290.878 154.728 291.002 155.152 291.25C155.576 291.498 155.892 291.81 156.1 292.186V290.986H157.204V297.562H156.1V296.338C155.884 296.722 155.56 297.042 155.128 297.298C154.704 297.546 154.208 297.671 153.64 297.671C153.056 297.671 152.528 297.527 152.056 297.238C151.584 296.95 151.212 296.546 150.94 296.026C150.668 295.506 150.532 294.914 150.532 294.25ZM156.1 294.262C156.1 293.766 156 293.334 155.8 292.966C155.6 292.598 155.328 292.318 154.984 292.126C154.648 291.926 154.276 291.826 153.868 291.826C153.46 291.826 153.088 291.922 152.752 292.114C152.416 292.306 152.148 292.586 151.948 292.954C151.748 293.322 151.648 293.754 151.648 294.25C151.648 294.754 151.748 295.194 151.948 295.57C152.148 295.938 152.416 296.222 152.752 296.422C153.088 296.614 153.46 296.71 153.868 296.71C154.276 296.71 154.648 296.614 154.984 296.422C155.328 296.222 155.6 295.938 155.8 295.57C156 295.194 156.1 294.758 156.1 294.262ZM160.381 291.886V295.762C160.381 296.082 160.449 296.31 160.585 296.446C160.721 296.574 160.957 296.638 161.293 296.638H162.097V297.562H161.113C160.505 297.562 160.049 297.422 159.745 297.142C159.441 296.862 159.289 296.402 159.289 295.762V291.886H158.437V290.986H159.289V289.33H160.381V290.986H162.097V291.886H160.381ZM163.012 294.25C163.012 293.578 163.148 292.99 163.42 292.486C163.692 291.974 164.064 291.578 164.536 291.298C165.016 291.018 165.548 290.878 166.132 290.878C166.708 290.878 167.208 291.002 167.632 291.25C168.056 291.498 168.372 291.81 168.58 292.186V290.986H169.684V297.562H168.58V296.338C168.364 296.722 168.04 297.042 167.608 297.298C167.184 297.546 166.688 297.671 166.12 297.671C165.536 297.671 165.008 297.527 164.536 297.238C164.064 296.95 163.692 296.546 163.42 296.026C163.148 295.506 163.012 294.914 163.012 294.25ZM168.58 294.262C168.58 293.766 168.48 293.334 168.28 292.966C168.08 292.598 167.808 292.318 167.464 292.126C167.128 291.926 166.756 291.826 166.348 291.826C165.94 291.826 165.568 291.922 165.232 292.114C164.896 292.306 164.628 292.586 164.428 292.954C164.228 293.322 164.128 293.754 164.128 294.25C164.128 294.754 164.228 295.194 164.428 295.57C164.628 295.938 164.896 296.222 165.232 296.422C165.568 296.614 165.94 296.71 166.348 296.71C166.756 296.71 167.128 296.614 167.464 296.422C167.808 296.222 168.08 295.938 168.28 295.57C168.48 295.194 168.58 294.758 168.58 294.262ZM177.057 297.671C176.553 297.671 176.101 297.587 175.701 297.418C175.301 297.242 174.985 297.002 174.753 296.698C174.521 296.386 174.393 296.03 174.369 295.63H175.497C175.529 295.958 175.681 296.226 175.953 296.434C176.233 296.642 176.597 296.746 177.045 296.746C177.461 296.746 177.789 296.654 178.029 296.47C178.269 296.286 178.389 296.054 178.389 295.774C178.389 295.486 178.261 295.274 178.005 295.138C177.749 294.994 177.353 294.854 176.817 294.718C176.329 294.59 175.929 294.462 175.617 294.334C175.313 294.198 175.049 294.002 174.825 293.746C174.609 293.482 174.501 293.138 174.501 292.714C174.501 292.378 174.601 292.07 174.801 291.79C175.001 291.51 175.285 291.29 175.653 291.13C176.021 290.962 176.441 290.878 176.913 290.878C177.641 290.878 178.229 291.062 178.677 291.43C179.125 291.798 179.365 292.302 179.397 292.942H178.305C178.281 292.598 178.141 292.322 177.885 292.114C177.637 291.906 177.301 291.802 176.877 291.802C176.485 291.802 176.173 291.886 175.941 292.054C175.709 292.222 175.593 292.442 175.593 292.714C175.593 292.93 175.661 293.11 175.797 293.254C175.941 293.39 176.117 293.502 176.325 293.59C176.541 293.67 176.837 293.762 177.213 293.866C177.685 293.994 178.069 294.122 178.365 294.25C178.661 294.37 178.913 294.554 179.121 294.802C179.337 295.05 179.449 295.374 179.457 295.774C179.457 296.134 179.357 296.458 179.157 296.746C178.957 297.034 178.673 297.262 178.305 297.43C177.945 297.591 177.529 297.671 177.057 297.671ZM180.59 294.25C180.59 293.578 180.726 292.99 180.998 292.486C181.27 291.974 181.642 291.578 182.114 291.298C182.594 291.018 183.126 290.878 183.71 290.878C184.286 290.878 184.786 291.002 185.21 291.25C185.634 291.498 185.95 291.81 186.158 292.186V290.986H187.262V297.562H186.158V296.338C185.942 296.722 185.618 297.042 185.186 297.298C184.762 297.546 184.266 297.671 183.698 297.671C183.114 297.671 182.586 297.527 182.114 297.238C181.642 296.95 181.27 296.546 180.998 296.026C180.726 295.506 180.59 294.914 180.59 294.25ZM186.158 294.262C186.158 293.766 186.058 293.334 185.858 292.966C185.658 292.598 185.386 292.318 185.042 292.126C184.706 291.926 184.334 291.826 183.926 291.826C183.518 291.826 183.146 291.922 182.81 292.114C182.474 292.306 182.206 292.586 182.006 292.954C181.806 293.322 181.706 293.754 181.706 294.25C181.706 294.754 181.806 295.194 182.006 295.57C182.206 295.938 182.474 296.222 182.81 296.422C183.146 296.614 183.518 296.71 183.926 296.71C184.334 296.71 184.706 296.614 185.042 296.422C185.386 296.222 185.658 295.938 185.858 295.57C186.058 295.194 186.158 294.758 186.158 294.262ZM192.312 290.866C193.112 290.866 193.76 291.11 194.256 291.598C194.752 292.078 195 292.774 195 293.686V297.562H193.92V293.842C193.92 293.186 193.756 292.686 193.428 292.342C193.1 291.99 192.652 291.814 192.084 291.814C191.508 291.814 191.048 291.994 190.704 292.354C190.368 292.714 190.2 293.238 190.2 293.926V297.562H189.108V290.986H190.2V291.922C190.416 291.586 190.708 291.326 191.076 291.142C191.452 290.958 191.864 290.866 192.312 290.866ZM196.375 294.25C196.375 293.578 196.511 292.99 196.783 292.486C197.055 291.974 197.427 291.578 197.899 291.298C198.379 291.018 198.915 290.878 199.507 290.878C200.019 290.878 200.495 290.998 200.935 291.238C201.375 291.47 201.711 291.778 201.943 292.162V288.682H203.047V297.562H201.943V296.326C201.727 296.718 201.407 297.042 200.983 297.298C200.559 297.546 200.063 297.671 199.495 297.671C198.911 297.671 198.379 297.527 197.899 297.238C197.427 296.95 197.055 296.546 196.783 296.026C196.511 295.506 196.375 294.914 196.375 294.25ZM201.943 294.262C201.943 293.766 201.843 293.334 201.643 292.966C201.443 292.598 201.171 292.318 200.827 292.126C200.491 291.926 200.119 291.826 199.711 291.826C199.303 291.826 198.931 291.922 198.595 292.114C198.259 292.306 197.991 292.586 197.791 292.954C197.591 293.322 197.491 293.754 197.491 294.25C197.491 294.754 197.591 295.194 197.791 295.57C197.991 295.938 198.259 296.222 198.595 296.422C198.931 296.614 199.303 296.71 199.711 296.71C200.119 296.71 200.491 296.614 200.827 296.422C201.171 296.222 201.443 295.938 201.643 295.57C201.843 295.194 201.943 294.758 201.943 294.262ZM205.457 289.918C205.249 289.918 205.073 289.846 204.929 289.702C204.785 289.558 204.713 289.382 204.713 289.174C204.713 288.966 204.785 288.79 204.929 288.646C205.073 288.502 205.249 288.43 205.457 288.43C205.657 288.43 205.825 288.502 205.961 288.646C206.105 288.79 206.177 288.966 206.177 289.174C206.177 289.382 206.105 289.558 205.961 289.702C205.825 289.846 205.657 289.918 205.457 289.918ZM205.985 290.986V297.562H204.893V290.986H205.985ZM216.877 290.986V297.562H215.785V296.59C215.577 296.926 215.285 297.19 214.909 297.382C214.541 297.567 214.133 297.659 213.685 297.659C213.173 297.659 212.713 297.554 212.305 297.346C211.897 297.13 211.573 296.81 211.333 296.386C211.101 295.962 210.985 295.446 210.985 294.838V290.986H212.065V294.694C212.065 295.342 212.229 295.842 212.557 296.194C212.885 296.538 213.333 296.71 213.901 296.71C214.485 296.71 214.945 296.53 215.281 296.17C215.617 295.81 215.785 295.286 215.785 294.598V290.986H216.877ZM221.925 290.866C222.725 290.866 223.373 291.11 223.869 291.598C224.365 292.078 224.613 292.774 224.613 293.686V297.562H223.533V293.842C223.533 293.186 223.369 292.686 223.041 292.342C222.713 291.99 222.265 291.814 221.697 291.814C221.121 291.814 220.661 291.994 220.317 292.354C219.981 292.714 219.813 293.238 219.813 293.926V297.562H218.721V290.986H219.813V291.922C220.029 291.586 220.321 291.326 220.689 291.142C221.065 290.958 221.477 290.866 221.925 290.866ZM227.729 291.886V295.762C227.729 296.082 227.797 296.31 227.933 296.446C228.069 296.574 228.305 296.638 228.641 296.638H229.445V297.562H228.461C227.853 297.562 227.397 297.422 227.093 297.142C226.789 296.862 226.637 296.402 226.637 295.762V291.886H225.785V290.986H226.637V289.33H227.729V290.986H229.445V291.886H227.729ZM236.6 290.986V297.562H235.508V296.59C235.3 296.926 235.008 297.19 234.632 297.382C234.264 297.567 233.856 297.659 233.408 297.659C232.896 297.659 232.436 297.554 232.028 297.346C231.62 297.13 231.296 296.81 231.056 296.386C230.824 295.962 230.708 295.446 230.708 294.838V290.986H231.788V294.694C231.788 295.342 231.952 295.842 232.28 296.194C232.608 296.538 233.056 296.71 233.624 296.71C234.208 296.71 234.668 296.53 235.004 296.17C235.34 295.81 235.508 295.286 235.508 294.598V290.986H236.6ZM242.116 297.562L239.536 294.658V297.562H238.444V288.682H239.536V293.902L242.068 290.986H243.592L240.496 294.262L243.604 297.562H242.116ZM255.727 290.866C256.239 290.866 256.695 290.974 257.095 291.19C257.495 291.398 257.811 291.714 258.043 292.138C258.275 292.562 258.391 293.078 258.391 293.686V297.562H257.311V293.842C257.311 293.186 257.147 292.686 256.819 292.342C256.499 291.99 256.063 291.814 255.511 291.814C254.943 291.814 254.491 291.998 254.155 292.366C253.819 292.726 253.651 293.25 253.651 293.938V297.562H252.571V293.842C252.571 293.186 252.407 292.686 252.079 292.342C251.759 291.99 251.323 291.814 250.771 291.814C250.203 291.814 249.751 291.998 249.415 292.366C249.079 292.726 248.911 293.25 248.911 293.938V297.562H247.819V290.986H248.911V291.934C249.127 291.59 249.415 291.326 249.775 291.142C250.143 290.958 250.547 290.866 250.987 290.866C251.539 290.866 252.027 290.99 252.451 291.238C252.875 291.486 253.191 291.85 253.399 292.33C253.583 291.866 253.887 291.506 254.311 291.25C254.735 290.994 255.207 290.866 255.727 290.866ZM259.774 294.25C259.774 293.578 259.91 292.99 260.182 292.486C260.454 291.974 260.826 291.578 261.298 291.298C261.778 291.018 262.31 290.878 262.894 290.878C263.47 290.878 263.97 291.002 264.394 291.25C264.818 291.498 265.134 291.81 265.342 292.186V290.986H266.446V297.562H265.342V296.338C265.126 296.722 264.802 297.042 264.37 297.298C263.946 297.546 263.45 297.671 262.882 297.671C262.298 297.671 261.77 297.527 261.298 297.238C260.826 296.95 260.454 296.546 260.182 296.026C259.91 295.506 259.774 294.914 259.774 294.25ZM265.342 294.262C265.342 293.766 265.242 293.334 265.042 292.966C264.842 292.598 264.57 292.318 264.226 292.126C263.89 291.926 263.518 291.826 263.11 291.826C262.702 291.826 262.33 291.922 261.994 292.114C261.658 292.306 261.39 292.586 261.19 292.954C260.99 293.322 260.89 293.754 260.89 294.25C260.89 294.754 260.99 295.194 261.19 295.57C261.39 295.938 261.658 296.222 261.994 296.422C262.33 296.614 262.702 296.71 263.11 296.71C263.518 296.71 263.89 296.614 264.226 296.422C264.57 296.222 264.842 295.938 265.042 295.57C265.242 295.194 265.342 294.758 265.342 294.262ZM270.619 297.671C270.115 297.671 269.663 297.587 269.263 297.418C268.863 297.242 268.547 297.002 268.315 296.698C268.083 296.386 267.955 296.03 267.931 295.63H269.059C269.091 295.958 269.243 296.226 269.515 296.434C269.795 296.642 270.159 296.746 270.607 296.746C271.023 296.746 271.351 296.654 271.591 296.47C271.831 296.286 271.951 296.054 271.951 295.774C271.951 295.486 271.823 295.274 271.567 295.138C271.311 294.994 270.915 294.854 270.379 294.718C269.891 294.59 269.491 294.462 269.179 294.334C268.875 294.198 268.611 294.002 268.387 293.746C268.171 293.482 268.063 293.138 268.063 292.714C268.063 292.378 268.163 292.07 268.363 291.79C268.563 291.51 268.847 291.29 269.215 291.13C269.583 290.962 270.003 290.878 270.475 290.878C271.203 290.878 271.791 291.062 272.239 291.43C272.687 291.798 272.927 292.302 272.959 292.942H271.867C271.843 292.598 271.703 292.322 271.447 292.114C271.199 291.906 270.863 291.802 270.439 291.802C270.047 291.802 269.735 291.886 269.503 292.054C269.271 292.222 269.155 292.442 269.155 292.714C269.155 292.93 269.223 293.11 269.359 293.254C269.503 293.39 269.679 293.502 269.887 293.59C270.103 293.67 270.399 293.762 270.775 293.866C271.247 293.994 271.631 294.122 271.927 294.25C272.223 294.37 272.475 294.554 272.683 294.802C272.899 295.05 273.011 295.374 273.019 295.774C273.019 296.134 272.919 296.458 272.719 296.746C272.519 297.034 272.235 297.262 271.867 297.43C271.507 297.591 271.091 297.671 270.619 297.671ZM280.393 290.986V297.562H279.301V296.59C279.093 296.926 278.801 297.19 278.425 297.382C278.057 297.567 277.649 297.659 277.201 297.659C276.689 297.659 276.229 297.554 275.821 297.346C275.413 297.13 275.089 296.81 274.849 296.386C274.617 295.962 274.501 295.446 274.501 294.838V290.986H275.581V294.694C275.581 295.342 275.745 295.842 276.073 296.194C276.401 296.538 276.849 296.71 277.417 296.71C278.001 296.71 278.461 296.53 278.797 296.17C279.133 295.81 279.301 295.286 279.301 294.598V290.986H280.393ZM285.909 297.562L283.329 294.658V297.562H282.237V288.682H283.329V293.902L285.861 290.986H287.385L284.289 294.262L287.397 297.562H285.909Z" fill="#696B6E"/>
<rect x="16.5" y="327.062" width="370" height="65" rx="3.5" stroke="#AFB1B6"/>
<path d="M30.268 356.326V358.774H33.148V359.89H30.268V362.446H33.508V363.562H28.9V355.21H33.508V356.326H30.268ZM43.197 356.842C43.717 356.842 44.181 356.95 44.589 357.166C45.005 357.382 45.329 357.702 45.561 358.126C45.801 358.55 45.921 359.062 45.921 359.662V363.562H44.565V359.866C44.565 359.274 44.417 358.822 44.121 358.51C43.825 358.19 43.421 358.03 42.909 358.03C42.397 358.03 41.989 358.19 41.685 358.51C41.389 358.822 41.241 359.274 41.241 359.866V363.562H39.885V359.866C39.885 359.274 39.737 358.822 39.441 358.51C39.145 358.19 38.741 358.03 38.229 358.03C37.717 358.03 37.309 358.19 37.005 358.51C36.709 358.822 36.561 359.274 36.561 359.866V363.562H35.193V356.951H36.561V357.706C36.785 357.434 37.069 357.222 37.413 357.07C37.757 356.918 38.125 356.842 38.517 356.842C39.045 356.842 39.517 356.954 39.933 357.178C40.349 357.402 40.669 357.726 40.893 358.15C41.093 357.75 41.405 357.434 41.829 357.202C42.253 356.962 42.709 356.842 43.197 356.842ZM47.2057 360.226C47.2057 359.562 47.3417 358.974 47.6137 358.462C47.8937 357.95 48.2697 357.554 48.7417 357.274C49.2217 356.986 49.7497 356.842 50.3257 356.842C50.8457 356.842 51.2977 356.946 51.6817 357.154C52.0737 357.354 52.3857 357.606 52.6177 357.91V356.951H53.9977V363.562H52.6177V362.578C52.3857 362.89 52.0697 363.15 51.6697 363.358C51.2697 363.567 50.8137 363.671 50.3017 363.671C49.7337 363.671 49.2137 363.527 48.7417 363.238C48.2697 362.942 47.8937 362.534 47.6137 362.014C47.3417 361.486 47.2057 360.89 47.2057 360.226ZM52.6177 360.25C52.6177 359.794 52.5217 359.398 52.3297 359.062C52.1457 358.726 51.9017 358.47 51.5977 358.294C51.2937 358.118 50.9657 358.03 50.6137 358.03C50.2617 358.03 49.9337 358.118 49.6297 358.294C49.3257 358.462 49.0777 358.714 48.8857 359.05C48.7017 359.378 48.6097 359.77 48.6097 360.226C48.6097 360.682 48.7017 361.082 48.8857 361.426C49.0777 361.77 49.3257 362.034 49.6297 362.218C49.9417 362.394 50.2697 362.482 50.6137 362.482C50.9657 362.482 51.2937 362.394 51.5977 362.218C51.9017 362.042 52.1457 361.786 52.3297 361.45C52.5217 361.106 52.6177 360.706 52.6177 360.25ZM56.4905 356.074C56.2425 356.074 56.0345 355.99 55.8665 355.822C55.6985 355.654 55.6145 355.446 55.6145 355.198C55.6145 354.95 55.6985 354.742 55.8665 354.574C56.0345 354.406 56.2425 354.322 56.4905 354.322C56.7305 354.322 56.9345 354.406 57.1025 354.574C57.2705 354.742 57.3545 354.95 57.3545 355.198C57.3545 355.446 57.2705 355.654 57.1025 355.822C56.9345 355.99 56.7305 356.074 56.4905 356.074ZM57.1625 356.951V363.562H55.7945V356.951H57.1625ZM60.3266 354.682V363.562H58.9586V354.682H60.3266Z" fill="#636363"/>
<rect x="16.5" y="409.062" width="370" height="65" rx="3.5" stroke="#AFB1B6"/>
<path d="M34.732 439.706C34.732 440.13 34.632 440.53 34.432 440.906C34.232 441.282 33.912 441.59 33.472 441.83C33.032 442.062 32.468 442.178 31.78 442.178H30.268V445.562H28.9V437.222H31.78C32.42 437.222 32.96 437.334 33.4 437.558C33.848 437.774 34.18 438.07 34.396 438.446C34.62 438.822 34.732 439.242 34.732 439.706ZM31.78 441.062C32.3 441.062 32.688 440.946 32.944 440.714C33.2 440.474 33.328 440.138 33.328 439.706C33.328 438.794 32.812 438.338 31.78 438.338H30.268V441.062H31.78ZM35.5807 442.226C35.5807 441.562 35.7167 440.974 35.9887 440.462C36.2687 439.95 36.6447 439.554 37.1167 439.274C37.5967 438.986 38.1247 438.842 38.7007 438.842C39.2207 438.842 39.6727 438.946 40.0567 439.154C40.4487 439.354 40.7607 439.606 40.9927 439.91V438.951H42.3727V445.562H40.9927V444.578C40.7607 444.89 40.4447 445.15 40.0447 445.358C39.6447 445.567 39.1887 445.671 38.6767 445.671C38.1087 445.671 37.5887 445.527 37.1167 445.238C36.6447 444.942 36.2687 444.534 35.9887 444.014C35.7167 443.486 35.5807 442.89 35.5807 442.226ZM40.9927 442.25C40.9927 441.794 40.8967 441.398 40.7047 441.062C40.5207 440.726 40.2767 440.47 39.9727 440.294C39.6687 440.118 39.3407 440.03 38.9887 440.03C38.6367 440.03 38.3087 440.118 38.0047 440.294C37.7007 440.462 37.4527 440.714 37.2607 441.05C37.0767 441.378 36.9847 441.77 36.9847 442.226C36.9847 442.682 37.0767 443.082 37.2607 443.426C37.4527 443.77 37.7007 444.034 38.0047 444.218C38.3167 444.394 38.6447 444.482 38.9887 444.482C39.3407 444.482 39.6687 444.394 39.9727 444.218C40.2767 444.042 40.5207 443.786 40.7047 443.45C40.8967 443.106 40.9927 442.706 40.9927 442.25ZM46.5695 445.671C46.0495 445.671 45.5815 445.579 45.1655 445.394C44.7575 445.202 44.4335 444.946 44.1935 444.626C43.9535 444.298 43.8255 443.934 43.8095 443.534H45.2255C45.2495 443.814 45.3815 444.05 45.6215 444.242C45.8695 444.426 46.1775 444.518 46.5455 444.518C46.9295 444.518 47.2255 444.446 47.4335 444.302C47.6495 444.15 47.7575 443.958 47.7575 443.726C47.7575 443.478 47.6375 443.294 47.3975 443.174C47.1655 443.054 46.7935 442.922 46.2815 442.778C45.7855 442.642 45.3815 442.51 45.0695 442.382C44.7575 442.254 44.4855 442.058 44.2535 441.794C44.0295 441.53 43.9175 441.182 43.9175 440.75C43.9175 440.398 44.0215 440.078 44.2295 439.79C44.4375 439.494 44.7335 439.262 45.1175 439.094C45.5095 438.926 45.9575 438.842 46.4615 438.842C47.2135 438.842 47.8175 439.034 48.2735 439.418C48.7375 439.794 48.9855 440.31 49.0175 440.966H47.6495C47.6255 440.67 47.5055 440.434 47.2895 440.258C47.0735 440.082 46.7815 439.994 46.4135 439.994C46.0535 439.994 45.7775 440.062 45.5855 440.198C45.3935 440.334 45.2975 440.514 45.2975 440.738C45.2975 440.914 45.3615 441.062 45.4895 441.182C45.6175 441.302 45.7735 441.398 45.9575 441.47C46.1415 441.534 46.4135 441.618 46.7735 441.722C47.2535 441.85 47.6455 441.982 47.9495 442.118C48.2615 442.246 48.5295 442.438 48.7535 442.694C48.9775 442.95 49.0935 443.29 49.1015 443.714C49.1015 444.09 48.9975 444.426 48.7895 444.722C48.5815 445.019 48.2855 445.251 47.9015 445.418C47.5255 445.587 47.0815 445.671 46.5695 445.671ZM52.9797 445.671C52.4597 445.671 51.9917 445.579 51.5757 445.394C51.1677 445.202 50.8437 444.946 50.6037 444.626C50.3637 444.298 50.2357 443.934 50.2197 443.534H51.6357C51.6597 443.814 51.7917 444.05 52.0317 444.242C52.2797 444.426 52.5877 444.518 52.9557 444.518C53.3397 444.518 53.6357 444.446 53.8437 444.302C54.0597 444.15 54.1677 443.958 54.1677 443.726C54.1677 443.478 54.0477 443.294 53.8077 443.174C53.5757 443.054 53.2037 442.922 52.6917 442.778C52.1957 442.642 51.7917 442.51 51.4797 442.382C51.1677 442.254 50.8957 442.058 50.6637 441.794C50.4397 441.53 50.3277 441.182 50.3277 440.75C50.3277 440.398 50.4317 440.078 50.6397 439.79C50.8477 439.494 51.1437 439.262 51.5277 439.094C51.9197 438.926 52.3677 438.842 52.8717 438.842C53.6237 438.842 54.2277 439.034 54.6837 439.418C55.1477 439.794 55.3957 440.31 55.4277 440.966H54.0597C54.0357 440.67 53.9157 440.434 53.6997 440.258C53.4837 440.082 53.1917 439.994 52.8237 439.994C52.4637 439.994 52.1877 440.062 51.9957 440.198C51.8037 440.334 51.7077 440.514 51.7077 440.738C51.7077 440.914 51.7717 441.062 51.8997 441.182C52.0277 441.302 52.1837 441.398 52.3677 441.47C52.5517 441.534 52.8237 441.618 53.1837 441.722C53.6637 441.85 54.0557 441.982 54.3597 442.118C54.6717 442.246 54.9397 442.438 55.1637 442.694C55.3877 442.95 55.5037 443.29 55.5117 443.714C55.5117 444.09 55.4077 444.426 55.1997 444.722C54.9917 445.019 54.6957 445.251 54.3117 445.418C53.9357 445.587 53.4917 445.671 52.9797 445.671ZM65.8698 438.951L63.8178 445.562H62.3778L61.0458 440.678L59.7138 445.562H58.2738L56.2098 438.951H57.6018L58.9818 444.266L60.3858 438.951H61.8138L63.1578 444.242L64.5258 438.951H65.8698ZM69.7602 445.671C69.1362 445.671 68.5722 445.531 68.0682 445.25C67.5642 444.962 67.1682 444.562 66.8802 444.05C66.5922 443.53 66.4482 442.93 66.4482 442.25C66.4482 441.578 66.5962 440.982 66.8922 440.462C67.1882 439.942 67.5922 439.542 68.1042 439.262C68.6162 438.982 69.1882 438.842 69.8202 438.842C70.4522 438.842 71.0242 438.982 71.5362 439.262C72.0482 439.542 72.4522 439.942 72.7482 440.462C73.0442 440.982 73.1922 441.578 73.1922 442.25C73.1922 442.922 73.0402 443.518 72.7362 444.038C72.4322 444.558 72.0162 444.962 71.4882 445.25C70.9682 445.531 70.3922 445.671 69.7602 445.671ZM69.7602 444.482C70.1122 444.482 70.4402 444.398 70.7442 444.23C71.0562 444.062 71.3082 443.81 71.5002 443.474C71.6922 443.138 71.7882 442.73 71.7882 442.25C71.7882 441.77 71.6962 441.366 71.5122 441.038C71.3282 440.702 71.0842 440.45 70.7802 440.282C70.4762 440.114 70.1482 440.03 69.7962 440.03C69.4442 440.03 69.1162 440.114 68.8122 440.282C68.5162 440.45 68.2802 440.702 68.1042 441.038C67.9282 441.366 67.8402 441.77 67.8402 442.25C67.8402 442.962 68.0202 443.514 68.3802 443.906C68.7482 444.29 69.2082 444.482 69.7602 444.482ZM75.9125 439.91C76.1125 439.574 76.3765 439.314 76.7045 439.13C77.0405 438.938 77.4365 438.842 77.8925 438.842V440.258H77.5445C77.0085 440.258 76.6005 440.394 76.3205 440.666C76.0485 440.938 75.9125 441.41 75.9125 442.082V445.562H74.5445V438.951H75.9125V439.91ZM78.694 442.226C78.694 441.562 78.83 440.974 79.102 440.462C79.382 439.95 79.758 439.554 80.23 439.274C80.71 438.986 81.242 438.842 81.826 438.842C82.258 438.842 82.682 438.938 83.098 439.13C83.522 439.314 83.858 439.562 84.106 439.874V436.682H85.486V445.562H84.106V444.566C83.882 444.886 83.57 445.15 83.17 445.358C82.778 445.567 82.326 445.671 81.814 445.671C81.238 445.671 80.71 445.527 80.23 445.238C79.758 444.942 79.382 444.534 79.102 444.014C78.83 443.486 78.694 442.89 78.694 442.226ZM84.106 442.25C84.106 441.794 84.01 441.398 83.818 441.062C83.634 440.726 83.39 440.47 83.086 440.294C82.782 440.118 82.454 440.03 82.102 440.03C81.75 440.03 81.422 440.118 81.118 440.294C80.814 440.462 80.566 440.714 80.374 441.05C80.19 441.378 80.098 441.77 80.098 442.226C80.098 442.682 80.19 443.082 80.374 443.426C80.566 443.77 80.814 444.034 81.118 444.218C81.43 444.394 81.758 444.482 82.102 444.482C82.454 444.482 82.782 444.394 83.086 444.218C83.39 444.042 83.634 443.786 83.818 443.45C84.01 443.106 84.106 442.706 84.106 442.25Z" fill="#636363"/>
<path d="M291.586 502.674H294.514V503.562H290.494V495.198H291.586V502.674ZM301.506 496.986V503.562H300.414V502.59C300.206 502.926 299.914 503.19 299.538 503.382C299.17 503.567 298.762 503.659 298.314 503.659C297.802 503.659 297.342 503.554 296.934 503.346C296.526 503.13 296.202 502.81 295.962 502.386C295.73 501.962 295.614 501.446 295.614 500.838V496.986H296.694V500.694C296.694 501.342 296.858 501.842 297.186 502.194C297.514 502.538 297.962 502.71 298.53 502.71C299.114 502.71 299.574 502.53 299.91 502.17C300.246 501.81 300.414 501.286 300.414 500.598V496.986H301.506ZM304.442 498.198C304.658 497.822 304.978 497.51 305.402 497.262C305.834 497.006 306.334 496.878 306.902 496.878C307.486 496.878 308.014 497.018 308.486 497.298C308.966 497.578 309.342 497.974 309.614 498.486C309.886 498.99 310.022 499.578 310.022 500.25C310.022 500.914 309.886 501.506 309.614 502.026C309.342 502.546 308.966 502.95 308.486 503.238C308.014 503.527 307.486 503.671 306.902 503.671C306.342 503.671 305.846 503.546 305.414 503.298C304.99 503.042 304.666 502.726 304.442 502.35V506.683H303.35V496.986H304.442V498.198ZM308.906 500.25C308.906 499.754 308.806 499.322 308.606 498.954C308.406 498.586 308.134 498.306 307.79 498.114C307.454 497.922 307.082 497.826 306.674 497.826C306.274 497.826 305.902 497.926 305.558 498.126C305.222 498.318 304.95 498.602 304.742 498.978C304.542 499.346 304.442 499.774 304.442 500.262C304.442 500.758 304.542 501.194 304.742 501.57C304.95 501.938 305.222 502.222 305.558 502.422C305.902 502.614 306.274 502.71 306.674 502.71C307.082 502.71 307.454 502.614 307.79 502.422C308.134 502.222 308.406 501.938 308.606 501.57C308.806 501.194 308.906 500.754 308.906 500.25ZM311.051 500.25C311.051 499.578 311.187 498.99 311.459 498.486C311.731 497.974 312.103 497.578 312.575 497.298C313.055 497.018 313.587 496.878 314.171 496.878C314.747 496.878 315.247 497.002 315.671 497.25C316.095 497.498 316.411 497.81 316.619 498.186V496.986H317.723V503.562H316.619V502.338C316.403 502.722 316.079 503.042 315.647 503.298C315.223 503.546 314.727 503.671 314.159 503.671C313.575 503.671 313.047 503.527 312.575 503.238C312.103 502.95 311.731 502.546 311.459 502.026C311.187 501.506 311.051 500.914 311.051 500.25ZM316.619 500.262C316.619 499.766 316.519 499.334 316.319 498.966C316.119 498.598 315.847 498.318 315.503 498.126C315.167 497.926 314.795 497.826 314.387 497.826C313.979 497.826 313.607 497.922 313.271 498.114C312.935 498.306 312.667 498.586 312.467 498.954C312.267 499.322 312.167 499.754 312.167 500.25C312.167 500.754 312.267 501.194 312.467 501.57C312.667 501.938 312.935 502.222 313.271 502.422C313.607 502.614 313.979 502.71 314.387 502.71C314.795 502.71 315.167 502.614 315.503 502.422C315.847 502.222 316.119 501.938 316.319 501.57C316.519 501.194 316.619 500.758 316.619 500.262ZM323.86 498.198C324.076 497.822 324.396 497.51 324.82 497.262C325.252 497.006 325.752 496.878 326.32 496.878C326.904 496.878 327.432 497.018 327.904 497.298C328.384 497.578 328.76 497.974 329.032 498.486C329.304 498.99 329.44 499.578 329.44 500.25C329.44 500.914 329.304 501.506 329.032 502.026C328.76 502.546 328.384 502.95 327.904 503.238C327.432 503.527 326.904 503.671 326.32 503.671C325.76 503.671 325.264 503.546 324.832 503.298C324.408 503.042 324.084 502.726 323.86 502.35V506.683H322.768V496.986H323.86V498.198ZM328.324 500.25C328.324 499.754 328.224 499.322 328.024 498.954C327.824 498.586 327.552 498.306 327.208 498.114C326.872 497.922 326.5 497.826 326.092 497.826C325.692 497.826 325.32 497.926 324.976 498.126C324.64 498.318 324.368 498.602 324.16 498.978C323.96 499.346 323.86 499.774 323.86 500.262C323.86 500.758 323.96 501.194 324.16 501.57C324.368 501.938 324.64 502.222 324.976 502.422C325.32 502.614 325.692 502.71 326.092 502.71C326.5 502.71 326.872 502.614 327.208 502.422C327.552 502.222 327.824 501.938 328.024 501.57C328.224 501.194 328.324 500.754 328.324 500.25ZM330.469 500.25C330.469 499.578 330.605 498.99 330.877 498.486C331.149 497.974 331.521 497.578 331.993 497.298C332.473 497.018 333.005 496.878 333.589 496.878C334.165 496.878 334.665 497.002 335.089 497.25C335.513 497.498 335.829 497.81 336.037 498.186V496.986H337.141V503.562H336.037V502.338C335.821 502.722 335.497 503.042 335.065 503.298C334.641 503.546 334.145 503.671 333.577 503.671C332.993 503.671 332.465 503.527 331.993 503.238C331.521 502.95 331.149 502.546 330.877 502.026C330.605 501.506 330.469 500.914 330.469 500.25ZM336.037 500.262C336.037 499.766 335.937 499.334 335.737 498.966C335.537 498.598 335.265 498.318 334.921 498.126C334.585 497.926 334.213 497.826 333.805 497.826C333.397 497.826 333.025 497.922 332.689 498.114C332.353 498.306 332.085 498.586 331.885 498.954C331.685 499.322 331.585 499.754 331.585 500.25C331.585 500.754 331.685 501.194 331.885 501.57C332.085 501.938 332.353 502.222 332.689 502.422C333.025 502.614 333.397 502.71 333.805 502.71C334.213 502.71 334.585 502.614 334.921 502.422C335.265 502.222 335.537 501.938 335.737 501.57C335.937 501.194 336.037 500.758 336.037 500.262ZM341.315 503.671C340.811 503.671 340.359 503.587 339.959 503.418C339.559 503.242 339.243 503.002 339.011 502.698C338.779 502.386 338.651 502.03 338.627 501.63H339.755C339.787 501.958 339.939 502.226 340.211 502.434C340.491 502.642 340.855 502.746 341.303 502.746C341.719 502.746 342.047 502.654 342.287 502.47C342.527 502.286 342.647 502.054 342.647 501.774C342.647 501.486 342.519 501.274 342.263 501.138C342.007 500.994 341.611 500.854 341.075 500.718C340.587 500.59 340.187 500.462 339.875 500.334C339.571 500.198 339.307 500.002 339.083 499.746C338.867 499.482 338.759 499.138 338.759 498.714C338.759 498.378 338.859 498.07 339.059 497.79C339.259 497.51 339.543 497.29 339.911 497.13C340.279 496.962 340.699 496.878 341.171 496.878C341.899 496.878 342.487 497.062 342.935 497.43C343.383 497.798 343.623 498.302 343.655 498.942H342.563C342.539 498.598 342.399 498.322 342.143 498.114C341.895 497.906 341.559 497.802 341.135 497.802C340.743 497.802 340.431 497.886 340.199 498.054C339.967 498.222 339.851 498.442 339.851 498.714C339.851 498.93 339.919 499.11 340.055 499.254C340.199 499.39 340.375 499.502 340.583 499.59C340.799 499.67 341.095 499.762 341.471 499.866C341.943 499.994 342.327 500.122 342.623 500.25C342.919 500.37 343.171 500.554 343.379 500.802C343.595 501.05 343.707 501.374 343.715 501.774C343.715 502.134 343.615 502.458 343.415 502.746C343.215 503.034 342.931 503.262 342.563 503.43C342.203 503.591 341.787 503.671 341.315 503.671ZM347.584 503.671C347.08 503.671 346.628 503.587 346.228 503.418C345.828 503.242 345.512 503.002 345.28 502.698C345.048 502.386 344.92 502.03 344.896 501.63H346.024C346.056 501.958 346.208 502.226 346.48 502.434C346.76 502.642 347.124 502.746 347.572 502.746C347.988 502.746 348.316 502.654 348.556 502.47C348.796 502.286 348.916 502.054 348.916 501.774C348.916 501.486 348.788 501.274 348.532 501.138C348.276 500.994 347.88 500.854 347.344 500.718C346.856 500.59 346.456 500.462 346.144 500.334C345.84 500.198 345.576 500.002 345.352 499.746C345.136 499.482 345.028 499.138 345.028 498.714C345.028 498.378 345.128 498.07 345.328 497.79C345.528 497.51 345.812 497.29 346.18 497.13C346.548 496.962 346.968 496.878 347.44 496.878C348.168 496.878 348.756 497.062 349.204 497.43C349.652 497.798 349.892 498.302 349.924 498.942H348.832C348.808 498.598 348.668 498.322 348.412 498.114C348.164 497.906 347.828 497.802 347.404 497.802C347.012 497.802 346.7 497.886 346.468 498.054C346.236 498.222 346.12 498.442 346.12 498.714C346.12 498.93 346.188 499.11 346.324 499.254C346.468 499.39 346.644 499.502 346.852 499.59C347.068 499.67 347.364 499.762 347.74 499.866C348.212 499.994 348.596 500.122 348.892 500.25C349.188 500.37 349.44 500.554 349.648 500.802C349.864 501.05 349.976 501.374 349.984 501.774C349.984 502.134 349.884 502.458 349.684 502.746C349.484 503.034 349.2 503.262 348.832 503.43C348.472 503.591 348.056 503.671 347.584 503.671ZM360.286 496.986L358.234 503.562H357.106L355.522 498.342L353.938 503.562H352.81L350.746 496.986H351.862L353.374 502.506L355.006 496.986H356.122L357.718 502.518L359.206 496.986H360.286ZM364.237 503.671C363.621 503.671 363.061 503.531 362.557 503.25C362.061 502.97 361.669 502.574 361.381 502.062C361.101 501.542 360.961 500.942 360.961 500.262C360.961 499.59 361.105 498.998 361.393 498.486C361.689 497.966 362.089 497.57 362.593 497.298C363.097 497.018 363.661 496.878 364.285 496.878C364.909 496.878 365.473 497.018 365.977 497.298C366.481 497.57 366.877 497.962 367.165 498.474C367.461 498.986 367.609 499.582 367.609 500.262C367.609 500.942 367.457 501.542 367.153 502.062C366.857 502.574 366.453 502.97 365.941 503.25C365.429 503.531 364.861 503.671 364.237 503.671ZM364.237 502.71C364.629 502.71 364.997 502.618 365.341 502.434C365.685 502.25 365.961 501.974 366.169 501.606C366.385 501.238 366.493 500.79 366.493 500.262C366.493 499.734 366.389 499.286 366.181 498.918C365.973 498.55 365.701 498.278 365.365 498.102C365.029 497.918 364.665 497.826 364.273 497.826C363.873 497.826 363.505 497.918 363.169 498.102C362.841 498.278 362.577 498.55 362.377 498.918C362.177 499.286 362.077 499.734 362.077 500.262C362.077 500.798 362.173 501.25 362.365 501.618C362.565 501.986 362.829 502.262 363.157 502.446C363.485 502.622 363.845 502.71 364.237 502.71ZM370.137 498.054C370.329 497.678 370.601 497.386 370.953 497.178C371.313 496.97 371.749 496.866 372.261 496.866V497.994H371.973C370.749 497.994 370.137 498.658 370.137 499.986V503.562H369.045V496.986H370.137V498.054ZM373.114 500.25C373.114 499.578 373.25 498.99 373.522 498.486C373.794 497.974 374.166 497.578 374.638 497.298C375.118 497.018 375.654 496.878 376.246 496.878C376.758 496.878 377.234 496.998 377.674 497.238C378.114 497.47 378.45 497.778 378.682 498.162V494.682H379.786V503.562H378.682V502.326C378.466 502.718 378.146 503.042 377.722 503.298C377.298 503.546 376.802 503.671 376.234 503.671C375.65 503.671 375.118 503.527 374.638 503.238C374.166 502.95 373.794 502.546 373.522 502.026C373.25 501.506 373.114 500.914 373.114 500.25ZM378.682 500.262C378.682 499.766 378.582 499.334 378.382 498.966C378.182 498.598 377.91 498.318 377.566 498.126C377.23 497.926 376.858 497.826 376.45 497.826C376.042 497.826 375.67 497.922 375.334 498.114C374.998 498.306 374.73 498.586 374.53 498.954C374.33 499.322 374.23 499.754 374.23 500.25C374.23 500.754 374.33 501.194 374.53 501.57C374.73 501.938 374.998 502.222 375.334 502.422C375.67 502.614 376.042 502.71 376.45 502.71C376.858 502.71 377.23 502.614 377.566 502.422C377.91 502.222 378.182 501.938 378.382 501.57C378.582 501.194 378.682 500.758 378.682 500.262ZM383.767 495.09C384.559 495.09 385.199 495.314 385.687 495.762C386.175 496.21 386.419 496.81 386.419 497.562C386.419 498.402 386.159 499.026 385.639 499.434C385.119 499.834 384.415 500.035 383.527 500.035L383.491 501.174H382.543L382.495 499.278H382.843C383.635 499.278 384.255 499.158 384.703 498.918C385.151 498.678 385.375 498.226 385.375 497.562C385.375 497.082 385.231 496.702 384.943 496.422C384.655 496.142 384.267 496.002 383.779 496.002C383.283 496.002 382.891 496.138 382.603 496.41C382.323 496.674 382.183 497.038 382.183 497.503H381.151C381.151 497.023 381.259 496.602 381.475 496.242C381.691 495.874 381.995 495.59 382.387 495.39C382.787 495.19 383.247 495.09 383.767 495.09ZM383.011 503.635C382.803 503.635 382.627 503.562 382.483 503.418C382.339 503.274 382.267 503.098 382.267 502.89C382.267 502.682 382.339 502.506 382.483 502.362C382.627 502.218 382.803 502.146 383.011 502.146C383.211 502.146 383.379 502.218 383.515 502.362C383.659 502.506 383.731 502.682 383.731 502.89C383.731 503.098 383.659 503.274 383.515 503.418C383.379 503.562 383.211 503.635 383.011 503.635Z" fill="#9A9A9A"/>
<rect x="16" y="532.562" width="371" height="50" rx="4" fill="#696B6E"/>
<path d="M185.768 560.458H188.588V561.562H184.4V553.222H185.768V560.458ZM192.6 561.671C191.976 561.671 191.412 561.531 190.908 561.25C190.404 560.962 190.008 560.562 189.72 560.05C189.432 559.53 189.288 558.93 189.288 558.25C189.288 557.578 189.436 556.982 189.732 556.462C190.028 555.942 190.432 555.542 190.944 555.262C191.456 554.982 192.028 554.842 192.66 554.842C193.292 554.842 193.864 554.982 194.376 555.262C194.888 555.542 195.292 555.942 195.588 556.462C195.884 556.982 196.032 557.578 196.032 558.25C196.032 558.922 195.88 559.518 195.576 560.038C195.272 560.558 194.856 560.962 194.328 561.25C193.808 561.531 193.232 561.671 192.6 561.671ZM192.6 560.482C192.952 560.482 193.28 560.398 193.584 560.23C193.896 560.062 194.148 559.81 194.34 559.474C194.532 559.138 194.628 558.73 194.628 558.25C194.628 557.77 194.536 557.366 194.352 557.038C194.168 556.702 193.924 556.45 193.62 556.282C193.316 556.114 192.988 556.03 192.636 556.03C192.284 556.03 191.956 556.114 191.652 556.282C191.356 556.45 191.12 556.702 190.944 557.038C190.768 557.366 190.68 557.77 190.68 558.25C190.68 558.962 190.86 559.514 191.22 559.906C191.588 560.29 192.048 560.482 192.6 560.482ZM200.048 554.842C200.56 554.842 201.012 554.946 201.404 555.154C201.804 555.354 202.116 555.606 202.34 555.91V554.951H203.72V561.671C203.72 562.279 203.592 562.819 203.336 563.291C203.08 563.771 202.708 564.147 202.22 564.419C201.74 564.691 201.164 564.827 200.492 564.827C199.596 564.827 198.852 564.615 198.26 564.191C197.668 563.775 197.332 563.207 197.252 562.487H198.608C198.712 562.831 198.932 563.107 199.268 563.315C199.612 563.531 200.02 563.639 200.492 563.639C201.044 563.639 201.488 563.471 201.824 563.135C202.168 562.799 202.34 562.311 202.34 561.671V560.566C202.108 560.878 201.792 561.142 201.392 561.358C201 561.567 200.552 561.671 200.048 561.671C199.472 561.671 198.944 561.527 198.464 561.238C197.992 560.942 197.616 560.534 197.336 560.014C197.064 559.486 196.928 558.89 196.928 558.226C196.928 557.562 197.064 556.974 197.336 556.462C197.616 555.95 197.992 555.554 198.464 555.274C198.944 554.986 199.472 554.842 200.048 554.842ZM202.34 558.25C202.34 557.794 202.244 557.398 202.052 557.062C201.868 556.726 201.624 556.47 201.32 556.294C201.016 556.118 200.688 556.03 200.336 556.03C199.984 556.03 199.656 556.118 199.352 556.294C199.048 556.462 198.8 556.714 198.608 557.05C198.424 557.378 198.332 557.77 198.332 558.226C198.332 558.682 198.424 559.082 198.608 559.426C198.8 559.77 199.048 560.034 199.352 560.218C199.664 560.394 199.992 560.482 200.336 560.482C200.688 560.482 201.016 560.394 201.32 560.218C201.624 560.042 201.868 559.786 202.052 559.45C202.244 559.106 202.34 558.706 202.34 558.25ZM209.33 554.074C209.082 554.074 208.874 553.99 208.706 553.822C208.538 553.654 208.454 553.446 208.454 553.198C208.454 552.95 208.538 552.742 208.706 552.574C208.874 552.406 209.082 552.322 209.33 552.322C209.57 552.322 209.774 552.406 209.942 552.574C210.11 552.742 210.194 552.95 210.194 553.198C210.194 553.446 210.11 553.654 209.942 553.822C209.774 553.99 209.57 554.074 209.33 554.074ZM210.002 554.951V561.562H208.634V554.951H210.002ZM215.134 554.842C215.654 554.842 216.118 554.95 216.526 555.166C216.942 555.382 217.266 555.702 217.498 556.126C217.73 556.55 217.846 557.062 217.846 557.662V561.562H216.49V557.866C216.49 557.274 216.342 556.822 216.046 556.51C215.75 556.19 215.346 556.03 214.834 556.03C214.322 556.03 213.914 556.19 213.61 556.51C213.314 556.822 213.166 557.274 213.166 557.866V561.562H211.798V554.951H213.166V555.706C213.39 555.434 213.674 555.222 214.018 555.07C214.37 554.918 214.742 554.842 215.134 554.842Z" fill="#F8E7E8"/>
<path d="M21.868 617.702H18.22L17.548 619.562H16.396L19.42 611.246H20.68L23.692 619.562H22.54L21.868 617.702ZM21.556 616.814L20.044 612.59L18.532 616.814H21.556ZM26.1019 614.198C26.3179 613.822 26.6379 613.51 27.0619 613.262C27.4939 613.006 27.9939 612.878 28.5619 612.878C29.1459 612.878 29.6739 613.018 30.1459 613.298C30.6259 613.578 31.0019 613.974 31.2739 614.486C31.5459 614.99 31.6819 615.578 31.6819 616.25C31.6819 616.914 31.5459 617.506 31.2739 618.026C31.0019 618.546 30.6259 618.95 30.1459 619.238C29.6739 619.527 29.1459 619.671 28.5619 619.671C28.0019 619.671 27.5059 619.546 27.0739 619.298C26.6499 619.042 26.3259 618.726 26.1019 618.35V622.683H25.0099V612.986H26.1019V614.198ZM30.5659 616.25C30.5659 615.754 30.4659 615.322 30.2659 614.954C30.0659 614.586 29.7939 614.306 29.4499 614.114C29.1139 613.922 28.7419 613.826 28.3339 613.826C27.9339 613.826 27.5619 613.926 27.2179 614.126C26.8819 614.318 26.6099 614.602 26.4019 614.978C26.2019 615.346 26.1019 615.774 26.1019 616.262C26.1019 616.758 26.2019 617.194 26.4019 617.57C26.6099 617.938 26.8819 618.222 27.2179 618.422C27.5619 618.614 27.9339 618.71 28.3339 618.71C28.7419 618.71 29.1139 618.614 29.4499 618.422C29.7939 618.222 30.0659 617.938 30.2659 617.57C30.4659 617.194 30.5659 616.754 30.5659 616.25ZM32.7113 616.25C32.7113 615.578 32.8473 614.99 33.1193 614.486C33.3913 613.974 33.7633 613.578 34.2353 613.298C34.7153 613.018 35.2473 612.878 35.8313 612.878C36.4073 612.878 36.9073 613.002 37.3313 613.25C37.7553 613.498 38.0713 613.81 38.2793 614.186V612.986H39.3833V619.562H38.2793V618.338C38.0633 618.722 37.7393 619.042 37.3073 619.298C36.8833 619.546 36.3873 619.671 35.8193 619.671C35.2353 619.671 34.7073 619.527 34.2353 619.238C33.7633 618.95 33.3913 618.546 33.1193 618.026C32.8473 617.506 32.7113 616.914 32.7113 616.25ZM38.2793 616.262C38.2793 615.766 38.1793 615.334 37.9793 614.966C37.7793 614.598 37.5073 614.318 37.1633 614.126C36.8273 613.926 36.4553 613.826 36.0473 613.826C35.6393 613.826 35.2673 613.922 34.9313 614.114C34.5953 614.306 34.3273 614.586 34.1273 614.954C33.9273 615.322 33.8273 615.754 33.8273 616.25C33.8273 616.754 33.9273 617.194 34.1273 617.57C34.3273 617.938 34.5953 618.222 34.9313 618.422C35.2673 618.614 35.6393 618.71 36.0473 618.71C36.4553 618.71 36.8273 618.614 37.1633 618.422C37.5073 618.222 37.7793 617.938 37.9793 617.57C38.1793 617.194 38.2793 616.758 38.2793 616.262ZM44.9007 619.562L42.3207 616.658V619.562H41.2287V610.682H42.3207V615.902L44.8527 612.986H46.3767L43.2807 616.262L46.3887 619.562H44.9007ZM46.9965 616.25C46.9965 615.578 47.1325 614.99 47.4045 614.486C47.6765 613.974 48.0485 613.578 48.5205 613.298C49.0005 613.018 49.5325 612.878 50.1165 612.878C50.6925 612.878 51.1925 613.002 51.6165 613.25C52.0405 613.498 52.3565 613.81 52.5645 614.186V612.986H53.6685V619.562H52.5645V618.338C52.3485 618.722 52.0245 619.042 51.5925 619.298C51.1685 619.546 50.6725 619.671 50.1045 619.671C49.5205 619.671 48.9925 619.527 48.5205 619.238C48.0485 618.95 47.6765 618.546 47.4045 618.026C47.1325 617.506 46.9965 616.914 46.9965 616.25ZM52.5645 616.262C52.5645 615.766 52.4645 615.334 52.2645 614.966C52.0645 614.598 51.7925 614.318 51.4485 614.126C51.1125 613.926 50.7405 613.826 50.3325 613.826C49.9245 613.826 49.5525 613.922 49.2165 614.114C48.8805 614.306 48.6125 614.586 48.4125 614.954C48.2125 615.322 48.1125 615.754 48.1125 616.25C48.1125 616.754 48.2125 617.194 48.4125 617.57C48.6125 617.938 48.8805 618.222 49.2165 618.422C49.5525 618.614 49.9245 618.71 50.3325 618.71C50.7405 618.71 51.1125 618.614 51.4485 618.422C51.7925 618.222 52.0645 617.938 52.2645 617.57C52.4645 617.194 52.5645 616.758 52.5645 616.262ZM58.7778 612.866C59.2738 612.866 59.7218 612.974 60.1218 613.19C60.5218 613.398 60.8338 613.714 61.0578 614.138C61.2898 614.562 61.4058 615.078 61.4058 615.686V619.562H60.3258V615.842C60.3258 615.186 60.1618 614.686 59.8338 614.342C59.5058 613.99 59.0578 613.814 58.4898 613.814C57.9138 613.814 57.4538 613.994 57.1098 614.354C56.7738 614.714 56.6058 615.238 56.6058 615.926V619.562H55.5138V610.682H56.6058V613.922C56.8218 613.586 57.1178 613.326 57.4938 613.142C57.8778 612.958 58.3058 612.866 58.7778 612.866ZM70.0608 619.562L67.4808 616.658V619.562H66.3888V610.682H67.4808V615.902L70.0128 612.986H71.5368L68.4408 616.262L71.5488 619.562H70.0608ZM72.1566 616.25C72.1566 615.578 72.2926 614.99 72.5646 614.486C72.8366 613.974 73.2086 613.578 73.6806 613.298C74.1606 613.018 74.6926 612.878 75.2766 612.878C75.8526 612.878 76.3526 613.002 76.7766 613.25C77.2006 613.498 77.5166 613.81 77.7246 614.186V612.986H78.8286V619.562H77.7246V618.338C77.5086 618.722 77.1846 619.042 76.7526 619.298C76.3286 619.546 75.8326 619.671 75.2646 619.671C74.6806 619.671 74.1526 619.527 73.6806 619.238C73.2086 618.95 72.8366 618.546 72.5646 618.026C72.2926 617.506 72.1566 616.914 72.1566 616.25ZM77.7246 616.262C77.7246 615.766 77.6246 615.334 77.4246 614.966C77.2246 614.598 76.9526 614.318 76.6086 614.126C76.2726 613.926 75.9006 613.826 75.4926 613.826C75.0846 613.826 74.7126 613.922 74.3766 614.114C74.0406 614.306 73.7726 614.586 73.5726 614.954C73.3726 615.322 73.2726 615.754 73.2726 616.25C73.2726 616.754 73.3726 617.194 73.5726 617.57C73.7726 617.938 74.0406 618.222 74.3766 618.422C74.7126 618.614 75.0846 618.71 75.4926 618.71C75.9006 618.71 76.2726 618.614 76.6086 618.422C76.9526 618.222 77.2246 617.938 77.4246 617.57C77.6246 617.194 77.7246 616.758 77.7246 616.262ZM88.582 612.866C89.094 612.866 89.55 612.974 89.95 613.19C90.35 613.398 90.666 613.714 90.898 614.138C91.13 614.562 91.246 615.078 91.246 615.686V619.562H90.166V615.842C90.166 615.186 90.002 614.686 89.674 614.342C89.354 613.99 88.918 613.814 88.366 613.814C87.798 613.814 87.346 613.998 87.01 614.366C86.674 614.726 86.506 615.25 86.506 615.938V619.562H85.426V615.842C85.426 615.186 85.262 614.686 84.934 614.342C84.614 613.99 84.178 613.814 83.626 613.814C83.058 613.814 82.606 613.998 82.27 614.366C81.934 614.726 81.766 615.25 81.766 615.938V619.562H80.674V612.986H81.766V613.934C81.982 613.59 82.27 613.326 82.63 613.142C82.998 612.958 83.402 612.866 83.842 612.866C84.394 612.866 84.882 612.99 85.306 613.238C85.73 613.486 86.046 613.85 86.254 614.33C86.438 613.866 86.742 613.506 87.166 613.25C87.59 612.994 88.062 612.866 88.582 612.866ZM98.8693 612.986V619.562H97.7773V618.59C97.5693 618.926 97.2773 619.19 96.9013 619.382C96.5333 619.567 96.1253 619.659 95.6773 619.659C95.1653 619.659 94.7053 619.554 94.2973 619.346C93.8893 619.13 93.5653 618.81 93.3253 618.386C93.0933 617.962 92.9773 617.446 92.9773 616.838V612.986H94.0573V616.694C94.0573 617.342 94.2213 617.842 94.5493 618.194C94.8773 618.538 95.3253 618.71 95.8933 618.71C96.4773 618.71 96.9373 618.53 97.2733 618.17C97.6093 617.81 97.7773 617.286 97.7773 616.598V612.986H98.8693ZM106.24 619.671C105.736 619.671 105.284 619.587 104.884 619.418C104.484 619.242 104.168 619.002 103.936 618.698C103.704 618.386 103.576 618.03 103.552 617.63H104.68C104.712 617.958 104.864 618.226 105.136 618.434C105.416 618.642 105.78 618.746 106.228 618.746C106.644 618.746 106.972 618.654 107.212 618.47C107.452 618.286 107.572 618.054 107.572 617.774C107.572 617.486 107.444 617.274 107.188 617.138C106.932 616.994 106.536 616.854 106 616.718C105.512 616.59 105.112 616.462 104.8 616.334C104.496 616.198 104.232 616.002 104.008 615.746C103.792 615.482 103.684 615.138 103.684 614.714C103.684 614.378 103.784 614.07 103.984 613.79C104.184 613.51 104.468 613.29 104.836 613.13C105.204 612.962 105.624 612.878 106.096 612.878C106.824 612.878 107.412 613.062 107.86 613.43C108.308 613.798 108.548 614.302 108.58 614.942H107.488C107.464 614.598 107.324 614.322 107.068 614.114C106.82 613.906 106.484 613.802 106.06 613.802C105.668 613.802 105.356 613.886 105.124 614.054C104.892 614.222 104.776 614.442 104.776 614.714C104.776 614.93 104.844 615.11 104.98 615.254C105.124 615.39 105.3 615.502 105.508 615.59C105.724 615.67 106.02 615.762 106.396 615.866C106.868 615.994 107.252 616.122 107.548 616.25C107.844 616.37 108.096 616.554 108.304 616.802C108.52 617.05 108.632 617.374 108.64 617.774C108.64 618.134 108.54 618.458 108.34 618.746C108.14 619.034 107.856 619.262 107.488 619.43C107.128 619.591 106.712 619.671 106.24 619.671ZM116.014 612.986V619.562H114.922V618.59C114.714 618.926 114.422 619.19 114.046 619.382C113.678 619.567 113.27 619.659 112.822 619.659C112.31 619.659 111.85 619.554 111.442 619.346C111.034 619.13 110.71 618.81 110.47 618.386C110.238 617.962 110.122 617.446 110.122 616.838V612.986H111.202V616.694C111.202 617.342 111.366 617.842 111.694 618.194C112.022 618.538 112.47 618.71 113.038 618.71C113.622 618.71 114.082 618.53 114.418 618.17C114.754 617.81 114.922 617.286 114.922 616.598V612.986H116.014ZM117.45 616.25C117.45 615.578 117.586 614.99 117.858 614.486C118.13 613.974 118.502 613.578 118.974 613.298C119.454 613.018 119.99 612.878 120.582 612.878C121.094 612.878 121.57 612.998 122.01 613.238C122.45 613.47 122.786 613.778 123.018 614.162V610.682H124.122V619.562H123.018V618.326C122.802 618.718 122.482 619.042 122.058 619.298C121.634 619.546 121.138 619.671 120.57 619.671C119.986 619.671 119.454 619.527 118.974 619.238C118.502 618.95 118.13 618.546 117.858 618.026C117.586 617.506 117.45 616.914 117.45 616.25ZM123.018 616.262C123.018 615.766 122.918 615.334 122.718 614.966C122.518 614.598 122.246 614.318 121.902 614.126C121.566 613.926 121.194 613.826 120.786 613.826C120.378 613.826 120.006 613.922 119.67 614.114C119.334 614.306 119.066 614.586 118.866 614.954C118.666 615.322 118.566 615.754 118.566 616.25C118.566 616.754 118.666 617.194 118.866 617.57C119.066 617.938 119.334 618.222 119.67 618.422C120.006 618.614 120.378 618.71 120.786 618.71C121.194 618.71 121.566 618.614 121.902 618.422C122.246 618.222 122.518 617.938 122.718 617.57C122.918 617.194 123.018 616.758 123.018 616.262ZM125.559 616.25C125.559 615.578 125.695 614.99 125.967 614.486C126.239 613.974 126.611 613.578 127.083 613.298C127.563 613.018 128.095 612.878 128.679 612.878C129.255 612.878 129.755 613.002 130.179 613.25C130.603 613.498 130.919 613.81 131.127 614.186V612.986H132.231V619.562H131.127V618.338C130.911 618.722 130.587 619.042 130.155 619.298C129.731 619.546 129.235 619.671 128.667 619.671C128.083 619.671 127.555 619.527 127.083 619.238C126.611 618.95 126.239 618.546 125.967 618.026C125.695 617.506 125.559 616.914 125.559 616.25ZM131.127 616.262C131.127 615.766 131.027 615.334 130.827 614.966C130.627 614.598 130.355 614.318 130.011 614.126C129.675 613.926 129.303 613.826 128.895 613.826C128.487 613.826 128.115 613.922 127.779 614.114C127.443 614.306 127.175 614.586 126.975 614.954C126.775 615.322 126.675 615.754 126.675 616.25C126.675 616.754 126.775 617.194 126.975 617.57C127.175 617.938 127.443 618.222 127.779 618.422C128.115 618.614 128.487 618.71 128.895 618.71C129.303 618.71 129.675 618.614 130.011 618.422C130.355 618.222 130.627 617.938 130.827 617.57C131.027 617.194 131.127 616.758 131.127 616.262ZM137.34 612.866C137.836 612.866 138.284 612.974 138.684 613.19C139.084 613.398 139.396 613.714 139.62 614.138C139.852 614.562 139.968 615.078 139.968 615.686V619.562H138.888V615.842C138.888 615.186 138.724 614.686 138.396 614.342C138.068 613.99 137.62 613.814 137.052 613.814C136.476 613.814 136.016 613.994 135.672 614.354C135.336 614.714 135.168 615.238 135.168 615.926V619.562H134.076V610.682H135.168V613.922C135.384 613.586 135.68 613.326 136.056 613.142C136.44 612.958 136.868 612.866 137.34 612.866ZM152.859 612.866C153.371 612.866 153.827 612.974 154.227 613.19C154.627 613.398 154.943 613.714 155.175 614.138C155.407 614.562 155.523 615.078 155.523 615.686V619.562H154.443V615.842C154.443 615.186 154.279 614.686 153.951 614.342C153.631 613.99 153.195 613.814 152.643 613.814C152.075 613.814 151.623 613.998 151.287 614.366C150.951 614.726 150.783 615.25 150.783 615.938V619.562H149.703V615.842C149.703 615.186 149.539 614.686 149.211 614.342C148.891 613.99 148.455 613.814 147.903 613.814C147.335 613.814 146.883 613.998 146.547 614.366C146.211 614.726 146.043 615.25 146.043 615.938V619.562H144.951V612.986H146.043V613.934C146.259 613.59 146.547 613.326 146.907 613.142C147.275 612.958 147.679 612.866 148.119 612.866C148.671 612.866 149.159 612.99 149.583 613.238C150.007 613.486 150.323 613.85 150.531 614.33C150.715 613.866 151.019 613.506 151.443 613.25C151.867 612.994 152.339 612.866 152.859 612.866ZM163.315 616.022C163.315 616.23 163.303 616.45 163.279 616.682H158.023C158.063 617.33 158.283 617.838 158.683 618.206C159.091 618.566 159.583 618.746 160.159 618.746C160.631 618.746 161.023 618.638 161.335 618.422C161.655 618.198 161.879 617.902 162.007 617.534H163.183C163.007 618.166 162.655 618.682 162.127 619.082C161.599 619.474 160.943 619.671 160.159 619.671C159.535 619.671 158.975 619.531 158.479 619.25C157.991 618.97 157.607 618.574 157.327 618.062C157.047 617.542 156.907 616.942 156.907 616.262C156.907 615.582 157.043 614.986 157.315 614.474C157.587 613.962 157.967 613.57 158.455 613.298C158.951 613.018 159.519 612.878 160.159 612.878C160.783 612.878 161.335 613.014 161.815 613.286C162.295 613.558 162.663 613.934 162.919 614.414C163.183 614.886 163.315 615.422 163.315 616.022ZM162.187 615.794C162.187 615.378 162.095 615.022 161.911 614.726C161.727 614.422 161.475 614.194 161.155 614.042C160.843 613.882 160.495 613.802 160.111 613.802C159.559 613.802 159.087 613.978 158.695 614.33C158.311 614.682 158.091 615.17 158.035 615.794H162.187ZM172.664 612.866C173.176 612.866 173.632 612.974 174.032 613.19C174.432 613.398 174.748 613.714 174.98 614.138C175.212 614.562 175.328 615.078 175.328 615.686V619.562H174.248V615.842C174.248 615.186 174.084 614.686 173.756 614.342C173.436 613.99 173 613.814 172.448 613.814C171.88 613.814 171.428 613.998 171.092 614.366C170.756 614.726 170.588 615.25 170.588 615.938V619.562H169.508V615.842C169.508 615.186 169.344 614.686 169.016 614.342C168.696 613.99 168.26 613.814 167.708 613.814C167.14 613.814 166.688 613.998 166.352 614.366C166.016 614.726 165.848 615.25 165.848 615.938V619.562H164.756V612.986H165.848V613.934C166.064 613.59 166.352 613.326 166.712 613.142C167.08 612.958 167.484 612.866 167.924 612.866C168.476 612.866 168.964 612.99 169.388 613.238C169.812 613.486 170.128 613.85 170.336 614.33C170.52 613.866 170.824 613.506 171.248 613.25C171.672 612.994 172.144 612.866 172.664 612.866ZM178.211 614.198C178.427 613.822 178.747 613.51 179.171 613.262C179.603 613.006 180.103 612.878 180.671 612.878C181.255 612.878 181.783 613.018 182.255 613.298C182.735 613.578 183.111 613.974 183.383 614.486C183.655 614.99 183.791 615.578 183.791 616.25C183.791 616.914 183.655 617.506 183.383 618.026C183.111 618.546 182.735 618.95 182.255 619.238C181.783 619.527 181.255 619.671 180.671 619.671C180.111 619.671 179.615 619.546 179.183 619.298C178.759 619.042 178.435 618.726 178.211 618.35V622.683H177.119V612.986H178.211V614.198ZM182.675 616.25C182.675 615.754 182.575 615.322 182.375 614.954C182.175 614.586 181.903 614.306 181.559 614.114C181.223 613.922 180.851 613.826 180.443 613.826C180.043 613.826 179.671 613.926 179.327 614.126C178.991 614.318 178.719 614.602 178.511 614.978C178.311 615.346 178.211 615.774 178.211 616.262C178.211 616.758 178.311 617.194 178.511 617.57C178.719 617.938 178.991 618.222 179.327 618.422C179.671 618.614 180.043 618.71 180.443 618.71C180.851 618.71 181.223 618.614 181.559 618.422C181.903 618.222 182.175 617.938 182.375 617.57C182.575 617.194 182.675 616.754 182.675 616.25ZM191.061 612.986V619.562H189.969V618.59C189.761 618.926 189.469 619.19 189.093 619.382C188.725 619.567 188.317 619.659 187.869 619.659C187.357 619.659 186.897 619.554 186.489 619.346C186.081 619.13 185.757 618.81 185.517 618.386C185.285 617.962 185.169 617.446 185.169 616.838V612.986H186.249V616.694C186.249 617.342 186.413 617.842 186.741 618.194C187.069 618.538 187.517 618.71 188.085 618.71C188.669 618.71 189.129 618.53 189.465 618.17C189.801 617.81 189.969 617.286 189.969 616.598V612.986H191.061ZM196.108 612.866C196.908 612.866 197.556 613.11 198.052 613.598C198.548 614.078 198.796 614.774 198.796 615.686V619.562H197.716V615.842C197.716 615.186 197.552 614.686 197.224 614.342C196.896 613.99 196.448 613.814 195.88 613.814C195.304 613.814 194.844 613.994 194.5 614.354C194.164 614.714 193.996 615.238 193.996 615.926V619.562H192.904V612.986H193.996V613.922C194.212 613.586 194.504 613.326 194.872 613.142C195.248 612.958 195.66 612.866 196.108 612.866ZM206.244 612.986L202.284 622.659H201.156L202.452 619.49L199.8 612.986H201.012L203.076 618.314L205.116 612.986H206.244ZM206.934 616.25C206.934 615.578 207.07 614.99 207.342 614.486C207.614 613.974 207.986 613.578 208.458 613.298C208.938 613.018 209.47 612.878 210.054 612.878C210.63 612.878 211.13 613.002 211.554 613.25C211.978 613.498 212.294 613.81 212.502 614.186V612.986H213.606V619.562H212.502V618.338C212.286 618.722 211.962 619.042 211.53 619.298C211.106 619.546 210.61 619.671 210.042 619.671C209.458 619.671 208.93 619.527 208.458 619.238C207.986 618.95 207.614 618.546 207.342 618.026C207.07 617.506 206.934 616.914 206.934 616.25ZM212.502 616.262C212.502 615.766 212.402 615.334 212.202 614.966C212.002 614.598 211.73 614.318 211.386 614.126C211.05 613.926 210.678 613.826 210.27 613.826C209.862 613.826 209.49 613.922 209.154 614.114C208.818 614.306 208.55 614.586 208.35 614.954C208.15 615.322 208.05 615.754 208.05 616.25C208.05 616.754 208.15 617.194 208.35 617.57C208.55 617.938 208.818 618.222 209.154 618.422C209.49 618.614 209.862 618.71 210.27 618.71C210.678 618.71 211.05 618.614 211.386 618.422C211.73 618.222 212.002 617.938 212.202 617.57C212.402 617.194 212.502 616.758 212.502 616.262ZM216.015 611.918C215.807 611.918 215.631 611.846 215.487 611.702C215.343 611.558 215.271 611.382 215.271 611.174C215.271 610.966 215.343 610.79 215.487 610.646C215.631 610.502 215.807 610.43 216.015 610.43C216.215 610.43 216.383 610.502 216.519 610.646C216.663 610.79 216.735 610.966 216.735 611.174C216.735 611.382 216.663 611.558 216.519 611.702C216.383 611.846 216.215 611.918 216.015 611.918ZM216.543 612.986V619.562H215.451V612.986H216.543ZM221.196 616.25C221.196 615.578 221.332 614.99 221.604 614.486C221.876 613.974 222.248 613.578 222.72 613.298C223.2 613.018 223.732 612.878 224.316 612.878C224.892 612.878 225.392 613.002 225.816 613.25C226.24 613.498 226.556 613.81 226.764 614.186V612.986H227.868V619.562H226.764V618.338C226.548 618.722 226.224 619.042 225.792 619.298C225.368 619.546 224.872 619.671 224.304 619.671C223.72 619.671 223.192 619.527 222.72 619.238C222.248 618.95 221.876 618.546 221.604 618.026C221.332 617.506 221.196 616.914 221.196 616.25ZM226.764 616.262C226.764 615.766 226.664 615.334 226.464 614.966C226.264 614.598 225.992 614.318 225.648 614.126C225.312 613.926 224.94 613.826 224.532 613.826C224.124 613.826 223.752 613.922 223.416 614.114C223.08 614.306 222.812 614.586 222.612 614.954C222.412 615.322 222.312 615.754 222.312 616.25C222.312 616.754 222.412 617.194 222.612 617.57C222.812 617.938 223.08 618.222 223.416 618.422C223.752 618.614 224.124 618.71 224.532 618.71C224.94 618.71 225.312 618.614 225.648 618.422C225.992 618.222 226.264 617.938 226.464 617.57C226.664 617.194 226.764 616.758 226.764 616.262ZM233.385 619.562L230.805 616.658V619.562H229.713V610.682H230.805V615.902L233.337 612.986H234.861L231.765 616.262L234.873 619.562H233.385ZM241.721 612.986V619.562H240.629V618.59C240.421 618.926 240.129 619.19 239.753 619.382C239.385 619.567 238.977 619.659 238.529 619.659C238.017 619.659 237.557 619.554 237.149 619.346C236.741 619.13 236.417 618.81 236.177 618.386C235.945 617.962 235.829 617.446 235.829 616.838V612.986H236.909V616.694C236.909 617.342 237.073 617.842 237.401 618.194C237.729 618.538 238.177 618.71 238.745 618.71C239.329 618.71 239.789 618.53 240.125 618.17C240.461 617.81 240.629 617.286 240.629 616.598V612.986H241.721ZM246.769 612.866C247.569 612.866 248.217 613.11 248.713 613.598C249.209 614.078 249.457 614.774 249.457 615.686V619.562H248.377V615.842C248.377 615.186 248.213 614.686 247.885 614.342C247.557 613.99 247.109 613.814 246.541 613.814C245.965 613.814 245.505 613.994 245.161 614.354C244.825 614.714 244.657 615.238 244.657 615.926V619.562H243.565V612.986H244.657V613.922C244.873 613.586 245.165 613.326 245.533 613.142C245.909 612.958 246.321 612.866 246.769 612.866ZM253.376 611.09C254.168 611.09 254.808 611.314 255.296 611.762C255.784 612.21 256.028 612.81 256.028 613.562C256.028 614.402 255.768 615.026 255.248 615.434C254.728 615.834 254.024 616.035 253.136 616.035L253.1 617.174H252.152L252.104 615.278H252.452C253.244 615.278 253.864 615.158 254.312 614.918C254.76 614.678 254.984 614.226 254.984 613.562C254.984 613.082 254.84 612.702 254.552 612.422C254.264 612.142 253.876 612.002 253.388 612.002C252.892 612.002 252.5 612.138 252.212 612.41C251.932 612.674 251.792 613.038 251.792 613.503H250.76C250.76 613.023 250.868 612.602 251.084 612.242C251.3 611.874 251.604 611.59 251.996 611.39C252.396 611.19 252.856 611.09 253.376 611.09ZM252.62 619.635C252.412 619.635 252.236 619.562 252.092 619.418C251.948 619.274 251.876 619.098 251.876 618.89C251.876 618.682 251.948 618.506 252.092 618.362C252.236 618.218 252.412 618.146 252.62 618.146C252.82 618.146 252.988 618.218 253.124 618.362C253.268 618.506 253.34 618.682 253.34 618.89C253.34 619.098 253.268 619.274 253.124 619.418C252.988 619.562 252.82 619.635 252.62 619.635Z" fill="#9A9A9A"/>
<path d="M268.576 619.647C268.024 619.647 267.528 619.55 267.088 619.358C266.656 619.158 266.316 618.886 266.068 618.542C265.82 618.19 265.692 617.786 265.684 617.33H266.848C266.888 617.722 267.048 618.054 267.328 618.326C267.616 618.59 268.032 618.722 268.576 618.722C269.096 618.722 269.504 618.594 269.8 618.338C270.104 618.074 270.256 617.738 270.256 617.33C270.256 617.01 270.168 616.75 269.992 616.55C269.816 616.35 269.596 616.198 269.332 616.094C269.068 615.99 268.712 615.878 268.264 615.758C267.712 615.614 267.268 615.47 266.932 615.326C266.604 615.182 266.32 614.958 266.08 614.654C265.848 614.342 265.732 613.926 265.732 613.406C265.732 612.95 265.848 612.546 266.08 612.194C266.312 611.842 266.636 611.57 267.052 611.378C267.476 611.186 267.96 611.09 268.504 611.09C269.288 611.09 269.928 611.286 270.424 611.678C270.928 612.07 271.212 612.59 271.276 613.238H270.076C270.036 612.918 269.868 612.638 269.572 612.398C269.276 612.15 268.884 612.026 268.396 612.026C267.94 612.026 267.568 612.146 267.28 612.386C266.992 612.618 266.848 612.946 266.848 613.37C266.848 613.674 266.932 613.922 267.1 614.114C267.276 614.306 267.488 614.454 267.736 614.558C267.992 614.654 268.348 614.766 268.804 614.894C269.356 615.046 269.8 615.198 270.136 615.35C270.472 615.494 270.76 615.722 271 616.035C271.24 616.338 271.36 616.754 271.36 617.282C271.36 617.69 271.252 618.074 271.036 618.434C270.82 618.794 270.5 619.086 270.076 619.31C269.652 619.534 269.152 619.647 268.576 619.647ZM273.531 611.918C273.323 611.918 273.147 611.846 273.003 611.702C272.859 611.558 272.787 611.382 272.787 611.174C272.787 610.966 272.859 610.79 273.003 610.646C273.147 610.502 273.323 610.43 273.531 610.43C273.731 610.43 273.899 610.502 274.035 610.646C274.179 610.79 274.251 610.966 274.251 611.174C274.251 611.382 274.179 611.558 274.035 611.702C273.899 611.846 273.731 611.918 273.531 611.918ZM274.059 612.986V619.562H272.967V612.986H274.059ZM278.632 612.878C279.2 612.878 279.696 613.002 280.12 613.25C280.552 613.498 280.872 613.81 281.08 614.186V612.986H282.184V619.707C282.184 620.307 282.056 620.839 281.8 621.303C281.544 621.775 281.176 622.143 280.696 622.407C280.224 622.671 279.672 622.803 279.04 622.803C278.176 622.803 277.456 622.599 276.88 622.191C276.304 621.783 275.964 621.227 275.86 620.523H276.94C277.06 620.923 277.308 621.243 277.684 621.483C278.06 621.731 278.512 621.855 279.04 621.855C279.64 621.855 280.128 621.667 280.504 621.291C280.888 620.915 281.08 620.387 281.08 619.707V618.326C280.864 618.71 280.544 619.03 280.12 619.286C279.696 619.542 279.2 619.671 278.632 619.671C278.048 619.671 277.516 619.527 277.036 619.238C276.564 618.95 276.192 618.546 275.92 618.026C275.648 617.506 275.512 616.914 275.512 616.25C275.512 615.578 275.648 614.99 275.92 614.486C276.192 613.974 276.564 613.578 277.036 613.298C277.516 613.018 278.048 612.878 278.632 612.878ZM281.08 616.262C281.08 615.766 280.98 615.334 280.78 614.966C280.58 614.598 280.308 614.318 279.964 614.126C279.628 613.926 279.256 613.826 278.848 613.826C278.44 613.826 278.068 613.922 277.732 614.114C277.396 614.306 277.128 614.586 276.928 614.954C276.728 615.322 276.628 615.754 276.628 616.25C276.628 616.754 276.728 617.194 276.928 617.57C277.128 617.938 277.396 618.222 277.732 618.422C278.068 618.614 278.44 618.71 278.848 618.71C279.256 618.71 279.628 618.614 279.964 618.422C280.308 618.222 280.58 617.938 280.78 617.57C280.98 617.194 281.08 616.758 281.08 616.262ZM287.233 612.866C288.033 612.866 288.681 613.11 289.177 613.598C289.673 614.078 289.921 614.774 289.921 615.686V619.562H288.841V615.842C288.841 615.186 288.677 614.686 288.349 614.342C288.021 613.99 287.573 613.814 287.005 613.814C286.429 613.814 285.969 613.994 285.625 614.354C285.289 614.714 285.121 615.238 285.121 615.926V619.562H284.029V612.986H285.121V613.922C285.337 613.586 285.629 613.326 285.997 613.142C286.373 612.958 286.785 612.866 287.233 612.866ZM300.736 612.986V619.562H299.644V618.59C299.436 618.926 299.144 619.19 298.768 619.382C298.4 619.567 297.992 619.659 297.544 619.659C297.032 619.659 296.572 619.554 296.164 619.346C295.756 619.13 295.432 618.81 295.192 618.386C294.96 617.962 294.844 617.446 294.844 616.838V612.986H295.924V616.694C295.924 617.342 296.088 617.842 296.416 618.194C296.744 618.538 297.192 618.71 297.76 618.71C298.344 618.71 298.804 618.53 299.14 618.17C299.476 617.81 299.644 617.286 299.644 616.598V612.986H300.736ZM303.672 614.198C303.888 613.822 304.208 613.51 304.632 613.262C305.064 613.006 305.564 612.878 306.132 612.878C306.716 612.878 307.244 613.018 307.716 613.298C308.196 613.578 308.572 613.974 308.844 614.486C309.116 614.99 309.252 615.578 309.252 616.25C309.252 616.914 309.116 617.506 308.844 618.026C308.572 618.546 308.196 618.95 307.716 619.238C307.244 619.527 306.716 619.671 306.132 619.671C305.572 619.671 305.076 619.546 304.644 619.298C304.22 619.042 303.896 618.726 303.672 618.35V622.683H302.58V612.986H303.672V614.198ZM308.136 616.25C308.136 615.754 308.036 615.322 307.836 614.954C307.636 614.586 307.364 614.306 307.02 614.114C306.684 613.922 306.312 613.826 305.904 613.826C305.504 613.826 305.132 613.926 304.788 614.126C304.452 614.318 304.18 614.602 303.972 614.978C303.772 615.346 303.672 615.774 303.672 616.262C303.672 616.758 303.772 617.194 303.972 617.57C304.18 617.938 304.452 618.222 304.788 618.422C305.132 618.614 305.504 618.71 305.904 618.71C306.312 618.71 306.684 618.614 307.02 618.422C307.364 618.222 307.636 617.938 307.836 617.57C308.036 617.194 308.136 616.754 308.136 616.25Z" fill="#696B6E"/>
</svg>
