<svg width="402" height="874" viewBox="0 0 402 874" fill="none" xmlns="http://www.w3.org/2000/svg">
<rect width="402" height="874" rx="16" fill="white"/>
<path d="M21.376 113.336H29.728V116H18.064V100.16H21.376V113.336ZM37.4031 103.76C38.6191 103.76 39.6831 104.008 40.5951 104.504C41.5231 105 42.2431 105.712 42.7551 106.64C43.2831 107.568 43.5471 108.688 43.5471 110C43.5471 111.296 43.2831 112.416 42.7551 113.36C42.2431 114.288 41.5231 115 40.5951 115.496C39.6831 115.992 38.6191 116.24 37.4031 116.24C36.2031 116.24 35.1391 115.992 34.2111 115.496C33.2831 115 32.5551 114.288 32.0271 113.36C31.5151 112.416 31.2591 111.296 31.2591 110C31.2591 108.688 31.5151 107.568 32.0271 106.64C32.5551 105.712 33.2831 105 34.2111 104.504C35.1391 104.008 36.2031 103.76 37.4031 103.76ZM37.4031 106.208C36.7951 106.208 36.2751 106.352 35.8431 106.64C35.4271 106.912 35.1071 107.328 34.8831 107.888C34.6591 108.448 34.5471 109.152 34.5471 110C34.5471 110.848 34.6591 111.552 34.8831 112.112C35.1071 112.672 35.4271 113.096 35.8431 113.384C36.2751 113.656 36.7951 113.792 37.4031 113.792C37.9951 113.792 38.4991 113.656 38.9151 113.384C39.3471 113.096 39.6751 112.672 39.8991 112.112C40.1231 111.552 40.2351 110.848 40.2351 110C40.2351 109.152 40.1231 108.448 39.8991 107.888C39.6751 107.328 39.3471 106.912 38.9151 106.64C38.4991 106.352 37.9951 106.208 37.4031 106.208ZM46.2983 116V104H49.1543L49.3703 106.352C49.6903 105.52 50.1543 104.88 50.7623 104.432C51.3863 103.984 52.1623 103.76 53.0903 103.76C53.3623 103.76 53.6103 103.784 53.8343 103.832C54.0583 103.88 54.2423 103.944 54.3863 104.024L54.0023 106.784C53.8423 106.72 53.6423 106.672 53.4023 106.64C53.1783 106.608 52.8823 106.592 52.5143 106.592C52.0343 106.592 51.5703 106.712 51.1223 106.952C50.6743 107.176 50.3063 107.528 50.0183 108.008C49.7303 108.472 49.5863 109.064 49.5863 109.784V116H46.2983ZM61.7569 116.24C60.4929 116.24 59.3889 115.992 58.4449 115.496C57.5169 115 56.7969 114.288 56.2849 113.36C55.7729 112.432 55.5169 111.312 55.5169 110C55.5169 108.688 55.7729 107.568 56.2849 106.64C56.7969 105.712 57.5089 105 58.4209 104.504C59.3489 104.008 60.4049 103.76 61.5889 103.76C62.8049 103.76 63.8369 104.008 64.6849 104.504C65.5329 104.984 66.1809 105.648 66.6289 106.496C67.0769 107.328 67.3009 108.28 67.3009 109.352C67.3009 109.672 67.2929 109.976 67.2769 110.264C67.2609 110.552 67.2369 110.808 67.2049 111.032H57.6289V108.752H65.7649L64.1809 109.328C64.1809 108.32 63.9489 107.544 63.4849 107C63.0369 106.456 62.3969 106.184 61.5649 106.184C60.9569 106.184 60.4289 106.328 59.9809 106.616C59.5489 106.904 59.2209 107.336 58.9969 107.912C58.7729 108.472 58.6609 109.184 58.6609 110.048C58.6609 110.896 58.7809 111.6 59.0209 112.16C59.2769 112.704 59.6289 113.112 60.0769 113.384C60.5409 113.656 61.0929 113.792 61.7329 113.792C62.4369 113.792 63.0049 113.656 63.4369 113.384C63.8689 113.112 64.2049 112.736 64.4449 112.256L67.0609 113.264C66.8049 113.888 66.4129 114.424 65.8849 114.872C65.3729 115.32 64.7569 115.664 64.0369 115.904C63.3329 116.128 62.5729 116.24 61.7569 116.24ZM70.0874 116V104H73.0394L73.1594 106.16C73.5594 105.36 74.1034 104.76 74.7914 104.36C75.4954 103.96 76.2714 103.76 77.1194 103.76C77.9834 103.76 78.7594 103.96 79.4474 104.36C80.1514 104.76 80.6794 105.352 81.0314 106.136C81.2874 105.608 81.6314 105.168 82.0634 104.816C82.4954 104.464 82.9754 104.2 83.5034 104.024C84.0314 103.848 84.5674 103.76 85.1114 103.76C85.8954 103.76 86.6074 103.92 87.2474 104.24C87.9034 104.56 88.4234 105.04 88.8074 105.68C89.1914 106.32 89.3834 107.136 89.3834 108.128V116H86.0954V108.776C86.0954 107.896 85.9034 107.272 85.5194 106.904C85.1354 106.536 84.6394 106.352 84.0314 106.352C83.5514 106.352 83.1034 106.472 82.6874 106.712C82.2874 106.952 81.9674 107.312 81.7274 107.792C81.5034 108.256 81.3914 108.84 81.3914 109.544V116H78.1034V108.776C78.1034 107.896 77.9034 107.272 77.5034 106.904C77.1194 106.536 76.6234 106.352 76.0154 106.352C75.5994 106.352 75.1834 106.464 74.7674 106.688C74.3674 106.912 74.0314 107.264 73.7594 107.744C73.5034 108.224 73.3754 108.856 73.3754 109.64V116H70.0874ZM101.767 102.272C101.079 102.272 100.567 102.128 100.231 101.84C99.8948 101.536 99.7268 101.096 99.7268 100.52C99.7268 99.928 99.8948 99.488 100.231 99.2C100.567 98.896 101.079 98.744 101.767 98.744C102.455 98.744 102.967 98.896 103.303 99.2C103.639 99.488 103.807 99.928 103.807 100.52C103.807 101.096 103.639 101.536 103.303 101.84C102.967 102.128 102.455 102.272 101.767 102.272ZM103.399 104V116H100.111V104H103.399ZM106.884 121.04V104H109.836L110.052 107.816L109.644 107.384C109.788 106.68 110.052 106.056 110.436 105.512C110.836 104.968 111.34 104.544 111.948 104.24C112.556 103.92 113.236 103.76 113.988 103.76C114.964 103.76 115.836 104.008 116.604 104.504C117.372 105 117.972 105.712 118.404 106.64C118.852 107.552 119.076 108.664 119.076 109.976C119.076 111.288 118.852 112.416 118.404 113.36C117.956 114.288 117.34 115 116.556 115.496C115.788 115.992 114.908 116.24 113.916 116.24C112.86 116.24 111.98 115.944 111.276 115.352C110.588 114.76 110.116 114.016 109.86 113.12L110.172 112.616V121.04H106.884ZM112.956 113.72C113.836 113.72 114.524 113.408 115.02 112.784C115.532 112.144 115.788 111.216 115.788 110C115.788 108.784 115.54 107.864 115.044 107.24C114.564 106.6 113.884 106.28 113.004 106.28C112.444 106.28 111.948 106.432 111.516 106.736C111.1 107.024 110.772 107.448 110.532 108.008C110.292 108.552 110.172 109.216 110.172 110C110.172 110.768 110.284 111.432 110.508 111.992C110.732 112.552 111.052 112.984 111.468 113.288C111.9 113.576 112.396 113.72 112.956 113.72ZM126.731 116.24C125.515 116.24 124.403 116.024 123.395 115.592C122.403 115.16 121.595 114.552 120.971 113.768L122.867 111.848C123.251 112.424 123.763 112.896 124.403 113.264C125.043 113.632 125.803 113.816 126.683 113.816C127.307 113.816 127.803 113.728 128.171 113.552C128.555 113.36 128.747 113.064 128.747 112.664C128.747 112.408 128.659 112.192 128.483 112.016C128.307 111.824 127.955 111.672 127.427 111.56L125.315 111.128C123.923 110.84 122.931 110.408 122.339 109.832C121.763 109.24 121.475 108.48 121.475 107.552C121.475 106.896 121.667 106.28 122.051 105.704C122.451 105.128 123.043 104.664 123.827 104.312C124.611 103.944 125.587 103.76 126.755 103.76C127.955 103.76 128.995 103.952 129.875 104.336C130.771 104.704 131.475 105.256 131.987 105.992L130.019 107.912C129.667 107.352 129.203 106.928 128.627 106.64C128.067 106.336 127.475 106.184 126.851 106.184C126.403 106.184 126.019 106.232 125.699 106.328C125.379 106.424 125.139 106.56 124.979 106.736C124.819 106.896 124.739 107.104 124.739 107.36C124.739 107.616 124.851 107.84 125.075 108.032C125.299 108.208 125.707 108.36 126.299 108.488L128.747 108.992C129.931 109.232 130.779 109.64 131.291 110.216C131.803 110.776 132.059 111.456 132.059 112.256C132.059 113.024 131.851 113.712 131.435 114.32C131.035 114.912 130.435 115.384 129.635 115.736C128.851 116.072 127.883 116.24 126.731 116.24ZM138.857 116.24C138.057 116.24 137.337 116.096 136.697 115.808C136.057 115.52 135.545 115.064 135.161 114.44C134.793 113.8 134.609 112.976 134.609 111.968V104H137.897V111.176C137.897 112.104 138.089 112.752 138.473 113.12C138.857 113.472 139.409 113.648 140.129 113.648C140.465 113.648 140.793 113.592 141.113 113.48C141.433 113.352 141.713 113.16 141.953 112.904C142.209 112.648 142.409 112.32 142.553 111.92C142.697 111.504 142.769 111.016 142.769 110.456V104H146.057V116H143.129L143.009 113.912C142.609 114.712 142.057 115.304 141.353 115.688C140.665 116.056 139.833 116.24 138.857 116.24ZM149.517 116V104H152.469L152.589 106.16C152.989 105.36 153.533 104.76 154.221 104.36C154.925 103.96 155.701 103.76 156.549 103.76C157.413 103.76 158.189 103.96 158.877 104.36C159.581 104.76 160.109 105.352 160.461 106.136C160.717 105.608 161.061 105.168 161.493 104.816C161.925 104.464 162.405 104.2 162.933 104.024C163.461 103.848 163.997 103.76 164.541 103.76C165.325 103.76 166.037 103.92 166.677 104.24C167.333 104.56 167.853 105.04 168.237 105.68C168.621 106.32 168.813 107.136 168.813 108.128V116H165.525V108.776C165.525 107.896 165.333 107.272 164.949 106.904C164.565 106.536 164.069 106.352 163.461 106.352C162.981 106.352 162.533 106.472 162.117 106.712C161.717 106.952 161.397 107.312 161.157 107.792C160.933 108.256 160.821 108.84 160.821 109.544V116H157.533V108.776C157.533 107.896 157.333 107.272 156.933 106.904C156.549 106.536 156.053 106.352 155.445 106.352C155.029 106.352 154.613 106.464 154.197 106.688C153.797 106.912 153.461 107.264 153.189 107.744C152.933 108.224 152.805 108.856 152.805 109.64V116H149.517ZM184.077 116.24C183.085 116.24 182.197 115.992 181.413 115.496C180.645 115 180.037 114.288 179.589 113.36C179.157 112.432 178.941 111.32 178.941 110.024C178.941 108.696 179.173 107.568 179.637 106.64C180.101 105.696 180.725 104.984 181.509 104.504C182.309 104.008 183.205 103.76 184.197 103.76C185.253 103.76 186.125 104.064 186.813 104.672C187.501 105.28 187.949 106.064 188.157 107.024L187.845 107.408V98.744H191.133V116H188.181L187.965 112.352L188.373 112.544C188.261 113.296 188.005 113.952 187.605 114.512C187.205 115.056 186.701 115.48 186.093 115.784C185.485 116.088 184.813 116.24 184.077 116.24ZM185.037 113.72C185.613 113.72 186.109 113.576 186.525 113.288C186.941 112.984 187.261 112.544 187.485 111.968C187.725 111.392 187.845 110.704 187.845 109.904C187.845 109.136 187.733 108.488 187.509 107.96C187.285 107.416 186.965 107 186.549 106.712C186.133 106.424 185.645 106.28 185.085 106.28C184.189 106.28 183.485 106.6 182.973 107.24C182.477 107.864 182.229 108.784 182.229 110C182.229 111.216 182.477 112.144 182.973 112.784C183.469 113.408 184.157 113.72 185.037 113.72ZM200.059 103.76C201.275 103.76 202.339 104.008 203.251 104.504C204.179 105 204.899 105.712 205.411 106.64C205.939 107.568 206.203 108.688 206.203 110C206.203 111.296 205.939 112.416 205.411 113.36C204.899 114.288 204.179 115 203.251 115.496C202.339 115.992 201.275 116.24 200.059 116.24C198.859 116.24 197.795 115.992 196.867 115.496C195.939 115 195.211 114.288 194.683 113.36C194.171 112.416 193.915 111.296 193.915 110C193.915 108.688 194.171 107.568 194.683 106.64C195.211 105.712 195.939 105 196.867 104.504C197.795 104.008 198.859 103.76 200.059 103.76ZM200.059 106.208C199.451 106.208 198.931 106.352 198.499 106.64C198.083 106.912 197.763 107.328 197.539 107.888C197.315 108.448 197.203 109.152 197.203 110C197.203 110.848 197.315 111.552 197.539 112.112C197.763 112.672 198.083 113.096 198.499 113.384C198.931 113.656 199.451 113.792 200.059 113.792C200.651 113.792 201.155 113.656 201.571 113.384C202.003 113.096 202.331 112.672 202.555 112.112C202.779 111.552 202.891 110.848 202.891 110C202.891 109.152 202.779 108.448 202.555 107.888C202.331 107.328 202.003 106.912 201.571 106.64C201.155 106.352 200.651 106.208 200.059 106.208ZM212.195 98.744V112.304C212.195 112.864 212.291 113.256 212.483 113.48C212.675 113.704 212.995 113.816 213.443 113.816C213.715 113.816 213.939 113.8 214.115 113.768C214.291 113.72 214.515 113.656 214.787 113.576L214.499 115.736C214.227 115.896 213.883 116.016 213.467 116.096C213.067 116.192 212.667 116.24 212.267 116.24C211.099 116.24 210.243 115.96 209.699 115.4C209.171 114.824 208.907 113.912 208.907 112.664V98.744H212.195ZM222.091 103.76C223.307 103.76 224.371 104.008 225.283 104.504C226.211 105 226.931 105.712 227.443 106.64C227.971 107.568 228.235 108.688 228.235 110C228.235 111.296 227.971 112.416 227.443 113.36C226.931 114.288 226.211 115 225.283 115.496C224.371 115.992 223.307 116.24 222.091 116.24C220.891 116.24 219.827 115.992 218.899 115.496C217.971 115 217.243 114.288 216.715 113.36C216.203 112.416 215.947 111.296 215.947 110C215.947 108.688 216.203 107.568 216.715 106.64C217.243 105.712 217.971 105 218.899 104.504C219.827 104.008 220.891 103.76 222.091 103.76ZM222.091 106.208C221.483 106.208 220.963 106.352 220.531 106.64C220.115 106.912 219.795 107.328 219.571 107.888C219.347 108.448 219.235 109.152 219.235 110C219.235 110.848 219.347 111.552 219.571 112.112C219.795 112.672 220.115 113.096 220.531 113.384C220.963 113.656 221.483 113.792 222.091 113.792C222.683 113.792 223.187 113.656 223.603 113.384C224.035 113.096 224.363 112.672 224.587 112.112C224.811 111.552 224.923 110.848 224.923 110C224.923 109.152 224.811 108.448 224.587 107.888C224.363 107.328 224.035 106.912 223.603 106.64C223.187 106.352 222.683 106.208 222.091 106.208ZM230.986 116V104H233.842L234.058 106.352C234.378 105.52 234.842 104.88 235.45 104.432C236.074 103.984 236.85 103.76 237.778 103.76C238.05 103.76 238.298 103.784 238.522 103.832C238.746 103.88 238.93 103.944 239.074 104.024L238.69 106.784C238.53 106.72 238.33 106.672 238.09 106.64C237.866 106.608 237.57 106.592 237.202 106.592C236.722 106.592 236.258 106.712 235.81 106.952C235.362 107.176 234.994 107.528 234.706 108.008C234.418 108.472 234.274 109.064 234.274 109.784V116H230.986ZM252.801 116.24C251.585 116.24 250.473 116.024 249.465 115.592C248.473 115.16 247.665 114.552 247.041 113.768L248.937 111.848C249.321 112.424 249.833 112.896 250.473 113.264C251.113 113.632 251.873 113.816 252.753 113.816C253.377 113.816 253.873 113.728 254.241 113.552C254.625 113.36 254.817 113.064 254.817 112.664C254.817 112.408 254.729 112.192 254.553 112.016C254.377 111.824 254.025 111.672 253.497 111.56L251.385 111.128C249.993 110.84 249.001 110.408 248.409 109.832C247.833 109.24 247.545 108.48 247.545 107.552C247.545 106.896 247.737 106.28 248.121 105.704C248.521 105.128 249.113 104.664 249.897 104.312C250.681 103.944 251.657 103.76 252.825 103.76C254.025 103.76 255.065 103.952 255.945 104.336C256.841 104.704 257.545 105.256 258.057 105.992L256.089 107.912C255.737 107.352 255.273 106.928 254.697 106.64C254.137 106.336 253.545 106.184 252.921 106.184C252.473 106.184 252.089 106.232 251.769 106.328C251.449 106.424 251.209 106.56 251.049 106.736C250.889 106.896 250.809 107.104 250.809 107.36C250.809 107.616 250.921 107.84 251.145 108.032C251.369 108.208 251.777 108.36 252.369 108.488L254.817 108.992C256.001 109.232 256.849 109.64 257.361 110.216C257.873 110.776 258.129 111.456 258.129 112.256C258.129 113.024 257.921 113.712 257.505 114.32C257.105 114.912 256.505 115.384 255.705 115.736C254.921 116.072 253.953 116.24 252.801 116.24ZM262.407 102.272C261.719 102.272 261.207 102.128 260.871 101.84C260.535 101.536 260.367 101.096 260.367 100.52C260.367 99.928 260.535 99.488 260.871 99.2C261.207 98.896 261.719 98.744 262.407 98.744C263.095 98.744 263.607 98.896 263.943 99.2C264.279 99.488 264.447 99.928 264.447 100.52C264.447 101.096 264.279 101.536 263.943 101.84C263.607 102.128 263.095 102.272 262.407 102.272ZM264.039 104V116H260.751V104H264.039ZM271.773 100.328V112.088C271.773 112.664 271.917 113.088 272.205 113.36C272.509 113.616 272.917 113.744 273.429 113.744C273.829 113.744 274.181 113.688 274.485 113.576C274.789 113.448 275.061 113.28 275.301 113.072L275.829 115.256C275.445 115.56 274.965 115.8 274.389 115.976C273.813 116.152 273.205 116.24 272.565 116.24C271.765 116.24 271.053 116.12 270.429 115.88C269.821 115.64 269.341 115.256 268.989 114.728C268.653 114.2 268.485 113.496 268.485 112.616V101.24L271.773 100.328ZM275.613 104V106.448H266.277V104H275.613ZM292.013 108.344C292.013 107.656 291.813 107.12 291.413 106.736C291.029 106.352 290.517 106.16 289.877 106.16C289.285 106.16 288.765 106.312 288.317 106.616C287.869 106.92 287.541 107.424 287.333 108.128L284.525 107.264C284.797 106.208 285.389 105.36 286.301 104.72C287.229 104.08 288.469 103.76 290.021 103.76C291.077 103.76 291.997 103.928 292.781 104.264C293.565 104.584 294.173 105.072 294.605 105.728C295.053 106.384 295.277 107.208 295.277 108.2V113.072C295.277 113.68 295.565 113.984 296.141 113.984C296.413 113.984 296.669 113.944 296.909 113.864L296.717 115.904C296.301 116.112 295.781 116.216 295.157 116.216C294.597 116.216 294.093 116.12 293.645 115.928C293.197 115.736 292.845 115.448 292.589 115.064C292.333 114.664 292.205 114.168 292.205 113.576V113.48L292.781 113.384C292.685 113.992 292.421 114.512 291.989 114.944C291.557 115.36 291.029 115.68 290.405 115.904C289.797 116.128 289.165 116.24 288.509 116.24C287.693 116.24 286.989 116.12 286.397 115.88C285.805 115.624 285.349 115.256 285.029 114.776C284.709 114.296 284.549 113.704 284.549 113C284.549 112.104 284.837 111.376 285.413 110.816C285.989 110.24 286.813 109.848 287.885 109.64L292.397 108.728L292.373 110.768L289.493 111.344C288.949 111.456 288.533 111.608 288.245 111.8C287.973 111.976 287.837 112.272 287.837 112.688C287.837 113.088 287.981 113.392 288.269 113.6C288.573 113.808 288.933 113.912 289.349 113.912C289.685 113.912 290.013 113.872 290.333 113.792C290.653 113.712 290.941 113.584 291.197 113.408C291.453 113.232 291.653 112.992 291.797 112.688C291.941 112.384 292.013 112.016 292.013 111.584V108.344ZM298.955 116V104H301.907L302.027 106.16C302.427 105.36 302.971 104.76 303.659 104.36C304.363 103.96 305.139 103.76 305.987 103.76C306.851 103.76 307.627 103.96 308.315 104.36C309.019 104.76 309.547 105.352 309.899 106.136C310.155 105.608 310.499 105.168 310.931 104.816C311.363 104.464 311.843 104.2 312.371 104.024C312.899 103.848 313.435 103.76 313.979 103.76C314.763 103.76 315.475 103.92 316.115 104.24C316.771 104.56 317.291 105.04 317.675 105.68C318.059 106.32 318.251 107.136 318.251 108.128V116H314.963V108.776C314.963 107.896 314.771 107.272 314.387 106.904C314.003 106.536 313.507 106.352 312.899 106.352C312.419 106.352 311.971 106.472 311.555 106.712C311.155 106.952 310.835 107.312 310.595 107.792C310.371 108.256 310.259 108.84 310.259 109.544V116H306.971V108.776C306.971 107.896 306.771 107.272 306.371 106.904C305.987 106.536 305.491 106.352 304.883 106.352C304.467 106.352 304.051 106.464 303.635 106.688C303.235 106.912 302.899 107.264 302.627 107.744C302.371 108.224 302.243 108.856 302.243 109.64V116H298.955ZM327.21 116.24C325.946 116.24 324.842 115.992 323.898 115.496C322.97 115 322.25 114.288 321.738 113.36C321.226 112.432 320.97 111.312 320.97 110C320.97 108.688 321.226 107.568 321.738 106.64C322.25 105.712 322.962 105 323.874 104.504C324.802 104.008 325.858 103.76 327.042 103.76C328.258 103.76 329.29 104.008 330.138 104.504C330.986 104.984 331.634 105.648 332.082 106.496C332.53 107.328 332.754 108.28 332.754 109.352C332.754 109.672 332.746 109.976 332.73 110.264C332.714 110.552 332.69 110.808 332.658 111.032H323.082V108.752H331.218L329.634 109.328C329.634 108.32 329.402 107.544 328.938 107C328.49 106.456 327.85 106.184 327.018 106.184C326.41 106.184 325.882 106.328 325.434 106.616C325.002 106.904 324.674 107.336 324.45 107.912C324.226 108.472 324.114 109.184 324.114 110.048C324.114 110.896 324.234 111.6 324.474 112.16C324.73 112.704 325.082 113.112 325.53 113.384C325.994 113.656 326.546 113.792 327.186 113.792C327.89 113.792 328.458 113.656 328.89 113.384C329.322 113.112 329.658 112.736 329.898 112.256L332.514 113.264C332.258 113.888 331.866 114.424 331.338 114.872C330.826 115.32 330.21 115.664 329.49 115.904C328.786 116.128 328.026 116.24 327.21 116.24ZM339.578 100.328V112.088C339.578 112.664 339.722 113.088 340.01 113.36C340.314 113.616 340.722 113.744 341.234 113.744C341.634 113.744 341.986 113.688 342.29 113.576C342.594 113.448 342.866 113.28 343.106 113.072L343.634 115.256C343.25 115.56 342.77 115.8 342.194 115.976C341.618 116.152 341.01 116.24 340.37 116.24C339.57 116.24 338.858 116.12 338.234 115.88C337.626 115.64 337.146 115.256 336.794 114.728C336.458 114.2 336.29 113.496 336.29 112.616V101.24L339.578 100.328ZM343.418 104V106.448H334.082V104H343.418ZM347.344 112.328C347.856 112.328 348.28 112.456 348.616 112.712C348.952 112.952 349.208 113.28 349.384 113.696C349.56 114.096 349.648 114.544 349.648 115.04C349.648 115.696 349.512 116.328 349.24 116.936C348.984 117.544 348.624 118.088 348.16 118.568C347.696 119.048 347.168 119.424 346.576 119.696L345.16 118.568C345.592 118.392 345.984 118.176 346.336 117.92C346.704 117.664 347.016 117.376 347.272 117.056C347.528 116.736 347.712 116.408 347.824 116.072L347.704 116C347.624 116.048 347.528 116.088 347.416 116.12C347.304 116.168 347.144 116.192 346.936 116.192C346.68 116.192 346.424 116.128 346.168 116C345.912 115.856 345.696 115.656 345.52 115.4C345.344 115.128 345.256 114.792 345.256 114.392C345.256 113.96 345.352 113.592 345.544 113.288C345.736 112.984 345.992 112.752 346.312 112.592C346.632 112.416 346.976 112.328 347.344 112.328ZM23.176 127.76C24.248 127.76 25.152 127.92 25.888 128.24C26.64 128.544 27.24 128.968 27.688 129.512C28.152 130.04 28.48 130.632 28.672 131.288L25.6 132.392C25.44 131.672 25.168 131.128 24.784 130.76C24.4 130.392 23.88 130.208 23.224 130.208C22.616 130.208 22.096 130.352 21.664 130.64C21.232 130.912 20.904 131.336 20.68 131.912C20.456 132.472 20.344 133.176 20.344 134.024C20.344 134.872 20.456 135.576 20.68 136.136C20.92 136.696 21.256 137.112 21.688 137.384C22.136 137.656 22.656 137.792 23.248 137.792C23.728 137.792 24.136 137.712 24.472 137.552C24.808 137.376 25.08 137.128 25.288 136.808C25.512 136.488 25.664 136.104 25.744 135.656L28.72 136.616C28.544 137.336 28.216 137.968 27.736 138.512C27.256 139.056 26.64 139.48 25.888 139.784C25.136 140.088 24.264 140.24 23.272 140.24C22.04 140.24 20.952 139.992 20.008 139.496C19.064 139 18.336 138.288 17.824 137.36C17.312 136.432 17.056 135.312 17.056 134C17.056 132.688 17.312 131.568 17.824 130.64C18.336 129.712 19.056 129 19.984 128.504C20.912 128.008 21.976 127.76 23.176 127.76ZM36.7469 127.76C37.9629 127.76 39.0269 128.008 39.9389 128.504C40.8669 129 41.5869 129.712 42.0989 130.64C42.6269 131.568 42.8909 132.688 42.8909 134C42.8909 135.296 42.6269 136.416 42.0989 137.36C41.5869 138.288 40.8669 139 39.9389 139.496C39.0269 139.992 37.9629 140.24 36.7469 140.24C35.5469 140.24 34.4829 139.992 33.5549 139.496C32.6269 139 31.8989 138.288 31.3709 137.36C30.8589 136.416 30.6029 135.296 30.6029 134C30.6029 132.688 30.8589 131.568 31.3709 130.64C31.8989 129.712 32.6269 129 33.5549 128.504C34.4829 128.008 35.5469 127.76 36.7469 127.76ZM36.7469 130.208C36.1389 130.208 35.6189 130.352 35.1869 130.64C34.7709 130.912 34.4509 131.328 34.2269 131.888C34.0029 132.448 33.8909 133.152 33.8909 134C33.8909 134.848 34.0029 135.552 34.2269 136.112C34.4509 136.672 34.7709 137.096 35.1869 137.384C35.6189 137.656 36.1389 137.792 36.7469 137.792C37.3389 137.792 37.8429 137.656 38.2589 137.384C38.6909 137.096 39.0189 136.672 39.2429 136.112C39.4669 135.552 39.5789 134.848 39.5789 134C39.5789 133.152 39.4669 132.448 39.2429 131.888C39.0189 131.328 38.6909 130.912 38.2589 130.64C37.8429 130.352 37.3389 130.208 36.7469 130.208ZM45.6421 140V128H48.5941L48.7861 131.6L48.3781 131.216C48.5701 130.432 48.8741 129.784 49.2901 129.272C49.7061 128.76 50.2101 128.384 50.8021 128.144C51.4101 127.888 52.0741 127.76 52.7941 127.76C53.6261 127.76 54.3621 127.92 55.0021 128.24C55.6581 128.56 56.1701 129.048 56.5381 129.704C56.9221 130.344 57.1141 131.152 57.1141 132.128V140H53.8261V133.064C53.8261 132.04 53.6261 131.336 53.2261 130.952C52.8261 130.552 52.3061 130.352 51.6661 130.352C51.2181 130.352 50.7781 130.464 50.3461 130.688C49.9301 130.896 49.5861 131.24 49.3141 131.72C49.0581 132.2 48.9301 132.84 48.9301 133.64V140H45.6421ZM65.3014 140.24C64.0854 140.24 62.9734 140.024 61.9654 139.592C60.9734 139.16 60.1654 138.552 59.5414 137.768L61.4374 135.848C61.8214 136.424 62.3334 136.896 62.9734 137.264C63.6134 137.632 64.3734 137.816 65.2534 137.816C65.8774 137.816 66.3734 137.728 66.7414 137.552C67.1254 137.36 67.3174 137.064 67.3174 136.664C67.3174 136.408 67.2294 136.192 67.0534 136.016C66.8774 135.824 66.5254 135.672 65.9974 135.56L63.8854 135.128C62.4934 134.84 61.5014 134.408 60.9094 133.832C60.3334 133.24 60.0454 132.48 60.0454 131.552C60.0454 130.896 60.2374 130.28 60.6214 129.704C61.0214 129.128 61.6134 128.664 62.3974 128.312C63.1814 127.944 64.1574 127.76 65.3254 127.76C66.5254 127.76 67.5654 127.952 68.4454 128.336C69.3414 128.704 70.0454 129.256 70.5574 129.992L68.5894 131.912C68.2374 131.352 67.7734 130.928 67.1974 130.64C66.6374 130.336 66.0454 130.184 65.4214 130.184C64.9734 130.184 64.5894 130.232 64.2694 130.328C63.9494 130.424 63.7094 130.56 63.5494 130.736C63.3894 130.896 63.3094 131.104 63.3094 131.36C63.3094 131.616 63.4214 131.84 63.6454 132.032C63.8694 132.208 64.2774 132.36 64.8694 132.488L67.3174 132.992C68.5014 133.232 69.3494 133.64 69.8614 134.216C70.3734 134.776 70.6294 135.456 70.6294 136.256C70.6294 137.024 70.4214 137.712 70.0054 138.32C69.6054 138.912 69.0054 139.384 68.2054 139.736C67.4214 140.072 66.4534 140.24 65.3014 140.24ZM78.7726 140.24C77.5086 140.24 76.4046 139.992 75.4606 139.496C74.5326 139 73.8126 138.288 73.3006 137.36C72.7886 136.432 72.5326 135.312 72.5326 134C72.5326 132.688 72.7886 131.568 73.3006 130.64C73.8126 129.712 74.5246 129 75.4366 128.504C76.3646 128.008 77.4206 127.76 78.6046 127.76C79.8206 127.76 80.8526 128.008 81.7006 128.504C82.5486 128.984 83.1966 129.648 83.6446 130.496C84.0926 131.328 84.3166 132.28 84.3166 133.352C84.3166 133.672 84.3086 133.976 84.2926 134.264C84.2766 134.552 84.2526 134.808 84.2206 135.032H74.6446V132.752H82.7806L81.1966 133.328C81.1966 132.32 80.9646 131.544 80.5006 131C80.0526 130.456 79.4126 130.184 78.5806 130.184C77.9726 130.184 77.4446 130.328 76.9966 130.616C76.5646 130.904 76.2366 131.336 76.0126 131.912C75.7886 132.472 75.6766 133.184 75.6766 134.048C75.6766 134.896 75.7966 135.6 76.0366 136.16C76.2926 136.704 76.6446 137.112 77.0926 137.384C77.5566 137.656 78.1086 137.792 78.7486 137.792C79.4526 137.792 80.0206 137.656 80.4526 137.384C80.8846 137.112 81.2206 136.736 81.4606 136.256L84.0766 137.264C83.8206 137.888 83.4286 138.424 82.9006 138.872C82.3886 139.32 81.7726 139.664 81.0526 139.904C80.3486 140.128 79.5886 140.24 78.7726 140.24ZM92.551 127.76C93.623 127.76 94.527 127.92 95.263 128.24C96.015 128.544 96.615 128.968 97.063 129.512C97.527 130.04 97.855 130.632 98.047 131.288L94.975 132.392C94.815 131.672 94.543 131.128 94.159 130.76C93.775 130.392 93.255 130.208 92.599 130.208C91.991 130.208 91.471 130.352 91.039 130.64C90.607 130.912 90.279 131.336 90.055 131.912C89.831 132.472 89.719 133.176 89.719 134.024C89.719 134.872 89.831 135.576 90.055 136.136C90.295 136.696 90.631 137.112 91.063 137.384C91.511 137.656 92.031 137.792 92.623 137.792C93.103 137.792 93.511 137.712 93.847 137.552C94.183 137.376 94.455 137.128 94.663 136.808C94.887 136.488 95.039 136.104 95.119 135.656L98.095 136.616C97.919 137.336 97.591 137.968 97.111 138.512C96.631 139.056 96.015 139.48 95.263 139.784C94.511 140.088 93.639 140.24 92.647 140.24C91.415 140.24 90.327 139.992 89.383 139.496C88.439 139 87.711 138.288 87.199 137.36C86.687 136.432 86.431 135.312 86.431 134C86.431 132.688 86.687 131.568 87.199 130.64C87.711 129.712 88.431 129 89.359 128.504C90.287 128.008 91.351 127.76 92.551 127.76ZM104.898 124.328V136.088C104.898 136.664 105.042 137.088 105.33 137.36C105.634 137.616 106.042 137.744 106.554 137.744C106.954 137.744 107.306 137.688 107.61 137.576C107.914 137.448 108.186 137.28 108.426 137.072L108.954 139.256C108.57 139.56 108.09 139.8 107.514 139.976C106.938 140.152 106.33 140.24 105.69 140.24C104.89 140.24 104.178 140.12 103.554 139.88C102.946 139.64 102.466 139.256 102.114 138.728C101.778 138.2 101.61 137.496 101.61 136.616V125.24L104.898 124.328ZM108.738 128V130.448H99.4019V128H108.738ZM116.53 140.24C115.266 140.24 114.162 139.992 113.218 139.496C112.29 139 111.57 138.288 111.058 137.36C110.546 136.432 110.29 135.312 110.29 134C110.29 132.688 110.546 131.568 111.058 130.64C111.57 129.712 112.282 129 113.194 128.504C114.122 128.008 115.178 127.76 116.362 127.76C117.578 127.76 118.61 128.008 119.458 128.504C120.306 128.984 120.954 129.648 121.402 130.496C121.85 131.328 122.074 132.28 122.074 133.352C122.074 133.672 122.066 133.976 122.05 134.264C122.034 134.552 122.01 134.808 121.978 135.032H112.402V132.752H120.538L118.954 133.328C118.954 132.32 118.722 131.544 118.258 131C117.81 130.456 117.17 130.184 116.338 130.184C115.73 130.184 115.202 130.328 114.754 130.616C114.322 130.904 113.994 131.336 113.77 131.912C113.546 132.472 113.434 133.184 113.434 134.048C113.434 134.896 113.554 135.6 113.794 136.16C114.05 136.704 114.402 137.112 114.85 137.384C115.314 137.656 115.866 137.792 116.506 137.792C117.21 137.792 117.778 137.656 118.21 137.384C118.642 137.112 118.978 136.736 119.218 136.256L121.834 137.264C121.578 137.888 121.186 138.424 120.658 138.872C120.146 139.32 119.53 139.664 118.81 139.904C118.106 140.128 117.346 140.24 116.53 140.24ZM128.898 124.328V136.088C128.898 136.664 129.042 137.088 129.33 137.36C129.634 137.616 130.042 137.744 130.554 137.744C130.954 137.744 131.306 137.688 131.61 137.576C131.914 137.448 132.186 137.28 132.426 137.072L132.954 139.256C132.57 139.56 132.09 139.8 131.514 139.976C130.938 140.152 130.33 140.24 129.69 140.24C128.89 140.24 128.178 140.12 127.554 139.88C126.946 139.64 126.466 139.256 126.114 138.728C125.778 138.2 125.61 137.496 125.61 136.616V125.24L128.898 124.328ZM132.738 128V130.448H123.402V128H132.738ZM139.138 140.24C138.338 140.24 137.618 140.096 136.978 139.808C136.338 139.52 135.826 139.064 135.442 138.44C135.074 137.8 134.89 136.976 134.89 135.968V128H138.178V135.176C138.178 136.104 138.37 136.752 138.754 137.12C139.138 137.472 139.69 137.648 140.41 137.648C140.746 137.648 141.074 137.592 141.394 137.48C141.714 137.352 141.994 137.16 142.234 136.904C142.49 136.648 142.69 136.32 142.834 135.92C142.978 135.504 143.05 135.016 143.05 134.456V128H146.338V140H143.41L143.29 137.912C142.89 138.712 142.338 139.304 141.634 139.688C140.946 140.056 140.114 140.24 139.138 140.24ZM149.798 140V128H152.654L152.87 130.352C153.19 129.52 153.654 128.88 154.262 128.432C154.886 127.984 155.662 127.76 156.59 127.76C156.862 127.76 157.11 127.784 157.334 127.832C157.558 127.88 157.742 127.944 157.886 128.024L157.502 130.784C157.342 130.72 157.142 130.672 156.902 130.64C156.678 130.608 156.382 130.592 156.014 130.592C155.534 130.592 155.07 130.712 154.622 130.952C154.174 131.176 153.806 131.528 153.518 132.008C153.23 132.472 153.086 133.064 153.086 133.784V140H149.798ZM173.654 132.344C173.654 131.656 173.454 131.12 173.054 130.736C172.67 130.352 172.158 130.16 171.518 130.16C170.926 130.16 170.406 130.312 169.958 130.616C169.51 130.92 169.182 131.424 168.974 132.128L166.166 131.264C166.438 130.208 167.03 129.36 167.942 128.72C168.87 128.08 170.11 127.76 171.662 127.76C172.718 127.76 173.638 127.928 174.422 128.264C175.206 128.584 175.814 129.072 176.246 129.728C176.694 130.384 176.918 131.208 176.918 132.2V137.072C176.918 137.68 177.206 137.984 177.782 137.984C178.054 137.984 178.31 137.944 178.55 137.864L178.358 139.904C177.942 140.112 177.422 140.216 176.798 140.216C176.238 140.216 175.734 140.12 175.286 139.928C174.838 139.736 174.486 139.448 174.23 139.064C173.974 138.664 173.846 138.168 173.846 137.576V137.48L174.422 137.384C174.326 137.992 174.062 138.512 173.63 138.944C173.198 139.36 172.67 139.68 172.046 139.904C171.438 140.128 170.806 140.24 170.15 140.24C169.334 140.24 168.63 140.12 168.038 139.88C167.446 139.624 166.99 139.256 166.67 138.776C166.35 138.296 166.19 137.704 166.19 137C166.19 136.104 166.478 135.376 167.054 134.816C167.63 134.24 168.454 133.848 169.526 133.64L174.038 132.728L174.014 134.768L171.134 135.344C170.59 135.456 170.174 135.608 169.886 135.8C169.614 135.976 169.478 136.272 169.478 136.688C169.478 137.088 169.622 137.392 169.91 137.6C170.214 137.808 170.574 137.912 170.99 137.912C171.326 137.912 171.654 137.872 171.974 137.792C172.294 137.712 172.582 137.584 172.838 137.408C173.094 137.232 173.294 136.992 173.438 136.688C173.582 136.384 173.654 136.016 173.654 135.584V132.344ZM185.084 140.24C184.092 140.24 183.204 139.992 182.42 139.496C181.652 139 181.044 138.288 180.596 137.36C180.164 136.432 179.948 135.32 179.948 134.024C179.948 132.696 180.18 131.568 180.644 130.64C181.108 129.696 181.732 128.984 182.516 128.504C183.316 128.008 184.212 127.76 185.204 127.76C186.26 127.76 187.132 128.064 187.82 128.672C188.508 129.28 188.956 130.064 189.164 131.024L188.852 131.408V122.744H192.14V140H189.188L188.972 136.352L189.38 136.544C189.268 137.296 189.012 137.952 188.612 138.512C188.212 139.056 187.708 139.48 187.1 139.784C186.492 140.088 185.82 140.24 185.084 140.24ZM186.044 137.72C186.62 137.72 187.116 137.576 187.532 137.288C187.948 136.984 188.268 136.544 188.492 135.968C188.732 135.392 188.852 134.704 188.852 133.904C188.852 133.136 188.74 132.488 188.516 131.96C188.292 131.416 187.972 131 187.556 130.712C187.14 130.424 186.652 130.28 186.092 130.28C185.196 130.28 184.492 130.6 183.98 131.24C183.484 131.864 183.236 132.784 183.236 134C183.236 135.216 183.484 136.144 183.98 136.784C184.476 137.408 185.164 137.72 186.044 137.72ZM197.251 126.272C196.563 126.272 196.051 126.128 195.715 125.84C195.379 125.536 195.211 125.096 195.211 124.52C195.211 123.928 195.379 123.488 195.715 123.2C196.051 122.896 196.563 122.744 197.251 122.744C197.939 122.744 198.451 122.896 198.787 123.2C199.123 123.488 199.291 123.928 199.291 124.52C199.291 125.096 199.123 125.536 198.787 125.84C198.451 126.128 197.939 126.272 197.251 126.272ZM198.883 128V140H195.595V128H198.883ZM202.369 145.04V128H205.321L205.537 131.816L205.129 131.384C205.273 130.68 205.537 130.056 205.921 129.512C206.321 128.968 206.825 128.544 207.433 128.24C208.041 127.92 208.721 127.76 209.473 127.76C210.449 127.76 211.321 128.008 212.089 128.504C212.857 129 213.457 129.712 213.889 130.64C214.337 131.552 214.561 132.664 214.561 133.976C214.561 135.288 214.337 136.416 213.889 137.36C213.441 138.288 212.825 139 212.041 139.496C211.273 139.992 210.393 140.24 209.401 140.24C208.345 140.24 207.465 139.944 206.761 139.352C206.073 138.76 205.601 138.016 205.345 137.12L205.657 136.616V145.04H202.369ZM208.441 137.72C209.321 137.72 210.009 137.408 210.505 136.784C211.017 136.144 211.273 135.216 211.273 134C211.273 132.784 211.025 131.864 210.529 131.24C210.049 130.6 209.369 130.28 208.489 130.28C207.929 130.28 207.433 130.432 207.001 130.736C206.585 131.024 206.257 131.448 206.017 132.008C205.777 132.552 205.657 133.216 205.657 134C205.657 134.768 205.769 135.432 205.993 135.992C206.217 136.552 206.537 136.984 206.953 137.288C207.385 137.576 207.881 137.72 208.441 137.72ZM219.072 126.272C218.384 126.272 217.872 126.128 217.536 125.84C217.2 125.536 217.032 125.096 217.032 124.52C217.032 123.928 217.2 123.488 217.536 123.2C217.872 122.896 218.384 122.744 219.072 122.744C219.76 122.744 220.272 122.896 220.608 123.2C220.944 123.488 221.112 123.928 221.112 124.52C221.112 125.096 220.944 125.536 220.608 125.84C220.272 126.128 219.76 126.272 219.072 126.272ZM220.704 128V140H217.416V128H220.704ZM228.989 140.24C227.773 140.24 226.661 140.024 225.653 139.592C224.661 139.16 223.853 138.552 223.229 137.768L225.125 135.848C225.509 136.424 226.021 136.896 226.661 137.264C227.301 137.632 228.061 137.816 228.941 137.816C229.565 137.816 230.061 137.728 230.429 137.552C230.813 137.36 231.005 137.064 231.005 136.664C231.005 136.408 230.917 136.192 230.741 136.016C230.565 135.824 230.213 135.672 229.685 135.56L227.573 135.128C226.181 134.84 225.189 134.408 224.597 133.832C224.021 133.24 223.733 132.48 223.733 131.552C223.733 130.896 223.925 130.28 224.309 129.704C224.709 129.128 225.301 128.664 226.085 128.312C226.869 127.944 227.845 127.76 229.013 127.76C230.213 127.76 231.253 127.952 232.133 128.336C233.029 128.704 233.733 129.256 234.245 129.992L232.277 131.912C231.925 131.352 231.461 130.928 230.885 130.64C230.325 130.336 229.733 130.184 229.109 130.184C228.661 130.184 228.277 130.232 227.957 130.328C227.637 130.424 227.397 130.56 227.237 130.736C227.077 130.896 226.997 131.104 226.997 131.36C226.997 131.616 227.109 131.84 227.333 132.032C227.557 132.208 227.965 132.36 228.557 132.488L231.005 132.992C232.189 133.232 233.037 133.64 233.549 134.216C234.061 134.776 234.317 135.456 234.317 136.256C234.317 137.024 234.109 137.712 233.693 138.32C233.293 138.912 232.693 139.384 231.893 139.736C231.109 140.072 230.141 140.24 228.989 140.24ZM242.34 127.76C243.412 127.76 244.316 127.92 245.052 128.24C245.804 128.544 246.404 128.968 246.852 129.512C247.316 130.04 247.644 130.632 247.836 131.288L244.764 132.392C244.604 131.672 244.332 131.128 243.948 130.76C243.564 130.392 243.044 130.208 242.388 130.208C241.78 130.208 241.26 130.352 240.828 130.64C240.396 130.912 240.068 131.336 239.844 131.912C239.62 132.472 239.508 133.176 239.508 134.024C239.508 134.872 239.62 135.576 239.844 136.136C240.084 136.696 240.42 137.112 240.852 137.384C241.3 137.656 241.82 137.792 242.412 137.792C242.892 137.792 243.3 137.712 243.636 137.552C243.972 137.376 244.244 137.128 244.452 136.808C244.676 136.488 244.828 136.104 244.908 135.656L247.884 136.616C247.708 137.336 247.38 137.968 246.9 138.512C246.42 139.056 245.804 139.48 245.052 139.784C244.3 140.088 243.428 140.24 242.436 140.24C241.204 140.24 240.116 139.992 239.172 139.496C238.228 139 237.5 138.288 236.988 137.36C236.476 136.432 236.22 135.312 236.22 134C236.22 132.688 236.476 131.568 236.988 130.64C237.5 129.712 238.22 129 239.148 128.504C240.076 128.008 241.14 127.76 242.34 127.76ZM252.095 126.272C251.407 126.272 250.895 126.128 250.559 125.84C250.223 125.536 250.055 125.096 250.055 124.52C250.055 123.928 250.223 123.488 250.559 123.2C250.895 122.896 251.407 122.744 252.095 122.744C252.783 122.744 253.295 122.896 253.631 123.2C253.967 123.488 254.135 123.928 254.135 124.52C254.135 125.096 253.967 125.536 253.631 125.84C253.295 126.128 252.783 126.272 252.095 126.272ZM253.727 128V140H250.439V128H253.727ZM257.212 140V128H260.164L260.356 131.6L259.948 131.216C260.14 130.432 260.444 129.784 260.86 129.272C261.276 128.76 261.78 128.384 262.372 128.144C262.98 127.888 263.644 127.76 264.364 127.76C265.196 127.76 265.932 127.92 266.572 128.24C267.228 128.56 267.74 129.048 268.108 129.704C268.492 130.344 268.684 131.152 268.684 132.128V140H265.396V133.064C265.396 132.04 265.196 131.336 264.796 130.952C264.396 130.552 263.876 130.352 263.236 130.352C262.788 130.352 262.348 130.464 261.916 130.688C261.5 130.896 261.156 131.24 260.884 131.72C260.628 132.2 260.5 132.84 260.5 133.64V140H257.212ZM283.136 125.144L283.52 127.496C283.456 127.496 283.384 127.496 283.304 127.496C283.24 127.48 283.168 127.472 283.088 127.472C282.352 127.472 281.8 127.64 281.432 127.976C281.064 128.296 280.88 128.744 280.88 129.32L279.536 128.768C279.536 128.128 279.664 127.536 279.92 126.992C280.176 126.432 280.552 125.984 281.048 125.648C281.56 125.312 282.168 125.144 282.872 125.144C282.904 125.144 282.944 125.144 282.992 125.144C283.04 125.144 283.088 125.144 283.136 125.144ZM279.2 137.744C280.496 137.744 281.496 138.024 282.2 138.584C282.904 139.144 283.256 139.928 283.256 140.936C283.256 141.848 282.992 142.616 282.464 143.24C281.936 143.88 281.192 144.36 280.232 144.68C279.288 145 278.192 145.16 276.944 145.16C274.88 145.16 273.368 144.872 272.408 144.296C271.464 143.72 270.992 142.968 270.992 142.04C270.992 141.384 271.24 140.832 271.736 140.384C272.248 139.936 273.088 139.688 274.256 139.64L274.136 140.024C273.304 139.88 272.664 139.608 272.216 139.208C271.784 138.792 271.568 138.224 271.568 137.504C271.568 136.768 271.848 136.168 272.408 135.704C272.984 135.224 273.76 134.944 274.736 134.864L276.176 135.536H275.84C275.152 135.584 274.664 135.728 274.376 135.968C274.104 136.192 273.968 136.448 273.968 136.736C273.968 137.072 274.096 137.328 274.352 137.504C274.624 137.664 275.008 137.744 275.504 137.744H279.2ZM276.968 142.904C277.8 142.904 278.48 142.832 279.008 142.688C279.552 142.544 279.952 142.36 280.208 142.136C280.48 141.912 280.616 141.664 280.616 141.392C280.616 141.088 280.496 140.84 280.256 140.648C280.016 140.472 279.584 140.384 278.96 140.384H274.904C274.52 140.384 274.2 140.48 273.944 140.672C273.704 140.864 273.584 141.128 273.584 141.464C273.584 141.912 273.88 142.264 274.472 142.52C275.08 142.776 275.912 142.904 276.968 142.904ZM276.992 127.76C278.112 127.76 279.08 127.928 279.896 128.264C280.728 128.584 281.36 129.048 281.792 129.656C282.24 130.264 282.464 130.992 282.464 131.84C282.464 132.672 282.24 133.392 281.792 134C281.36 134.608 280.728 135.08 279.896 135.416C279.08 135.736 278.112 135.896 276.992 135.896C275.216 135.896 273.856 135.536 272.912 134.816C271.984 134.08 271.52 133.088 271.52 131.84C271.52 130.992 271.736 130.264 272.168 129.656C272.616 129.048 273.248 128.584 274.064 128.264C274.88 127.928 275.856 127.76 276.992 127.76ZM276.992 129.824C276.352 129.824 275.824 130 275.408 130.352C274.992 130.704 274.784 131.192 274.784 131.816C274.784 132.44 274.992 132.936 275.408 133.304C275.824 133.656 276.352 133.832 276.992 133.832C277.632 133.832 278.152 133.656 278.552 133.304C278.968 132.936 279.176 132.44 279.176 131.816C279.176 131.192 278.968 130.704 278.552 130.352C278.152 130 277.632 129.824 276.992 129.824ZM298.148 140.24C296.884 140.24 295.78 139.992 294.836 139.496C293.908 139 293.188 138.288 292.676 137.36C292.164 136.432 291.908 135.312 291.908 134C291.908 132.688 292.164 131.568 292.676 130.64C293.188 129.712 293.9 129 294.812 128.504C295.74 128.008 296.796 127.76 297.98 127.76C299.196 127.76 300.228 128.008 301.076 128.504C301.924 128.984 302.572 129.648 303.02 130.496C303.468 131.328 303.692 132.28 303.692 133.352C303.692 133.672 303.684 133.976 303.668 134.264C303.652 134.552 303.628 134.808 303.596 135.032H294.02V132.752H302.156L300.572 133.328C300.572 132.32 300.34 131.544 299.876 131C299.428 130.456 298.788 130.184 297.956 130.184C297.348 130.184 296.82 130.328 296.372 130.616C295.94 130.904 295.612 131.336 295.388 131.912C295.164 132.472 295.052 133.184 295.052 134.048C295.052 134.896 295.172 135.6 295.412 136.16C295.668 136.704 296.02 137.112 296.468 137.384C296.932 137.656 297.484 137.792 298.124 137.792C298.828 137.792 299.396 137.656 299.828 137.384C300.26 137.112 300.596 136.736 300.836 136.256L303.452 137.264C303.196 137.888 302.804 138.424 302.276 138.872C301.764 139.32 301.148 139.664 300.428 139.904C299.724 140.128 298.964 140.24 298.148 140.24ZM309.718 122.744V136.304C309.718 136.864 309.814 137.256 310.006 137.48C310.198 137.704 310.518 137.816 310.966 137.816C311.238 137.816 311.462 137.8 311.638 137.768C311.814 137.72 312.038 137.656 312.31 137.576L312.022 139.736C311.75 139.896 311.406 140.016 310.99 140.096C310.59 140.192 310.19 140.24 309.79 140.24C308.622 140.24 307.766 139.96 307.222 139.4C306.694 138.824 306.43 137.912 306.43 136.664V122.744H309.718ZM315.798 126.272C315.11 126.272 314.598 126.128 314.262 125.84C313.926 125.536 313.758 125.096 313.758 124.52C313.758 123.928 313.926 123.488 314.262 123.2C314.598 122.896 315.11 122.744 315.798 122.744C316.486 122.744 316.998 122.896 317.334 123.2C317.67 123.488 317.838 123.928 317.838 124.52C317.838 125.096 317.67 125.536 317.334 125.84C316.998 126.128 316.486 126.272 315.798 126.272ZM317.43 128V140H314.142V128H317.43ZM325.164 124.328V136.088C325.164 136.664 325.308 137.088 325.596 137.36C325.9 137.616 326.308 137.744 326.82 137.744C327.22 137.744 327.572 137.688 327.876 137.576C328.18 137.448 328.452 137.28 328.692 137.072L329.22 139.256C328.836 139.56 328.356 139.8 327.78 139.976C327.204 140.152 326.596 140.24 325.956 140.24C325.156 140.24 324.444 140.12 323.82 139.88C323.212 139.64 322.732 139.256 322.38 138.728C322.044 138.2 321.876 137.496 321.876 136.616V125.24L325.164 124.328ZM329.004 128V130.448H319.668V128H329.004ZM332.978 136.328C333.618 136.328 334.122 136.504 334.49 136.856C334.874 137.208 335.066 137.68 335.066 138.272C335.066 138.88 334.874 139.36 334.49 139.712C334.122 140.048 333.618 140.216 332.978 140.216C332.338 140.216 331.826 140.048 331.442 139.712C331.074 139.36 330.89 138.88 330.89 138.272C330.89 137.68 331.074 137.208 331.442 136.856C331.826 136.504 332.338 136.328 332.978 136.328Z" fill="#61646B"/>
<rect x="300" y="776" width="66" height="40" rx="20" fill="#696B6E"/>
<path d="M320.864 802.112C320.117 802.112 319.445 801.984 318.848 801.728C318.251 801.461 317.781 801.088 317.44 800.608C317.099 800.128 316.928 799.568 316.928 798.928H318.88C318.923 799.408 319.109 799.803 319.44 800.112C319.781 800.421 320.256 800.576 320.864 800.576C321.493 800.576 321.984 800.427 322.336 800.128C322.688 799.819 322.864 799.424 322.864 798.944C322.864 798.571 322.752 798.267 322.528 798.032C322.315 797.797 322.043 797.616 321.712 797.488C321.392 797.36 320.944 797.221 320.368 797.072C319.643 796.88 319.051 796.688 318.592 796.496C318.144 796.293 317.76 795.984 317.44 795.568C317.12 795.152 316.96 794.597 316.96 793.904C316.96 793.264 317.12 792.704 317.44 792.224C317.76 791.744 318.208 791.376 318.784 791.12C319.36 790.864 320.027 790.736 320.784 790.736C321.861 790.736 322.741 791.008 323.424 791.552C324.117 792.085 324.501 792.821 324.576 793.76H322.56C322.528 793.355 322.336 793.008 321.984 792.72C321.632 792.432 321.168 792.288 320.592 792.288C320.069 792.288 319.643 792.421 319.312 792.688C318.981 792.955 318.816 793.339 318.816 793.84C318.816 794.181 318.917 794.464 319.12 794.688C319.333 794.901 319.6 795.072 319.92 795.2C320.24 795.328 320.677 795.467 321.232 795.616C321.968 795.819 322.565 796.021 323.024 796.224C323.493 796.427 323.888 796.741 324.208 797.168C324.539 797.584 324.704 798.144 324.704 798.848C324.704 799.413 324.549 799.947 324.24 800.448C323.941 800.949 323.499 801.355 322.912 801.664C322.336 801.963 321.653 802.112 320.864 802.112ZM330.344 797.6L334.408 802H331.944L328.68 798.208V802H326.856V790.16H328.68V797.04L331.88 793.184H334.408L330.344 797.6ZM336.644 792.016C336.313 792.016 336.036 791.904 335.812 791.68C335.588 791.456 335.476 791.179 335.476 790.848C335.476 790.517 335.588 790.24 335.812 790.016C336.036 789.792 336.313 789.68 336.644 789.68C336.964 789.68 337.236 789.792 337.46 790.016C337.684 790.24 337.796 790.517 337.796 790.848C337.796 791.179 337.684 791.456 337.46 791.68C337.236 791.904 336.964 792.016 336.644 792.016ZM337.54 793.184V802H335.716V793.184H337.54ZM341.758 794.48C342.068 794.075 342.489 793.733 343.022 793.456C343.556 793.179 344.158 793.04 344.83 793.04C345.598 793.04 346.297 793.232 346.926 793.616C347.566 793.989 348.068 794.517 348.43 795.2C348.793 795.883 348.974 796.667 348.974 797.552C348.974 798.437 348.793 799.232 348.43 799.936C348.068 800.629 347.566 801.173 346.926 801.568C346.297 801.952 345.598 802.144 344.83 802.144C344.158 802.144 343.561 802.011 343.038 801.744C342.516 801.467 342.089 801.125 341.758 800.72V806.192H339.934V793.184H341.758V794.48ZM347.118 797.552C347.118 796.944 346.99 796.421 346.734 795.984C346.489 795.536 346.158 795.2 345.742 794.976C345.337 794.741 344.9 794.624 344.43 794.624C343.972 794.624 343.534 794.741 343.118 794.976C342.713 795.211 342.382 795.552 342.126 796C341.881 796.448 341.758 796.976 341.758 797.584C341.758 798.192 341.881 798.725 342.126 799.184C342.382 799.632 342.713 799.973 343.118 800.208C343.534 800.443 343.972 800.56 344.43 800.56C344.9 800.56 345.337 800.443 345.742 800.208C346.158 799.963 346.489 799.611 346.734 799.152C346.99 798.693 347.118 798.16 347.118 797.552Z" fill="white"/>
<rect x="42" y="246" width="319" height="451" rx="7" fill="#EFEFF0"/>
<rect x="42" y="246" width="319" height="451" rx="7" stroke="#AFB1B6" stroke-width="2"/>
<mask id="mask0_202_8302" style="mask-type:luminance" maskUnits="userSpaceOnUse" x="192" y="462" width="20" height="20">
<path fill-rule="evenodd" clip-rule="evenodd" d="M192 462H211.96V481.95H192V462Z" fill="white"/>
</mask>
<g mask="url(#mask0_202_8302)">
<path fill-rule="evenodd" clip-rule="evenodd" d="M197.65 463.5C195.129 463.5 193.5 465.227 193.5 467.899V476.051C193.5 478.724 195.129 480.45 197.65 480.45H206.3C208.827 480.45 210.46 478.724 210.46 476.051V467.899C210.46 465.227 208.827 463.5 206.3 463.5H197.65ZM206.3 481.95H197.65C194.27 481.95 192 479.579 192 476.051V467.899C192 464.371 194.27 462 197.65 462H206.3C209.685 462 211.96 464.371 211.96 467.899V476.051C211.96 479.579 209.685 481.95 206.3 481.95Z" fill="#AFB1B6"/>
</g>
<path fill-rule="evenodd" clip-rule="evenodd" d="M195.281 477.18C195.095 477.18 194.91 477.112 194.765 476.974C194.464 476.69 194.452 476.214 194.737 475.915L196.265 474.302C197.074 473.443 198.439 473.401 199.302 474.211L200.26 475.183C200.527 475.453 200.961 475.458 201.229 475.194C201.33 475.075 203.508 472.43 203.508 472.43C203.922 471.928 204.506 471.618 205.155 471.554C205.805 471.497 206.436 471.686 206.939 472.099C206.982 472.134 207.021 472.168 209.217 474.423C209.506 474.719 209.501 475.194 209.204 475.483C208.908 475.774 208.432 475.765 208.143 475.469C208.143 475.469 206.094 473.366 205.948 473.224C205.793 473.097 205.544 473.023 205.299 473.047C205.05 473.072 204.826 473.191 204.667 473.384C202.343 476.203 202.315 476.23 202.277 476.267C201.419 477.109 200.034 477.095 199.191 476.235C199.191 476.235 198.261 475.291 198.245 475.272C198.014 475.058 197.602 475.072 197.355 475.333L195.825 476.946C195.677 477.102 195.479 477.18 195.281 477.18Z" fill="#AFB1B6"/>
<path fill-rule="evenodd" clip-rule="evenodd" d="M198.558 468.129C198.005 468.129 197.555 468.579 197.555 469.133C197.555 469.687 198.005 470.138 198.559 470.138C199.113 470.138 199.564 469.687 199.564 469.133C199.564 468.58 199.113 468.13 198.558 468.129ZM198.559 471.638C197.178 471.638 196.055 470.514 196.055 469.133C196.055 467.752 197.178 466.629 198.559 466.629C199.941 466.63 201.064 467.754 201.064 469.133C201.064 470.514 199.94 471.638 198.559 471.638Z" fill="#AFB1B6"/>
</svg>
