<svg width="402" height="874" viewBox="0 0 402 874" fill="none" xmlns="http://www.w3.org/2000/svg">
<g clip-path="url(#clip0_204_8441)">
<rect width="402" height="874" rx="16" fill="white"/>
<rect x="2" y="1" width="399" height="342" rx="7" fill="#EFEFF0"/>
<rect x="2" y="1" width="399" height="342" rx="7" stroke="#AFB1B6" stroke-width="2"/>
<mask id="mask0_204_8441" style="mask-type:luminance" maskUnits="userSpaceOnUse" x="192" y="162" width="20" height="20">
<path fill-rule="evenodd" clip-rule="evenodd" d="M192 162H211.96V181.95H192V162Z" fill="white"/>
</mask>
<g mask="url(#mask0_204_8441)">
<path fill-rule="evenodd" clip-rule="evenodd" d="M197.65 163.5C195.129 163.5 193.5 165.227 193.5 167.899V176.051C193.5 178.724 195.129 180.45 197.65 180.45H206.3C208.827 180.45 210.46 178.724 210.46 176.051V167.899C210.46 165.227 208.827 163.5 206.3 163.5H197.65ZM206.3 181.95H197.65C194.27 181.95 192 179.579 192 176.051V167.899C192 164.371 194.27 162 197.65 162H206.3C209.685 162 211.96 164.371 211.96 167.899V176.051C211.96 179.579 209.685 181.95 206.3 181.95Z" fill="#AFB1B6"/>
</g>
<path fill-rule="evenodd" clip-rule="evenodd" d="M195.281 177.18C195.095 177.18 194.91 177.112 194.765 176.974C194.464 176.69 194.452 176.214 194.737 175.915L196.265 174.302C197.074 173.443 198.439 173.401 199.302 174.211L200.26 175.183C200.527 175.453 200.961 175.458 201.229 175.194C201.33 175.075 203.508 172.43 203.508 172.43C203.922 171.928 204.506 171.618 205.155 171.554C205.805 171.497 206.436 171.686 206.939 172.099C206.982 172.134 207.021 172.168 209.217 174.423C209.506 174.719 209.501 175.194 209.204 175.483C208.908 175.774 208.432 175.765 208.143 175.469C208.143 175.469 206.094 173.366 205.948 173.224C205.793 173.097 205.544 173.023 205.299 173.047C205.05 173.072 204.826 173.191 204.667 173.384C202.343 176.203 202.315 176.23 202.277 176.267C201.419 177.109 200.034 177.095 199.191 176.235C199.191 176.235 198.261 175.291 198.245 175.272C198.014 175.058 197.602 175.072 197.355 175.333L195.825 176.946C195.677 177.102 195.479 177.18 195.281 177.18Z" fill="#AFB1B6"/>
<path fill-rule="evenodd" clip-rule="evenodd" d="M198.558 168.129C198.005 168.129 197.555 168.579 197.555 169.133C197.555 169.687 198.005 170.138 198.559 170.138C199.113 170.138 199.564 169.687 199.564 169.133C199.564 168.58 199.113 168.13 198.558 168.129ZM198.559 171.638C197.178 171.638 196.055 170.514 196.055 169.133C196.055 167.752 197.178 166.629 198.559 166.629C199.941 166.63 201.064 167.754 201.064 169.133C201.064 170.514 199.94 171.638 198.559 171.638Z" fill="#AFB1B6"/>
<mask id="path-7-inside-1_204_8441" fill="white">
<path d="M0 780H402V874H0V780Z"/>
</mask>
<path d="M0 781H402V779H0V781Z" fill="#EFEFF0" mask="url(#path-7-inside-1_204_8441)"/>
<mask id="mask1_204_8441" style="mask-type:luminance" maskUnits="userSpaceOnUse" x="26" y="805" width="25" height="26">
<path fill-rule="evenodd" clip-rule="evenodd" d="M26.3334 805.167H50.2498V830.256H26.3334V805.167Z" fill="white"/>
</mask>
<g mask="url(#mask1_204_8441)">
<path fill-rule="evenodd" clip-rule="evenodd" d="M40.003 821.84C41.4076 821.84 42.551 822.975 42.551 824.37V827.959C42.551 828.259 42.7913 828.499 43.0993 828.506H45.323C47.0753 828.506 48.4998 827.099 48.4998 825.37V815.192C48.4916 814.597 48.2081 814.037 47.7216 813.665L40.0298 807.531C38.9973 806.713 37.553 806.713 36.517 807.533L28.8776 813.663C28.3725 814.047 28.089 814.607 28.0831 815.212V825.37C28.0831 827.099 29.5076 828.506 31.26 828.506H33.5046C33.8208 828.506 34.0775 828.255 34.0775 827.947C34.0775 827.88 34.0856 827.812 34.0996 827.748V824.37C34.0996 822.983 35.236 821.849 36.6301 821.84H40.003ZM45.323 830.256H43.0783C41.7926 830.226 40.801 829.217 40.801 827.959V824.37C40.801 823.94 40.4428 823.59 40.003 823.59H36.636C36.2055 823.592 35.8496 823.943 35.8496 824.37V827.947C35.8496 828.035 35.838 828.119 35.8135 828.198C35.6875 829.353 34.7005 830.256 33.5046 830.256H31.26C28.5428 830.256 26.3331 828.064 26.3331 825.37V815.204C26.3448 814.044 26.8791 812.983 27.802 812.284L35.4261 806.165C37.105 804.835 39.4441 804.835 41.1195 806.162L48.7985 812.287C49.7003 812.974 50.2346 814.034 50.2498 815.179V825.37C50.2498 828.064 48.0401 830.256 45.323 830.256Z" fill="#1D1D1D"/>
</g>
<mask id="mask2_204_8441" style="mask-type:luminance" maskUnits="userSpaceOnUse" x="354" y="820" width="20" height="10">
<path fill-rule="evenodd" clip-rule="evenodd" d="M354.667 820.912H373.147V829.515H354.667V820.912Z" fill="white"/>
</mask>
<g mask="url(#mask2_204_8441)">
<path fill-rule="evenodd" clip-rule="evenodd" d="M363.908 822.662C358.937 822.662 356.417 823.516 356.417 825.202C356.417 826.903 358.937 827.765 363.908 827.765C368.878 827.765 371.397 826.911 371.397 825.225C371.397 823.524 368.878 822.662 363.908 822.662ZM363.908 829.515C361.622 829.515 354.667 829.515 354.667 825.202C354.667 821.357 359.941 820.912 363.908 820.912C366.193 820.912 373.147 820.912 373.147 825.225C373.147 829.071 367.873 829.515 363.908 829.515Z" fill="#61646B"/>
</g>
<mask id="mask3_204_8441" style="mask-type:luminance" maskUnits="userSpaceOnUse" x="357" y="806" width="14" height="13">
<path fill-rule="evenodd" clip-rule="evenodd" d="M357.711 806.333H370.101V818.722H357.711V806.333Z" fill="white"/>
</mask>
<g mask="url(#mask3_204_8441)">
<path fill-rule="evenodd" clip-rule="evenodd" d="M363.908 807.999C361.41 807.999 359.377 810.03 359.377 812.528C359.369 815.018 361.386 817.048 363.874 817.057L363.908 817.89V817.057C366.404 817.057 368.435 815.025 368.435 812.528C368.435 810.03 366.404 807.999 363.908 807.999ZM363.908 818.722H363.87C360.461 818.711 357.7 815.931 357.711 812.525C357.711 809.112 360.49 806.333 363.908 806.333C367.324 806.333 370.101 809.112 370.101 812.528C370.101 815.944 367.324 818.722 363.908 818.722Z" fill="#61646B"/>
</g>
<path d="M211 828.818V808.818C211 808.336 210.808 807.874 210.467 807.533C210.126 807.192 209.664 807 209.182 807H192.818C192.336 807 191.874 807.192 191.533 807.533C191.192 807.874 191 808.336 191 808.818V828.818C191 829.3 191.192 829.763 191.533 830.104C191.874 830.445 192.336 830.636 192.818 830.636H209.182C209.664 830.636 210.126 830.445 210.467 830.104C210.808 829.763 211 829.3 211 828.818ZM209.182 825.182V828.818H207.364V825.182H209.182ZM192.818 812.455V808.818H194.636V812.455H192.818ZM207.364 812.455V808.818H209.182V812.455H207.364ZM192.818 817.909V814.273H194.636V817.909H192.818ZM207.364 817.909V814.273H209.182V817.909H207.364ZM192.818 823.364V819.727H194.636V823.364H192.818ZM207.364 823.364V819.727H209.182V823.364H207.364ZM192.818 828.818V825.182H194.636V828.818H192.818Z" fill="#61646B"/>
<rect x="13" y="379" width="111" height="158" rx="7" fill="#EFEFF0"/>
<rect x="13" y="379" width="111" height="158" rx="7" stroke="#AFB1B6" stroke-width="2"/>
<mask id="mask4_204_8441" style="mask-type:luminance" maskUnits="userSpaceOnUse" x="59" y="448" width="20" height="20">
<path fill-rule="evenodd" clip-rule="evenodd" d="M59.0004 448H78.96V467.95H59.0004V448Z" fill="white"/>
</mask>
<g mask="url(#mask4_204_8441)">
<path fill-rule="evenodd" clip-rule="evenodd" d="M64.6504 449.5C62.1294 449.5 60.5004 451.227 60.5004 453.899V462.051C60.5004 464.724 62.1294 466.45 64.6504 466.45H73.3004C75.8274 466.45 77.4604 464.724 77.4604 462.051V453.899C77.4604 451.227 75.8274 449.5 73.3004 449.5H64.6504ZM73.3004 467.95H64.6504C61.2704 467.95 59.0004 465.579 59.0004 462.051V453.899C59.0004 450.371 61.2704 448 64.6504 448H73.3004C76.6854 448 78.9604 450.371 78.9604 453.899V462.051C78.9604 465.579 76.6854 467.95 73.3004 467.95Z" fill="#AFB1B6"/>
</g>
<path fill-rule="evenodd" clip-rule="evenodd" d="M62.2814 463.18C62.0954 463.18 61.9104 463.112 61.7654 462.974C61.4644 462.69 61.4524 462.214 61.7374 461.915L63.2654 460.302C64.0744 459.443 65.4394 459.401 66.3024 460.211L67.2604 461.183C67.5274 461.453 67.9614 461.458 68.2294 461.194C68.3304 461.075 70.5084 458.43 70.5084 458.43C70.9224 457.928 71.5064 457.618 72.1554 457.554C72.8054 457.497 73.4364 457.686 73.9394 458.099C73.9824 458.134 74.0214 458.168 76.2174 460.423C76.5064 460.719 76.5014 461.194 76.2044 461.483C75.9084 461.774 75.4324 461.765 75.1434 461.469C75.1434 461.469 73.0944 459.366 72.9484 459.224C72.7934 459.097 72.5444 459.023 72.2994 459.047C72.0504 459.072 71.8264 459.191 71.6674 459.384C69.3434 462.203 69.3154 462.23 69.2774 462.267C68.4194 463.109 67.0344 463.095 66.1914 462.235C66.1914 462.235 65.2614 461.291 65.2454 461.272C65.0144 461.058 64.6024 461.072 64.3554 461.333L62.8254 462.946C62.6774 463.102 62.4794 463.18 62.2814 463.18Z" fill="#AFB1B6"/>
<path fill-rule="evenodd" clip-rule="evenodd" d="M65.5576 454.129C65.0046 454.129 64.5546 454.579 64.5546 455.133C64.5546 455.687 65.0046 456.138 65.5586 456.138C66.1126 456.138 66.5636 455.687 66.5636 455.133C66.5636 454.58 66.1126 454.13 65.5576 454.129ZM65.5586 457.638C64.1776 457.638 63.0546 456.514 63.0546 455.133C63.0546 453.752 64.1776 452.629 65.5586 452.629C66.9406 452.63 68.0636 453.754 68.0636 455.133C68.0636 456.514 66.9396 457.638 65.5586 457.638Z" fill="#AFB1B6"/>
<rect x="146" y="379" width="111" height="158" rx="7" fill="#EFEFF0"/>
<rect x="146" y="379" width="111" height="158" rx="7" stroke="#AFB1B6" stroke-width="2"/>
<mask id="mask5_204_8441" style="mask-type:luminance" maskUnits="userSpaceOnUse" x="192" y="448" width="20" height="20">
<path fill-rule="evenodd" clip-rule="evenodd" d="M192 448H211.96V467.95H192V448Z" fill="white"/>
</mask>
<g mask="url(#mask5_204_8441)">
<path fill-rule="evenodd" clip-rule="evenodd" d="M197.65 449.5C195.129 449.5 193.5 451.227 193.5 453.899V462.051C193.5 464.724 195.129 466.45 197.65 466.45H206.3C208.827 466.45 210.46 464.724 210.46 462.051V453.899C210.46 451.227 208.827 449.5 206.3 449.5H197.65ZM206.3 467.95H197.65C194.27 467.95 192 465.579 192 462.051V453.899C192 450.371 194.27 448 197.65 448H206.3C209.685 448 211.96 450.371 211.96 453.899V462.051C211.96 465.579 209.685 467.95 206.3 467.95Z" fill="#AFB1B6"/>
</g>
<path fill-rule="evenodd" clip-rule="evenodd" d="M195.281 463.18C195.095 463.18 194.91 463.112 194.765 462.974C194.464 462.69 194.452 462.214 194.737 461.915L196.265 460.302C197.074 459.443 198.439 459.401 199.302 460.211L200.26 461.183C200.527 461.453 200.961 461.458 201.229 461.194C201.33 461.075 203.508 458.43 203.508 458.43C203.922 457.928 204.506 457.618 205.155 457.554C205.805 457.497 206.436 457.686 206.939 458.099C206.982 458.134 207.021 458.168 209.217 460.423C209.506 460.719 209.501 461.194 209.204 461.483C208.908 461.774 208.432 461.765 208.143 461.469C208.143 461.469 206.094 459.366 205.948 459.224C205.793 459.097 205.544 459.023 205.299 459.047C205.05 459.072 204.826 459.191 204.667 459.384C202.343 462.203 202.315 462.23 202.277 462.267C201.419 463.109 200.034 463.095 199.191 462.235C199.191 462.235 198.261 461.291 198.245 461.272C198.014 461.058 197.602 461.072 197.355 461.333L195.825 462.946C195.677 463.102 195.479 463.18 195.281 463.18Z" fill="#AFB1B6"/>
<path fill-rule="evenodd" clip-rule="evenodd" d="M198.558 454.129C198.005 454.129 197.555 454.579 197.555 455.133C197.555 455.687 198.005 456.138 198.559 456.138C199.113 456.138 199.564 455.687 199.564 455.133C199.564 454.58 199.113 454.13 198.558 454.129ZM198.559 457.638C197.178 457.638 196.055 456.514 196.055 455.133C196.055 453.752 197.178 452.629 198.559 452.629C199.941 452.63 201.064 453.754 201.064 455.133C201.064 456.514 199.94 457.638 198.559 457.638Z" fill="#AFB1B6"/>
<rect x="279" y="379" width="111" height="158" rx="7" fill="#EFEFF0"/>
<rect x="279" y="379" width="111" height="158" rx="7" stroke="#AFB1B6" stroke-width="2"/>
<mask id="mask6_204_8441" style="mask-type:luminance" maskUnits="userSpaceOnUse" x="325" y="448" width="20" height="20">
<path fill-rule="evenodd" clip-rule="evenodd" d="M325 448H344.96V467.95H325V448Z" fill="white"/>
</mask>
<g mask="url(#mask6_204_8441)">
<path fill-rule="evenodd" clip-rule="evenodd" d="M330.65 449.5C328.129 449.5 326.5 451.227 326.5 453.899V462.051C326.5 464.724 328.129 466.45 330.65 466.45H339.3C341.827 466.45 343.46 464.724 343.46 462.051V453.899C343.46 451.227 341.827 449.5 339.3 449.5H330.65ZM339.3 467.95H330.65C327.27 467.95 325 465.579 325 462.051V453.899C325 450.371 327.27 448 330.65 448H339.3C342.685 448 344.96 450.371 344.96 453.899V462.051C344.96 465.579 342.685 467.95 339.3 467.95Z" fill="#AFB1B6"/>
</g>
<path fill-rule="evenodd" clip-rule="evenodd" d="M328.281 463.18C328.095 463.18 327.91 463.112 327.765 462.974C327.464 462.69 327.452 462.214 327.737 461.915L329.265 460.302C330.074 459.443 331.439 459.401 332.302 460.211L333.26 461.183C333.527 461.453 333.961 461.458 334.229 461.194C334.33 461.075 336.508 458.43 336.508 458.43C336.922 457.928 337.506 457.618 338.155 457.554C338.805 457.497 339.436 457.686 339.939 458.099C339.982 458.134 340.021 458.168 342.217 460.423C342.506 460.719 342.501 461.194 342.204 461.483C341.908 461.774 341.432 461.765 341.143 461.469C341.143 461.469 339.094 459.366 338.948 459.224C338.793 459.097 338.544 459.023 338.299 459.047C338.05 459.072 337.826 459.191 337.667 459.384C335.343 462.203 335.315 462.23 335.277 462.267C334.419 463.109 333.034 463.095 332.191 462.235C332.191 462.235 331.261 461.291 331.245 461.272C331.014 461.058 330.602 461.072 330.355 461.333L328.825 462.946C328.677 463.102 328.479 463.18 328.281 463.18Z" fill="#AFB1B6"/>
<path fill-rule="evenodd" clip-rule="evenodd" d="M331.558 454.129C331.005 454.129 330.555 454.579 330.555 455.133C330.555 455.687 331.005 456.138 331.559 456.138C332.113 456.138 332.564 455.687 332.564 455.133C332.564 454.58 332.113 454.13 331.558 454.129ZM331.559 457.638C330.178 457.638 329.055 456.514 329.055 455.133C329.055 453.752 330.178 452.629 331.559 452.629C332.941 452.63 334.064 453.754 334.064 455.133C334.064 456.514 332.94 457.638 331.559 457.638Z" fill="#AFB1B6"/>
<mask id="mask7_204_8441" style="mask-type:luminance" maskUnits="userSpaceOnUse" x="18" y="67" width="21" height="22">
<path fill-rule="evenodd" clip-rule="evenodd" d="M18.0837 67.5834H38.8681V88.3687H18.0837V67.5834Z" fill="white"/>
</mask>
<g mask="url(#mask7_204_8441)">
<path fill-rule="evenodd" clip-rule="evenodd" d="M23.9702 69.1458C21.3442 69.1458 19.6462 70.9469 19.6462 73.7333V82.2187C19.6462 85.0062 21.3442 86.8062 23.9702 86.8062H32.9764C35.6067 86.8062 37.3056 85.0062 37.3056 82.2187V73.7333C37.3077 72.3135 36.8744 71.1281 36.0535 70.3062C35.2952 69.5469 34.2337 69.1458 32.9817 69.1458H23.9702ZM32.9764 88.3687H23.9702C20.4494 88.3687 18.0837 85.8969 18.0837 82.2187V73.7333C18.0837 70.0552 20.4494 67.5833 23.9702 67.5833H32.9817C34.6567 67.5833 36.1014 68.1427 37.1587 69.2021C38.2639 70.3083 38.8702 71.9177 38.8681 73.7344V82.2187C38.8681 85.8969 36.5004 88.3687 32.9764 88.3687Z" fill="#696B6E"/>
</g>
<path fill-rule="evenodd" clip-rule="evenodd" d="M25.2255 73.5099C24.5963 73.5099 24.0848 74.0213 24.0848 74.6516C24.0848 75.2807 24.5963 75.7922 25.2265 75.7922C25.8557 75.7922 26.3682 75.2807 26.3682 74.6526C26.3671 74.0224 25.8546 73.5109 25.2255 73.5099ZM25.2265 77.3547C23.7348 77.3547 22.5223 76.1422 22.5223 74.6516C22.5223 73.1599 23.7348 71.9474 25.2265 71.9474C26.7171 71.9484 27.9296 73.1609 27.9307 74.6505V74.6516C27.9307 76.1422 26.7182 77.3547 25.2265 77.3547Z" fill="#696B6E"/>
<path fill-rule="evenodd" clip-rule="evenodd" d="M19.9051 86.4493C19.776 86.4493 19.6447 86.417 19.5239 86.3493C19.1468 86.1378 19.0145 85.6618 19.2249 85.2858C19.2874 85.1733 20.7822 82.5305 22.427 81.1764C23.7312 80.1035 25.1353 80.693 26.2666 81.1691C26.9322 81.4493 27.5614 81.7139 28.1656 81.7139C28.7197 81.7139 29.4145 80.7347 30.0291 79.8712C30.8822 78.667 31.851 77.3045 33.2697 77.3045C35.5301 77.3045 37.4812 79.3212 38.5301 80.4045L38.651 80.5295C38.951 80.8389 38.9437 81.3337 38.6343 81.6347C38.327 81.9358 37.8322 81.9285 37.5301 81.618L37.4072 81.491C36.5197 80.5733 34.8676 78.867 33.2697 78.867C32.6572 78.867 31.9385 79.8805 31.302 80.7753C30.4291 82.0045 29.526 83.2764 28.1656 83.2764C27.2458 83.2764 26.4031 82.9222 25.6603 82.6087C24.4791 82.1108 23.9437 81.9514 23.4197 82.3826C21.9989 83.5535 20.601 86.0264 20.5874 86.0503C20.4447 86.3055 20.1791 86.4493 19.9051 86.4493Z" fill="#696B6E"/>
<rect x="334" y="92" width="269" height="28" rx="6" transform="rotate(180 334 92)" fill="#CFCFCF"/>
<path d="M80.59 81.08C79.93 81.08 79.36 80.93 78.88 80.63C78.4 80.3233 78.03 79.9133 77.77 79.4C77.5167 78.8867 77.39 78.3167 77.39 77.69C77.39 77.0633 77.5167 76.4933 77.77 75.98C78.03 75.4667 78.4 75.06 78.88 74.76C79.36 74.4533 79.93 74.3 80.59 74.3C81.09 74.3 81.54 74.39 81.94 74.57C82.34 74.7433 82.68 74.9833 82.96 75.29C83.24 75.5967 83.45 75.9533 83.59 76.36H82.8C82.6333 75.9533 82.37 75.63 82.01 75.39C81.65 75.15 81.1967 75.03 80.65 75.03C80.1167 75.03 79.66 75.15 79.28 75.39C78.9067 75.6233 78.6233 75.94 78.43 76.34C78.2367 76.74 78.14 77.19 78.14 77.69C78.14 78.1833 78.2367 78.6333 78.43 79.04C78.6233 79.44 78.9067 79.76 79.28 80C79.66 80.2333 80.1167 80.35 80.65 80.35C81.1967 80.35 81.65 80.23 82.01 79.99C82.37 79.75 82.6333 79.4267 82.8 79.02H83.59C83.45 79.42 83.24 79.7767 82.96 80.09C82.68 80.3967 82.34 80.64 81.94 80.82C81.54 80.9933 81.09 81.08 80.59 81.08ZM87.6643 81.08C87.1776 81.08 86.751 80.9667 86.3843 80.74C86.0243 80.5067 85.7443 80.1933 85.5443 79.8C85.3443 79.4067 85.2443 78.9733 85.2443 78.5C85.2443 78.02 85.3443 77.5867 85.5443 77.2C85.7443 76.8067 86.0243 76.4967 86.3843 76.27C86.751 76.0367 87.1776 75.92 87.6643 75.92C88.0776 75.92 88.431 76 88.7243 76.16C89.0243 76.32 89.2676 76.5367 89.4543 76.81V76H90.2043V81H89.4543V80.2C89.2676 80.4667 89.0243 80.68 88.7243 80.84C88.431 81 88.0776 81.08 87.6643 81.08ZM87.7643 80.4C88.1376 80.4 88.451 80.3133 88.7043 80.14C88.9643 79.9667 89.161 79.7367 89.2943 79.45C89.4276 79.1567 89.4943 78.84 89.4943 78.5C89.4943 78.1533 89.4276 77.8367 89.2943 77.55C89.161 77.2633 88.9643 77.0333 88.7043 76.86C88.451 76.6867 88.1376 76.6 87.7643 76.6C87.3976 76.6 87.081 76.6867 86.8143 76.86C86.5476 77.0333 86.3443 77.2633 86.2043 77.55C86.0643 77.8367 85.9943 78.1533 85.9943 78.5C85.9943 78.84 86.0643 79.1567 86.2043 79.45C86.3443 79.7367 86.5476 79.9667 86.8143 80.14C87.081 80.3133 87.3976 80.4 87.7643 80.4ZM92.5016 81V76H93.2516V77.23C93.2782 77.1433 93.3282 77.03 93.4016 76.89C93.4816 76.7433 93.5949 76.5967 93.7416 76.45C93.8882 76.3033 94.0716 76.18 94.2916 76.08C94.5182 75.9733 94.7849 75.92 95.0916 75.92H95.1416V76.67H95.0516C94.6782 76.67 94.3549 76.7733 94.0816 76.98C93.8149 77.18 93.6082 77.4433 93.4616 77.77C93.3216 78.09 93.2516 78.4333 93.2516 78.8V81H92.5016ZM96.9188 75.16V74.18H97.7288V75.16H96.9188ZM96.9488 81V76H97.6988V81H96.9488ZM103.664 81V76.66H102.804V76H103.664V75.56C103.664 75.0133 103.827 74.6033 104.154 74.33C104.487 74.0567 104.94 73.92 105.514 73.92H105.574V74.63H105.474C105.127 74.63 104.864 74.71 104.684 74.87C104.504 75.0233 104.414 75.2733 104.414 75.62V76H106.984L106.964 76.02V81H106.214V76.66H104.414V81H103.664ZM106.184 75.16V74.18H106.994V75.16H106.184ZM109.285 81V74H110.035V81H109.285ZM112.336 81V76H113.086V76.76C113.199 76.56 113.379 76.37 113.626 76.19C113.872 76.01 114.199 75.92 114.606 75.92C114.939 75.92 115.246 76.01 115.526 76.19C115.812 76.3633 116.036 76.61 116.196 76.93C116.262 76.8167 116.366 76.68 116.506 76.52C116.652 76.36 116.842 76.22 117.076 76.1C117.309 75.98 117.589 75.92 117.916 75.92C118.236 75.92 118.536 76.0033 118.816 76.17C119.096 76.3367 119.322 76.5767 119.496 76.89C119.676 77.1967 119.766 77.56 119.766 77.98V81H119.016V78C119.016 77.58 118.896 77.2433 118.656 76.99C118.422 76.73 118.129 76.6 117.776 76.6C117.409 76.6 117.092 76.7233 116.826 76.97C116.559 77.2167 116.426 77.5633 116.426 78.01V81H115.676V78C115.676 77.58 115.556 77.2433 115.316 76.99C115.082 76.73 114.789 76.6 114.436 76.6C114.069 76.6 113.752 76.7233 113.486 76.97C113.219 77.2167 113.086 77.5633 113.086 78.01V81H112.336ZM125.486 81V76.66H124.626V76H125.486V75.56C125.486 75.0133 125.649 74.6033 125.976 74.33C126.309 74.0567 126.763 73.92 127.336 73.92H127.396V74.63H127.296C126.949 74.63 126.686 74.71 126.506 74.87C126.326 75.0233 126.236 75.2733 126.236 75.62V76H127.396V76.66H126.236V81H125.486ZM131.225 81.08C130.738 81.08 130.312 80.9667 129.945 80.74C129.585 80.5067 129.305 80.1933 129.105 79.8C128.905 79.4067 128.805 78.9733 128.805 78.5C128.805 78.02 128.905 77.5867 129.105 77.2C129.305 76.8067 129.585 76.4967 129.945 76.27C130.312 76.0367 130.738 75.92 131.225 75.92C131.638 75.92 131.992 76 132.285 76.16C132.585 76.32 132.828 76.5367 133.015 76.81V76H133.765V81H133.015V80.2C132.828 80.4667 132.585 80.68 132.285 80.84C131.992 81 131.638 81.08 131.225 81.08ZM131.325 80.4C131.698 80.4 132.012 80.3133 132.265 80.14C132.525 79.9667 132.722 79.7367 132.855 79.45C132.988 79.1567 133.055 78.84 133.055 78.5C133.055 78.1533 132.988 77.8367 132.855 77.55C132.722 77.2633 132.525 77.0333 132.265 76.86C132.012 76.6867 131.698 76.6 131.325 76.6C130.958 76.6 130.642 76.6867 130.375 76.86C130.108 77.0333 129.905 77.2633 129.765 77.55C129.625 77.8367 129.555 78.1533 129.555 78.5C129.555 78.84 129.625 79.1567 129.765 79.45C129.905 79.7367 130.108 79.9667 130.375 80.14C130.642 80.3133 130.958 80.4 131.325 80.4ZM137.422 81L135.462 76H136.282L137.862 80.2L139.432 76H140.252L138.302 81H137.422ZM144.027 81.08C143.52 81.08 143.08 80.9667 142.707 80.74C142.334 80.5067 142.047 80.1933 141.847 79.8C141.647 79.4067 141.547 78.9733 141.547 78.5C141.547 78.02 141.647 77.5867 141.847 77.2C142.047 76.8067 142.334 76.4967 142.707 76.27C143.08 76.0367 143.52 75.92 144.027 75.92C144.54 75.92 144.98 76.0367 145.347 76.27C145.72 76.4967 146.007 76.8067 146.207 77.2C146.407 77.5867 146.507 78.02 146.507 78.5C146.507 78.9733 146.407 79.4067 146.207 79.8C146.007 80.1933 145.72 80.5067 145.347 80.74C144.98 80.9667 144.54 81.08 144.027 81.08ZM144.027 80.4C144.4 80.4 144.714 80.3133 144.967 80.14C145.227 79.9667 145.424 79.7367 145.557 79.45C145.69 79.1567 145.757 78.84 145.757 78.5C145.757 78.1533 145.69 77.8367 145.557 77.55C145.424 77.2633 145.227 77.0333 144.967 76.86C144.714 76.6867 144.4 76.6 144.027 76.6C143.66 76.6 143.347 76.6867 143.087 76.86C142.827 77.0333 142.63 77.2633 142.497 77.55C142.364 77.8367 142.297 78.1533 142.297 78.5C142.297 78.84 142.364 79.1567 142.497 79.45C142.63 79.7367 142.827 79.9667 143.087 80.14C143.347 80.3133 143.66 80.4 144.027 80.4ZM148.502 81V76H149.252V77.23C149.278 77.1433 149.328 77.03 149.402 76.89C149.482 76.7433 149.595 76.5967 149.742 76.45C149.888 76.3033 150.072 76.18 150.292 76.08C150.518 75.9733 150.785 75.92 151.092 75.92H151.142V76.67H151.052C150.678 76.67 150.355 76.7733 150.082 76.98C149.815 77.18 149.608 77.4433 149.462 77.77C149.322 78.09 149.252 78.4333 149.252 78.8V81H148.502ZM152.919 75.16V74.18H153.729V75.16H152.919ZM152.949 81V76H153.699V81H152.949ZM156.54 81V76.66H155.52V76H156.54V74.21H157.29V76H158.44V76.66H157.29V81H156.54ZM163.39 81V76H164.14V76.76C164.254 76.56 164.434 76.37 164.68 76.19C164.927 76.01 165.254 75.92 165.66 75.92C165.994 75.92 166.3 76.01 166.58 76.19C166.867 76.3633 167.09 76.61 167.25 76.93C167.317 76.8167 167.42 76.68 167.56 76.52C167.707 76.36 167.897 76.22 168.13 76.1C168.364 75.98 168.644 75.92 168.97 75.92C169.29 75.92 169.59 76.0033 169.87 76.17C170.15 76.3367 170.377 76.5767 170.55 76.89C170.73 77.1967 170.82 77.56 170.82 77.98V81H170.07V78C170.07 77.58 169.95 77.2433 169.71 76.99C169.477 76.73 169.184 76.6 168.83 76.6C168.464 76.6 168.147 76.7233 167.88 76.97C167.614 77.2167 167.48 77.5633 167.48 78.01V81H166.73V78C166.73 77.58 166.61 77.2433 166.37 76.99C166.137 76.73 165.844 76.6 165.49 76.6C165.124 76.6 164.807 76.7233 164.54 76.97C164.274 77.2167 164.14 77.5633 164.14 78.01V81H163.39ZM175.022 81.08C174.682 81.08 174.359 81 174.052 80.84C173.745 80.6733 173.495 80.43 173.302 80.11C173.115 79.7833 173.022 79.3833 173.022 78.91V76H173.772V78.89C173.772 79.3433 173.902 79.71 174.162 79.99C174.429 80.2633 174.765 80.4 175.172 80.4C175.452 80.4 175.705 80.3367 175.932 80.21C176.159 80.0767 176.339 79.8967 176.472 79.67C176.612 79.4433 176.682 79.18 176.682 78.88V76H177.432V81H176.682V80.22C176.502 80.46 176.282 80.6633 176.022 80.83C175.762 80.9967 175.429 81.08 175.022 81.08ZM179.616 81V79.98H180.586V81H179.616ZM182.647 81V79.98H183.617V81H182.647ZM185.678 81V79.98H186.648V81H185.678Z" fill="black"/>
<rect x="386" y="92" width="28" height="28" rx="6" transform="rotate(180 386 92)" fill="#CFCFCF"/>
<path fill-rule="evenodd" clip-rule="evenodd" d="M373.982 79.3285L376.448 81.7943C376.535 81.8811 376.584 81.9987 376.584 82.1213C376.584 82.2439 376.535 82.3615 376.448 82.4481C376.361 82.5348 376.244 82.5835 376.121 82.5834C375.999 82.5834 375.881 82.5346 375.794 82.4479L373.328 79.9821C372.591 80.553 371.664 80.8217 370.736 80.7334C369.808 80.6452 368.948 80.2067 368.332 79.5071C367.716 78.8075 367.389 77.8993 367.418 76.9674C367.448 76.0355 367.831 75.1498 368.49 74.4905C369.15 73.8312 370.035 73.4478 370.967 73.4184C371.899 73.3889 372.807 73.7156 373.507 74.332C374.207 74.9483 374.645 75.808 374.733 76.7362C374.822 77.6644 374.553 78.5914 373.982 79.3285M371.084 79.8331C371.813 79.8331 372.512 79.5434 373.028 79.0277C373.544 78.5119 373.834 77.8125 373.834 77.0831C373.834 76.3538 373.544 75.6543 373.028 75.1386C372.512 74.6228 371.813 74.3331 371.084 74.3331C370.354 74.3331 369.655 74.6228 369.139 75.1386C368.623 75.6543 368.334 76.3538 368.334 77.0831C368.334 77.8125 368.623 78.5119 369.139 79.0277C369.655 79.5434 370.354 79.8331 371.084 79.8331Z" fill="black"/>
</g>
<defs>
<clipPath id="clip0_204_8441">
<rect width="402" height="874" rx="16" fill="white"/>
</clipPath>
</defs>
</svg>
