<svg width="402" height="874" viewBox="0 0 402 874" fill="none" xmlns="http://www.w3.org/2000/svg">
<rect width="402" height="874" rx="16" fill="white"/>
<mask id="path-2-inside-1_206_9274" fill="white">
<path d="M0 780H402V874H0V780Z"/>
</mask>
<path d="M0 781H402V779H0V781Z" fill="#EFEFF0" mask="url(#path-2-inside-1_206_9274)"/>
<mask id="mask0_206_9274" style="mask-type:luminance" maskUnits="userSpaceOnUse" x="26" y="805" width="25" height="26">
<path fill-rule="evenodd" clip-rule="evenodd" d="M26.3333 805.167H50.2497V830.256H26.3333V805.167Z" fill="white"/>
</mask>
<g mask="url(#mask0_206_9274)">
<path fill-rule="evenodd" clip-rule="evenodd" d="M40.0028 821.84C41.4075 821.84 42.5508 822.975 42.5508 824.37V827.959C42.5508 828.259 42.7912 828.499 43.0992 828.506H45.3228C47.0752 828.506 48.4997 827.099 48.4997 825.37V815.192C48.4915 814.597 48.208 814.037 47.7215 813.665L40.0297 807.531C38.9972 806.713 37.5528 806.713 36.5168 807.533L28.8775 813.663C28.3723 814.047 28.0888 814.607 28.083 815.212V825.37C28.083 827.099 29.5075 828.506 31.2598 828.506H33.5045C33.8207 828.506 34.0773 828.255 34.0773 827.947C34.0773 827.88 34.0855 827.812 34.0995 827.748V824.37C34.0995 822.983 35.2358 821.849 36.63 821.84H40.0028ZM45.3228 830.256H43.0782C41.7925 830.226 40.8008 829.217 40.8008 827.959V824.37C40.8008 823.94 40.4427 823.59 40.0028 823.59H36.6358C36.2053 823.592 35.8495 823.943 35.8495 824.37V827.947C35.8495 828.035 35.8378 828.119 35.8133 828.198C35.6873 829.353 34.7003 830.256 33.5045 830.256H31.2598C28.5427 830.256 26.333 828.064 26.333 825.37V815.204C26.3447 814.044 26.879 812.983 27.8018 812.284L35.426 806.165C37.1048 804.835 39.444 804.835 41.1193 806.162L48.7983 812.287C49.7002 812.974 50.2345 814.034 50.2497 815.179V825.37C50.2497 828.064 48.04 830.256 45.3228 830.256Z" fill="#1D1D1D"/>
</g>
<mask id="mask1_206_9274" style="mask-type:luminance" maskUnits="userSpaceOnUse" x="354" y="820" width="20" height="10">
<path fill-rule="evenodd" clip-rule="evenodd" d="M354.667 820.912H373.147V829.515H354.667V820.912Z" fill="white"/>
</mask>
<g mask="url(#mask1_206_9274)">
<path fill-rule="evenodd" clip-rule="evenodd" d="M363.908 822.662C358.937 822.662 356.417 823.516 356.417 825.202C356.417 826.903 358.937 827.765 363.908 827.765C368.878 827.765 371.397 826.911 371.397 825.225C371.397 823.524 368.878 822.662 363.908 822.662ZM363.908 829.515C361.622 829.515 354.667 829.515 354.667 825.202C354.667 821.357 359.941 820.912 363.908 820.912C366.193 820.912 373.147 820.912 373.147 825.225C373.147 829.071 367.873 829.515 363.908 829.515Z" fill="#61646B"/>
</g>
<mask id="mask2_206_9274" style="mask-type:luminance" maskUnits="userSpaceOnUse" x="357" y="806" width="14" height="13">
<path fill-rule="evenodd" clip-rule="evenodd" d="M357.712 806.333H370.102V818.722H357.712V806.333Z" fill="white"/>
</mask>
<g mask="url(#mask2_206_9274)">
<path fill-rule="evenodd" clip-rule="evenodd" d="M363.908 807.999C361.41 807.999 359.378 810.03 359.378 812.528C359.37 815.018 361.387 817.048 363.874 817.057L363.908 817.89V817.057C366.405 817.057 368.436 815.025 368.436 812.528C368.436 810.03 366.405 807.999 363.908 807.999ZM363.908 818.722H363.871C360.462 818.711 357.7 815.931 357.712 812.525C357.712 809.112 360.491 806.333 363.908 806.333C367.324 806.333 370.102 809.112 370.102 812.528C370.102 815.944 367.324 818.722 363.908 818.722Z" fill="#61646B"/>
</g>
<path d="M211 828.818V808.818C211 808.336 210.808 807.874 210.467 807.533C210.126 807.192 209.664 807 209.182 807H192.818C192.336 807 191.874 807.192 191.533 807.533C191.192 807.874 191 808.336 191 808.818V828.818C191 829.3 191.192 829.763 191.533 830.104C191.874 830.445 192.336 830.636 192.818 830.636H209.182C209.664 830.636 210.126 830.445 210.467 830.104C210.808 829.763 211 829.3 211 828.818ZM209.182 825.182V828.818H207.364V825.182H209.182ZM192.818 812.455V808.818H194.636V812.455H192.818ZM207.364 812.455V808.818H209.182V812.455H207.364ZM192.818 817.909V814.273H194.636V817.909H192.818ZM207.364 817.909V814.273H209.182V817.909H207.364ZM192.818 823.364V819.727H194.636V823.364H192.818ZM207.364 823.364V819.727H209.182V823.364H207.364ZM192.818 828.818V825.182H194.636V828.818H192.818Z" fill="#61646B"/>
<rect x="44" y="248" width="111" height="158" rx="7" fill="#EFEFF0"/>
<rect x="44" y="248" width="111" height="158" rx="7" stroke="#AFB1B6" stroke-width="2"/>
<mask id="mask3_206_9274" style="mask-type:luminance" maskUnits="userSpaceOnUse" x="90" y="317" width="20" height="20">
<path fill-rule="evenodd" clip-rule="evenodd" d="M90.0005 317H109.96V336.95H90.0005V317Z" fill="white"/>
</mask>
<g mask="url(#mask3_206_9274)">
<path fill-rule="evenodd" clip-rule="evenodd" d="M95.6505 318.5C93.1295 318.5 91.5005 320.227 91.5005 322.899V331.051C91.5005 333.724 93.1295 335.45 95.6505 335.45H104.3C106.827 335.45 108.46 333.724 108.46 331.051V322.899C108.46 320.227 106.827 318.5 104.3 318.5H95.6505ZM104.3 336.95H95.6505C92.2705 336.95 90.0005 334.579 90.0005 331.051V322.899C90.0005 319.371 92.2705 317 95.6505 317H104.3C107.685 317 109.96 319.371 109.96 322.899V331.051C109.96 334.579 107.685 336.95 104.3 336.95Z" fill="#AFB1B6"/>
</g>
<path fill-rule="evenodd" clip-rule="evenodd" d="M93.2815 332.18C93.0955 332.18 92.9105 332.112 92.7655 331.974C92.4645 331.69 92.4525 331.214 92.7375 330.915L94.2655 329.302C95.0745 328.443 96.4395 328.401 97.3025 329.211L98.2605 330.183C98.5275 330.453 98.9615 330.458 99.2295 330.194C99.3305 330.075 101.509 327.43 101.509 327.43C101.922 326.928 102.507 326.618 103.156 326.554C103.806 326.497 104.436 326.686 104.939 327.099C104.983 327.134 105.021 327.168 107.217 329.423C107.506 329.719 107.502 330.194 107.205 330.483C106.909 330.774 106.432 330.765 106.144 330.469C106.144 330.469 104.094 328.366 103.948 328.224C103.793 328.097 103.545 328.023 103.3 328.047C103.051 328.072 102.827 328.191 102.668 328.384C100.344 331.203 100.316 331.23 100.278 331.267C99.4195 332.109 98.0345 332.095 97.1915 331.235C97.1915 331.235 96.2615 330.291 96.2455 330.272C96.0145 330.058 95.6025 330.072 95.3555 330.333L93.8255 331.946C93.6775 332.102 93.4795 332.18 93.2815 332.18Z" fill="#AFB1B6"/>
<path fill-rule="evenodd" clip-rule="evenodd" d="M96.5577 323.129C96.0047 323.129 95.5547 323.579 95.5547 324.133C95.5547 324.687 96.0047 325.138 96.5587 325.138C97.1127 325.138 97.5637 324.687 97.5637 324.133C97.5637 323.58 97.1127 323.13 96.5577 323.129ZM96.5587 326.638C95.1777 326.638 94.0547 325.514 94.0547 324.133C94.0547 322.752 95.1777 321.629 96.5587 321.629C97.9407 321.63 99.0637 322.754 99.0637 324.133C99.0637 325.514 97.9397 326.638 96.5587 326.638Z" fill="#AFB1B6"/>
<rect x="248" y="248" width="111" height="158" rx="7" fill="#EFEFF0"/>
<rect x="248" y="248" width="111" height="158" rx="7" stroke="#AFB1B6" stroke-width="2"/>
<mask id="mask4_206_9274" style="mask-type:luminance" maskUnits="userSpaceOnUse" x="294" y="317" width="20" height="20">
<path fill-rule="evenodd" clip-rule="evenodd" d="M294 317H313.96V336.95H294V317Z" fill="white"/>
</mask>
<g mask="url(#mask4_206_9274)">
<path fill-rule="evenodd" clip-rule="evenodd" d="M299.65 318.5C297.129 318.5 295.5 320.227 295.5 322.899V331.051C295.5 333.724 297.129 335.45 299.65 335.45H308.3C310.827 335.45 312.46 333.724 312.46 331.051V322.899C312.46 320.227 310.827 318.5 308.3 318.5H299.65ZM308.3 336.95H299.65C296.27 336.95 294 334.579 294 331.051V322.899C294 319.371 296.27 317 299.65 317H308.3C311.685 317 313.96 319.371 313.96 322.899V331.051C313.96 334.579 311.685 336.95 308.3 336.95Z" fill="#AFB1B6"/>
</g>
<path fill-rule="evenodd" clip-rule="evenodd" d="M297.282 332.18C297.096 332.18 296.911 332.112 296.766 331.974C296.465 331.69 296.453 331.214 296.738 330.915L298.266 329.302C299.075 328.443 300.44 328.401 301.303 329.211L302.26 330.183C302.528 330.453 302.962 330.458 303.23 330.194C303.331 330.075 305.509 327.43 305.509 327.43C305.922 326.928 306.507 326.618 307.156 326.554C307.806 326.497 308.436 326.686 308.939 327.099C308.983 327.134 309.021 327.168 311.217 329.423C311.506 329.719 311.502 330.194 311.205 330.483C310.909 330.774 310.432 330.765 310.144 330.469C310.144 330.469 308.094 328.366 307.948 328.224C307.793 328.097 307.545 328.023 307.3 328.047C307.051 328.072 306.827 328.191 306.668 328.384C304.344 331.203 304.316 331.23 304.278 331.267C303.42 332.109 302.035 332.095 301.192 331.235C301.192 331.235 300.262 330.291 300.246 330.272C300.015 330.058 299.602 330.072 299.355 330.333L297.826 331.946C297.678 332.102 297.48 332.18 297.282 332.18Z" fill="#AFB1B6"/>
<path fill-rule="evenodd" clip-rule="evenodd" d="M300.558 323.129C300.005 323.129 299.555 323.579 299.555 324.133C299.555 324.687 300.005 325.138 300.559 325.138C301.113 325.138 301.564 324.687 301.564 324.133C301.564 323.58 301.113 323.13 300.558 323.129ZM300.559 326.638C299.178 326.638 298.055 325.514 298.055 324.133C298.055 322.752 299.178 321.629 300.559 321.629C301.941 321.63 303.064 322.754 303.064 324.133C303.064 325.514 301.94 326.638 300.559 326.638Z" fill="#AFB1B6"/>
<rect x="128" y="147" width="147" height="209" rx="7" fill="#EFEFF0"/>
<rect x="128" y="147" width="147" height="209" rx="7" stroke="#AFB1B6" stroke-width="2"/>
<mask id="mask5_206_9274" style="mask-type:luminance" maskUnits="userSpaceOnUse" x="192" y="242" width="20" height="20">
<path fill-rule="evenodd" clip-rule="evenodd" d="M192 242H211.96V261.95H192V242Z" fill="white"/>
</mask>
<g mask="url(#mask5_206_9274)">
<path fill-rule="evenodd" clip-rule="evenodd" d="M197.65 243.5C195.129 243.5 193.5 245.227 193.5 247.899V256.051C193.5 258.724 195.129 260.45 197.65 260.45H206.3C208.827 260.45 210.46 258.724 210.46 256.051V247.899C210.46 245.227 208.827 243.5 206.3 243.5H197.65ZM206.3 261.95H197.65C194.27 261.95 192 259.579 192 256.051V247.899C192 244.371 194.27 242 197.65 242H206.3C209.685 242 211.96 244.371 211.96 247.899V256.051C211.96 259.579 209.685 261.95 206.3 261.95Z" fill="#AFB1B6"/>
</g>
<path fill-rule="evenodd" clip-rule="evenodd" d="M195.282 257.18C195.096 257.18 194.911 257.112 194.766 256.974C194.465 256.69 194.453 256.214 194.738 255.915L196.266 254.302C197.075 253.443 198.44 253.401 199.303 254.211L200.26 255.183C200.528 255.453 200.962 255.458 201.23 255.194C201.331 255.075 203.509 252.43 203.509 252.43C203.922 251.928 204.507 251.618 205.156 251.554C205.806 251.497 206.436 251.686 206.939 252.099C206.983 252.134 207.021 252.168 209.217 254.423C209.506 254.719 209.502 255.194 209.205 255.483C208.909 255.774 208.432 255.765 208.144 255.469C208.144 255.469 206.094 253.366 205.948 253.224C205.793 253.097 205.545 253.023 205.3 253.047C205.051 253.072 204.827 253.191 204.668 253.384C202.344 256.203 202.316 256.23 202.278 256.267C201.42 257.109 200.035 257.095 199.192 256.235C199.192 256.235 198.262 255.291 198.246 255.272C198.015 255.058 197.602 255.072 197.355 255.333L195.826 256.946C195.678 257.102 195.48 257.18 195.282 257.18Z" fill="#AFB1B6"/>
<path fill-rule="evenodd" clip-rule="evenodd" d="M198.558 248.129C198.005 248.129 197.555 248.579 197.555 249.133C197.555 249.687 198.005 250.138 198.559 250.138C199.113 250.138 199.564 249.687 199.564 249.133C199.564 248.58 199.113 248.13 198.558 248.129ZM198.559 251.638C197.178 251.638 196.055 250.514 196.055 249.133C196.055 247.752 197.178 246.629 198.559 246.629C199.941 246.63 201.064 247.754 201.064 249.133C201.064 250.514 199.94 251.638 198.559 251.638Z" fill="#AFB1B6"/>
<rect x="13" y="592" width="111" height="158" rx="7" fill="#EFEFF0"/>
<rect x="13" y="592" width="111" height="158" rx="7" stroke="#AFB1B6" stroke-width="2"/>
<mask id="mask6_206_9274" style="mask-type:luminance" maskUnits="userSpaceOnUse" x="59" y="661" width="20" height="20">
<path fill-rule="evenodd" clip-rule="evenodd" d="M59.0005 661H78.9601V680.95H59.0005V661Z" fill="white"/>
</mask>
<g mask="url(#mask6_206_9274)">
<path fill-rule="evenodd" clip-rule="evenodd" d="M64.6505 662.5C62.1295 662.5 60.5005 664.227 60.5005 666.899V675.051C60.5005 677.724 62.1295 679.45 64.6505 679.45H73.3005C75.8275 679.45 77.4605 677.724 77.4605 675.051V666.899C77.4605 664.227 75.8275 662.5 73.3005 662.5H64.6505ZM73.3005 680.95H64.6505C61.2705 680.95 59.0005 678.579 59.0005 675.051V666.899C59.0005 663.371 61.2705 661 64.6505 661H73.3005C76.6855 661 78.9605 663.371 78.9605 666.899V675.051C78.9605 678.579 76.6855 680.95 73.3005 680.95Z" fill="#AFB1B6"/>
</g>
<path fill-rule="evenodd" clip-rule="evenodd" d="M62.2815 676.18C62.0955 676.18 61.9105 676.112 61.7655 675.974C61.4645 675.69 61.4525 675.214 61.7375 674.915L63.2655 673.302C64.0745 672.443 65.4395 672.401 66.3025 673.211L67.2605 674.183C67.5275 674.453 67.9615 674.458 68.2295 674.194C68.3305 674.075 70.5085 671.43 70.5085 671.43C70.9225 670.928 71.5065 670.618 72.1555 670.554C72.8055 670.497 73.4365 670.686 73.9395 671.099C73.9825 671.134 74.0215 671.168 76.2175 673.423C76.5065 673.719 76.5015 674.194 76.2045 674.483C75.9085 674.774 75.4325 674.765 75.1435 674.469C75.1435 674.469 73.0945 672.366 72.9485 672.224C72.7935 672.097 72.5445 672.023 72.2995 672.047C72.0505 672.072 71.8265 672.191 71.6675 672.384C69.3435 675.203 69.3155 675.23 69.2775 675.267C68.4195 676.109 67.0345 676.095 66.1915 675.235C66.1915 675.235 65.2615 674.291 65.2455 674.272C65.0145 674.058 64.6025 674.072 64.3555 674.333L62.8255 675.946C62.6775 676.102 62.4795 676.18 62.2815 676.18Z" fill="#AFB1B6"/>
<path fill-rule="evenodd" clip-rule="evenodd" d="M65.5577 667.129C65.0047 667.129 64.5547 667.579 64.5547 668.133C64.5547 668.687 65.0047 669.138 65.5587 669.138C66.1127 669.138 66.5637 668.687 66.5637 668.133C66.5637 667.58 66.1127 667.13 65.5577 667.129ZM65.5587 670.638C64.1777 670.638 63.0547 669.514 63.0547 668.133C63.0547 666.752 64.1777 665.629 65.5587 665.629C66.9407 665.63 68.0637 666.754 68.0637 668.133C68.0637 669.514 66.9397 670.638 65.5587 670.638Z" fill="#AFB1B6"/>
<rect x="146" y="592" width="111" height="158" rx="7" fill="#EFEFF0"/>
<rect x="146" y="592" width="111" height="158" rx="7" stroke="#AFB1B6" stroke-width="2"/>
<mask id="mask7_206_9274" style="mask-type:luminance" maskUnits="userSpaceOnUse" x="192" y="661" width="20" height="20">
<path fill-rule="evenodd" clip-rule="evenodd" d="M192 661H211.96V680.95H192V661Z" fill="white"/>
</mask>
<g mask="url(#mask7_206_9274)">
<path fill-rule="evenodd" clip-rule="evenodd" d="M197.65 662.5C195.129 662.5 193.5 664.227 193.5 666.899V675.051C193.5 677.724 195.129 679.45 197.65 679.45H206.3C208.827 679.45 210.46 677.724 210.46 675.051V666.899C210.46 664.227 208.827 662.5 206.3 662.5H197.65ZM206.3 680.95H197.65C194.27 680.95 192 678.579 192 675.051V666.899C192 663.371 194.27 661 197.65 661H206.3C209.685 661 211.96 663.371 211.96 666.899V675.051C211.96 678.579 209.685 680.95 206.3 680.95Z" fill="#AFB1B6"/>
</g>
<path fill-rule="evenodd" clip-rule="evenodd" d="M195.282 676.18C195.096 676.18 194.911 676.112 194.766 675.974C194.465 675.69 194.453 675.214 194.738 674.915L196.266 673.302C197.075 672.443 198.44 672.401 199.303 673.211L200.26 674.183C200.528 674.453 200.962 674.458 201.23 674.194C201.331 674.075 203.509 671.43 203.509 671.43C203.922 670.928 204.507 670.618 205.156 670.554C205.806 670.497 206.436 670.686 206.939 671.099C206.983 671.134 207.021 671.168 209.217 673.423C209.506 673.719 209.502 674.194 209.205 674.483C208.909 674.774 208.432 674.765 208.144 674.469C208.144 674.469 206.094 672.366 205.948 672.224C205.793 672.097 205.545 672.023 205.3 672.047C205.051 672.072 204.827 672.191 204.668 672.384C202.344 675.203 202.316 675.23 202.278 675.267C201.42 676.109 200.035 676.095 199.192 675.235C199.192 675.235 198.262 674.291 198.246 674.272C198.015 674.058 197.602 674.072 197.355 674.333L195.826 675.946C195.678 676.102 195.48 676.18 195.282 676.18Z" fill="#AFB1B6"/>
<path fill-rule="evenodd" clip-rule="evenodd" d="M198.558 667.129C198.005 667.129 197.555 667.579 197.555 668.133C197.555 668.687 198.005 669.138 198.559 669.138C199.113 669.138 199.564 668.687 199.564 668.133C199.564 667.58 199.113 667.13 198.558 667.129ZM198.559 670.638C197.178 670.638 196.055 669.514 196.055 668.133C196.055 666.752 197.178 665.629 198.559 665.629C199.941 665.63 201.064 666.754 201.064 668.133C201.064 669.514 199.94 670.638 198.559 670.638Z" fill="#AFB1B6"/>
<rect x="279" y="592" width="111" height="158" rx="7" fill="#EFEFF0"/>
<rect x="279" y="592" width="111" height="158" rx="7" stroke="#AFB1B6" stroke-width="2"/>
<mask id="mask8_206_9274" style="mask-type:luminance" maskUnits="userSpaceOnUse" x="325" y="661" width="20" height="20">
<path fill-rule="evenodd" clip-rule="evenodd" d="M325 661H344.96V680.95H325V661Z" fill="white"/>
</mask>
<g mask="url(#mask8_206_9274)">
<path fill-rule="evenodd" clip-rule="evenodd" d="M330.65 662.5C328.129 662.5 326.5 664.227 326.5 666.899V675.051C326.5 677.724 328.129 679.45 330.65 679.45H339.3C341.827 679.45 343.46 677.724 343.46 675.051V666.899C343.46 664.227 341.827 662.5 339.3 662.5H330.65ZM339.3 680.95H330.65C327.27 680.95 325 678.579 325 675.051V666.899C325 663.371 327.27 661 330.65 661H339.3C342.685 661 344.96 663.371 344.96 666.899V675.051C344.96 678.579 342.685 680.95 339.3 680.95Z" fill="#AFB1B6"/>
</g>
<path fill-rule="evenodd" clip-rule="evenodd" d="M328.282 676.18C328.096 676.18 327.911 676.112 327.766 675.974C327.465 675.69 327.453 675.214 327.738 674.915L329.266 673.302C330.075 672.443 331.44 672.401 332.303 673.211L333.26 674.183C333.528 674.453 333.962 674.458 334.23 674.194C334.331 674.075 336.509 671.43 336.509 671.43C336.922 670.928 337.507 670.618 338.156 670.554C338.806 670.497 339.436 670.686 339.939 671.099C339.983 671.134 340.021 671.168 342.217 673.423C342.506 673.719 342.502 674.194 342.205 674.483C341.909 674.774 341.432 674.765 341.144 674.469C341.144 674.469 339.094 672.366 338.948 672.224C338.793 672.097 338.545 672.023 338.3 672.047C338.051 672.072 337.827 672.191 337.668 672.384C335.344 675.203 335.316 675.23 335.278 675.267C334.42 676.109 333.035 676.095 332.192 675.235C332.192 675.235 331.262 674.291 331.246 674.272C331.015 674.058 330.602 674.072 330.355 674.333L328.826 675.946C328.678 676.102 328.48 676.18 328.282 676.18Z" fill="#AFB1B6"/>
<path fill-rule="evenodd" clip-rule="evenodd" d="M331.558 667.129C331.005 667.129 330.555 667.579 330.555 668.133C330.555 668.687 331.005 669.138 331.559 669.138C332.113 669.138 332.564 668.687 332.564 668.133C332.564 667.58 332.113 667.13 331.558 667.129ZM331.559 670.638C330.178 670.638 329.055 669.514 329.055 668.133C329.055 666.752 330.178 665.629 331.559 665.629C332.941 665.63 334.064 666.754 334.064 668.133C334.064 669.514 332.94 670.638 331.559 670.638Z" fill="#AFB1B6"/>
<path d="M16.92 524.872H22.216V527H14.168V516.44H16.92V524.872ZM27.3153 518.84C28.1579 518.84 28.8939 519.005 29.5233 519.336C30.1633 519.656 30.6593 520.131 31.0113 520.76C31.3739 521.379 31.5553 522.125 31.5553 523C31.5553 523.875 31.3739 524.627 31.0113 525.256C30.6593 525.875 30.1633 526.349 29.5233 526.68C28.8939 527 28.1579 527.16 27.3153 527.16C26.4939 527.16 25.7633 527 25.1233 526.68C24.4833 526.349 23.9819 525.875 23.6193 525.256C23.2673 524.627 23.0913 523.875 23.0913 523C23.0913 522.125 23.2673 521.379 23.6193 520.76C23.9819 520.131 24.4833 519.656 25.1233 519.336C25.7633 519.005 26.4939 518.84 27.3153 518.84ZM27.3153 520.776C27.0059 520.776 26.7393 520.851 26.5153 521C26.2913 521.149 26.1206 521.389 26.0033 521.72C25.8859 522.051 25.8273 522.477 25.8273 523C25.8273 523.523 25.8859 523.949 26.0033 524.28C26.1206 524.6 26.2913 524.84 26.5153 525C26.7393 525.149 27.0059 525.224 27.3153 525.224C27.6353 525.224 27.9073 525.149 28.1313 525C28.3553 524.84 28.5259 524.6 28.6433 524.28C28.7606 523.949 28.8193 523.523 28.8193 523C28.8193 522.477 28.7606 522.051 28.6433 521.72C28.5259 521.389 28.3553 521.149 28.1313 521C27.9073 520.851 27.6353 520.776 27.3153 520.776ZM33.0854 527V519H35.4854L35.5974 520.728C35.8 520.131 36.0987 519.667 36.4934 519.336C36.8987 519.005 37.4107 518.84 38.0294 518.84C38.232 518.84 38.4027 518.856 38.5414 518.888C38.6907 518.92 38.808 518.963 38.8934 519.016L38.6214 521.256C38.5147 521.213 38.376 521.181 38.2054 521.16C38.0454 521.128 37.848 521.112 37.6134 521.112C37.2934 521.112 36.9947 521.181 36.7174 521.32C36.44 521.459 36.216 521.667 36.0454 521.944C35.8854 522.211 35.8054 522.552 35.8054 522.968V527H33.0854ZM43.7706 527.16C42.8853 527.16 42.1173 526.995 41.4666 526.664C40.8266 526.333 40.3306 525.859 39.9786 525.24C39.6266 524.621 39.4506 523.875 39.4506 523C39.4506 522.125 39.6266 521.379 39.9786 520.76C40.3306 520.141 40.8213 519.667 41.4506 519.336C42.0906 519.005 42.8213 518.84 43.6426 518.84C44.4853 518.84 45.2 519.005 45.7866 519.336C46.384 519.656 46.8373 520.104 47.1466 520.68C47.456 521.245 47.6106 521.896 47.6106 522.632C47.6106 522.824 47.6053 523.016 47.5946 523.208C47.584 523.4 47.568 523.56 47.5466 523.688H41.2106V522.232H46.3466L45.0506 522.728C45.0506 522.088 44.9333 521.597 44.6986 521.256C44.4746 520.915 44.1226 520.744 43.6426 520.744C43.3013 520.744 43.008 520.824 42.7626 520.984C42.528 521.144 42.3466 521.395 42.2186 521.736C42.1013 522.077 42.0426 522.515 42.0426 523.048C42.0426 523.571 42.112 523.997 42.2506 524.328C42.3893 524.648 42.5866 524.883 42.8426 525.032C43.0986 525.171 43.408 525.24 43.7706 525.24C44.176 525.24 44.496 525.16 44.7306 525C44.976 524.84 45.1573 524.616 45.2746 524.328L47.4506 525.048C47.3013 525.507 47.04 525.896 46.6666 526.216C46.304 526.525 45.8666 526.76 45.3546 526.92C44.8533 527.08 44.3253 527.16 43.7706 527.16ZM49.1323 527V519H51.5643L51.6443 520.552C51.9003 519.987 52.2576 519.56 52.7163 519.272C53.1856 518.984 53.7243 518.84 54.3323 518.84C54.9296 518.84 55.4469 518.973 55.8843 519.24C56.3216 519.507 56.6469 519.901 56.8603 520.424C57.0309 520.072 57.2496 519.779 57.5163 519.544C57.7936 519.309 58.1083 519.133 58.4603 519.016C58.8123 518.899 59.1749 518.84 59.5483 518.84C60.0816 518.84 60.5509 518.947 60.9563 519.16C61.3616 519.363 61.6816 519.677 61.9163 520.104C62.1616 520.52 62.2843 521.043 62.2843 521.672V527H59.5643V522.296C59.5643 521.784 59.4629 521.427 59.2603 521.224C59.0683 521.021 58.8069 520.92 58.4763 520.92C58.2096 520.92 57.9643 520.989 57.7403 521.128C57.5269 521.256 57.3616 521.453 57.2443 521.72C57.1269 521.987 57.0683 522.323 57.0683 522.728V527H54.3483V522.296C54.3483 521.784 54.2469 521.427 54.0443 521.224C53.8416 521.021 53.5803 520.92 53.2603 520.92C53.0149 520.92 52.7803 520.984 52.5563 521.112C52.3429 521.24 52.1723 521.443 52.0443 521.72C51.9163 521.987 51.8523 522.339 51.8523 522.776V527H49.1323ZM70.1329 518.072C69.5782 518.072 69.1729 517.971 68.9169 517.768C68.6715 517.555 68.5489 517.224 68.5489 516.776C68.5489 516.317 68.6715 515.987 68.9169 515.784C69.1729 515.571 69.5782 515.464 70.1329 515.464C70.6769 515.464 71.0769 515.571 71.3329 515.784C71.5889 515.987 71.7169 516.317 71.7169 516.776C71.7169 517.224 71.5889 517.555 71.3329 517.768C71.0769 517.971 70.6769 518.072 70.1329 518.072ZM71.4929 519V527H68.7729V519H71.4929ZM73.4291 530.36V519H75.8771L76.0211 521.896L75.7011 521.56C75.7758 521.027 75.9411 520.557 76.1971 520.152C76.4531 519.747 76.7838 519.427 77.1891 519.192C77.5945 518.957 78.0585 518.84 78.5811 518.84C79.2425 518.84 79.8185 519.005 80.3091 519.336C80.7998 519.656 81.1785 520.125 81.4451 520.744C81.7225 521.352 81.8611 522.093 81.8611 522.968C81.8611 523.843 81.7225 524.595 81.4451 525.224C81.1678 525.853 80.7785 526.333 80.2771 526.664C79.7865 526.995 79.2105 527.16 78.5491 527.16C77.8238 527.16 77.2371 526.947 76.7891 526.52C76.3411 526.083 76.0425 525.533 75.8931 524.872L76.1491 524.488V530.36H73.4291ZM77.6211 525.16C78.0905 525.16 78.4585 524.989 78.7251 524.648C78.9918 524.296 79.1251 523.747 79.1251 523C79.1251 522.253 78.9918 521.709 78.7251 521.368C78.4691 521.016 78.1065 520.84 77.6371 520.84C77.3385 520.84 77.0771 520.925 76.8531 521.096C76.6291 521.256 76.4531 521.496 76.3251 521.816C76.2078 522.136 76.1491 522.531 76.1491 523C76.1491 523.448 76.2025 523.837 76.3091 524.168C76.4265 524.488 76.5971 524.733 76.8211 524.904C77.0451 525.075 77.3118 525.16 77.6211 525.16ZM86.8204 527.16C86.0204 527.16 85.2737 527.032 84.5804 526.776C83.8977 526.509 83.3324 526.131 82.8844 525.64L84.1644 524.136C84.431 524.477 84.783 524.765 85.2204 525C85.6684 525.224 86.1644 525.336 86.7084 525.336C87.039 525.336 87.311 525.288 87.5244 525.192C87.7377 525.096 87.8444 524.947 87.8444 524.744C87.8444 524.595 87.791 524.477 87.6844 524.392C87.5777 524.296 87.3644 524.216 87.0444 524.152L85.9244 523.928C84.9217 523.725 84.207 523.427 83.7804 523.032C83.3644 522.627 83.1564 522.099 83.1564 521.448C83.1564 521.011 83.2897 520.595 83.5564 520.2C83.823 519.795 84.2337 519.469 84.7884 519.224C85.343 518.968 86.0524 518.84 86.9164 518.84C87.727 518.84 88.4417 518.957 89.0604 519.192C89.679 519.427 90.1697 519.768 90.5324 520.216L89.2364 521.688C88.9804 521.368 88.6497 521.117 88.2444 520.936C87.839 520.755 87.4337 520.664 87.0284 520.664C86.7724 520.664 86.5537 520.691 86.3724 520.744C86.2017 520.787 86.0737 520.851 85.9884 520.936C85.903 521.021 85.8604 521.128 85.8604 521.256C85.8604 521.395 85.9244 521.517 86.0524 521.624C86.191 521.72 86.4417 521.805 86.8044 521.88L88.2604 522.168C89.0817 522.317 89.6737 522.589 90.0364 522.984C90.399 523.379 90.5804 523.853 90.5804 524.408C90.5804 524.931 90.4417 525.4 90.1644 525.816C89.887 526.232 89.471 526.563 88.9164 526.808C88.3617 527.043 87.663 527.16 86.8204 527.16ZM94.6956 527.16C94.1516 527.16 93.6716 527.069 93.2556 526.888C92.8503 526.696 92.5303 526.392 92.2956 525.976C92.061 525.56 91.9436 525.016 91.9436 524.344V519H94.6636V523.704C94.6636 524.216 94.765 524.573 94.9676 524.776C95.1703 524.979 95.4583 525.08 95.8316 525.08C96.0236 525.08 96.205 525.048 96.3756 524.984C96.5463 524.909 96.6956 524.803 96.8236 524.664C96.9516 524.515 97.0476 524.328 97.1116 524.104C97.1863 523.869 97.2236 523.597 97.2236 523.288V519H99.9436V527H97.5116L97.4316 525.496C97.1756 526.061 96.8183 526.483 96.3596 526.76C95.901 527.027 95.3463 527.16 94.6956 527.16ZM101.898 527V519H104.33L104.41 520.552C104.666 519.987 105.023 519.56 105.482 519.272C105.951 518.984 106.49 518.84 107.098 518.84C107.695 518.84 108.213 518.973 108.65 519.24C109.087 519.507 109.413 519.901 109.626 520.424C109.797 520.072 110.015 519.779 110.282 519.544C110.559 519.309 110.874 519.133 111.226 519.016C111.578 518.899 111.941 518.84 112.314 518.84C112.847 518.84 113.317 518.947 113.722 519.16C114.127 519.363 114.447 519.677 114.682 520.104C114.927 520.52 115.05 521.043 115.05 521.672V527H112.33V522.296C112.33 521.784 112.229 521.427 112.026 521.224C111.834 521.021 111.573 520.92 111.242 520.92C110.975 520.92 110.73 520.989 110.506 521.128C110.293 521.256 110.127 521.453 110.01 521.72C109.893 521.987 109.834 522.323 109.834 522.728V527H107.114V522.296C107.114 521.784 107.013 521.427 106.81 521.224C106.607 521.021 106.346 520.92 106.026 520.92C105.781 520.92 105.546 520.984 105.322 521.112C105.109 521.24 104.938 521.443 104.81 521.72C104.682 521.987 104.618 522.339 104.618 522.776V527H101.898ZM124.483 527.16C123.821 527.16 123.24 527 122.739 526.68C122.248 526.349 121.864 525.875 121.587 525.256C121.32 524.637 121.187 523.896 121.187 523.032C121.187 522.136 121.325 521.379 121.603 520.76C121.891 520.141 122.285 519.667 122.787 519.336C123.299 519.005 123.885 518.84 124.547 518.84C125.272 518.84 125.853 519.064 126.291 519.512C126.739 519.949 127.027 520.509 127.155 521.192L126.899 521.528V515.608H129.619V527H127.187L127.011 524.28L127.331 524.52C127.267 525.053 127.101 525.517 126.835 525.912C126.579 526.307 126.248 526.616 125.843 526.84C125.448 527.053 124.995 527.16 124.483 527.16ZM125.427 525.16C125.736 525.16 125.997 525.08 126.211 524.92C126.435 524.749 126.605 524.499 126.723 524.168C126.84 523.837 126.899 523.432 126.899 522.952C126.899 522.504 126.84 522.125 126.723 521.816C126.616 521.496 126.451 521.256 126.227 521.096C126.013 520.925 125.752 520.84 125.443 520.84C124.973 520.84 124.6 521.016 124.323 521.368C124.056 521.709 123.923 522.253 123.923 523C123.923 523.747 124.056 524.296 124.323 524.648C124.589 524.989 124.957 525.16 125.427 525.16ZM135.378 518.84C136.22 518.84 136.956 519.005 137.586 519.336C138.226 519.656 138.722 520.131 139.074 520.76C139.436 521.379 139.618 522.125 139.618 523C139.618 523.875 139.436 524.627 139.074 525.256C138.722 525.875 138.226 526.349 137.586 526.68C136.956 527 136.22 527.16 135.378 527.16C134.556 527.16 133.826 527 133.186 526.68C132.546 526.349 132.044 525.875 131.682 525.256C131.33 524.627 131.154 523.875 131.154 523C131.154 522.125 131.33 521.379 131.682 520.76C132.044 520.131 132.546 519.656 133.186 519.336C133.826 519.005 134.556 518.84 135.378 518.84ZM135.378 520.776C135.068 520.776 134.802 520.851 134.578 521C134.354 521.149 134.183 521.389 134.066 521.72C133.948 522.051 133.89 522.477 133.89 523C133.89 523.523 133.948 523.949 134.066 524.28C134.183 524.6 134.354 524.84 134.578 525C134.802 525.149 135.068 525.224 135.378 525.224C135.698 525.224 135.97 525.149 136.194 525C136.418 524.84 136.588 524.6 136.706 524.28C136.823 523.949 136.882 523.523 136.882 523C136.882 522.477 136.823 522.051 136.706 521.72C136.588 521.389 136.418 521.149 136.194 521C135.97 520.851 135.698 520.776 135.378 520.776ZM143.836 515.608V524.28C143.836 524.632 143.895 524.883 144.012 525.032C144.129 525.181 144.327 525.256 144.604 525.256C144.764 525.256 144.897 525.245 145.004 525.224C145.111 525.203 145.239 525.171 145.388 525.128L145.212 526.76C145.02 526.877 144.769 526.973 144.46 527.048C144.151 527.123 143.847 527.16 143.548 527.16C142.695 527.16 142.076 526.963 141.692 526.568C141.308 526.173 141.116 525.528 141.116 524.632V515.608H143.836ZM150.19 518.84C151.033 518.84 151.769 519.005 152.398 519.336C153.038 519.656 153.534 520.131 153.886 520.76C154.249 521.379 154.43 522.125 154.43 523C154.43 523.875 154.249 524.627 153.886 525.256C153.534 525.875 153.038 526.349 152.398 526.68C151.769 527 151.033 527.16 150.19 527.16C149.369 527.16 148.638 527 147.998 526.68C147.358 526.349 146.857 525.875 146.494 525.256C146.142 524.627 145.966 523.875 145.966 523C145.966 522.125 146.142 521.379 146.494 520.76C146.857 520.131 147.358 519.656 147.998 519.336C148.638 519.005 149.369 518.84 150.19 518.84ZM150.19 520.776C149.881 520.776 149.614 520.851 149.39 521C149.166 521.149 148.996 521.389 148.878 521.72C148.761 522.051 148.702 522.477 148.702 523C148.702 523.523 148.761 523.949 148.878 524.28C148.996 524.6 149.166 524.84 149.39 525C149.614 525.149 149.881 525.224 150.19 525.224C150.51 525.224 150.782 525.149 151.006 525C151.23 524.84 151.401 524.6 151.518 524.28C151.636 523.949 151.694 523.523 151.694 523C151.694 522.477 151.636 522.051 151.518 521.72C151.401 521.389 151.23 521.149 151.006 521C150.782 520.851 150.51 520.776 150.19 520.776ZM155.96 527V519H158.36L158.472 520.728C158.675 520.131 158.974 519.667 159.368 519.336C159.774 519.005 160.286 518.84 160.904 518.84C161.107 518.84 161.278 518.856 161.416 518.888C161.566 518.92 161.683 518.963 161.768 519.016L161.496 521.256C161.39 521.213 161.251 521.181 161.08 521.16C160.92 521.128 160.723 521.112 160.488 521.112C160.168 521.112 159.87 521.181 159.592 521.32C159.315 521.459 159.091 521.667 158.92 521.944C158.76 522.211 158.68 522.552 158.68 522.968V527H155.96ZM170.524 527.16C169.724 527.16 168.977 527.032 168.284 526.776C167.601 526.509 167.036 526.131 166.588 525.64L167.868 524.136C168.134 524.477 168.486 524.765 168.924 525C169.372 525.224 169.868 525.336 170.411 525.336C170.742 525.336 171.014 525.288 171.228 525.192C171.441 525.096 171.548 524.947 171.548 524.744C171.548 524.595 171.494 524.477 171.388 524.392C171.281 524.296 171.068 524.216 170.748 524.152L169.628 523.928C168.625 523.725 167.91 523.427 167.484 523.032C167.068 522.627 166.86 522.099 166.86 521.448C166.86 521.011 166.993 520.595 167.26 520.2C167.526 519.795 167.937 519.469 168.492 519.224C169.046 518.968 169.756 518.84 170.62 518.84C171.43 518.84 172.145 518.957 172.764 519.192C173.382 519.427 173.873 519.768 174.236 520.216L172.94 521.688C172.684 521.368 172.353 521.117 171.948 520.936C171.542 520.755 171.137 520.664 170.732 520.664C170.476 520.664 170.257 520.691 170.076 520.744C169.905 520.787 169.777 520.851 169.692 520.936C169.606 521.021 169.564 521.128 169.564 521.256C169.564 521.395 169.628 521.517 169.756 521.624C169.894 521.72 170.145 521.805 170.508 521.88L171.964 522.168C172.785 522.317 173.377 522.589 173.74 522.984C174.102 523.379 174.284 523.853 174.284 524.408C174.284 524.931 174.145 525.4 173.868 525.816C173.59 526.232 173.174 526.563 172.62 526.808C172.065 527.043 171.366 527.16 170.524 527.16ZM177.055 518.072C176.5 518.072 176.095 517.971 175.839 517.768C175.593 517.555 175.471 517.224 175.471 516.776C175.471 516.317 175.593 515.987 175.839 515.784C176.095 515.571 176.5 515.464 177.055 515.464C177.599 515.464 177.999 515.571 178.255 515.784C178.511 515.987 178.639 516.317 178.639 516.776C178.639 517.224 178.511 517.555 178.255 517.768C177.999 517.971 177.599 518.072 177.055 518.072ZM178.415 519V527H175.695V519H178.415ZM183.695 516.456V524.152C183.695 524.536 183.786 524.813 183.967 524.984C184.159 525.144 184.42 525.224 184.751 525.224C185.007 525.224 185.226 525.197 185.407 525.144C185.599 525.08 185.77 524.989 185.919 524.872L186.207 526.552C185.94 526.744 185.604 526.893 185.199 527C184.794 527.107 184.378 527.16 183.951 527.16C183.343 527.16 182.815 527.075 182.367 526.904C181.93 526.733 181.588 526.461 181.343 526.088C181.108 525.715 180.986 525.219 180.975 524.6V517.208L183.695 516.456ZM186.079 519V520.936H179.599V519H186.079ZM196.378 521.928C196.378 521.555 196.271 521.261 196.058 521.048C195.855 520.824 195.578 520.712 195.226 520.712C194.874 520.712 194.57 520.803 194.314 520.984C194.068 521.155 193.898 521.464 193.802 521.912L191.498 521.368C191.647 520.6 192.042 519.987 192.682 519.528C193.322 519.069 194.223 518.84 195.386 518.84C196.164 518.84 196.826 518.957 197.37 519.192C197.924 519.416 198.346 519.757 198.634 520.216C198.932 520.664 199.082 521.219 199.082 521.88V524.808C199.082 525.224 199.268 525.432 199.642 525.432C199.834 525.432 199.988 525.411 200.106 525.368L199.946 526.92C199.626 527.069 199.236 527.144 198.778 527.144C198.362 527.144 197.994 527.08 197.674 526.952C197.354 526.813 197.103 526.611 196.922 526.344C196.74 526.067 196.65 525.72 196.65 525.304V525.208L196.954 525.096C196.954 525.555 196.815 525.939 196.538 526.248C196.271 526.557 195.919 526.787 195.482 526.936C195.055 527.085 194.607 527.16 194.138 527.16C193.594 527.16 193.119 527.075 192.714 526.904C192.308 526.733 191.994 526.488 191.77 526.168C191.556 525.837 191.45 525.432 191.45 524.952C191.45 524.376 191.62 523.901 191.962 523.528C192.314 523.144 192.863 522.877 193.61 522.728L196.634 522.104L196.618 523.544L195.082 523.864C194.762 523.928 194.522 524.024 194.362 524.152C194.212 524.269 194.138 524.451 194.138 524.696C194.138 524.931 194.223 525.107 194.394 525.224C194.564 525.341 194.767 525.4 195.002 525.4C195.183 525.4 195.354 525.373 195.514 525.32C195.684 525.267 195.834 525.187 195.962 525.08C196.09 524.963 196.191 524.819 196.266 524.648C196.34 524.477 196.378 524.275 196.378 524.04V521.928ZM201.179 527V519H203.611L203.691 520.552C203.947 519.987 204.304 519.56 204.763 519.272C205.232 518.984 205.771 518.84 206.379 518.84C206.976 518.84 207.494 518.973 207.931 519.24C208.368 519.507 208.694 519.901 208.907 520.424C209.078 520.072 209.296 519.779 209.563 519.544C209.84 519.309 210.155 519.133 210.507 519.016C210.859 518.899 211.222 518.84 211.595 518.84C212.128 518.84 212.598 518.947 213.003 519.16C213.408 519.363 213.728 519.677 213.963 520.104C214.208 520.52 214.331 521.043 214.331 521.672V527H211.611V522.296C211.611 521.784 211.51 521.427 211.307 521.224C211.115 521.021 210.854 520.92 210.523 520.92C210.256 520.92 210.011 520.989 209.787 521.128C209.574 521.256 209.408 521.453 209.291 521.72C209.174 521.987 209.115 522.323 209.115 522.728V527H206.395V522.296C206.395 521.784 206.294 521.427 206.091 521.224C205.888 521.021 205.627 520.92 205.307 520.92C205.062 520.92 204.827 520.984 204.603 521.112C204.39 521.24 204.219 521.443 204.091 521.72C203.963 521.987 203.899 522.339 203.899 522.776V527H201.179ZM220.146 527.16C219.26 527.16 218.492 526.995 217.842 526.664C217.202 526.333 216.706 525.859 216.354 525.24C216.002 524.621 215.826 523.875 215.826 523C215.826 522.125 216.002 521.379 216.354 520.76C216.706 520.141 217.196 519.667 217.826 519.336C218.466 519.005 219.196 518.84 220.018 518.84C220.86 518.84 221.575 519.005 222.162 519.336C222.759 519.656 223.212 520.104 223.522 520.68C223.831 521.245 223.986 521.896 223.986 522.632C223.986 522.824 223.98 523.016 223.97 523.208C223.959 523.4 223.943 523.56 223.922 523.688H217.586V522.232H222.722L221.426 522.728C221.426 522.088 221.308 521.597 221.074 521.256C220.85 520.915 220.498 520.744 220.018 520.744C219.676 520.744 219.383 520.824 219.138 520.984C218.903 521.144 218.722 521.395 218.594 521.736C218.476 522.077 218.418 522.515 218.418 523.048C218.418 523.571 218.487 523.997 218.626 524.328C218.764 524.648 218.962 524.883 219.218 525.032C219.474 525.171 219.783 525.24 220.146 525.24C220.551 525.24 220.871 525.16 221.106 525C221.351 524.84 221.532 524.616 221.65 524.328L223.826 525.048C223.676 525.507 223.415 525.896 223.042 526.216C222.679 526.525 222.242 526.76 221.73 526.92C221.228 527.08 220.7 527.16 220.146 527.16ZM228.758 516.456V524.152C228.758 524.536 228.848 524.813 229.03 524.984C229.222 525.144 229.483 525.224 229.814 525.224C230.07 525.224 230.288 525.197 230.47 525.144C230.662 525.08 230.832 524.989 230.982 524.872L231.27 526.552C231.003 526.744 230.667 526.893 230.262 527C229.856 527.107 229.44 527.16 229.014 527.16C228.406 527.16 227.878 527.075 227.43 526.904C226.992 526.733 226.651 526.461 226.406 526.088C226.171 525.715 226.048 525.219 226.038 524.6V517.208L228.758 516.456ZM231.142 519V520.936H224.662V519H231.142Z" fill="#61646B"/>
<path d="M162.904 85.728H158.248L157.448 88H155.544L159.528 76.864H161.64L165.624 88H163.704L162.904 85.728ZM162.392 84.24L160.584 79.072L158.76 84.24H162.392ZM166.748 83.552C166.748 82.6667 166.93 81.8827 167.292 81.2C167.666 80.5173 168.167 79.9893 168.796 79.616C169.436 79.232 170.146 79.04 170.924 79.04C171.5 79.04 172.066 79.168 172.62 79.424C173.186 79.6693 173.634 80 173.964 80.416V76.16H175.804V88H173.964V86.672C173.666 87.0987 173.25 87.4507 172.716 87.728C172.194 88.0053 171.591 88.144 170.908 88.144C170.14 88.144 169.436 87.952 168.796 87.568C168.167 87.1733 167.666 86.6293 167.292 85.936C166.93 85.232 166.748 84.4373 166.748 83.552ZM173.964 83.584C173.964 82.976 173.836 82.448 173.58 82C173.335 81.552 173.01 81.2107 172.604 80.976C172.199 80.7413 171.762 80.624 171.292 80.624C170.823 80.624 170.386 80.7413 169.98 80.976C169.575 81.2 169.244 81.536 168.988 81.984C168.743 82.4213 168.62 82.944 168.62 83.552C168.62 84.16 168.743 84.6933 168.988 85.152C169.244 85.6107 169.575 85.9627 169.98 86.208C170.396 86.4427 170.834 86.56 171.292 86.56C171.762 86.56 172.199 86.4427 172.604 86.208C173.01 85.9733 173.335 85.632 173.58 85.184C173.836 84.7253 173.964 84.192 173.964 83.584ZM177.592 83.552C177.592 82.6667 177.773 81.8827 178.136 81.2C178.509 80.5173 179.011 79.9893 179.64 79.616C180.28 79.232 180.989 79.04 181.768 79.04C182.344 79.04 182.909 79.168 183.464 79.424C184.029 79.6693 184.477 80 184.808 80.416V76.16H186.648V88H184.808V86.672C184.509 87.0987 184.093 87.4507 183.56 87.728C183.037 88.0053 182.435 88.144 181.752 88.144C180.984 88.144 180.28 87.952 179.64 87.568C179.011 87.1733 178.509 86.6293 178.136 85.936C177.773 85.232 177.592 84.4373 177.592 83.552ZM184.808 83.584C184.808 82.976 184.68 82.448 184.424 82C184.179 81.552 183.853 81.2107 183.448 80.976C183.043 80.7413 182.605 80.624 182.136 80.624C181.667 80.624 181.229 80.7413 180.824 80.976C180.419 81.2 180.088 81.536 179.832 81.984C179.587 82.4213 179.464 82.944 179.464 83.552C179.464 84.16 179.587 84.6933 179.832 85.152C180.088 85.6107 180.419 85.9627 180.824 86.208C181.24 86.4427 181.677 86.56 182.136 86.56C182.605 86.56 183.043 86.4427 183.448 86.208C183.853 85.9733 184.179 85.632 184.424 85.184C184.68 84.7253 184.808 84.192 184.808 83.584ZM195.024 86.528H198.784V88H193.2V76.88H195.024V86.528ZM201.237 78.016C200.907 78.016 200.629 77.904 200.405 77.68C200.181 77.456 200.069 77.1787 200.069 76.848C200.069 76.5173 200.181 76.24 200.405 76.016C200.629 75.792 200.907 75.68 201.237 75.68C201.557 75.68 201.829 75.792 202.053 76.016C202.277 76.24 202.389 76.5173 202.389 76.848C202.389 77.1787 202.277 77.456 202.053 77.68C201.829 77.904 201.557 78.016 201.237 78.016ZM202.133 79.184V88H200.309V79.184H202.133ZM206.352 80.496C206.661 80.0693 207.083 79.7227 207.616 79.456C208.16 79.1787 208.763 79.04 209.424 79.04C210.203 79.04 210.907 79.2267 211.536 79.6C212.165 79.9733 212.661 80.5067 213.024 81.2C213.387 81.8827 213.568 82.6667 213.568 83.552C213.568 84.4373 213.387 85.232 213.024 85.936C212.661 86.6293 212.16 87.1733 211.52 87.568C210.891 87.952 210.192 88.144 209.424 88.144C208.741 88.144 208.133 88.0107 207.6 87.744C207.077 87.4773 206.661 87.136 206.352 86.72V88H204.528V76.16H206.352V80.496ZM211.712 83.552C211.712 82.944 211.584 82.4213 211.328 81.984C211.083 81.536 210.752 81.2 210.336 80.976C209.931 80.7413 209.493 80.624 209.024 80.624C208.565 80.624 208.128 80.7413 207.712 80.976C207.307 81.2107 206.976 81.552 206.72 82C206.475 82.448 206.352 82.976 206.352 83.584C206.352 84.192 206.475 84.7253 206.72 85.184C206.976 85.632 207.307 85.9733 207.712 86.208C208.128 86.4427 208.565 86.56 209.024 86.56C209.493 86.56 209.931 86.4427 210.336 86.208C210.752 85.9627 211.083 85.6107 211.328 85.152C211.584 84.6933 211.712 84.16 211.712 83.552ZM217.196 80.464C217.463 80.016 217.815 79.6693 218.252 79.424C218.7 79.168 219.228 79.04 219.836 79.04V80.928H219.372C218.657 80.928 218.113 81.1093 217.74 81.472C217.377 81.8347 217.196 82.464 217.196 83.36V88H215.372V79.184H217.196V80.464ZM220.905 83.552C220.905 82.6667 221.086 81.8827 221.449 81.2C221.822 80.5173 222.323 79.9893 222.953 79.616C223.593 79.232 224.297 79.04 225.065 79.04C225.758 79.04 226.361 79.1787 226.873 79.456C227.395 79.7227 227.811 80.0587 228.121 80.464V79.184H229.961V88H228.121V86.688C227.811 87.104 227.39 87.4507 226.857 87.728C226.323 88.0053 225.715 88.144 225.033 88.144C224.275 88.144 223.582 87.952 222.953 87.568C222.323 87.1733 221.822 86.6293 221.449 85.936C221.086 85.232 220.905 84.4373 220.905 83.552ZM228.121 83.584C228.121 82.976 227.993 82.448 227.737 82C227.491 81.552 227.166 81.2107 226.761 80.976C226.355 80.7413 225.918 80.624 225.449 80.624C224.979 80.624 224.542 80.7413 224.137 80.976C223.731 81.2 223.401 81.536 223.145 81.984C222.899 82.4213 222.777 82.944 222.777 83.552C222.777 84.16 222.899 84.6933 223.145 85.152C223.401 85.6107 223.731 85.9627 224.137 86.208C224.553 86.4427 224.99 86.56 225.449 86.56C225.918 86.56 226.355 86.4427 226.761 86.208C227.166 85.9733 227.491 85.632 227.737 85.184C227.993 84.7253 228.121 84.192 228.121 83.584ZM234.18 80.464C234.447 80.016 234.799 79.6693 235.236 79.424C235.684 79.168 236.212 79.04 236.82 79.04V80.928H236.356C235.642 80.928 235.098 81.1093 234.724 81.472C234.362 81.8347 234.18 82.464 234.18 83.36V88H232.356V79.184H234.18V80.464ZM246.433 79.184L241.025 92.144H239.137L240.929 87.856L237.457 79.184H239.489L241.969 85.904L244.545 79.184H246.433Z" fill="black"/>
<rect x="44" y="92" width="28" height="28" rx="6" transform="rotate(180 44 92)" fill="#CFCFCF"/>
<path d="M32.25 82.5L27.75 78L32.25 73.5" stroke="black" stroke-width="1.5" stroke-linecap="round" stroke-linejoin="round"/>
</svg>
