<svg width="402" height="874" viewBox="0 0 402 874" fill="none" xmlns="http://www.w3.org/2000/svg">
<rect width="402" height="874" rx="16" fill="white"/>
<mask id="mask0_201_8207" style="mask-type:luminance" maskUnits="userSpaceOnUse" x="160" y="366" width="82" height="82">
<path fill-rule="evenodd" clip-rule="evenodd" d="M160.585 366.607H241.228V447.254H160.585V366.607Z" fill="white"/>
</mask>
<g mask="url(#mask0_201_8207)">
<path fill-rule="evenodd" clip-rule="evenodd" d="M183.424 372.669C173.235 372.669 166.647 379.657 166.647 390.469V423.392C166.647 434.208 173.235 441.192 183.424 441.192H218.369C228.574 441.192 235.166 434.208 235.166 423.392V390.469C235.174 384.96 233.493 380.361 230.308 377.172C227.365 374.225 223.247 372.669 218.389 372.669H183.424ZM218.369 447.254H183.424C169.764 447.254 160.585 437.663 160.585 423.392V390.469C160.585 376.198 169.764 366.607 183.424 366.607H218.389C224.888 366.607 230.494 368.777 234.596 372.888C238.884 377.18 241.236 383.424 241.228 390.473V423.392C241.228 437.663 232.042 447.254 218.369 447.254Z" fill="#696B6E"/>
</g>
<path fill-rule="evenodd" clip-rule="evenodd" d="M188.295 389.602C185.853 389.602 183.869 391.586 183.869 394.032C183.869 396.473 185.853 398.457 188.299 398.457C190.74 398.457 192.728 396.473 192.728 394.036C192.724 391.59 190.736 389.606 188.295 389.602ZM188.299 404.52C182.511 404.52 177.806 399.815 177.806 394.032C177.806 388.244 182.511 383.539 188.299 383.539C194.082 383.543 198.787 388.248 198.791 394.028V394.032C198.791 399.815 194.086 404.52 188.299 404.52Z" fill="#696B6E"/>
<path fill-rule="evenodd" clip-rule="evenodd" d="M167.652 439.807C167.151 439.807 166.642 439.681 166.173 439.419C164.71 438.598 164.197 436.751 165.013 435.292C165.256 434.856 171.055 424.602 177.437 419.348C182.497 415.185 187.945 417.472 192.335 419.319C194.917 420.407 197.358 421.433 199.703 421.433C201.853 421.433 204.549 417.634 206.933 414.284C210.243 409.611 214.002 404.325 219.507 404.325C228.277 404.325 235.847 412.15 239.917 416.353L240.386 416.838C241.55 418.038 241.522 419.958 240.321 421.126C239.129 422.294 237.209 422.266 236.037 421.061L235.56 420.568C232.117 417.008 225.707 410.387 219.507 410.387C217.13 410.387 214.342 414.32 211.872 417.792C208.485 422.561 204.981 427.496 199.703 427.496C196.134 427.496 192.864 426.122 189.982 424.905C185.399 422.973 183.322 422.355 181.289 424.028C175.776 428.571 170.352 438.166 170.3 438.259C169.746 439.249 168.715 439.807 167.652 439.807Z" fill="#696B6E"/>
<rect width="106" height="36" transform="translate(148 479.523)" fill="white"/>
<path d="M170.587 488.843V505.523H167.851V494.099L162.763 505.523H160.867L155.755 494.099V505.523H153.019V488.843H155.971L161.827 501.923L167.659 488.843H170.587ZM179.919 505.739C178.671 505.739 177.543 505.459 176.535 504.899C175.527 504.323 174.735 503.523 174.159 502.499C173.583 501.459 173.295 500.259 173.295 498.899C173.295 497.555 173.591 496.363 174.183 495.323C174.775 494.283 175.583 493.483 176.607 492.923C177.631 492.363 178.775 492.083 180.039 492.083C181.303 492.083 182.447 492.363 183.471 492.923C184.495 493.483 185.303 494.283 185.895 495.323C186.487 496.363 186.783 497.555 186.783 498.899C186.783 500.243 186.479 501.435 185.871 502.475C185.263 503.515 184.431 504.323 183.375 504.899C182.335 505.459 181.183 505.739 179.919 505.739ZM179.919 503.363C180.623 503.363 181.279 503.195 181.887 502.859C182.511 502.523 183.015 502.019 183.399 501.347C183.783 500.675 183.975 499.859 183.975 498.899C183.975 497.939 183.791 497.131 183.423 496.475C183.055 495.803 182.567 495.299 181.959 494.963C181.351 494.627 180.695 494.459 179.991 494.459C179.287 494.459 178.631 494.627 178.023 494.963C177.431 495.299 176.959 495.803 176.607 496.475C176.255 497.131 176.079 497.939 176.079 498.899C176.079 500.323 176.439 501.427 177.159 502.211C177.895 502.979 178.815 503.363 179.919 503.363ZM194.6 503.075L198.344 492.299H201.247L196.208 505.523H192.944L187.928 492.299H190.855L194.6 503.075ZM213.372 502.115H206.388L205.188 505.523H202.332L208.308 488.819H211.476L217.452 505.523H214.572L213.372 502.115ZM212.604 499.883L209.892 492.131L207.156 499.883H212.604ZM222.786 494.243C223.25 493.635 223.882 493.123 224.682 492.707C225.482 492.291 226.386 492.083 227.394 492.083C228.546 492.083 229.594 492.371 230.538 492.947C231.498 493.507 232.25 494.299 232.794 495.323C233.338 496.347 233.61 497.523 233.61 498.851C233.61 500.179 233.338 501.371 232.794 502.427C232.25 503.467 231.498 504.283 230.538 504.875C229.594 505.451 228.546 505.739 227.394 505.739C226.386 505.739 225.49 505.539 224.706 505.139C223.922 504.723 223.282 504.211 222.786 503.603V511.811H220.05V492.299H222.786V494.243ZM230.826 498.851C230.826 497.939 230.634 497.155 230.25 496.499C229.882 495.827 229.386 495.323 228.762 494.987C228.154 494.635 227.498 494.459 226.794 494.459C226.106 494.459 225.45 494.635 224.826 494.987C224.218 495.339 223.722 495.851 223.338 496.523C222.97 497.195 222.786 497.987 222.786 498.899C222.786 499.811 222.97 500.611 223.338 501.299C223.722 501.971 224.218 502.483 224.826 502.835C225.45 503.187 226.106 503.363 226.794 503.363C227.498 503.363 228.154 503.187 228.762 502.835C229.386 502.467 229.882 501.939 230.25 501.251C230.634 500.563 230.826 499.763 230.826 498.851ZM239.052 494.243C239.516 493.635 240.148 493.123 240.948 492.707C241.748 492.291 242.652 492.083 243.66 492.083C244.812 492.083 245.86 492.371 246.804 492.947C247.764 493.507 248.516 494.299 249.06 495.323C249.604 496.347 249.876 497.523 249.876 498.851C249.876 500.179 249.604 501.371 249.06 502.427C248.516 503.467 247.764 504.283 246.804 504.875C245.86 505.451 244.812 505.739 243.66 505.739C242.652 505.739 241.756 505.539 240.972 505.139C240.188 504.723 239.548 504.211 239.052 503.603V511.811H236.316V492.299H239.052V494.243ZM247.092 498.851C247.092 497.939 246.9 497.155 246.516 496.499C246.148 495.827 245.652 495.323 245.028 494.987C244.42 494.635 243.764 494.459 243.06 494.459C242.372 494.459 241.716 494.635 241.092 494.987C240.484 495.339 239.988 495.851 239.604 496.523C239.236 497.195 239.052 497.987 239.052 498.899C239.052 499.811 239.236 500.611 239.604 501.299C239.988 501.971 240.484 502.483 241.092 502.835C241.716 503.187 242.372 503.363 243.06 503.363C243.764 503.363 244.42 503.187 245.028 502.835C245.652 502.467 246.148 501.939 246.516 501.251C246.9 500.563 247.092 499.763 247.092 498.851Z" fill="#696B6E"/>
</svg>
